<svg width="70" height="64" viewBox="0 0 70 64" fill="none" xmlns="http://www.w3.org/2000/svg">
<path d="M70 27.5508L63.2333 21.3811L55.65 28.2955C55.3 28.6146 54.7167 28.6146 54.4833 28.2955L38.9667 14.1477C38.6167 13.8286 38.6167 13.2967 38.9667 13.084L46.55 6.16968L39.7833 0L0 36.2735L6.76667 42.4432L14.1167 35.7416C14.4667 35.4225 15.05 35.4225 15.2833 35.7416L30.6833 49.783C31.0333 50.1021 31.0333 50.634 30.6833 50.8467L23.3333 57.5483L30.1 63.7179L70 27.5508ZM61.0167 27.5508C60.6667 27.2317 60.6667 26.8062 61.0167 26.5935L63.35 24.466C63.7 24.1469 64.1667 24.1469 64.4 24.466L66.7333 26.5935C67.0833 26.9126 67.0833 27.3381 66.7333 27.5508L64.4 29.6783C64.05 29.9974 63.5833 29.9974 63.35 29.6783L61.0167 27.5508ZM37.45 6.06331C37.1 5.74419 37.1 5.31869 37.45 5.10595L39.7833 2.97847C40.1333 2.65935 40.6 2.65935 40.8333 2.97847L43.1667 5.10595C43.5167 5.42507 43.5167 5.85056 43.1667 6.06331L40.8333 8.19079C40.4833 8.50991 40.0167 8.50991 39.7833 8.19079L37.45 6.06331ZM8.86667 36.2735C9.21667 36.5926 9.21667 37.0181 8.86667 37.2309L6.53333 39.3583C6.18333 39.6775 5.71667 39.6775 5.48333 39.3583L3.15 37.2309C2.8 36.9117 2.8 36.4862 3.15 36.2735L5.48333 34.146C5.83333 33.8269 6.3 33.8269 6.53333 34.146L8.86667 36.2735ZM46.2 45.2089C46.55 45.528 46.55 45.9535 46.2 46.1663L43.8667 48.2937C43.5167 48.6129 43.05 48.6129 42.8167 48.2937L40.4833 46.1663C40.1333 45.8471 40.1333 45.4216 40.4833 45.2089L42.8167 43.0814C43.1667 42.7623 43.6333 42.7623 43.8667 43.0814L46.2 45.2089ZM52.9667 38.9328C53.3167 39.252 53.3167 39.6775 52.9667 39.8902L50.6333 42.0177C50.2833 42.3368 49.8167 42.3368 49.5833 42.0177L47.25 39.8902C46.9 39.5711 46.9 39.1456 47.25 38.9328L49.5833 36.8054C49.9333 36.4862 50.4 36.4862 50.6333 36.8054L52.9667 38.9328ZM30.5667 12.233C30.2167 11.9139 30.2167 11.4884 30.5667 11.2756L32.9 9.14815C33.25 8.82903 33.7167 8.82903 33.95 9.14815L36.2833 11.2756C36.6333 11.5948 36.6333 12.0202 36.2833 12.233L33.95 14.3605C33.6 14.6796 33.1333 14.6796 32.9 14.3605L30.5667 12.233ZM54.1333 33.7205C53.7833 33.4014 53.7833 32.9759 54.1333 32.7632L56.4667 30.6357C56.8167 30.3166 57.2833 30.3166 57.5167 30.6357L59.85 32.7632C60.2 33.0823 60.2 33.5078 59.85 33.7205L57.5167 35.848C57.1667 36.1671 56.7 36.1671 56.4667 35.848L54.1333 33.7205ZM23.8 18.5091C23.45 18.1899 23.45 17.7644 23.8 17.5517L26.1333 15.4242C26.4833 15.1051 26.95 15.1051 27.1833 15.4242L29.5167 17.5517C29.8667 17.8708 29.8667 18.2963 29.5167 18.5091L27.1833 20.6365C26.8333 20.9557 26.3667 20.9557 26.1333 20.6365L23.8 18.5091ZM16.9167 24.7851C16.5667 24.466 16.5667 24.0405 16.9167 23.8277L19.25 21.7003C19.6 21.3811 20.0667 21.3811 20.3 21.7003L22.6333 23.8277C22.9833 24.1469 22.9833 24.5724 22.6333 24.7851L20.3 26.9126C19.95 27.2317 19.4833 27.2317 19.25 26.9126L16.9167 24.7851ZM19.0167 32.444C18.6667 32.1249 18.6667 31.593 19.0167 31.3803L34.4167 17.3389C34.7667 17.0198 35.35 17.0198 35.5833 17.3389L50.9833 31.3803C51.3333 31.6994 51.3333 32.2313 50.9833 32.444L35.5833 46.4854C35.2333 46.8045 34.65 46.8045 34.4167 46.4854L19.0167 32.444ZM10.0333 30.9548C9.68333 30.6357 9.68333 30.2102 10.0333 29.9974L12.3667 27.87C12.7167 27.5508 13.1833 27.5508 13.4167 27.87L15.75 29.9974C16.1 30.3166 16.1 30.742 15.75 30.9548L13.4167 33.0823C13.0667 33.4014 12.6 33.4014 12.3667 33.0823L10.0333 30.9548ZM33.6 52.4423C33.25 52.1232 33.25 51.6977 33.6 51.485L35.9333 49.3575C36.2833 49.0384 36.75 49.0384 36.9833 49.3575L39.3167 51.485C39.6667 51.8041 39.6667 52.2296 39.3167 52.4423L36.9833 54.5698C36.6333 54.8889 36.1667 54.8889 35.9333 54.5698L33.6 52.4423ZM26.7167 58.7184C26.3667 58.3993 26.3667 57.9738 26.7167 57.761L29.05 55.6335C29.4 55.3144 29.8667 55.3144 30.1 55.6335L32.4333 57.761C32.7833 58.0801 32.7833 58.5056 32.4333 58.7184L30.1 60.8459C29.75 61.165 29.2833 61.165 29.05 60.8459L26.7167 58.7184Z" fill="#FFFCFC"/>
</svg>
