<svg width="33" height="30" viewBox="0 0 33 30" fill="none" xmlns="http://www.w3.org/2000/svg">
<path d="M32.9577 12.9716L29.7718 10.0668L26.2014 13.3222C26.0366 13.4725 25.762 13.4725 25.6521 13.3222L18.3465 6.6611C18.1817 6.51085 18.1817 6.26043 18.3465 6.16027L21.9169 2.90484L18.731 0L0 17.0785L3.18592 19.9833L6.64648 16.828C6.81127 16.6778 7.08592 16.6778 7.19578 16.828L14.4465 23.4391C14.6113 23.5893 14.6113 23.8397 14.4465 23.9399L10.9859 27.0952L14.1718 30L32.9577 12.9716ZM28.7282 12.9716C28.5634 12.8214 28.5634 12.621 28.7282 12.5209L29.8268 11.5192C29.9915 11.3689 30.2113 11.3689 30.3211 11.5192L31.4197 12.5209C31.5845 12.6711 31.5845 12.8715 31.4197 12.9716L30.3211 13.9733C30.1563 14.1235 29.9366 14.1235 29.8268 13.9733L28.7282 12.9716ZM17.6324 2.85476C17.4676 2.70451 17.4676 2.50417 17.6324 2.40401L18.731 1.40234C18.8958 1.25209 19.1155 1.25209 19.2254 1.40234L20.3239 2.40401C20.4887 2.55426 20.4887 2.75459 20.3239 2.85476L19.2254 3.85643C19.0606 4.00668 18.8408 4.00668 18.731 3.85643L17.6324 2.85476ZM4.17465 17.0785C4.33944 17.2287 4.33944 17.429 4.17465 17.5292L3.07606 18.5309C2.91127 18.6811 2.69155 18.6811 2.58169 18.5309L1.4831 17.5292C1.31831 17.379 1.31831 17.1786 1.4831 17.0785L2.58169 16.0768C2.74648 15.9265 2.9662 15.9265 3.07606 16.0768L4.17465 17.0785ZM21.7521 21.2855C21.9169 21.4357 21.9169 21.6361 21.7521 21.7362L20.6535 22.7379C20.4887 22.8881 20.269 22.8881 20.1592 22.7379L19.0606 21.7362C18.8958 21.586 18.8958 21.3856 19.0606 21.2855L20.1592 20.2838C20.3239 20.1336 20.5437 20.1336 20.6535 20.2838L21.7521 21.2855ZM24.938 18.3305C25.1028 18.4808 25.1028 18.6811 24.938 18.7813L23.8394 19.783C23.6746 19.9332 23.4549 19.9332 23.3451 19.783L22.2465 18.7813C22.0817 18.6311 22.0817 18.4307 22.2465 18.3305L23.3451 17.3289C23.5099 17.1786 23.7296 17.1786 23.8394 17.3289L24.938 18.3305ZM14.3916 5.7596C14.2268 5.60935 14.2268 5.40902 14.3916 5.30885L15.4901 4.30718C15.6549 4.15693 15.8746 4.15693 15.9845 4.30718L17.0831 5.30885C17.2479 5.4591 17.2479 5.65943 17.0831 5.7596L15.9845 6.76127C15.8197 6.91152 15.6 6.91152 15.4901 6.76127L14.3916 5.7596ZM25.4873 15.8765C25.3225 15.7262 25.3225 15.5259 25.4873 15.4257L26.5859 14.424C26.7507 14.2738 26.9704 14.2738 27.0803 14.424L28.1789 15.4257C28.3437 15.576 28.3437 15.7763 28.1789 15.8765L27.0803 16.8781C26.9155 17.0284 26.6958 17.0284 26.5859 16.8781L25.4873 15.8765ZM11.2056 8.71452C11.0408 8.56427 11.0408 8.36394 11.2056 8.26377L12.3042 7.2621C12.469 7.11185 12.6887 7.11185 12.7986 7.2621L13.8972 8.26377C14.062 8.41402 14.062 8.61436 13.8972 8.71452L12.7986 9.71619C12.6338 9.86644 12.4141 9.86644 12.3042 9.71619L11.2056 8.71452ZM7.96479 11.6694C7.8 11.5192 7.8 11.3189 7.96479 11.2187L9.06338 10.217C9.22817 10.0668 9.44789 10.0668 9.55775 10.217L10.6563 11.2187C10.8211 11.3689 10.8211 11.5693 10.6563 11.6694L9.55775 12.6711C9.39296 12.8214 9.17324 12.8214 9.06338 12.6711L7.96479 11.6694ZM8.95352 15.2755C8.78873 15.1252 8.78873 14.8748 8.95352 14.7746L16.2042 8.16361C16.369 8.01336 16.6437 8.01336 16.7535 8.16361L24.0042 14.7746C24.169 14.9249 24.169 15.1753 24.0042 15.2755L16.7535 21.8865C16.5887 22.0367 16.3141 22.0367 16.2042 21.8865L8.95352 15.2755ZM4.72394 14.5743C4.55915 14.424 4.55915 14.2237 4.72394 14.1235L5.82254 13.1219C5.98732 12.9716 6.20704 12.9716 6.3169 13.1219L7.41549 14.1235C7.58028 14.2738 7.58028 14.4741 7.41549 14.5743L6.3169 15.576C6.15211 15.7262 5.93239 15.7262 5.82254 15.576L4.72394 14.5743ZM15.8197 24.6912C15.6549 24.5409 15.6549 24.3406 15.8197 24.2404L16.9183 23.2387C17.0831 23.0885 17.3028 23.0885 17.4127 23.2387L18.5113 24.2404C18.6761 24.3907 18.6761 24.591 18.5113 24.6912L17.4127 25.6928C17.2479 25.8431 17.0282 25.8431 16.9183 25.6928L15.8197 24.6912ZM12.5789 27.6461C12.4141 27.4958 12.4141 27.2955 12.5789 27.1953L13.6775 26.1937C13.8423 26.0434 14.062 26.0434 14.1718 26.1937L15.2704 27.1953C15.4352 27.3456 15.4352 27.5459 15.2704 27.6461L14.1718 28.6477C14.007 28.798 13.7873 28.798 13.6775 28.6477L12.5789 27.6461Z" fill="#FFFCFC"/>
</svg>
