<svg width="10" height="15" viewBox="0 0 10 15" fill="none" xmlns="http://www.w3.org/2000/svg">
<path d="M1.25549 14.2032C1.46049 14.4078 1.7385 14.5228 2.02838 14.5228C2.31825 14.5228 2.59626 14.4078 2.80127 14.2032L8.74609 8.27382C8.95103 8.06913 9.06616 7.79153 9.06616 7.50209C9.06616 7.21265 8.95103 6.93506 8.74609 6.73036L2.80127 0.796638C2.596 0.591962 2.3177 0.47709 2.02761 0.477295C1.73751 0.4775 1.45938 0.592764 1.25439 0.797729C1.04941 1.0027 0.934366 1.28057 0.934571 1.57023C0.934776 1.85989 1.05021 2.13761 1.25549 2.34229L6.42632 7.501L1.25549 12.6597C1.05054 12.8644 0.935412 13.142 0.935412 13.4314C0.935412 13.7209 1.05054 13.9985 1.25549 14.2032Z" fill="#010A3D"/>
</svg>
