<svg width="20" height="36" viewBox="0 0 20 36" fill="none" xmlns="http://www.w3.org/2000/svg">
<path d="M0.789305 34.6152C1.29352 35.1225 1.9773 35.4074 2.69027 35.4074C3.40323 35.4074 4.08701 35.1225 4.59123 34.6152L19.2128 19.918C19.7168 19.4106 20 18.7225 20 18.0051C20 17.2877 19.7168 16.5996 19.2128 16.0922L4.59123 1.38415C4.08635 0.876817 3.40187 0.592084 2.68837 0.592591C1.97486 0.593098 1.29078 0.878805 0.786618 1.38686C0.282452 1.89491 -0.000503564 2.58369 6.72773e-07 3.30168C0.00050491 4.01967 0.284426 4.70805 0.789305 5.21538L13.5072 18.0024L0.789305 30.7894C0.285238 31.2968 0.00206948 31.9849 0.00206948 32.7023C0.00206948 33.4198 0.285238 34.1078 0.789305 34.6152Z" fill="#010A3D"/>
</svg>
