<svg width="30" height="30" viewBox="0 0 30 30" fill="none" xmlns="http://www.w3.org/2000/svg">
<path fill-rule="evenodd" clip-rule="evenodd" d="M22.6797 24.8687C21.169 26.0344 18.9868 25.7647 17.8096 24.2583C16.645 22.7472 16.9152 20.5657 18.4211 19.4C19.9317 18.2217 22.114 18.493 23.2817 20.001C24.459 21.5089 24.1872 23.6936 22.6797 24.8687ZM26.8972 11.1582C27.4866 12.9848 26.4816 14.9376 24.6644 15.5244C22.8377 16.1127 20.8846 15.1064 20.2999 13.2924C19.7105 11.4627 20.7155 9.51303 22.5327 8.92625C24.3594 8.33789 26.3078 9.34425 26.8972 11.1582ZM2.76942 12.3744C3.17552 10.5083 5.01485 9.31901 6.89052 9.71178C8.76619 10.1172 9.95765 11.9564 9.55154 13.8334C9.1486 15.7089 7.30611 16.9014 5.43044 16.496C3.56741 16.0907 2.37595 14.2514 2.76942 12.3744ZM13.9808 2.53789C15.8833 2.38804 17.5631 3.79979 17.71 5.71314C17.8696 7.61545 16.449 9.29693 14.5465 9.45624C12.6329 9.60294 10.9642 8.19119 10.8046 6.27784C10.6577 4.37868 12.0688 2.69879 13.9808 2.53947V2.53789ZM8.35219 25.5927C6.7325 24.5769 6.24265 22.4285 7.26028 20.8117C8.27792 19.1918 10.4112 18.6996 12.0435 19.7186C13.6632 20.7376 14.153 22.8702 13.1338 24.4902C12.1162 26.1212 9.97029 26.6117 8.35061 25.5927H8.35219ZM14.6334 12.3823C16.0808 12.1772 17.4177 13.193 17.6136 14.6411C17.8238 16.0891 16.8046 17.4141 15.3682 17.6223C13.9207 17.8179 12.5839 16.8115 12.388 15.3635C12.1778 13.9155 13.197 12.581 14.6334 12.3807V12.3823ZM12.9394 0.14502C21.1469 -0.996997 28.727 4.73044 29.8553 12.9359C30.9962 21.1383 25.268 28.7191 17.0606 29.858C8.8531 30.9874 1.27299 25.2583 0.144739 17.056C-0.99615 8.85053 4.732 1.28231 12.9394 0.143446V0.14502Z" fill="#FCFCFC"/>
</svg>
