<svg width="50" height="50" viewBox="0 0 50 50" fill="none" xmlns="http://www.w3.org/2000/svg">
<path fill-rule="evenodd" clip-rule="evenodd" d="M37.7995 41.4479C35.2817 43.3907 31.6447 42.9411 29.6826 40.4305C27.7416 37.912 28.192 34.2761 30.7018 32.3333C33.2196 30.3695 36.8566 30.8217 38.8029 33.3349C40.7649 35.8482 40.3119 39.4893 37.7995 41.4479ZM44.8286 18.597C45.811 21.6414 44.136 24.896 41.1073 25.874C38.0628 26.8546 34.8076 25.1773 33.8332 22.154C32.8509 19.1044 34.5258 15.855 37.5545 14.8771C40.599 13.8965 43.8463 15.5738 44.8286 18.597ZM4.61569 20.624C5.29254 17.5139 8.35808 15.5317 11.4842 16.1863C14.6103 16.8619 16.5961 19.9273 15.9192 23.0557C15.2477 26.1816 12.1769 28.1691 9.05073 27.4934C5.94568 26.8178 3.95992 23.7524 4.61569 20.624ZM23.3013 4.22982C26.4722 3.98007 29.2718 6.33299 29.5167 9.5219C29.7827 12.6924 27.415 15.4949 24.2442 15.7604C21.0548 16.0049 18.2737 13.652 18.0077 10.4631C17.7628 7.29781 20.1146 4.49798 23.3013 4.23245V4.22982ZM13.9203 42.6546C11.2208 40.9615 10.4044 37.3809 12.1005 34.6862C13.7965 31.9863 17.3519 31.1661 20.0725 32.8644C22.7719 34.5627 23.5884 38.117 21.8897 40.8169C20.1936 43.5353 16.6172 44.3529 13.9177 42.6546H13.9203ZM24.389 20.6371C26.8014 20.2954 29.0295 21.9884 29.356 24.4018C29.7063 26.8152 28.0076 29.0235 25.6136 29.3705C23.2012 29.6965 20.9732 28.0192 20.6466 25.6058C20.2963 23.1925 21.995 20.9684 24.389 20.6345V20.6371ZM21.5657 0.2417C35.2448 -1.66166 47.8784 7.88406 49.7588 21.5599C51.6603 35.2304 42.1133 47.8652 28.4343 49.7633C14.7552 51.6456 2.12164 42.0973 0.241232 28.4267C-1.66025 14.7509 7.88666 2.13718 21.5657 0.239076V0.2417Z" fill="#FCFCFC"/>
</svg>
