<svg width="70" height="70" viewBox="0 0 70 70" fill="none" xmlns="http://www.w3.org/2000/svg">
<path fill-rule="evenodd" clip-rule="evenodd" d="M52.9192 58.0271C49.3944 60.747 44.3025 60.1176 41.5556 56.6027C38.8383 53.0767 39.4687 47.9866 42.9825 45.2666C46.5074 42.5173 51.5993 43.1503 54.324 46.6689C57.0709 50.1875 56.4367 55.2851 52.9192 58.0271ZM62.7601 26.0359C64.1353 30.2979 61.7904 34.8544 57.5502 36.2236C53.2879 37.5964 48.7307 35.2482 47.3665 31.0156C45.9912 26.7462 48.3362 22.1971 52.5763 20.8279C56.8386 19.4551 61.3848 21.8032 62.7601 26.0359ZM6.46197 28.8736C7.40955 24.5195 11.7013 21.7444 16.0779 22.6608C20.4545 23.6067 23.2345 27.8982 22.2869 32.278C21.3467 36.6542 17.0476 39.4367 12.671 38.4908C8.32395 37.5449 5.54389 33.2534 6.46197 28.8736ZM32.6218 5.92175C37.0611 5.5721 40.9804 8.86618 41.3233 13.3307C41.6957 17.7694 38.3811 21.6928 33.9418 22.0646C29.4768 22.4069 25.5832 19.1128 25.2108 14.6483C24.8679 10.2169 28.1605 6.29717 32.6218 5.92544V5.92175ZM19.4884 59.7164C15.7092 57.3462 14.5662 52.3333 16.9407 48.5607C19.3151 44.7808 24.2927 43.6325 28.1015 46.0101C31.8807 48.3877 33.0237 53.3638 30.6456 57.1437C28.2711 60.9494 23.264 62.094 19.4848 59.7164H19.4884ZM34.1446 28.892C37.522 28.4135 40.6412 30.7838 41.0984 34.1625C41.5888 37.5412 39.2107 40.6329 35.8591 41.1187C32.4817 41.5751 29.3624 39.2269 28.9053 35.8482C28.4149 32.4694 30.793 29.3557 34.1446 28.8883V28.892ZM30.192 0.33838C49.3428 -2.32633 67.0297 11.0377 69.6623 30.1838C72.3243 49.3226 58.9587 67.0112 39.808 69.6686C20.6572 72.3038 2.9703 58.9361 0.337724 39.7974C-2.32435 20.6512 11.0413 2.99205 30.192 0.334707V0.33838Z" fill="#FCFCFC"/>
</svg>
