<svg width="74" height="75" viewBox="0 0 74 75" fill="none" xmlns="http://www.w3.org/2000/svg">
<rect x="1.5" y="2" width="71" height="71" rx="35.5" fill="#40B3D1"/>
<path d="M27.7893 54.1152C28.2935 54.6225 28.9773 54.9074 29.6903 54.9074C30.4032 54.9074 31.087 54.6225 31.5912 54.1152L46.2128 39.418C46.7168 38.9106 47 38.2225 47 37.5051C47 36.7877 46.7168 36.0996 46.2128 35.5922L31.5912 20.8842C31.0863 20.3768 30.4019 20.0921 29.6884 20.0926C28.9749 20.0931 28.2908 20.3788 27.7866 20.8869C27.2825 21.3949 26.9995 22.0837 27 22.8017C27.0005 23.5197 27.2844 24.208 27.7893 24.7154L40.5072 37.5024L27.7893 50.2894C27.2852 50.7968 27.0021 51.4849 27.0021 52.2023C27.0021 52.9198 27.2852 53.6078 27.7893 54.1152Z" fill="#010A3D"/>
<rect x="1.5" y="2" width="71" height="71" rx="35.5" stroke="#40B3D1" stroke-width="3"/>
</svg>
