<svg width="63" height="70" viewBox="0 0 63 70" fill="none" xmlns="http://www.w3.org/2000/svg">
<path d="M52.3089 9.11026C53.0696 7.54946 53.0163 5.79848 52.128 3.9014C51.0334 1.56136 49.4842 0.638336 48.3826 0.269588C46.0448 -0.470226 44.1107 0.533973 43.888 0.656889L43.6468 0.805316L31.2346 9.90341L18.8271 0.805316L18.5859 0.656889C18.3679 0.533973 16.4337 -0.470226 14.096 0.269588C12.9874 0.638336 11.4429 1.566 10.3482 3.9014C9.4623 5.8008 9.47389 7.55177 10.2369 9.11026C11.9484 12.596 16.2296 14.275 27.8255 16.6893V70H34.783V16.6893C46.3834 14.275 50.5951 12.596 52.3089 9.11026ZM13.8664 7.29667C13.7875 7.13896 13.5788 6.71456 14.0774 5.64542C14.3372 5.0981 14.7686 4.39307 15.3669 4.18666C15.3924 4.17507 15.411 4.17043 15.4272 4.16347C15.898 4.01968 16.3827 4.17507 16.5589 4.24696L27.8162 12.4962C21.5057 11.056 14.8613 9.32362 13.8664 7.29667ZM48.6122 7.29667C47.6149 9.32362 40.9682 11.056 34.6601 12.4962L45.9173 4.24696C46.0982 4.17507 46.5829 4.01968 47.0537 4.16347C47.0699 4.17043 47.0908 4.17507 47.1117 4.18666C47.71 4.39307 48.1391 5.0981 48.4011 5.64542C48.8997 6.71456 48.691 7.13664 48.6122 7.29667Z" fill="#FFFCFC"/>
<path d="M4.63837 65.3613C4.63837 67.9216 6.71634 69.9996 9.2767 69.9996H23.1917V37.5312H4.63837V65.3613Z" fill="#FFFCFC"/>
<path d="M0 21.297V28.2545C0 30.8149 2.07797 32.8929 4.63834 32.8929H23.1917V16.6587H4.63834C2.07797 16.6587 0 18.739 0 21.297Z" fill="#FFFCFC"/>
<path d="M39.4258 69.9996H53.3408C55.9012 69.9996 57.9792 67.9216 57.9792 65.3613V37.5312H39.4258V69.9996Z" fill="#FFFCFC"/>
<path d="M57.9792 16.6587H39.4258V32.8929H57.9792C60.5395 32.8929 62.6175 30.8149 62.6175 28.2545V21.297C62.6175 18.739 60.5395 16.6587 57.9792 16.6587Z" fill="#FFFCFC"/>
</svg>
