<svg width="45" height="50" viewBox="0 0 45 50" fill="none" xmlns="http://www.w3.org/2000/svg">
<path d="M37.3635 6.50733C37.9068 5.39247 37.8687 4.14177 37.2343 2.78672C36.4524 1.11526 35.3458 0.455954 34.559 0.192563C32.8892 -0.335876 31.5076 0.381409 31.3486 0.469207L31.1763 0.575226L22.3104 7.07386L13.4479 0.575226L13.2756 0.469207C13.1199 0.381409 11.7384 -0.335876 10.0685 0.192563C9.27672 0.455954 8.17346 1.11857 7.39157 2.78672C6.75877 4.14343 6.76705 5.39412 7.31205 6.50733C8.53459 8.99712 11.5926 10.1965 19.8753 11.9209V50H24.845V11.9209C33.131 10.1965 36.1393 8.99712 37.3635 6.50733ZM9.90455 5.2119C9.84823 5.09926 9.69914 4.79611 10.0553 4.03244C10.2408 3.6415 10.5489 3.13791 10.9763 2.99047C10.9946 2.98219 11.0078 2.97888 11.0194 2.97391C11.3557 2.8712 11.7019 2.98219 11.8278 3.03354L19.8687 8.92589C15.3612 7.89717 10.6152 6.65973 9.90455 5.2119ZM34.723 5.2119C34.0106 6.65973 29.263 7.89717 24.7572 8.92589L32.798 3.03354C32.9273 2.98219 33.2735 2.8712 33.6098 2.97391C33.6214 2.97888 33.6363 2.98219 33.6512 2.99047C34.0786 3.13791 34.385 3.6415 34.5722 4.03244C34.9284 4.79611 34.7793 5.0976 34.723 5.2119Z" fill="#FFFCFC"/>
<path d="M3.31311 46.6867C3.31311 48.5155 4.79738 49.9998 6.62621 49.9998H16.5655V26.8081H3.31311V46.6867Z" fill="#FFFCFC"/>
<path d="M0 15.212V20.1817C0 22.0105 1.48427 23.4948 3.3131 23.4948H16.5655V11.8989H3.3131C1.48427 11.8989 0 13.3849 0 15.212Z" fill="#FFFCFC"/>
<path d="M28.1613 49.9998H38.1006C39.9294 49.9998 41.4137 48.5155 41.4137 46.6867V26.8081H28.1613V49.9998Z" fill="#FFFCFC"/>
<path d="M41.4137 11.8989H28.1613V23.4948H41.4137C43.2425 23.4948 44.7268 22.0105 44.7268 20.1817V15.212C44.7268 13.3849 43.2425 11.8989 41.4137 11.8989Z" fill="#FFFCFC"/>
</svg>
