<svg width="30" height="30" viewBox="0 0 30 30" fill="none" xmlns="http://www.w3.org/2000/svg">
<path d="M4 21.6V8.4C4 6.86 4 6.09 4.29975 5.5015C4.56375 4.98313 4.98313 4.56375 5.5015 4.29975C6.09 4 6.86 4 8.4 4H21.6C23.14 4 23.91 4 24.4971 4.29975C25.0155 4.56375 25.4362 4.98313 25.7002 5.5015C26 6.08863 26 6.85862 26 8.39587V21.6055C26 23.1428 26 23.9114 25.7002 24.4985C25.4361 25.016 25.0149 25.4367 24.4971 25.7002C23.91 26 23.1414 26 21.6041 26H8.39587C6.85862 26 6.08863 26 5.5015 25.7002C4.98408 25.4366 4.5634 25.0159 4.29975 24.4985C4 23.91 4 23.14 4 21.6Z" stroke="#FFFCFC" stroke-width="2" stroke-linecap="round" stroke-linejoin="round"/>
</svg>
