<svg width="20" height="20" viewBox="0 0 20 20" fill="none" xmlns="http://www.w3.org/2000/svg">
<path d="M2.72727 13H4.54545C5.02767 13 5.49013 13.2107 5.8311 13.5858C6.17208 13.9609 6.36364 14.4696 6.36364 15V17H7.27273V15C7.27273 14.4696 7.46429 13.9609 7.80526 13.5858C8.14624 13.2107 8.6087 13 9.09091 13H10.9091C11.3913 13 11.8538 13.2107 12.1947 13.5858C12.5357 13.9609 12.7273 14.4696 12.7273 15V17H13.6364V15C13.6364 14.4696 13.8279 13.9609 14.1689 13.5858C14.5099 13.2107 14.9723 13 15.4545 13H17.2727C17.7549 13 18.2174 13.2107 18.5584 13.5858C18.8994 13.9609 19.0909 14.4696 19.0909 15V17H20V20H0V17H0.909091V15C0.909091 14.4696 1.10065 13.9609 1.44162 13.5858C1.7826 13.2107 2.24506 13 2.72727 13ZM9.09091 5L12.7273 8L9.09091 11V5ZM2.72727 0H17.2727C17.7549 0 18.2174 0.210714 18.5584 0.585786C18.8994 0.960859 19.0909 1.46957 19.0909 2V11.54C18.5404 11.1825 17.912 10.9959 17.2727 11V2H2.72727V11C2.06364 11 1.44545 11.19 0.909091 11.54V2C0.909091 1.46957 1.10065 0.960859 1.44162 0.585786C1.7826 0.210714 2.24506 0 2.72727 0Z" fill="#FFFCFC"/>
</svg>
