<svg width="30" height="30" viewBox="0 0 30 30" fill="none" xmlns="http://www.w3.org/2000/svg">
<path d="M4.09091 19.5H6.81818C7.5415 19.5 8.23519 19.8161 8.74666 20.3787C9.25812 20.9413 9.54545 21.7044 9.54545 22.5V25.5H10.9091V22.5C10.9091 21.7044 11.1964 20.9413 11.7079 20.3787C12.2194 19.8161 12.913 19.5 13.6364 19.5H16.3636C17.087 19.5 17.7806 19.8161 18.2921 20.3787C18.8036 20.9413 19.0909 21.7044 19.0909 22.5V25.5H20.4545V22.5C20.4545 21.7044 20.7419 20.9413 21.2533 20.3787C21.7648 19.8161 22.4585 19.5 23.1818 19.5H25.9091C26.6324 19.5 27.3261 19.8161 27.8376 20.3787C28.349 20.9413 28.6364 21.7044 28.6364 22.5V25.5H30V30H0V25.5H1.36364V22.5C1.36364 21.7044 1.65097 20.9413 2.16244 20.3787C2.6739 19.8161 3.36759 19.5 4.09091 19.5ZM13.6364 7.5L19.0909 12L13.6364 16.5V7.5ZM4.09091 0H25.9091C26.6324 0 27.3261 0.31607 27.8376 0.87868C28.349 1.44129 28.6364 2.20435 28.6364 3V17.31C27.8105 16.7738 26.868 16.4939 25.9091 16.5V3H4.09091V16.5C3.09545 16.5 2.16818 16.785 1.36364 17.31V3C1.36364 2.20435 1.65097 1.44129 2.16244 0.87868C2.6739 0.31607 3.36759 0 4.09091 0Z" fill="#FFFCFC"/>
</svg>
