<svg width="50" height="50" viewBox="0 0 50 50" fill="none" xmlns="http://www.w3.org/2000/svg">
<path d="M6.81818 32.5H11.3636C12.5692 32.5 13.7253 33.0268 14.5778 33.9645C15.4302 34.9021 15.9091 36.1739 15.9091 37.5V42.5H18.1818V37.5C18.1818 36.1739 18.6607 34.9021 19.5132 33.9645C20.3656 33.0268 21.5217 32.5 22.7273 32.5H27.2727C28.4783 32.5 29.6344 33.0268 30.4868 33.9645C31.3393 34.9021 31.8182 36.1739 31.8182 37.5V42.5H34.0909V37.5C34.0909 36.1739 34.5698 34.9021 35.4222 33.9645C36.2747 33.0268 37.4308 32.5 38.6364 32.5H43.1818C44.3873 32.5 45.5435 33.0268 46.3959 33.9645C47.2484 34.9021 47.7273 36.1739 47.7273 37.5V42.5H50V50H0V42.5H2.27273V37.5C2.27273 36.1739 2.75162 34.9021 3.60406 33.9645C4.4565 33.0268 5.61265 32.5 6.81818 32.5ZM22.7273 12.5L31.8182 20L22.7273 27.5V12.5ZM6.81818 0H43.1818C44.3873 0 45.5435 0.526784 46.3959 1.46447C47.2484 2.40215 47.7273 3.67392 47.7273 5V28.85C46.3509 27.9563 44.78 27.4898 43.1818 27.5V5H6.81818V27.5C5.15909 27.5 3.61364 27.975 2.27273 28.85V5C2.27273 3.67392 2.75162 2.40215 3.60406 1.46447C4.4565 0.526784 5.61265 0 6.81818 0Z" fill="#FFFCFC"/>
</svg>
