<svg width="70" height="70" viewBox="0 0 70 70" fill="none" xmlns="http://www.w3.org/2000/svg">
<path d="M9.54545 45.5H15.9091C17.5968 45.5 19.2154 46.2375 20.4089 47.5503C21.6023 48.863 22.2727 50.6435 22.2727 52.5V59.5H25.4545V52.5C25.4545 50.6435 26.125 48.863 27.3184 47.5503C28.5118 46.2375 30.1304 45.5 31.8182 45.5H38.1818C39.8696 45.5 41.4882 46.2375 42.6816 47.5503C43.875 48.863 44.5455 50.6435 44.5455 52.5V59.5H47.7273V52.5C47.7273 50.6435 48.3977 48.863 49.5911 47.5503C50.7846 46.2375 52.4032 45.5 54.0909 45.5H60.4545C62.1423 45.5 63.7609 46.2375 64.9543 47.5503C66.1477 48.863 66.8182 50.6435 66.8182 52.5V59.5H70V70H0V59.5H3.18182V52.5C3.18182 50.6435 3.85227 48.863 5.04568 47.5503C6.2391 46.2375 7.85771 45.5 9.54545 45.5ZM31.8182 17.5L44.5455 28L31.8182 38.5V17.5ZM9.54545 0H60.4545C62.1423 0 63.7609 0.737498 64.9543 2.05025C66.1477 3.36301 66.8182 5.14348 66.8182 7V40.39C64.8913 39.1389 62.6921 38.4857 60.4545 38.5V7H9.54545V38.5C7.22273 38.5 5.05909 39.165 3.18182 40.39V7C3.18182 5.14348 3.85227 3.36301 5.04568 2.05025C6.2391 0.737498 7.85771 0 9.54545 0Z" fill="#FFFCFC"/>
</svg>
