<svg width="40" height="44" viewBox="0 0 40 44" fill="none" xmlns="http://www.w3.org/2000/svg">
<path d="M39.5461 31.6596C38.3896 29.6676 36.6706 24.0312 36.6706 16.6695C36.6706 12.2485 34.9143 8.00854 31.7882 4.8824C28.662 1.75625 24.4221 0 20.001 0C15.58 0 11.34 1.75625 8.21389 4.8824C5.08775 8.00854 3.3315 12.2485 3.3315 16.6695C3.3315 24.0333 1.61036 29.6676 0.453914 31.6596C0.158593 32.1661 0.00203222 32.7414 1.96512e-05 33.3277C-0.00199291 33.9139 0.150614 34.4903 0.442451 34.9987C0.734287 35.5072 1.15503 35.9297 1.66226 36.2236C2.16948 36.5176 2.74525 36.6726 3.3315 36.673H11.835C12.2196 38.5549 13.2424 40.2462 14.7304 41.4609C16.2184 42.6755 18.0802 43.339 20.001 43.339C21.9218 43.339 23.7837 42.6755 25.2717 41.4609C26.7597 40.2462 27.7824 38.5549 28.167 36.673H36.6706C37.2567 36.6722 37.8322 36.5169 38.3391 36.2229C38.846 35.9288 39.2665 35.5062 39.5581 34.9978C39.8497 34.4895 40.0021 33.9132 40 33.3271C39.9979 32.7411 39.8413 32.1659 39.5461 31.6596ZM20.001 40.0069C18.9672 40.0066 17.9588 39.6858 17.1147 39.0888C16.2706 38.4917 15.6324 37.6478 15.2877 36.673H24.7144C24.3697 37.6478 23.7315 38.4917 22.8874 39.0888C22.0433 39.6858 21.0349 40.0066 20.001 40.0069Z" fill="white"/>
</svg>
