<svg width="65" height="70" viewBox="0 0 65 70" fill="none" xmlns="http://www.w3.org/2000/svg">
<path d="M63.8739 51.1359C62.006 47.9184 59.2294 38.8147 59.2294 26.9242C59.2294 19.7835 56.3928 12.9352 51.3435 7.88593C46.2942 2.83665 39.4459 0 32.3052 0C25.1644 0 18.3162 2.83665 13.2669 7.88593C8.2176 12.9352 5.38095 19.7835 5.38095 26.9242C5.38095 38.818 2.60102 47.9184 0.73315 51.1359C0.256155 51.9538 0.00328238 52.8831 3.17402e-05 53.83C-0.0032189 54.7769 0.243268 55.7079 0.714636 56.5291C1.186 57.3503 1.86558 58.0327 2.68484 58.5075C3.5041 58.9823 4.43406 59.2326 5.38095 59.2333H19.1157C19.7369 62.2729 21.3888 65.0047 23.7922 66.9666C26.1955 68.9284 29.2028 70 32.3052 70C35.4076 70 38.4148 68.9284 40.8182 66.9666C43.2215 65.0047 44.8735 62.2729 45.4947 59.2333H59.2294C60.176 59.2321 61.1056 58.9813 61.9244 58.5063C62.7431 58.0312 63.4222 57.3488 63.8932 56.5276C64.3642 55.7065 64.6104 54.7758 64.607 53.8292C64.6036 52.8826 64.3507 51.9536 63.8739 51.1359ZM32.3052 64.6182C30.6353 64.6177 29.0066 64.0996 27.6432 63.1353C26.2799 62.1709 25.249 60.8077 24.6924 59.2333H39.918C39.3614 60.8077 38.3305 62.1709 36.9671 63.1353C35.6038 64.0996 33.9751 64.6177 32.3052 64.6182Z" fill="white"/>
</svg>
