<svg width="12" height="12" viewBox="0 0 12 12" fill="none" xmlns="http://www.w3.org/2000/svg">
<path d="M11.9995 1.01485C11.9974 1.27414 11.884 1.5476 11.7016 1.73194L11.6854 1.74814C11.5558 1.87981 11.4261 2.00743 11.2965 2.13707L7.43306 6L11.7016 10.2681C11.8941 10.4605 11.9873 10.7157 11.9995 10.9851C12.0096 11.2566 11.8779 11.5078 11.7016 11.7022C11.5315 11.8906 11.2337 12 10.9845 12C10.7252 11.998 10.4517 11.8845 10.2673 11.7022L10.2511 11.686C10.1194 11.5564 9.99178 11.4267 9.86212 11.2971L6.00074 7.43214L1.73215 11.7002C1.53766 11.8947 1.28443 11.9858 1.01498 11.998C0.743508 12.0081 0.492296 11.8764 0.297808 11.7002C0.109399 11.53 0 11.2323 0 10.9831C0.00202591 10.7238 0.115477 10.4504 0.297808 10.266L0.314016 10.2498C0.443674 10.1182 0.573332 9.99055 0.70299 9.8609L4.56842 6L0.299834 1.73194C0.105347 1.53747 0.0141812 1.28427 0.00202572 1.01485C-0.00810382 0.743416 0.12358 0.492235 0.299834 0.297772C0.470011 0.109385 0.767819 0 1.01701 0C1.27632 0.00202566 1.54982 0.115462 1.73418 0.297772L1.75038 0.313977C1.88207 0.443619 2.0097 0.573261 2.13936 0.702903L6.00074 4.56786L10.2693 0.299798C10.4618 0.10736 10.7171 0.0141794 10.9865 0.00202547C11.258 -0.00810282 11.5092 0.123565 11.7037 0.299798C11.8901 0.469953 11.9995 0.765699 11.9995 1.01485Z" fill="#010A3D"/>
</svg>
