<svg width="45" height="45" viewBox="0 0 45 45" fill="none" xmlns="http://www.w3.org/2000/svg">
<path d="M33.999 12.9451C33.9951 13.4421 33.7776 13.9662 33.4282 14.3195L33.3971 14.3506C33.1486 14.603 32.9001 14.8476 32.6516 15.096L25.2467 22.5L33.4282 30.6805C33.797 31.0493 33.9757 31.5385 33.999 32.0549C34.0184 32.5751 33.766 33.0566 33.4282 33.4293C33.102 33.7903 32.5312 34 32.0536 34C31.5566 33.9961 31.0323 33.7787 30.679 33.4293L30.6479 33.3982C30.3955 33.1497 30.1509 32.9012 29.9024 32.6528L22.5014 25.2449L14.32 33.4254C13.9472 33.7981 13.4618 33.9728 12.9454 33.9961C12.4251 34.0155 11.9436 33.7632 11.5708 33.4254C11.2097 33.0993 11 32.5285 11 32.051C11.0039 31.554 11.2213 31.0299 11.5708 30.6766L11.6019 30.6455C11.8504 30.3931 12.0989 30.1485 12.3474 29.9001L19.7561 22.5L11.5747 14.3195C11.2019 13.9468 11.0272 13.4615 11.0039 12.9451C10.9845 12.4249 11.2369 11.9435 11.5747 11.5707C11.9009 11.2097 12.4717 11 12.9493 11C13.4463 11.0039 13.9705 11.2213 14.3238 11.5707L14.3549 11.6018C14.6073 11.8503 14.8519 12.0988 15.1004 12.3472L22.5014 19.7551L30.6829 11.5746C31.0518 11.2058 31.541 11.0272 32.0575 11.0039C32.5778 10.9845 33.0593 11.2368 33.432 11.5746C33.7893 11.9007 33.999 12.4676 33.999 12.9451Z" fill="#FFFCFC"/>
</svg>
