<svg width="800" height="588" viewBox="0 0 800 588" fill="none" xmlns="http://www.w3.org/2000/svg">
<g filter="url(#filter0_d_577_33926)">
<path d="M89.5039 106C89.5039 106 247.914 54 403.145 54C558.376 54 739.318 111.205 722.391 104.513" stroke="#40B3D1" stroke-width="5" stroke-linecap="round"/>
</g>
<path d="M388.031 88.5H381.406V71H387.906V73.325H383.781V78.375H387.156V80.525H383.781V86.2H388.031V88.5ZM394.799 83.375H396.949V84.975C396.949 86.075 396.591 86.9833 395.874 87.7C395.174 88.4 394.316 88.75 393.299 88.75C392.266 88.75 391.399 88.4083 390.699 87.725C389.999 87.0417 389.649 86.15 389.649 85.05V79.2C389.649 78.1 390.008 77.2 390.724 76.5C391.458 75.7833 392.341 75.425 393.374 75.425C394.391 75.425 395.241 75.7667 395.924 76.45C396.608 77.1333 396.949 78.025 396.949 79.125V80.675H394.799V79.2C394.799 78.6833 394.658 78.275 394.374 77.975C394.108 77.675 393.766 77.525 393.349 77.525C392.916 77.525 392.566 77.675 392.299 77.975C392.033 78.275 391.899 78.6833 391.899 79.2V85C391.899 85.5 392.033 85.9083 392.299 86.225C392.566 86.525 392.916 86.675 393.349 86.675C393.766 86.675 394.108 86.525 394.374 86.225C394.658 85.9083 394.799 85.5 394.799 85V83.375ZM404.251 75.425V77.95H403.751C402.218 77.95 401.451 78.7917 401.451 80.475V88.5H399.201V75.675H401.126L401.251 77.375C401.835 76.075 402.835 75.425 404.251 75.425ZM407.497 84.425V85.05C407.497 85.6167 407.647 86.075 407.947 86.425C408.247 86.7583 408.639 86.925 409.122 86.925C409.605 86.925 409.997 86.7583 410.297 86.425C410.597 86.075 410.747 85.6167 410.747 85.05V84.425C410.747 83.8583 410.597 83.4083 410.297 83.075C409.997 82.725 409.605 82.55 409.122 82.55C408.639 82.55 408.247 82.725 407.947 83.075C407.647 83.4083 407.497 83.8583 407.497 84.425ZM405.247 85.1V84.55C405.247 83.4333 405.555 82.5333 406.172 81.85C406.789 81.1667 407.564 80.825 408.497 80.825C409.447 80.825 410.197 81.175 410.747 81.875V79.05C410.747 78.5333 410.614 78.1333 410.347 77.85C410.08 77.55 409.739 77.4 409.322 77.4C408.905 77.4 408.564 77.55 408.297 77.85C408.03 78.1333 407.897 78.5333 407.897 79.05V79.675H405.722V79.175C405.722 78.0917 406.072 77.2 406.772 76.5C407.472 75.7833 408.33 75.425 409.347 75.425C410.38 75.425 411.247 75.7667 411.947 76.45C412.647 77.1333 412.997 78.0167 412.997 79.1V88.5H411.122L410.972 87.275C410.422 88.2583 409.572 88.75 408.422 88.75C407.489 88.75 406.722 88.425 406.122 87.775C405.539 87.1083 405.247 86.2167 405.247 85.1ZM417.613 79.25V88.5H415.363V75.675H417.288L417.388 76.95C417.938 75.9333 418.805 75.425 419.988 75.425C420.855 75.425 421.547 75.7333 422.063 76.35C422.597 76.95 422.863 77.7917 422.863 78.875V88.5H420.613V79.25C420.613 78.7 420.48 78.275 420.213 77.975C419.963 77.675 419.613 77.525 419.163 77.525C418.713 77.525 418.338 77.675 418.038 77.975C417.755 78.275 417.613 78.7 417.613 79.25Z" fill="#FFFCFC"/>
<path fill-rule="evenodd" clip-rule="evenodd" d="M110.935 151.821H109.423C107.766 151.821 106.423 153.164 106.423 154.821V165.744C106.423 167.401 107.766 168.744 109.423 168.744H125.987C127.644 168.744 128.987 167.401 128.987 165.744V154.821C128.987 153.164 127.644 151.821 125.987 151.821H124.474V155.59C124.474 157.247 123.131 158.59 121.474 158.59H113.935C112.279 158.59 110.935 157.247 110.935 155.59V151.821Z" fill="#40B3D1"/>
<rect x="112.063" y="146.18" width="11.2821" height="11.2821" rx="3" fill="#40B3D1"/>
<path fill-rule="evenodd" clip-rule="evenodd" d="M143.5 151.821H141.987C140.33 151.821 138.987 153.164 138.987 154.821V165.744C138.987 167.401 140.33 168.744 141.987 168.744H158.551C160.208 168.744 161.551 167.401 161.551 165.744V154.821C161.551 153.164 160.208 151.821 158.551 151.821H157.039V155.59C157.039 157.247 155.695 158.59 154.039 158.59H146.5C144.843 158.59 143.5 157.247 143.5 155.59V151.821Z" fill="#40B3D1"/>
<rect x="144.628" y="146.18" width="11.2821" height="11.2821" rx="3" fill="#40B3D1"/>
<path fill-rule="evenodd" clip-rule="evenodd" d="M176.064 151.821H174.551C172.894 151.821 171.551 153.164 171.551 154.821V165.744C171.551 167.401 172.894 168.744 174.551 168.744H191.115C192.772 168.744 194.115 167.401 194.115 165.744V154.821C194.115 153.164 192.772 151.821 191.115 151.821H189.602V155.59C189.602 157.247 188.259 158.59 186.602 158.59H179.064C177.407 158.59 176.064 157.247 176.064 155.59V151.821Z" fill="#40B3D1"/>
<rect x="177.192" y="146.18" width="11.2821" height="11.2821" rx="3" fill="#40B3D1"/>
<path fill-rule="evenodd" clip-rule="evenodd" d="M208.628 151.821H207.115C205.458 151.821 204.115 153.164 204.115 154.821V165.744C204.115 167.401 205.458 168.744 207.115 168.744H223.679C225.336 168.744 226.679 167.401 226.679 165.744V154.821C226.679 153.164 225.336 151.821 223.679 151.821H222.166V155.59C222.166 157.247 220.823 158.59 219.166 158.59H211.628C209.971 158.59 208.628 157.247 208.628 155.59V151.821Z" fill="#40B3D1"/>
<rect x="209.756" y="146.18" width="11.2821" height="11.2821" rx="3" fill="#40B3D1"/>
<path fill-rule="evenodd" clip-rule="evenodd" d="M110.935 184.385H109.423C107.766 184.385 106.423 185.728 106.423 187.385V198.308C106.423 199.965 107.766 201.308 109.423 201.308H125.987C127.644 201.308 128.987 199.965 128.987 198.308V187.385C128.987 185.728 127.644 184.385 125.987 184.385H124.474V188.154C124.474 189.811 123.131 191.154 121.474 191.154H113.935C112.279 191.154 110.935 189.811 110.935 188.154V184.385Z" fill="#40B3D1"/>
<rect x="112.063" y="178.744" width="11.2821" height="11.2821" rx="3" fill="#40B3D1"/>
<path fill-rule="evenodd" clip-rule="evenodd" d="M143.5 184.385H141.987C140.33 184.385 138.987 185.728 138.987 187.385V198.308C138.987 199.965 140.33 201.308 141.987 201.308H158.551C160.208 201.308 161.551 199.965 161.551 198.308V187.385C161.551 185.728 160.208 184.385 158.551 184.385H157.039V188.154C157.039 189.811 155.695 191.154 154.039 191.154H146.5C144.843 191.154 143.5 189.811 143.5 188.154V184.385Z" fill="#40B3D1"/>
<rect x="144.628" y="178.744" width="11.2821" height="11.2821" rx="3" fill="#40B3D1"/>
<path fill-rule="evenodd" clip-rule="evenodd" d="M176.064 184.385H174.551C172.894 184.385 171.551 185.728 171.551 187.385V198.308C171.551 199.965 172.894 201.308 174.551 201.308H191.115C192.772 201.308 194.115 199.965 194.115 198.308V187.385C194.115 185.728 192.772 184.385 191.115 184.385H189.602V188.154C189.602 189.811 188.259 191.154 186.602 191.154H179.064C177.407 191.154 176.064 189.811 176.064 188.154V184.385Z" fill="#40B3D1"/>
<rect x="177.192" y="178.744" width="11.2821" height="11.2821" rx="3" fill="#40B3D1"/>
<path fill-rule="evenodd" clip-rule="evenodd" d="M208.628 184.385H207.115C205.458 184.385 204.115 185.728 204.115 187.385V198.308C204.115 199.965 205.458 201.308 207.115 201.308H223.679C225.336 201.308 226.679 199.965 226.679 198.308V187.385C226.679 185.728 225.336 184.385 223.679 184.385H222.166V188.154C222.166 189.811 220.823 191.154 219.166 191.154H211.628C209.971 191.154 208.628 189.811 208.628 188.154V184.385Z" fill="#40B3D1"/>
<rect x="209.756" y="178.744" width="11.2821" height="11.2821" rx="3" fill="#40B3D1"/>
<path fill-rule="evenodd" clip-rule="evenodd" d="M110.935 216.949H109.423C107.766 216.949 106.423 218.292 106.423 219.949V230.872C106.423 232.529 107.766 233.872 109.423 233.872H125.987C127.644 233.872 128.987 232.529 128.987 230.872V219.949C128.987 218.292 127.644 216.949 125.987 216.949H124.474V220.718C124.474 222.375 123.131 223.718 121.474 223.718H113.935C112.279 223.718 110.935 222.375 110.935 220.718V216.949Z" fill="#40B3D1"/>
<rect x="112.063" y="211.308" width="11.2821" height="11.2821" rx="3" fill="#40B3D1"/>
<path fill-rule="evenodd" clip-rule="evenodd" d="M143.5 216.949H141.987C140.33 216.949 138.987 218.292 138.987 219.949V230.872C138.987 232.529 140.33 233.872 141.987 233.872H158.551C160.208 233.872 161.551 232.529 161.551 230.872V219.949C161.551 218.292 160.208 216.949 158.551 216.949H157.039V220.718C157.039 222.375 155.695 223.718 154.039 223.718H146.5C144.843 223.718 143.5 222.375 143.5 220.718V216.949Z" fill="#40B3D1"/>
<rect x="144.628" y="211.308" width="11.2821" height="11.2821" rx="3" fill="#40B3D1"/>
<path fill-rule="evenodd" clip-rule="evenodd" d="M176.064 216.949H174.551C172.894 216.949 171.551 218.292 171.551 219.949V230.872C171.551 232.529 172.894 233.872 174.551 233.872H191.115C192.772 233.872 194.115 232.529 194.115 230.872V219.949C194.115 218.292 192.772 216.949 191.115 216.949H189.602V220.718C189.602 222.375 188.259 223.718 186.602 223.718H179.064C177.407 223.718 176.064 222.375 176.064 220.718V216.949Z" fill="#40B3D1"/>
<rect x="177.192" y="211.308" width="11.2821" height="11.2821" rx="3" fill="#40B3D1"/>
<path fill-rule="evenodd" clip-rule="evenodd" d="M208.628 216.949H207.115C205.458 216.949 204.115 218.292 204.115 219.949V230.872C204.115 232.529 205.458 233.872 207.115 233.872H223.679C225.336 233.872 226.679 232.529 226.679 230.872V219.949C226.679 218.292 225.336 216.949 223.679 216.949H222.166V220.718C222.166 222.375 220.823 223.718 219.166 223.718H211.628C209.971 223.718 208.628 222.375 208.628 220.718V216.949Z" fill="#40B3D1"/>
<rect x="209.756" y="211.308" width="11.2821" height="11.2821" rx="3" fill="#40B3D1"/>
<path fill-rule="evenodd" clip-rule="evenodd" d="M253.193 151.821H251.68C250.023 151.821 248.68 153.164 248.68 154.821V165.744C248.68 167.401 250.023 168.744 251.68 168.744H268.244C269.901 168.744 271.244 167.401 271.244 165.744V154.821C271.244 153.164 269.901 151.821 268.244 151.821H266.731V155.59C266.731 157.247 265.388 158.59 263.731 158.59H256.193C254.536 158.59 253.193 157.247 253.193 155.59V151.821Z" fill="#40B3D1"/>
<rect x="254.32" y="146.18" width="11.2821" height="11.2821" rx="3" fill="#40B3D1"/>
<path fill-rule="evenodd" clip-rule="evenodd" d="M285.757 151.821H284.244C282.587 151.821 281.244 153.164 281.244 154.821V165.744C281.244 167.401 282.587 168.744 284.244 168.744H300.808C302.465 168.744 303.808 167.401 303.808 165.744V154.821C303.808 153.164 302.465 151.821 300.808 151.821H299.296V155.59C299.296 157.247 297.952 158.59 296.296 158.59H288.757C287.1 158.59 285.757 157.247 285.757 155.59V151.821Z" fill="#40B3D1"/>
<rect x="286.886" y="146.18" width="11.2821" height="11.2821" rx="3" fill="#40B3D1"/>
<path fill-rule="evenodd" clip-rule="evenodd" d="M318.32 151.821H316.808C315.151 151.821 313.808 153.164 313.808 154.821V165.744C313.808 167.401 315.151 168.744 316.808 168.744H333.372C335.029 168.744 336.372 167.401 336.372 165.744V154.821C336.372 153.164 335.029 151.821 333.372 151.821H331.859V155.59C331.859 157.247 330.516 158.59 328.859 158.59H321.32C319.663 158.59 318.32 157.247 318.32 155.59V151.821Z" fill="#40B3D1"/>
<rect x="319.448" y="146.18" width="11.2821" height="11.2821" rx="3" fill="#40B3D1"/>
<path fill-rule="evenodd" clip-rule="evenodd" d="M350.885 151.821H349.372C347.715 151.821 346.372 153.164 346.372 154.821V165.744C346.372 167.401 347.715 168.744 349.372 168.744H365.936C367.593 168.744 368.936 167.401 368.936 165.744V154.821C368.936 153.164 367.593 151.821 365.936 151.821H364.423V155.59C364.423 157.247 363.08 158.59 361.423 158.59H353.885C352.228 158.59 350.885 157.247 350.885 155.59V151.821Z" fill="#40B3D1"/>
<rect x="352.013" y="146.18" width="11.2821" height="11.2821" rx="3" fill="#40B3D1"/>
<path fill-rule="evenodd" clip-rule="evenodd" d="M383.449 151.821H381.937C380.28 151.821 378.937 153.164 378.937 154.821V165.744C378.937 167.401 380.28 168.744 381.937 168.744H398.501C400.157 168.744 401.501 167.401 401.501 165.744V154.821C401.501 153.164 400.157 151.821 398.501 151.821H396.988V155.59C396.988 157.247 395.645 158.59 393.988 158.59H386.449C384.793 158.59 383.449 157.247 383.449 155.59V151.821Z" fill="#40B3D1"/>
<rect x="384.578" y="146.18" width="11.2821" height="11.2821" rx="3" fill="#40B3D1"/>
<path fill-rule="evenodd" clip-rule="evenodd" d="M416.013 151.821H414.5C412.843 151.821 411.5 153.164 411.5 154.821V165.744C411.5 167.401 412.843 168.744 414.5 168.744H431.064C432.721 168.744 434.064 167.401 434.064 165.744V154.821C434.064 153.164 432.721 151.821 431.064 151.821H429.551V155.59C429.551 157.247 428.208 158.59 426.551 158.59H419.013C417.356 158.59 416.013 157.247 416.013 155.59V151.821Z" fill="#40B3D1"/>
<rect x="417.141" y="146.18" width="11.2821" height="11.2821" rx="3" fill="#40B3D1"/>
<path fill-rule="evenodd" clip-rule="evenodd" d="M448.577 151.821H447.064C445.408 151.821 444.064 153.164 444.064 154.821V165.744C444.064 167.401 445.408 168.744 447.064 168.744H463.629C465.285 168.744 466.629 167.401 466.629 165.744V154.821C466.629 153.164 465.285 151.821 463.629 151.821H462.116V155.59C462.116 157.247 460.772 158.59 459.116 158.59H451.577C449.92 158.59 448.577 157.247 448.577 155.59V151.821Z" fill="#40B3D1"/>
<rect x="449.705" y="146.18" width="11.2821" height="11.2821" rx="3" fill="#40B3D1"/>
<path fill-rule="evenodd" clip-rule="evenodd" d="M481.141 151.821H479.628C477.971 151.821 476.628 153.164 476.628 154.821V165.744C476.628 167.401 477.971 168.744 479.628 168.744H496.192C497.849 168.744 499.192 167.401 499.192 165.744V154.821C499.192 153.164 497.849 151.821 496.192 151.821H494.679V155.59C494.679 157.247 493.336 158.59 491.679 158.59H484.141C482.484 158.59 481.141 157.247 481.141 155.59V151.821Z" fill="#40B3D1"/>
<rect x="482.269" y="146.18" width="11.2821" height="11.2821" rx="3" fill="#40B3D1"/>
<path fill-rule="evenodd" clip-rule="evenodd" d="M513.705 151.821H512.192C510.536 151.821 509.192 153.164 509.192 154.821V165.744C509.192 167.401 510.536 168.744 512.192 168.744H528.756C530.413 168.744 531.756 167.401 531.756 165.744V154.821C531.756 153.164 530.413 151.821 528.756 151.821H527.244V155.59C527.244 157.247 525.901 158.59 524.244 158.59H516.705C515.048 158.59 513.705 157.247 513.705 155.59V151.821Z" fill="#40B3D1"/>
<rect x="514.834" y="146.18" width="11.2821" height="11.2821" rx="3" fill="#40B3D1"/>
<path fill-rule="evenodd" clip-rule="evenodd" d="M546.269 151.821H544.757C543.1 151.821 541.757 153.164 541.757 154.821V165.744C541.757 167.401 543.1 168.744 544.757 168.744H561.321C562.978 168.744 564.321 167.401 564.321 165.744V154.821C564.321 153.164 562.978 151.821 561.321 151.821H559.808V155.59C559.808 157.247 558.465 158.59 556.808 158.59H549.269C547.613 158.59 546.269 157.247 546.269 155.59V151.821Z" fill="#40B3D1"/>
<rect x="547.397" y="146.18" width="11.2821" height="11.2821" rx="3" fill="#40B3D1"/>
<path fill-rule="evenodd" clip-rule="evenodd" d="M253.193 184.385H251.68C250.023 184.385 248.68 185.728 248.68 187.385V198.308C248.68 199.965 250.023 201.308 251.68 201.308H268.244C269.901 201.308 271.244 199.965 271.244 198.308V187.385C271.244 185.728 269.901 184.385 268.244 184.385H266.731V188.154C266.731 189.811 265.388 191.154 263.731 191.154H256.193C254.536 191.154 253.193 189.811 253.193 188.154V184.385Z" fill="#40B3D1"/>
<rect x="254.32" y="178.744" width="11.2821" height="11.2821" rx="3" fill="#40B3D1"/>
<path fill-rule="evenodd" clip-rule="evenodd" d="M285.757 184.385H284.244C282.587 184.385 281.244 185.728 281.244 187.385V198.308C281.244 199.965 282.587 201.308 284.244 201.308H300.808C302.465 201.308 303.808 199.965 303.808 198.308V187.385C303.808 185.728 302.465 184.385 300.808 184.385H299.296V188.154C299.296 189.811 297.952 191.154 296.296 191.154H288.757C287.1 191.154 285.757 189.811 285.757 188.154V184.385Z" fill="#40B3D1"/>
<rect x="286.886" y="178.744" width="11.2821" height="11.2821" rx="3" fill="#40B3D1"/>
<path fill-rule="evenodd" clip-rule="evenodd" d="M318.32 184.385H316.808C315.151 184.385 313.808 185.728 313.808 187.385V198.308C313.808 199.965 315.151 201.308 316.808 201.308H333.372C335.029 201.308 336.372 199.965 336.372 198.308V187.385C336.372 185.728 335.029 184.385 333.372 184.385H331.859V188.154C331.859 189.811 330.516 191.154 328.859 191.154H321.32C319.663 191.154 318.32 189.811 318.32 188.154V184.385Z" fill="#40B3D1"/>
<rect x="319.448" y="178.744" width="11.2821" height="11.2821" rx="3" fill="#40B3D1"/>
<path fill-rule="evenodd" clip-rule="evenodd" d="M350.885 184.385H349.372C347.715 184.385 346.372 185.728 346.372 187.385V198.308C346.372 199.965 347.715 201.308 349.372 201.308H365.936C367.593 201.308 368.936 199.965 368.936 198.308V187.385C368.936 185.728 367.593 184.385 365.936 184.385H364.423V188.154C364.423 189.811 363.08 191.154 361.423 191.154H353.885C352.228 191.154 350.885 189.811 350.885 188.154V184.385Z" fill="#40B3D1"/>
<rect x="352.013" y="178.744" width="11.2821" height="11.2821" rx="3" fill="#40B3D1"/>
<path fill-rule="evenodd" clip-rule="evenodd" d="M383.449 184.385H381.937C380.28 184.385 378.937 185.728 378.937 187.385V198.308C378.937 199.965 380.28 201.308 381.937 201.308H398.501C400.157 201.308 401.501 199.965 401.501 198.308V187.385C401.501 185.728 400.157 184.385 398.501 184.385H396.988V188.154C396.988 189.811 395.645 191.154 393.988 191.154H386.449C384.793 191.154 383.449 189.811 383.449 188.154V184.385Z" fill="#40B3D1"/>
<rect x="384.578" y="178.744" width="11.2821" height="11.2821" rx="3" fill="#40B3D1"/>
<path fill-rule="evenodd" clip-rule="evenodd" d="M416.013 184.385H414.5C412.843 184.385 411.5 185.728 411.5 187.385V198.308C411.5 199.965 412.843 201.308 414.5 201.308H431.064C432.721 201.308 434.064 199.965 434.064 198.308V187.385C434.064 185.728 432.721 184.385 431.064 184.385H429.551V188.154C429.551 189.811 428.208 191.154 426.551 191.154H419.013C417.356 191.154 416.013 189.811 416.013 188.154V184.385Z" fill="#40B3D1"/>
<rect x="417.141" y="178.744" width="11.2821" height="11.2821" rx="3" fill="#40B3D1"/>
<path fill-rule="evenodd" clip-rule="evenodd" d="M448.577 184.385H447.064C445.408 184.385 444.064 185.728 444.064 187.385V198.308C444.064 199.965 445.408 201.308 447.064 201.308H463.629C465.285 201.308 466.629 199.965 466.629 198.308V187.385C466.629 185.728 465.285 184.385 463.629 184.385H462.116V188.154C462.116 189.811 460.772 191.154 459.116 191.154H451.577C449.92 191.154 448.577 189.811 448.577 188.154V184.385Z" fill="#40B3D1"/>
<rect x="449.705" y="178.744" width="11.2821" height="11.2821" rx="3" fill="#40B3D1"/>
<path fill-rule="evenodd" clip-rule="evenodd" d="M481.141 184.385H479.628C477.971 184.385 476.628 185.728 476.628 187.385V198.308C476.628 199.965 477.971 201.308 479.628 201.308H496.192C497.849 201.308 499.192 199.965 499.192 198.308V187.385C499.192 185.728 497.849 184.385 496.192 184.385H494.679V188.154C494.679 189.811 493.336 191.154 491.679 191.154H484.141C482.484 191.154 481.141 189.811 481.141 188.154V184.385Z" fill="#40B3D1"/>
<rect x="482.269" y="178.744" width="11.2821" height="11.2821" rx="3" fill="#40B3D1"/>
<path fill-rule="evenodd" clip-rule="evenodd" d="M513.705 184.385H512.192C510.536 184.385 509.192 185.728 509.192 187.385V198.308C509.192 199.965 510.536 201.308 512.192 201.308H528.756C530.413 201.308 531.756 199.965 531.756 198.308V187.385C531.756 185.728 530.413 184.385 528.756 184.385H527.244V188.154C527.244 189.811 525.901 191.154 524.244 191.154H516.705C515.048 191.154 513.705 189.811 513.705 188.154V184.385Z" fill="#40B3D1"/>
<rect x="514.834" y="178.744" width="11.2821" height="11.2821" rx="3" fill="#40B3D1"/>
<path fill-rule="evenodd" clip-rule="evenodd" d="M546.269 184.385H544.757C543.1 184.385 541.757 185.728 541.757 187.385V198.308C541.757 199.965 543.1 201.308 544.757 201.308H561.321C562.978 201.308 564.321 199.965 564.321 198.308V187.385C564.321 185.728 562.978 184.385 561.321 184.385H559.808V188.154C559.808 189.811 558.465 191.154 556.808 191.154H549.269C547.613 191.154 546.269 189.811 546.269 188.154V184.385Z" fill="#40B3D1"/>
<rect x="547.397" y="178.744" width="11.2821" height="11.2821" rx="3" fill="#40B3D1"/>
<path fill-rule="evenodd" clip-rule="evenodd" d="M253.193 216.949H251.68C250.023 216.949 248.68 218.292 248.68 219.949V230.872C248.68 232.529 250.023 233.872 251.68 233.872H268.244C269.901 233.872 271.244 232.529 271.244 230.872V219.949C271.244 218.292 269.901 216.949 268.244 216.949H266.731V220.718C266.731 222.375 265.388 223.718 263.731 223.718H256.193C254.536 223.718 253.193 222.375 253.193 220.718V216.949Z" fill="#40B3D1"/>
<rect x="254.32" y="211.308" width="11.2821" height="11.2821" rx="3" fill="#40B3D1"/>
<path fill-rule="evenodd" clip-rule="evenodd" d="M285.757 216.949H284.244C282.587 216.949 281.244 218.292 281.244 219.949V230.872C281.244 232.529 282.587 233.872 284.244 233.872H300.808C302.465 233.872 303.808 232.529 303.808 230.872V219.949C303.808 218.292 302.465 216.949 300.808 216.949H299.296V220.718C299.296 222.375 297.952 223.718 296.296 223.718H288.757C287.1 223.718 285.757 222.375 285.757 220.718V216.949Z" fill="#40B3D1"/>
<rect x="286.886" y="211.308" width="11.2821" height="11.2821" rx="3" fill="#40B3D1"/>
<path fill-rule="evenodd" clip-rule="evenodd" d="M318.32 216.949H316.808C315.151 216.949 313.808 218.292 313.808 219.949V230.872C313.808 232.529 315.151 233.872 316.808 233.872H333.372C335.029 233.872 336.372 232.529 336.372 230.872V219.949C336.372 218.292 335.029 216.949 333.372 216.949H331.859V220.718C331.859 222.375 330.516 223.718 328.859 223.718H321.32C319.663 223.718 318.32 222.375 318.32 220.718V216.949Z" fill="#40B3D1"/>
<rect x="319.448" y="211.308" width="11.2821" height="11.2821" rx="3" fill="#40B3D1"/>
<path fill-rule="evenodd" clip-rule="evenodd" d="M350.885 216.949H349.372C347.715 216.949 346.372 218.292 346.372 219.949V230.872C346.372 232.529 347.715 233.872 349.372 233.872H365.936C367.593 233.872 368.936 232.529 368.936 230.872V219.949C368.936 218.292 367.593 216.949 365.936 216.949H364.423V220.718C364.423 222.375 363.08 223.718 361.423 223.718H353.885C352.228 223.718 350.885 222.375 350.885 220.718V216.949Z" fill="#40B3D1"/>
<rect x="352.013" y="211.308" width="11.2821" height="11.2821" rx="3" fill="#40B3D1"/>
<path fill-rule="evenodd" clip-rule="evenodd" d="M383.449 216.949H381.937C380.28 216.949 378.937 218.292 378.937 219.949V230.872C378.937 232.529 380.28 233.872 381.937 233.872H398.501C400.157 233.872 401.501 232.529 401.501 230.872V219.949C401.501 218.292 400.157 216.949 398.501 216.949H396.988V220.718C396.988 222.375 395.645 223.718 393.988 223.718H386.449C384.793 223.718 383.449 222.375 383.449 220.718V216.949Z" fill="#40B3D1"/>
<rect x="384.578" y="211.308" width="11.2821" height="11.2821" rx="3" fill="#40B3D1"/>
<path fill-rule="evenodd" clip-rule="evenodd" d="M416.013 216.949H414.5C412.843 216.949 411.5 218.292 411.5 219.949V230.872C411.5 232.529 412.843 233.872 414.5 233.872H431.064C432.721 233.872 434.064 232.529 434.064 230.872V219.949C434.064 218.292 432.721 216.949 431.064 216.949H429.551V220.718C429.551 222.375 428.208 223.718 426.551 223.718H419.013C417.356 223.718 416.013 222.375 416.013 220.718V216.949Z" fill="#40B3D1"/>
<rect x="417.141" y="211.308" width="11.2821" height="11.2821" rx="3" fill="#40B3D1"/>
<path fill-rule="evenodd" clip-rule="evenodd" d="M448.577 216.949H447.064C445.408 216.949 444.064 218.292 444.064 219.949V230.872C444.064 232.529 445.408 233.872 447.064 233.872H463.629C465.285 233.872 466.629 232.529 466.629 230.872V219.949C466.629 218.292 465.285 216.949 463.629 216.949H462.116V220.718C462.116 222.375 460.772 223.718 459.116 223.718H451.577C449.92 223.718 448.577 222.375 448.577 220.718V216.949Z" fill="#40B3D1"/>
<rect x="449.705" y="211.308" width="11.2821" height="11.2821" rx="3" fill="#40B3D1"/>
<path fill-rule="evenodd" clip-rule="evenodd" d="M481.141 216.949H479.628C477.971 216.949 476.628 218.292 476.628 219.949V230.872C476.628 232.529 477.971 233.872 479.628 233.872H496.192C497.849 233.872 499.192 232.529 499.192 230.872V219.949C499.192 218.292 497.849 216.949 496.192 216.949H494.679V220.718C494.679 222.375 493.336 223.718 491.679 223.718H484.141C482.484 223.718 481.141 222.375 481.141 220.718V216.949Z" fill="#40B3D1"/>
<rect x="482.269" y="211.308" width="11.2821" height="11.2821" rx="3" fill="#40B3D1"/>
<path fill-rule="evenodd" clip-rule="evenodd" d="M513.705 216.949H512.192C510.536 216.949 509.192 218.292 509.192 219.949V230.872C509.192 232.529 510.536 233.872 512.192 233.872H528.756C530.413 233.872 531.756 232.529 531.756 230.872V219.949C531.756 218.292 530.413 216.949 528.756 216.949H527.244V220.718C527.244 222.375 525.901 223.718 524.244 223.718H516.705C515.048 223.718 513.705 222.375 513.705 220.718V216.949Z" fill="#40B3D1"/>
<rect x="514.834" y="211.308" width="11.2821" height="11.2821" rx="3" fill="#40B3D1"/>
<path fill-rule="evenodd" clip-rule="evenodd" d="M546.269 216.949H544.757C543.1 216.949 541.757 218.292 541.757 219.949V230.872C541.757 232.529 543.1 233.872 544.757 233.872H561.321C562.978 233.872 564.321 232.529 564.321 230.872V219.949C564.321 218.292 562.978 216.949 561.321 216.949H559.808V220.718C559.808 222.375 558.465 223.718 556.808 223.718H549.269C547.613 223.718 546.269 222.375 546.269 220.718V216.949Z" fill="#40B3D1"/>
<rect x="547.397" y="211.308" width="11.2821" height="11.2821" rx="3" fill="#40B3D1"/>
<path fill-rule="evenodd" clip-rule="evenodd" d="M590.833 151.821H589.32C587.663 151.821 586.32 153.164 586.32 154.821V165.744C586.32 167.401 587.663 168.744 589.32 168.744H605.884C607.541 168.744 608.884 167.401 608.884 165.744V154.821C608.884 153.164 607.541 151.821 605.884 151.821H604.372V155.59C604.372 157.247 603.028 158.59 601.372 158.59H593.833C592.176 158.59 590.833 157.247 590.833 155.59V151.821Z" fill="#40B3D1"/>
<rect x="591.961" y="146.18" width="11.2821" height="11.2821" rx="3" fill="#40B3D1"/>
<path fill-rule="evenodd" clip-rule="evenodd" d="M623.398 151.821H621.885C620.228 151.821 618.885 153.164 618.885 154.821V165.744C618.885 167.401 620.228 168.744 621.885 168.744H638.449C640.106 168.744 641.449 167.401 641.449 165.744V154.821C641.449 153.164 640.106 151.821 638.449 151.821H636.936V155.59C636.936 157.247 635.593 158.59 633.936 158.59H626.398C624.741 158.59 623.398 157.247 623.398 155.59V151.821Z" fill="#40B3D1"/>
<rect x="624.526" y="146.18" width="11.2821" height="11.2821" rx="3" fill="#40B3D1"/>
<path fill-rule="evenodd" clip-rule="evenodd" d="M655.961 151.821H654.448C652.791 151.821 651.448 153.164 651.448 154.821V165.744C651.448 167.401 652.791 168.744 654.448 168.744H671.012C672.669 168.744 674.012 167.401 674.012 165.744V154.821C674.012 153.164 672.669 151.821 671.012 151.821H669.499V155.59C669.499 157.247 668.156 158.59 666.499 158.59H658.961C657.304 158.59 655.961 157.247 655.961 155.59V151.821Z" fill="#40B3D1"/>
<rect x="657.089" y="146.18" width="11.2821" height="11.2821" rx="3" fill="#40B3D1"/>
<path fill-rule="evenodd" clip-rule="evenodd" d="M688.526 151.821H687.013C685.356 151.821 684.013 153.164 684.013 154.821V165.744C684.013 167.401 685.356 168.744 687.013 168.744H703.577C705.234 168.744 706.577 167.401 706.577 165.744V154.821C706.577 153.164 705.234 151.821 703.577 151.821H702.064V155.59C702.064 157.247 700.721 158.59 699.064 158.59H691.526C689.869 158.59 688.526 157.247 688.526 155.59V151.821Z" fill="#40B3D1"/>
<rect x="689.653" y="146.18" width="11.2821" height="11.2821" rx="3" fill="#40B3D1"/>
<path fill-rule="evenodd" clip-rule="evenodd" d="M590.833 184.385H589.32C587.663 184.385 586.32 185.728 586.32 187.385V198.308C586.32 199.965 587.663 201.308 589.32 201.308H605.884C607.541 201.308 608.884 199.965 608.884 198.308V187.385C608.884 185.728 607.541 184.385 605.884 184.385H604.372V188.154C604.372 189.811 603.028 191.154 601.372 191.154H593.833C592.176 191.154 590.833 189.811 590.833 188.154V184.385Z" fill="#40B3D1"/>
<rect x="591.961" y="178.744" width="11.2821" height="11.2821" rx="3" fill="#40B3D1"/>
<path fill-rule="evenodd" clip-rule="evenodd" d="M623.398 184.385H621.885C620.228 184.385 618.885 185.728 618.885 187.385V198.308C618.885 199.965 620.228 201.308 621.885 201.308H638.449C640.106 201.308 641.449 199.965 641.449 198.308V187.385C641.449 185.728 640.106 184.385 638.449 184.385H636.936V188.154C636.936 189.811 635.593 191.154 633.936 191.154H626.398C624.741 191.154 623.398 189.811 623.398 188.154V184.385Z" fill="#40B3D1"/>
<rect x="624.526" y="178.744" width="11.2821" height="11.2821" rx="3" fill="#40B3D1"/>
<path fill-rule="evenodd" clip-rule="evenodd" d="M655.961 184.385H654.448C652.791 184.385 651.448 185.728 651.448 187.385V198.308C651.448 199.965 652.791 201.308 654.448 201.308H671.012C672.669 201.308 674.012 199.965 674.012 198.308V187.385C674.012 185.728 672.669 184.385 671.012 184.385H669.499V188.154C669.499 189.811 668.156 191.154 666.499 191.154H658.961C657.304 191.154 655.961 189.811 655.961 188.154V184.385Z" fill="#40B3D1"/>
<rect x="657.089" y="178.744" width="11.2821" height="11.2821" rx="3" fill="#40B3D1"/>
<path fill-rule="evenodd" clip-rule="evenodd" d="M688.526 184.385H687.013C685.356 184.385 684.013 185.728 684.013 187.385V198.308C684.013 199.965 685.356 201.308 687.013 201.308H703.577C705.234 201.308 706.577 199.965 706.577 198.308V187.385C706.577 185.728 705.234 184.385 703.577 184.385H702.064V188.154C702.064 189.811 700.721 191.154 699.064 191.154H691.526C689.869 191.154 688.526 189.811 688.526 188.154V184.385Z" fill="#40B3D1"/>
<rect x="689.653" y="178.744" width="11.2821" height="11.2821" rx="3" fill="#40B3D1"/>
<path fill-rule="evenodd" clip-rule="evenodd" d="M590.833 216.949H589.32C587.663 216.949 586.32 218.292 586.32 219.949V230.872C586.32 232.529 587.663 233.872 589.32 233.872H605.884C607.541 233.872 608.884 232.529 608.884 230.872V219.949C608.884 218.292 607.541 216.949 605.884 216.949H604.372V220.718C604.372 222.375 603.028 223.718 601.372 223.718H593.833C592.176 223.718 590.833 222.375 590.833 220.718V216.949Z" fill="#40B3D1"/>
<rect x="591.961" y="211.308" width="11.2821" height="11.2821" rx="3" fill="#40B3D1"/>
<path fill-rule="evenodd" clip-rule="evenodd" d="M623.398 216.949H621.885C620.228 216.949 618.885 218.292 618.885 219.949V230.872C618.885 232.529 620.228 233.872 621.885 233.872H638.449C640.106 233.872 641.449 232.529 641.449 230.872V219.949C641.449 218.292 640.106 216.949 638.449 216.949H636.936V220.718C636.936 222.375 635.593 223.718 633.936 223.718H626.398C624.741 223.718 623.398 222.375 623.398 220.718V216.949Z" fill="#40B3D1"/>
<rect x="624.526" y="211.308" width="11.2821" height="11.2821" rx="3" fill="#40B3D1"/>
<path fill-rule="evenodd" clip-rule="evenodd" d="M655.961 216.949H654.448C652.791 216.949 651.448 218.292 651.448 219.949V230.872C651.448 232.529 652.791 233.872 654.448 233.872H671.012C672.669 233.872 674.012 232.529 674.012 230.872V219.949C674.012 218.292 672.669 216.949 671.012 216.949H669.499V220.718C669.499 222.375 668.156 223.718 666.499 223.718H658.961C657.304 223.718 655.961 222.375 655.961 220.718V216.949Z" fill="#40B3D1"/>
<rect x="657.089" y="211.308" width="11.2821" height="11.2821" rx="3" fill="#40B3D1"/>
<path fill-rule="evenodd" clip-rule="evenodd" d="M688.526 216.949H687.013C685.356 216.949 684.013 218.292 684.013 219.949V230.872C684.013 232.529 685.356 233.872 687.013 233.872H703.577C705.234 233.872 706.577 232.529 706.577 230.872V219.949C706.577 218.292 705.234 216.949 703.577 216.949H702.064V220.718C702.064 222.375 700.721 223.718 699.064 223.718H691.526C689.869 223.718 688.526 222.375 688.526 220.718V216.949Z" fill="#40B3D1"/>
<rect x="689.653" y="211.308" width="11.2821" height="11.2821" rx="3" fill="#40B3D1"/>
<path fill-rule="evenodd" clip-rule="evenodd" d="M110.935 261.513H109.423C107.766 261.513 106.423 262.856 106.423 264.513V275.436C106.423 277.093 107.766 278.436 109.423 278.436H125.987C127.644 278.436 128.987 277.093 128.987 275.436V264.513C128.987 262.856 127.644 261.513 125.987 261.513H124.474V265.282C124.474 266.939 123.131 268.282 121.474 268.282H113.935C112.279 268.282 110.935 266.939 110.935 265.282V261.513Z" fill="#40B3D1"/>
<rect x="112.063" y="255.872" width="11.2821" height="11.2821" rx="3" fill="#40B3D1"/>
<path fill-rule="evenodd" clip-rule="evenodd" d="M143.5 261.513H141.987C140.33 261.513 138.987 262.856 138.987 264.513V275.436C138.987 277.093 140.33 278.436 141.987 278.436H158.551C160.208 278.436 161.551 277.093 161.551 275.436V264.513C161.551 262.856 160.208 261.513 158.551 261.513H157.039V265.282C157.039 266.939 155.695 268.282 154.039 268.282H146.5C144.843 268.282 143.5 266.939 143.5 265.282V261.513Z" fill="#40B3D1"/>
<rect x="144.628" y="255.872" width="11.2821" height="11.2821" rx="3" fill="#40B3D1"/>
<path fill-rule="evenodd" clip-rule="evenodd" d="M176.064 261.513H174.551C172.894 261.513 171.551 262.856 171.551 264.513V275.436C171.551 277.093 172.894 278.436 174.551 278.436H191.115C192.772 278.436 194.115 277.093 194.115 275.436V264.513C194.115 262.856 192.772 261.513 191.115 261.513H189.602V265.282C189.602 266.939 188.259 268.282 186.602 268.282H179.064C177.407 268.282 176.064 266.939 176.064 265.282V261.513Z" fill="#40B3D1"/>
<rect x="177.192" y="255.872" width="11.2821" height="11.2821" rx="3" fill="#40B3D1"/>
<path fill-rule="evenodd" clip-rule="evenodd" d="M208.628 261.513H207.115C205.458 261.513 204.115 262.856 204.115 264.513V275.436C204.115 277.093 205.458 278.436 207.115 278.436H223.679C225.336 278.436 226.679 277.093 226.679 275.436V264.513C226.679 262.856 225.336 261.513 223.679 261.513H222.166V265.282C222.166 266.939 220.823 268.282 219.166 268.282H211.628C209.971 268.282 208.628 266.939 208.628 265.282V261.513Z" fill="#40B3D1"/>
<rect x="209.756" y="255.872" width="11.2821" height="11.2821" rx="3" fill="#40B3D1"/>
<path fill-rule="evenodd" clip-rule="evenodd" d="M110.935 294.077H109.423C107.766 294.077 106.423 295.42 106.423 297.077V308C106.423 309.657 107.766 311 109.423 311H125.987C127.644 311 128.987 309.657 128.987 308V297.077C128.987 295.42 127.644 294.077 125.987 294.077H124.474V297.846C124.474 299.503 123.131 300.846 121.474 300.846H113.935C112.279 300.846 110.935 299.503 110.935 297.846V294.077Z" fill="#40B3D1"/>
<rect x="112.063" y="288.436" width="11.2821" height="11.2821" rx="3" fill="#40B3D1"/>
<path fill-rule="evenodd" clip-rule="evenodd" d="M143.5 294.077H141.987C140.33 294.077 138.987 295.42 138.987 297.077V308C138.987 309.657 140.33 311 141.987 311H158.551C160.208 311 161.551 309.657 161.551 308V297.077C161.551 295.42 160.208 294.077 158.551 294.077H157.039V297.846C157.039 299.503 155.695 300.846 154.039 300.846H146.5C144.843 300.846 143.5 299.503 143.5 297.846V294.077Z" fill="#40B3D1"/>
<rect x="144.628" y="288.436" width="11.2821" height="11.2821" rx="3" fill="#40B3D1"/>
<path fill-rule="evenodd" clip-rule="evenodd" d="M176.064 294.077H174.551C172.894 294.077 171.551 295.42 171.551 297.077V308C171.551 309.657 172.894 311 174.551 311H191.115C192.772 311 194.115 309.657 194.115 308V297.077C194.115 295.42 192.772 294.077 191.115 294.077H189.602V297.846C189.602 299.503 188.259 300.846 186.602 300.846H179.064C177.407 300.846 176.064 299.503 176.064 297.846V294.077Z" fill="#40B3D1"/>
<rect x="177.192" y="288.436" width="11.2821" height="11.2821" rx="3" fill="#40B3D1"/>
<path fill-rule="evenodd" clip-rule="evenodd" d="M208.628 294.077H207.115C205.458 294.077 204.115 295.42 204.115 297.077V308C204.115 309.657 205.458 311 207.115 311H223.679C225.336 311 226.679 309.657 226.679 308V297.077C226.679 295.42 225.336 294.077 223.679 294.077H222.166V297.846C222.166 299.503 220.823 300.846 219.166 300.846H211.628C209.971 300.846 208.628 299.503 208.628 297.846V294.077Z" fill="#40B3D1"/>
<rect x="209.756" y="288.436" width="11.2821" height="11.2821" rx="3" fill="#40B3D1"/>
<path fill-rule="evenodd" clip-rule="evenodd" d="M110.935 326.641H109.423C107.766 326.641 106.423 327.984 106.423 329.641V340.564C106.423 342.221 107.766 343.564 109.423 343.564H125.987C127.644 343.564 128.987 342.221 128.987 340.564V329.641C128.987 327.984 127.644 326.641 125.987 326.641H124.474V330.41C124.474 332.067 123.131 333.41 121.474 333.41H113.935C112.279 333.41 110.935 332.067 110.935 330.41V326.641Z" fill="#40B3D1"/>
<rect x="112.063" y="321" width="11.2821" height="11.2821" rx="3" fill="#40B3D1"/>
<path fill-rule="evenodd" clip-rule="evenodd" d="M143.5 326.641H141.987C140.33 326.641 138.987 327.984 138.987 329.641V340.564C138.987 342.221 140.33 343.564 141.987 343.564H158.551C160.208 343.564 161.551 342.221 161.551 340.564V329.641C161.551 327.984 160.208 326.641 158.551 326.641H157.039V330.41C157.039 332.067 155.695 333.41 154.039 333.41H146.5C144.843 333.41 143.5 332.067 143.5 330.41V326.641Z" fill="#40B3D1"/>
<rect x="144.628" y="321" width="11.2821" height="11.2821" rx="3" fill="#40B3D1"/>
<path fill-rule="evenodd" clip-rule="evenodd" d="M176.064 326.641H174.551C172.894 326.641 171.551 327.984 171.551 329.641V340.564C171.551 342.221 172.894 343.564 174.551 343.564H191.115C192.772 343.564 194.115 342.221 194.115 340.564V329.641C194.115 327.984 192.772 326.641 191.115 326.641H189.602V330.41C189.602 332.067 188.259 333.41 186.602 333.41H179.064C177.407 333.41 176.064 332.067 176.064 330.41V326.641Z" fill="#40B3D1"/>
<rect x="177.192" y="321" width="11.2821" height="11.2821" rx="3" fill="#40B3D1"/>
<path fill-rule="evenodd" clip-rule="evenodd" d="M208.628 326.641H207.115C205.458 326.641 204.115 327.984 204.115 329.641V340.564C204.115 342.221 205.458 343.564 207.115 343.564H223.679C225.336 343.564 226.679 342.221 226.679 340.564V329.641C226.679 327.984 225.336 326.641 223.679 326.641H222.166V330.41C222.166 332.067 220.823 333.41 219.166 333.41H211.628C209.971 333.41 208.628 332.067 208.628 330.41V326.641Z" fill="#40B3D1"/>
<rect x="209.756" y="321" width="11.2821" height="11.2821" rx="3" fill="#40B3D1"/>
<path fill-rule="evenodd" clip-rule="evenodd" d="M110.936 359.205H109.423C107.766 359.205 106.423 360.548 106.423 362.205V373.128C106.423 374.785 107.766 376.128 109.423 376.128H125.987C127.644 376.128 128.987 374.785 128.987 373.128V362.205C128.987 360.548 127.644 359.205 125.987 359.205H124.474V362.974C124.474 364.631 123.131 365.974 121.474 365.974H113.936C112.279 365.974 110.936 364.631 110.936 362.974V359.205Z" fill="#40B3D1"/>
<rect x="112.063" y="353.564" width="11.2821" height="11.2821" rx="3" fill="#40B3D1"/>
<path fill-rule="evenodd" clip-rule="evenodd" d="M143.5 359.205H141.987C140.33 359.205 138.987 360.548 138.987 362.205V373.128C138.987 374.785 140.33 376.128 141.987 376.128H158.551C160.208 376.128 161.551 374.785 161.551 373.128V362.205C161.551 360.548 160.208 359.205 158.551 359.205H157.039V362.974C157.039 364.631 155.696 365.974 154.039 365.974H146.5C144.843 365.974 143.5 364.631 143.5 362.974V359.205Z" fill="#40B3D1"/>
<rect x="144.629" y="353.564" width="11.2821" height="11.2821" rx="3" fill="#40B3D1"/>
<path fill-rule="evenodd" clip-rule="evenodd" d="M176.064 359.205H174.551C172.894 359.205 171.551 360.548 171.551 362.205V373.128C171.551 374.785 172.894 376.128 174.551 376.128H191.115C192.772 376.128 194.115 374.785 194.115 373.128V362.205C194.115 360.548 192.772 359.205 191.115 359.205H189.602V362.974C189.602 364.631 188.259 365.974 186.602 365.974H179.064C177.407 365.974 176.064 364.631 176.064 362.974V359.205Z" fill="#40B3D1"/>
<rect x="177.191" y="353.564" width="11.2821" height="11.2821" rx="3" fill="#40B3D1"/>
<path fill-rule="evenodd" clip-rule="evenodd" d="M208.628 359.205H207.115C205.458 359.205 204.115 360.548 204.115 362.205V373.128C204.115 374.785 205.458 376.128 207.115 376.128H223.679C225.336 376.128 226.679 374.785 226.679 373.128V362.205C226.679 360.548 225.336 359.205 223.679 359.205H222.167V362.974C222.167 364.631 220.824 365.974 219.167 365.974H211.628C209.971 365.974 208.628 364.631 208.628 362.974V359.205Z" fill="#40B3D1"/>
<rect x="209.757" y="353.564" width="11.2821" height="11.2821" rx="3" fill="#40B3D1"/>
<path fill-rule="evenodd" clip-rule="evenodd" d="M253.193 261.513H251.68C250.023 261.513 248.68 262.856 248.68 264.513V275.436C248.68 277.093 250.023 278.436 251.68 278.436H268.244C269.901 278.436 271.244 277.093 271.244 275.436V264.513C271.244 262.856 269.901 261.513 268.244 261.513H266.731V265.282C266.731 266.939 265.388 268.282 263.731 268.282H256.193C254.536 268.282 253.193 266.939 253.193 265.282V261.513Z" fill="#40B3D1"/>
<rect x="254.32" y="255.872" width="11.2821" height="11.2821" rx="3" fill="#40B3D1"/>
<path fill-rule="evenodd" clip-rule="evenodd" d="M285.757 261.513H284.244C282.587 261.513 281.244 262.856 281.244 264.513V275.436C281.244 277.093 282.587 278.436 284.244 278.436H300.808C302.465 278.436 303.808 277.093 303.808 275.436V264.513C303.808 262.856 302.465 261.513 300.808 261.513H299.296V265.282C299.296 266.939 297.952 268.282 296.296 268.282H288.757C287.1 268.282 285.757 266.939 285.757 265.282V261.513Z" fill="#40B3D1"/>
<rect x="286.886" y="255.872" width="11.2821" height="11.2821" rx="3" fill="#40B3D1"/>
<path fill-rule="evenodd" clip-rule="evenodd" d="M318.32 261.513H316.808C315.151 261.513 313.808 262.856 313.808 264.513V275.436C313.808 277.093 315.151 278.436 316.808 278.436H333.372C335.029 278.436 336.372 277.093 336.372 275.436V264.513C336.372 262.856 335.029 261.513 333.372 261.513H331.859V265.282C331.859 266.939 330.516 268.282 328.859 268.282H321.32C319.663 268.282 318.32 266.939 318.32 265.282V261.513Z" fill="#40B3D1"/>
<rect x="319.448" y="255.872" width="11.2821" height="11.2821" rx="3" fill="#40B3D1"/>
<path fill-rule="evenodd" clip-rule="evenodd" d="M350.885 261.513H349.372C347.715 261.513 346.372 262.856 346.372 264.513V275.436C346.372 277.093 347.715 278.436 349.372 278.436H365.936C367.593 278.436 368.936 277.093 368.936 275.436V264.513C368.936 262.856 367.593 261.513 365.936 261.513H364.423V265.282C364.423 266.939 363.08 268.282 361.423 268.282H353.885C352.228 268.282 350.885 266.939 350.885 265.282V261.513Z" fill="#40B3D1"/>
<rect x="352.013" y="255.872" width="11.2821" height="11.2821" rx="3" fill="#40B3D1"/>
<path fill-rule="evenodd" clip-rule="evenodd" d="M383.449 261.513H381.937C380.28 261.513 378.937 262.856 378.937 264.513V275.436C378.937 277.093 380.28 278.436 381.937 278.436H398.501C400.157 278.436 401.501 277.093 401.501 275.436V264.513C401.501 262.856 400.157 261.513 398.501 261.513H396.988V265.282C396.988 266.939 395.645 268.282 393.988 268.282H386.449C384.793 268.282 383.449 266.939 383.449 265.282V261.513Z" fill="#40B3D1"/>
<rect x="384.578" y="255.872" width="11.2821" height="11.2821" rx="3" fill="#40B3D1"/>
<path fill-rule="evenodd" clip-rule="evenodd" d="M416.013 261.513H414.5C412.843 261.513 411.5 262.856 411.5 264.513V275.436C411.5 277.093 412.843 278.436 414.5 278.436H431.064C432.721 278.436 434.064 277.093 434.064 275.436V264.513C434.064 262.856 432.721 261.513 431.064 261.513H429.551V265.282C429.551 266.939 428.208 268.282 426.551 268.282H419.013C417.356 268.282 416.013 266.939 416.013 265.282V261.513Z" fill="#40B3D1"/>
<rect x="417.141" y="255.872" width="11.2821" height="11.2821" rx="3" fill="#40B3D1"/>
<path fill-rule="evenodd" clip-rule="evenodd" d="M448.577 261.513H447.064C445.408 261.513 444.064 262.856 444.064 264.513V275.436C444.064 277.093 445.408 278.436 447.064 278.436H463.629C465.285 278.436 466.629 277.093 466.629 275.436V264.513C466.629 262.856 465.285 261.513 463.629 261.513H462.116V265.282C462.116 266.939 460.772 268.282 459.116 268.282H451.577C449.92 268.282 448.577 266.939 448.577 265.282V261.513Z" fill="#40B3D1"/>
<rect x="449.705" y="255.872" width="11.2821" height="11.2821" rx="3" fill="#40B3D1"/>
<path fill-rule="evenodd" clip-rule="evenodd" d="M481.141 261.513H479.628C477.971 261.513 476.628 262.856 476.628 264.513V275.436C476.628 277.093 477.971 278.436 479.628 278.436H496.192C497.849 278.436 499.192 277.093 499.192 275.436V264.513C499.192 262.856 497.849 261.513 496.192 261.513H494.679V265.282C494.679 266.939 493.336 268.282 491.679 268.282H484.141C482.484 268.282 481.141 266.939 481.141 265.282V261.513Z" fill="#40B3D1"/>
<rect x="482.269" y="255.872" width="11.2821" height="11.2821" rx="3" fill="#40B3D1"/>
<path fill-rule="evenodd" clip-rule="evenodd" d="M513.705 261.513H512.192C510.536 261.513 509.192 262.856 509.192 264.513V275.436C509.192 277.093 510.536 278.436 512.192 278.436H528.756C530.413 278.436 531.756 277.093 531.756 275.436V264.513C531.756 262.856 530.413 261.513 528.756 261.513H527.244V265.282C527.244 266.939 525.901 268.282 524.244 268.282H516.705C515.048 268.282 513.705 266.939 513.705 265.282V261.513Z" fill="#40B3D1"/>
<rect x="514.834" y="255.872" width="11.2821" height="11.2821" rx="3" fill="#40B3D1"/>
<path fill-rule="evenodd" clip-rule="evenodd" d="M546.269 261.513H544.757C543.1 261.513 541.757 262.856 541.757 264.513V275.436C541.757 277.093 543.1 278.436 544.757 278.436H561.321C562.978 278.436 564.321 277.093 564.321 275.436V264.513C564.321 262.856 562.978 261.513 561.321 261.513H559.808V265.282C559.808 266.939 558.465 268.282 556.808 268.282H549.269C547.613 268.282 546.269 266.939 546.269 265.282V261.513Z" fill="#40B3D1"/>
<rect x="547.397" y="255.872" width="11.2821" height="11.2821" rx="3" fill="#40B3D1"/>
<path fill-rule="evenodd" clip-rule="evenodd" d="M253.193 294.077H251.68C250.023 294.077 248.68 295.42 248.68 297.077V308C248.68 309.657 250.023 311 251.68 311H268.244C269.901 311 271.244 309.657 271.244 308V297.077C271.244 295.42 269.901 294.077 268.244 294.077H266.731V297.846C266.731 299.503 265.388 300.846 263.731 300.846H256.193C254.536 300.846 253.193 299.503 253.193 297.846V294.077Z" fill="#40B3D1"/>
<rect x="254.32" y="288.436" width="11.2821" height="11.2821" rx="3" fill="#40B3D1"/>
<path fill-rule="evenodd" clip-rule="evenodd" d="M285.757 294.077H284.244C282.587 294.077 281.244 295.42 281.244 297.077V308C281.244 309.657 282.587 311 284.244 311H300.808C302.465 311 303.808 309.657 303.808 308V297.077C303.808 295.42 302.465 294.077 300.808 294.077H299.296V297.846C299.296 299.503 297.952 300.846 296.296 300.846H288.757C287.1 300.846 285.757 299.503 285.757 297.846V294.077Z" fill="#40B3D1"/>
<rect x="286.886" y="288.436" width="11.2821" height="11.2821" rx="3" fill="#40B3D1"/>
<path fill-rule="evenodd" clip-rule="evenodd" d="M318.32 294.077H316.808C315.151 294.077 313.808 295.42 313.808 297.077V308C313.808 309.657 315.151 311 316.808 311H333.372C335.029 311 336.372 309.657 336.372 308V297.077C336.372 295.42 335.029 294.077 333.372 294.077H331.859V297.846C331.859 299.503 330.516 300.846 328.859 300.846H321.32C319.663 300.846 318.32 299.503 318.32 297.846V294.077Z" fill="#40B3D1"/>
<rect x="319.448" y="288.436" width="11.2821" height="11.2821" rx="3" fill="#40B3D1"/>
<path fill-rule="evenodd" clip-rule="evenodd" d="M350.885 294.077H349.372C347.715 294.077 346.372 295.42 346.372 297.077V308C346.372 309.657 347.715 311 349.372 311H365.936C367.593 311 368.936 309.657 368.936 308V297.077C368.936 295.42 367.593 294.077 365.936 294.077H364.423V297.846C364.423 299.503 363.08 300.846 361.423 300.846H353.885C352.228 300.846 350.885 299.503 350.885 297.846V294.077Z" fill="#40B3D1"/>
<rect x="352.013" y="288.436" width="11.2821" height="11.2821" rx="3" fill="#40B3D1"/>
<path fill-rule="evenodd" clip-rule="evenodd" d="M383.449 294.077H381.937C380.28 294.077 378.937 295.42 378.937 297.077V308C378.937 309.657 380.28 311 381.937 311H398.501C400.157 311 401.501 309.657 401.501 308V297.077C401.501 295.42 400.157 294.077 398.501 294.077H396.988V297.846C396.988 299.503 395.645 300.846 393.988 300.846H386.449C384.793 300.846 383.449 299.503 383.449 297.846V294.077Z" fill="#40B3D1"/>
<rect x="384.578" y="288.436" width="11.2821" height="11.2821" rx="3" fill="#40B3D1"/>
<path fill-rule="evenodd" clip-rule="evenodd" d="M416.013 294.077H414.5C412.843 294.077 411.5 295.42 411.5 297.077V308C411.5 309.657 412.843 311 414.5 311H431.064C432.721 311 434.064 309.657 434.064 308V297.077C434.064 295.42 432.721 294.077 431.064 294.077H429.551V297.846C429.551 299.503 428.208 300.846 426.551 300.846H419.013C417.356 300.846 416.013 299.503 416.013 297.846V294.077Z" fill="#40B3D1"/>
<rect x="417.141" y="288.436" width="11.2821" height="11.2821" rx="3" fill="#40B3D1"/>
<path fill-rule="evenodd" clip-rule="evenodd" d="M448.577 294.077H447.064C445.408 294.077 444.064 295.42 444.064 297.077V308C444.064 309.657 445.408 311 447.064 311H463.629C465.285 311 466.629 309.657 466.629 308V297.077C466.629 295.42 465.285 294.077 463.629 294.077H462.116V297.846C462.116 299.503 460.772 300.846 459.116 300.846H451.577C449.92 300.846 448.577 299.503 448.577 297.846V294.077Z" fill="#40B3D1"/>
<rect x="449.705" y="288.436" width="11.2821" height="11.2821" rx="3" fill="#40B3D1"/>
<path fill-rule="evenodd" clip-rule="evenodd" d="M481.141 294.077H479.628C477.971 294.077 476.628 295.42 476.628 297.077V308C476.628 309.657 477.971 311 479.628 311H496.192C497.849 311 499.192 309.657 499.192 308V297.077C499.192 295.42 497.849 294.077 496.192 294.077H494.679V297.846C494.679 299.503 493.336 300.846 491.679 300.846H484.141C482.484 300.846 481.141 299.503 481.141 297.846V294.077Z" fill="#40B3D1"/>
<rect x="482.269" y="288.436" width="11.2821" height="11.2821" rx="3" fill="#40B3D1"/>
<path fill-rule="evenodd" clip-rule="evenodd" d="M513.705 294.077H512.192C510.536 294.077 509.192 295.42 509.192 297.077V308C509.192 309.657 510.536 311 512.192 311H528.756C530.413 311 531.756 309.657 531.756 308V297.077C531.756 295.42 530.413 294.077 528.756 294.077H527.244V297.846C527.244 299.503 525.901 300.846 524.244 300.846H516.705C515.048 300.846 513.705 299.503 513.705 297.846V294.077Z" fill="#40B3D1"/>
<rect x="514.834" y="288.436" width="11.2821" height="11.2821" rx="3" fill="#40B3D1"/>
<path fill-rule="evenodd" clip-rule="evenodd" d="M546.269 294.077H544.757C543.1 294.077 541.757 295.42 541.757 297.077V308C541.757 309.657 543.1 311 544.757 311H561.321C562.978 311 564.321 309.657 564.321 308V297.077C564.321 295.42 562.978 294.077 561.321 294.077H559.808V297.846C559.808 299.503 558.465 300.846 556.808 300.846H549.269C547.613 300.846 546.269 299.503 546.269 297.846V294.077Z" fill="#40B3D1"/>
<rect x="547.397" y="288.436" width="11.2821" height="11.2821" rx="3" fill="#40B3D1"/>
<path fill-rule="evenodd" clip-rule="evenodd" d="M253.193 326.641H251.68C250.023 326.641 248.68 327.984 248.68 329.641V340.564C248.68 342.221 250.023 343.564 251.68 343.564H268.244C269.901 343.564 271.244 342.221 271.244 340.564V329.641C271.244 327.984 269.901 326.641 268.244 326.641H266.731V330.41C266.731 332.067 265.388 333.41 263.731 333.41H256.193C254.536 333.41 253.193 332.067 253.193 330.41V326.641Z" fill="#40B3D1"/>
<rect x="254.32" y="321" width="11.2821" height="11.2821" rx="3" fill="#40B3D1"/>
<path fill-rule="evenodd" clip-rule="evenodd" d="M285.757 326.641H284.244C282.587 326.641 281.244 327.984 281.244 329.641V340.564C281.244 342.221 282.587 343.564 284.244 343.564H300.808C302.465 343.564 303.808 342.221 303.808 340.564V329.641C303.808 327.984 302.465 326.641 300.808 326.641H299.296V330.41C299.296 332.067 297.952 333.41 296.296 333.41H288.757C287.1 333.41 285.757 332.067 285.757 330.41V326.641Z" fill="#40B3D1"/>
<rect x="286.886" y="321" width="11.2821" height="11.2821" rx="3" fill="#40B3D1"/>
<path fill-rule="evenodd" clip-rule="evenodd" d="M318.32 326.641H316.808C315.151 326.641 313.808 327.984 313.808 329.641V340.564C313.808 342.221 315.151 343.564 316.808 343.564H333.372C335.029 343.564 336.372 342.221 336.372 340.564V329.641C336.372 327.984 335.029 326.641 333.372 326.641H331.859V330.41C331.859 332.067 330.516 333.41 328.859 333.41H321.32C319.663 333.41 318.32 332.067 318.32 330.41V326.641Z" fill="#40B3D1"/>
<rect x="319.448" y="321" width="11.2821" height="11.2821" rx="3" fill="#40B3D1"/>
<path fill-rule="evenodd" clip-rule="evenodd" d="M350.885 326.641H349.372C347.715 326.641 346.372 327.984 346.372 329.641V340.564C346.372 342.221 347.715 343.564 349.372 343.564H365.936C367.593 343.564 368.936 342.221 368.936 340.564V329.641C368.936 327.984 367.593 326.641 365.936 326.641H364.423V330.41C364.423 332.067 363.08 333.41 361.423 333.41H353.885C352.228 333.41 350.885 332.067 350.885 330.41V326.641Z" fill="#40B3D1"/>
<rect x="352.013" y="321" width="11.2821" height="11.2821" rx="3" fill="#40B3D1"/>
<path fill-rule="evenodd" clip-rule="evenodd" d="M383.449 326.641H381.937C380.28 326.641 378.937 327.984 378.937 329.641V340.564C378.937 342.221 380.28 343.564 381.937 343.564H398.501C400.157 343.564 401.501 342.221 401.501 340.564V329.641C401.501 327.984 400.157 326.641 398.501 326.641H396.988V330.41C396.988 332.067 395.645 333.41 393.988 333.41H386.449C384.793 333.41 383.449 332.067 383.449 330.41V326.641Z" fill="#40B3D1"/>
<rect x="384.578" y="321" width="11.2821" height="11.2821" rx="3" fill="#40B3D1"/>
<path fill-rule="evenodd" clip-rule="evenodd" d="M416.013 326.641H414.5C412.843 326.641 411.5 327.984 411.5 329.641V340.564C411.5 342.221 412.843 343.564 414.5 343.564H431.064C432.721 343.564 434.064 342.221 434.064 340.564V329.641C434.064 327.984 432.721 326.641 431.064 326.641H429.551V330.41C429.551 332.067 428.208 333.41 426.551 333.41H419.013C417.356 333.41 416.013 332.067 416.013 330.41V326.641Z" fill="#40B3D1"/>
<rect x="417.141" y="321" width="11.2821" height="11.2821" rx="3" fill="#40B3D1"/>
<path fill-rule="evenodd" clip-rule="evenodd" d="M448.577 326.641H447.064C445.408 326.641 444.064 327.984 444.064 329.641V340.564C444.064 342.221 445.408 343.564 447.064 343.564H463.629C465.285 343.564 466.629 342.221 466.629 340.564V329.641C466.629 327.984 465.285 326.641 463.629 326.641H462.116V330.41C462.116 332.067 460.772 333.41 459.116 333.41H451.577C449.92 333.41 448.577 332.067 448.577 330.41V326.641Z" fill="#40B3D1"/>
<rect x="449.705" y="321" width="11.2821" height="11.2821" rx="3" fill="#40B3D1"/>
<path fill-rule="evenodd" clip-rule="evenodd" d="M481.141 326.641H479.628C477.971 326.641 476.628 327.984 476.628 329.641V340.564C476.628 342.221 477.971 343.564 479.628 343.564H496.192C497.849 343.564 499.192 342.221 499.192 340.564V329.641C499.192 327.984 497.849 326.641 496.192 326.641H494.679V330.41C494.679 332.067 493.336 333.41 491.679 333.41H484.141C482.484 333.41 481.141 332.067 481.141 330.41V326.641Z" fill="#40B3D1"/>
<rect x="482.269" y="321" width="11.2821" height="11.2821" rx="3" fill="#40B3D1"/>
<path fill-rule="evenodd" clip-rule="evenodd" d="M513.705 326.641H512.192C510.536 326.641 509.192 327.984 509.192 329.641V340.564C509.192 342.221 510.536 343.564 512.192 343.564H528.756C530.413 343.564 531.756 342.221 531.756 340.564V329.641C531.756 327.984 530.413 326.641 528.756 326.641H527.244V330.41C527.244 332.067 525.901 333.41 524.244 333.41H516.705C515.048 333.41 513.705 332.067 513.705 330.41V326.641Z" fill="#40B3D1"/>
<rect x="514.834" y="321" width="11.2821" height="11.2821" rx="3" fill="#40B3D1"/>
<path fill-rule="evenodd" clip-rule="evenodd" d="M546.269 326.641H544.757C543.1 326.641 541.757 327.984 541.757 329.641V340.564C541.757 342.221 543.1 343.564 544.757 343.564H561.321C562.978 343.564 564.321 342.221 564.321 340.564V329.641C564.321 327.984 562.978 326.641 561.321 326.641H559.808V330.41C559.808 332.067 558.465 333.41 556.808 333.41H549.269C547.613 333.41 546.269 332.067 546.269 330.41V326.641Z" fill="#40B3D1"/>
<rect x="547.397" y="321" width="11.2821" height="11.2821" rx="3" fill="#40B3D1"/>
<path fill-rule="evenodd" clip-rule="evenodd" d="M253.192 359.205H251.68C250.023 359.205 248.68 360.548 248.68 362.205V373.128C248.68 374.785 250.023 376.128 251.68 376.128H268.244C269.901 376.128 271.244 374.785 271.244 373.128V362.205C271.244 360.548 269.901 359.205 268.244 359.205H266.731V362.974C266.731 364.631 265.388 365.974 263.731 365.974H256.192C254.536 365.974 253.192 364.631 253.192 362.974V359.205Z" fill="#40B3D1"/>
<rect x="254.32" y="353.564" width="11.2821" height="11.2821" rx="3" fill="#40B3D1"/>
<path fill-rule="evenodd" clip-rule="evenodd" d="M285.757 359.205H284.244C282.587 359.205 281.244 360.548 281.244 362.205V373.128C281.244 374.785 282.587 376.128 284.244 376.128H300.808C302.465 376.128 303.808 374.785 303.808 373.128V362.205C303.808 360.548 302.465 359.205 300.808 359.205H299.296V362.974C299.296 364.631 297.952 365.974 296.296 365.974H288.757C287.1 365.974 285.757 364.631 285.757 362.974V359.205Z" fill="#40B3D1"/>
<rect x="286.886" y="353.564" width="11.2821" height="11.2821" rx="3" fill="#40B3D1"/>
<path fill-rule="evenodd" clip-rule="evenodd" d="M318.32 359.205H316.808C315.151 359.205 313.808 360.548 313.808 362.205V373.128C313.808 374.785 315.151 376.128 316.808 376.128H333.372C335.029 376.128 336.372 374.785 336.372 373.128V362.205C336.372 360.548 335.029 359.205 333.372 359.205H331.859V362.974C331.859 364.631 330.516 365.974 328.859 365.974H321.32C319.663 365.974 318.32 364.631 318.32 362.974V359.205Z" fill="#40B3D1"/>
<rect x="319.449" y="353.564" width="11.2821" height="11.2821" rx="3" fill="#40B3D1"/>
<path fill-rule="evenodd" clip-rule="evenodd" d="M350.885 359.205H349.372C347.715 359.205 346.372 360.548 346.372 362.205V373.128C346.372 374.785 347.715 376.128 349.372 376.128H365.936C367.593 376.128 368.936 374.785 368.936 373.128V362.205C368.936 360.548 367.593 359.205 365.936 359.205H364.423V362.974C364.423 364.631 363.08 365.974 361.423 365.974H353.885C352.228 365.974 350.885 364.631 350.885 362.974V359.205Z" fill="#40B3D1"/>
<rect x="352.013" y="353.564" width="11.2821" height="11.2821" rx="3" fill="#40B3D1"/>
<path fill-rule="evenodd" clip-rule="evenodd" d="M383.449 359.205H381.937C380.28 359.205 378.937 360.548 378.937 362.205V373.128C378.937 374.785 380.28 376.128 381.937 376.128H398.501C400.157 376.128 401.501 374.785 401.501 373.128V362.205C401.501 360.548 400.157 359.205 398.501 359.205H396.988V362.974C396.988 364.631 395.645 365.974 393.988 365.974H386.449C384.793 365.974 383.449 364.631 383.449 362.974V359.205Z" fill="#40B3D1"/>
<rect x="384.578" y="353.564" width="11.2821" height="11.2821" rx="3" fill="#40B3D1"/>
<path fill-rule="evenodd" clip-rule="evenodd" d="M416.013 359.205H414.5C412.843 359.205 411.5 360.548 411.5 362.205V373.128C411.5 374.785 412.843 376.128 414.5 376.128H431.064C432.721 376.128 434.064 374.785 434.064 373.128V362.205C434.064 360.548 432.721 359.205 431.064 359.205H429.551V362.974C429.551 364.631 428.208 365.974 426.551 365.974H419.013C417.356 365.974 416.013 364.631 416.013 362.974V359.205Z" fill="#40B3D1"/>
<rect x="417.141" y="353.564" width="11.2821" height="11.2821" rx="3" fill="#40B3D1"/>
<path fill-rule="evenodd" clip-rule="evenodd" d="M448.577 359.205H447.064C445.408 359.205 444.064 360.548 444.064 362.205V373.128C444.064 374.785 445.408 376.128 447.064 376.128H463.629C465.285 376.128 466.629 374.785 466.629 373.128V362.205C466.629 360.548 465.285 359.205 463.629 359.205H462.116V362.974C462.116 364.631 460.772 365.974 459.116 365.974H451.577C449.92 365.974 448.577 364.631 448.577 362.974V359.205Z" fill="#40B3D1"/>
<rect x="449.705" y="353.564" width="11.2821" height="11.2821" rx="3" fill="#40B3D1"/>
<path fill-rule="evenodd" clip-rule="evenodd" d="M481.141 359.205H479.628C477.971 359.205 476.628 360.548 476.628 362.205V373.128C476.628 374.785 477.971 376.128 479.628 376.128H496.192C497.849 376.128 499.192 374.785 499.192 373.128V362.205C499.192 360.548 497.849 359.205 496.192 359.205H494.679V362.974C494.679 364.631 493.336 365.974 491.679 365.974H484.141C482.484 365.974 481.141 364.631 481.141 362.974V359.205Z" fill="#40B3D1"/>
<rect x="482.269" y="353.564" width="11.2821" height="11.2821" rx="3" fill="#40B3D1"/>
<path fill-rule="evenodd" clip-rule="evenodd" d="M513.705 359.205H512.192C510.536 359.205 509.192 360.548 509.192 362.205V373.128C509.192 374.785 510.536 376.128 512.192 376.128H528.756C530.413 376.128 531.756 374.785 531.756 373.128V362.205C531.756 360.548 530.413 359.205 528.756 359.205H527.244V362.974C527.244 364.631 525.901 365.974 524.244 365.974H516.705C515.048 365.974 513.705 364.631 513.705 362.974V359.205Z" fill="#40B3D1"/>
<rect x="514.834" y="353.564" width="11.2821" height="11.2821" rx="3" fill="#40B3D1"/>
<path fill-rule="evenodd" clip-rule="evenodd" d="M546.27 359.205H544.757C543.1 359.205 541.757 360.548 541.757 362.205V373.128C541.757 374.785 543.1 376.128 544.757 376.128H561.321C562.978 376.128 564.321 374.785 564.321 373.128V362.205C564.321 360.548 562.978 359.205 561.321 359.205H559.808V362.974C559.808 364.631 558.465 365.974 556.808 365.974H549.27C547.613 365.974 546.27 364.631 546.27 362.974V359.205Z" fill="#40B3D1"/>
<rect x="547.397" y="353.564" width="11.2821" height="11.2821" rx="3" fill="#40B3D1"/>
<path fill-rule="evenodd" clip-rule="evenodd" d="M590.833 261.513H589.32C587.663 261.513 586.32 262.856 586.32 264.513V275.436C586.32 277.093 587.663 278.436 589.32 278.436H605.884C607.541 278.436 608.884 277.093 608.884 275.436V264.513C608.884 262.856 607.541 261.513 605.884 261.513H604.372V265.282C604.372 266.939 603.028 268.282 601.372 268.282H593.833C592.176 268.282 590.833 266.939 590.833 265.282V261.513Z" fill="#40B3D1"/>
<rect x="591.961" y="255.872" width="11.2821" height="11.2821" rx="3" fill="#40B3D1"/>
<path fill-rule="evenodd" clip-rule="evenodd" d="M623.398 261.513H621.885C620.228 261.513 618.885 262.856 618.885 264.513V275.436C618.885 277.093 620.228 278.436 621.885 278.436H638.449C640.106 278.436 641.449 277.093 641.449 275.436V264.513C641.449 262.856 640.106 261.513 638.449 261.513H636.936V265.282C636.936 266.939 635.593 268.282 633.936 268.282H626.398C624.741 268.282 623.398 266.939 623.398 265.282V261.513Z" fill="#40B3D1"/>
<rect x="624.526" y="255.872" width="11.2821" height="11.2821" rx="3" fill="#40B3D1"/>
<path fill-rule="evenodd" clip-rule="evenodd" d="M655.961 261.513H654.448C652.791 261.513 651.448 262.856 651.448 264.513V275.436C651.448 277.093 652.791 278.436 654.448 278.436H671.012C672.669 278.436 674.012 277.093 674.012 275.436V264.513C674.012 262.856 672.669 261.513 671.012 261.513H669.499V265.282C669.499 266.939 668.156 268.282 666.499 268.282H658.961C657.304 268.282 655.961 266.939 655.961 265.282V261.513Z" fill="#40B3D1"/>
<rect x="657.089" y="255.872" width="11.2821" height="11.2821" rx="3" fill="#40B3D1"/>
<path fill-rule="evenodd" clip-rule="evenodd" d="M688.526 261.513H687.013C685.356 261.513 684.013 262.856 684.013 264.513V275.436C684.013 277.093 685.356 278.436 687.013 278.436H703.577C705.234 278.436 706.577 277.093 706.577 275.436V264.513C706.577 262.856 705.234 261.513 703.577 261.513H702.064V265.282C702.064 266.939 700.721 268.282 699.064 268.282H691.526C689.869 268.282 688.526 266.939 688.526 265.282V261.513Z" fill="#40B3D1"/>
<rect x="689.653" y="255.872" width="11.2821" height="11.2821" rx="3" fill="#40B3D1"/>
<path fill-rule="evenodd" clip-rule="evenodd" d="M590.833 294.077H589.32C587.663 294.077 586.32 295.42 586.32 297.077V308C586.32 309.657 587.663 311 589.32 311H605.884C607.541 311 608.884 309.657 608.884 308V297.077C608.884 295.42 607.541 294.077 605.884 294.077H604.372V297.846C604.372 299.503 603.028 300.846 601.372 300.846H593.833C592.176 300.846 590.833 299.503 590.833 297.846V294.077Z" fill="#40B3D1"/>
<rect x="591.961" y="288.436" width="11.2821" height="11.2821" rx="3" fill="#40B3D1"/>
<path fill-rule="evenodd" clip-rule="evenodd" d="M623.398 294.077H621.885C620.228 294.077 618.885 295.42 618.885 297.077V308C618.885 309.657 620.228 311 621.885 311H638.449C640.106 311 641.449 309.657 641.449 308V297.077C641.449 295.42 640.106 294.077 638.449 294.077H636.936V297.846C636.936 299.503 635.593 300.846 633.936 300.846H626.398C624.741 300.846 623.398 299.503 623.398 297.846V294.077Z" fill="#40B3D1"/>
<rect x="624.526" y="288.436" width="11.2821" height="11.2821" rx="3" fill="#40B3D1"/>
<path fill-rule="evenodd" clip-rule="evenodd" d="M655.961 294.077H654.448C652.791 294.077 651.448 295.42 651.448 297.077V308C651.448 309.657 652.791 311 654.448 311H671.012C672.669 311 674.012 309.657 674.012 308V297.077C674.012 295.42 672.669 294.077 671.012 294.077H669.499V297.846C669.499 299.503 668.156 300.846 666.499 300.846H658.961C657.304 300.846 655.961 299.503 655.961 297.846V294.077Z" fill="#40B3D1"/>
<rect x="657.089" y="288.436" width="11.2821" height="11.2821" rx="3" fill="#40B3D1"/>
<path fill-rule="evenodd" clip-rule="evenodd" d="M688.526 294.077H687.013C685.356 294.077 684.013 295.42 684.013 297.077V308C684.013 309.657 685.356 311 687.013 311H703.577C705.234 311 706.577 309.657 706.577 308V297.077C706.577 295.42 705.234 294.077 703.577 294.077H702.064V297.846C702.064 299.503 700.721 300.846 699.064 300.846H691.526C689.869 300.846 688.526 299.503 688.526 297.846V294.077Z" fill="#40B3D1"/>
<rect x="689.653" y="288.436" width="11.2821" height="11.2821" rx="3" fill="#40B3D1"/>
<path fill-rule="evenodd" clip-rule="evenodd" d="M590.833 326.641H589.32C587.663 326.641 586.32 327.984 586.32 329.641V340.564C586.32 342.221 587.663 343.564 589.32 343.564H605.884C607.541 343.564 608.884 342.221 608.884 340.564V329.641C608.884 327.984 607.541 326.641 605.884 326.641H604.372V330.41C604.372 332.067 603.028 333.41 601.372 333.41H593.833C592.176 333.41 590.833 332.067 590.833 330.41V326.641Z" fill="#40B3D1"/>
<rect x="591.961" y="321" width="11.2821" height="11.2821" rx="3" fill="#40B3D1"/>
<path fill-rule="evenodd" clip-rule="evenodd" d="M623.398 326.641H621.885C620.228 326.641 618.885 327.984 618.885 329.641V340.564C618.885 342.221 620.228 343.564 621.885 343.564H638.449C640.106 343.564 641.449 342.221 641.449 340.564V329.641C641.449 327.984 640.106 326.641 638.449 326.641H636.936V330.41C636.936 332.067 635.593 333.41 633.936 333.41H626.398C624.741 333.41 623.398 332.067 623.398 330.41V326.641Z" fill="#40B3D1"/>
<rect x="624.526" y="321" width="11.2821" height="11.2821" rx="3" fill="#40B3D1"/>
<path fill-rule="evenodd" clip-rule="evenodd" d="M655.961 326.641H654.448C652.791 326.641 651.448 327.984 651.448 329.641V340.564C651.448 342.221 652.791 343.564 654.448 343.564H671.012C672.669 343.564 674.012 342.221 674.012 340.564V329.641C674.012 327.984 672.669 326.641 671.012 326.641H669.499V330.41C669.499 332.067 668.156 333.41 666.499 333.41H658.961C657.304 333.41 655.961 332.067 655.961 330.41V326.641Z" fill="#40B3D1"/>
<rect x="657.089" y="321" width="11.2821" height="11.2821" rx="3" fill="#40B3D1"/>
<path fill-rule="evenodd" clip-rule="evenodd" d="M688.526 326.641H687.013C685.356 326.641 684.013 327.984 684.013 329.641V340.564C684.013 342.221 685.356 343.564 687.013 343.564H703.577C705.234 343.564 706.577 342.221 706.577 340.564V329.641C706.577 327.984 705.234 326.641 703.577 326.641H702.064V330.41C702.064 332.067 700.721 333.41 699.064 333.41H691.526C689.869 333.41 688.526 332.067 688.526 330.41V326.641Z" fill="#40B3D1"/>
<rect x="689.653" y="321" width="11.2821" height="11.2821" rx="3" fill="#40B3D1"/>
<path fill-rule="evenodd" clip-rule="evenodd" d="M590.833 359.205H589.32C587.663 359.205 586.32 360.548 586.32 362.205V373.128C586.32 374.785 587.663 376.128 589.32 376.128H605.884C607.541 376.128 608.884 374.785 608.884 373.128V362.205C608.884 360.548 607.541 359.205 605.884 359.205H604.372V362.974C604.372 364.631 603.029 365.974 601.372 365.974H593.833C592.176 365.974 590.833 364.631 590.833 362.974V359.205Z" fill="#40B3D1"/>
<rect x="591.962" y="353.564" width="11.2821" height="11.2821" rx="3" fill="#40B3D1"/>
<path fill-rule="evenodd" clip-rule="evenodd" d="M623.398 359.205H621.885C620.228 359.205 618.885 360.548 618.885 362.205V373.128C618.885 374.785 620.228 376.128 621.885 376.128H638.449C640.106 376.128 641.449 374.785 641.449 373.128V362.205C641.449 360.548 640.106 359.205 638.449 359.205H636.936V362.974C636.936 364.631 635.593 365.974 633.936 365.974H626.398C624.741 365.974 623.398 364.631 623.398 362.974V359.205Z" fill="#40B3D1"/>
<rect x="624.525" y="353.564" width="11.2821" height="11.2821" rx="3" fill="#40B3D1"/>
<path fill-rule="evenodd" clip-rule="evenodd" d="M655.961 359.205H654.448C652.791 359.205 651.448 360.548 651.448 362.205V373.128C651.448 374.785 652.791 376.128 654.448 376.128H671.012C672.669 376.128 674.012 374.785 674.012 373.128V362.205C674.012 360.548 672.669 359.205 671.012 359.205H669.5V362.974C669.5 364.631 668.157 365.974 666.5 365.974H658.961C657.304 365.974 655.961 364.631 655.961 362.974V359.205Z" fill="#40B3D1"/>
<rect x="657.09" y="353.564" width="11.2821" height="11.2821" rx="3" fill="#40B3D1"/>
<path fill-rule="evenodd" clip-rule="evenodd" d="M688.525 359.205H687.013C685.356 359.205 684.013 360.548 684.013 362.205V373.128C684.013 374.785 685.356 376.128 687.013 376.128H703.577C705.234 376.128 706.577 374.785 706.577 373.128V362.205C706.577 360.548 705.234 359.205 703.577 359.205H702.064V362.974C702.064 364.631 700.721 365.974 699.064 365.974H691.525C689.869 365.974 688.525 364.631 688.525 362.974V359.205Z" fill="#40B3D1"/>
<rect x="689.653" y="353.564" width="11.2821" height="11.2821" rx="3" fill="#40B3D1"/>
<path fill-rule="evenodd" clip-rule="evenodd" d="M110.935 403.77H109.423C107.766 403.77 106.423 405.113 106.423 406.77V417.693C106.423 419.349 107.766 420.693 109.423 420.693H125.987C127.644 420.693 128.987 419.349 128.987 417.693V406.77C128.987 405.113 127.644 403.77 125.987 403.77H124.474V407.539C124.474 409.196 123.131 410.539 121.474 410.539H113.935C112.279 410.539 110.935 409.196 110.935 407.539V403.77Z" fill="#40B3D1"/>
<rect x="112.063" y="398.128" width="11.2821" height="11.2821" rx="3" fill="#40B3D1"/>
<path fill-rule="evenodd" clip-rule="evenodd" d="M143.5 403.77H141.987C140.33 403.77 138.987 405.113 138.987 406.77V417.693C138.987 419.349 140.33 420.693 141.987 420.693H158.551C160.208 420.693 161.551 419.349 161.551 417.693V406.77C161.551 405.113 160.208 403.77 158.551 403.77H157.039V407.539C157.039 409.196 155.695 410.539 154.039 410.539H146.5C144.843 410.539 143.5 409.196 143.5 407.539V403.77Z" fill="#40B3D1"/>
<rect x="144.628" y="398.128" width="11.2821" height="11.2821" rx="3" fill="#40B3D1"/>
<path fill-rule="evenodd" clip-rule="evenodd" d="M176.064 403.77H174.551C172.894 403.77 171.551 405.113 171.551 406.77V417.693C171.551 419.349 172.894 420.693 174.551 420.693H191.115C192.772 420.693 194.115 419.349 194.115 417.693V406.77C194.115 405.113 192.772 403.77 191.115 403.77H189.602V407.539C189.602 409.196 188.259 410.539 186.602 410.539H179.064C177.407 410.539 176.064 409.196 176.064 407.539V403.77Z" fill="#40B3D1"/>
<rect x="177.192" y="398.128" width="11.2821" height="11.2821" rx="3" fill="#40B3D1"/>
<path fill-rule="evenodd" clip-rule="evenodd" d="M208.628 403.77H207.115C205.458 403.77 204.115 405.113 204.115 406.77V417.693C204.115 419.349 205.458 420.693 207.115 420.693H223.679C225.336 420.693 226.679 419.349 226.679 417.693V406.77C226.679 405.113 225.336 403.77 223.679 403.77H222.166V407.539C222.166 409.196 220.823 410.539 219.166 410.539H211.628C209.971 410.539 208.628 409.196 208.628 407.539V403.77Z" fill="#40B3D1"/>
<rect x="209.756" y="398.128" width="11.2821" height="11.2821" rx="3" fill="#40B3D1"/>
<path fill-rule="evenodd" clip-rule="evenodd" d="M110.935 436.333H109.423C107.766 436.333 106.423 437.677 106.423 439.333V450.257C106.423 451.913 107.766 453.257 109.423 453.257H125.987C127.644 453.257 128.987 451.913 128.987 450.257V439.333C128.987 437.677 127.644 436.333 125.987 436.333H124.474V440.103C124.474 441.76 123.131 443.103 121.474 443.103H113.935C112.279 443.103 110.935 441.76 110.935 440.103V436.333Z" fill="#40B3D1"/>
<rect x="112.063" y="430.692" width="11.2821" height="11.2821" rx="3" fill="#40B3D1"/>
<path fill-rule="evenodd" clip-rule="evenodd" d="M143.5 436.333H141.987C140.33 436.333 138.987 437.677 138.987 439.333V450.257C138.987 451.913 140.33 453.257 141.987 453.257H158.551C160.208 453.257 161.551 451.913 161.551 450.257V439.333C161.551 437.677 160.208 436.333 158.551 436.333H157.039V440.103C157.039 441.76 155.695 443.103 154.039 443.103H146.5C144.843 443.103 143.5 441.76 143.5 440.103V436.333Z" fill="#40B3D1"/>
<rect x="144.628" y="430.692" width="11.2821" height="11.2821" rx="3" fill="#40B3D1"/>
<path fill-rule="evenodd" clip-rule="evenodd" d="M176.064 436.333H174.551C172.894 436.333 171.551 437.677 171.551 439.333V450.257C171.551 451.913 172.894 453.257 174.551 453.257H191.115C192.772 453.257 194.115 451.913 194.115 450.257V439.333C194.115 437.677 192.772 436.333 191.115 436.333H189.602V440.103C189.602 441.76 188.259 443.103 186.602 443.103H179.064C177.407 443.103 176.064 441.76 176.064 440.103V436.333Z" fill="#40B3D1"/>
<rect x="177.192" y="430.692" width="11.2821" height="11.2821" rx="3" fill="#40B3D1"/>
<path fill-rule="evenodd" clip-rule="evenodd" d="M208.628 436.333H207.115C205.458 436.333 204.115 437.677 204.115 439.333V450.257C204.115 451.913 205.458 453.257 207.115 453.257H223.679C225.336 453.257 226.679 451.913 226.679 450.257V439.333C226.679 437.677 225.336 436.333 223.679 436.333H222.166V440.103C222.166 441.76 220.823 443.103 219.166 443.103H211.628C209.971 443.103 208.628 441.76 208.628 440.103V436.333Z" fill="#40B3D1"/>
<rect x="209.756" y="430.692" width="11.2821" height="11.2821" rx="3" fill="#40B3D1"/>
<path fill-rule="evenodd" clip-rule="evenodd" d="M110.935 468.898H109.423C107.766 468.898 106.423 470.241 106.423 471.898V482.821C106.423 484.478 107.766 485.821 109.423 485.821H125.987C127.644 485.821 128.987 484.478 128.987 482.821V471.898C128.987 470.241 127.644 468.898 125.987 468.898H124.474V472.667C124.474 474.324 123.131 475.667 121.474 475.667H113.935C112.279 475.667 110.935 474.324 110.935 472.667V468.898Z" fill="#40B3D1"/>
<rect x="112.063" y="463.257" width="11.2821" height="11.2821" rx="3" fill="#40B3D1"/>
<path fill-rule="evenodd" clip-rule="evenodd" d="M143.5 468.898H141.987C140.33 468.898 138.987 470.241 138.987 471.898V482.821C138.987 484.478 140.33 485.821 141.987 485.821H158.551C160.208 485.821 161.551 484.478 161.551 482.821V471.898C161.551 470.241 160.208 468.898 158.551 468.898H157.039V472.667C157.039 474.324 155.695 475.667 154.039 475.667H146.5C144.843 475.667 143.5 474.324 143.5 472.667V468.898Z" fill="#40B3D1"/>
<rect x="144.628" y="463.257" width="11.2821" height="11.2821" rx="3" fill="#40B3D1"/>
<path fill-rule="evenodd" clip-rule="evenodd" d="M176.064 468.898H174.551C172.894 468.898 171.551 470.241 171.551 471.898V482.821C171.551 484.478 172.894 485.821 174.551 485.821H191.115C192.772 485.821 194.115 484.478 194.115 482.821V471.898C194.115 470.241 192.772 468.898 191.115 468.898H189.602V472.667C189.602 474.324 188.259 475.667 186.602 475.667H179.064C177.407 475.667 176.064 474.324 176.064 472.667V468.898Z" fill="#40B3D1"/>
<rect x="177.192" y="463.257" width="11.2821" height="11.2821" rx="3" fill="#40B3D1"/>
<path fill-rule="evenodd" clip-rule="evenodd" d="M208.628 468.898H207.115C205.458 468.898 204.115 470.241 204.115 471.898V482.821C204.115 484.478 205.458 485.821 207.115 485.821H223.679C225.336 485.821 226.679 484.478 226.679 482.821V471.898C226.679 470.241 225.336 468.898 223.679 468.898H222.166V472.667C222.166 474.324 220.823 475.667 219.166 475.667H211.628C209.971 475.667 208.628 474.324 208.628 472.667V468.898Z" fill="#40B3D1"/>
<rect x="209.756" y="463.257" width="11.2821" height="11.2821" rx="3" fill="#40B3D1"/>
<path fill-rule="evenodd" clip-rule="evenodd" d="M253.193 403.77H251.68C250.023 403.77 248.68 405.113 248.68 406.77V417.693C248.68 419.349 250.023 420.693 251.68 420.693H268.244C269.901 420.693 271.244 419.349 271.244 417.693V406.77C271.244 405.113 269.901 403.77 268.244 403.77H266.731V407.539C266.731 409.196 265.388 410.539 263.731 410.539H256.193C254.536 410.539 253.193 409.196 253.193 407.539V403.77Z" fill="#40B3D1"/>
<rect x="254.32" y="398.128" width="11.2821" height="11.2821" rx="3" fill="#40B3D1"/>
<path fill-rule="evenodd" clip-rule="evenodd" d="M285.757 403.77H284.244C282.587 403.77 281.244 405.113 281.244 406.77V417.693C281.244 419.349 282.587 420.693 284.244 420.693H300.808C302.465 420.693 303.808 419.349 303.808 417.693V406.77C303.808 405.113 302.465 403.77 300.808 403.77H299.296V407.539C299.296 409.196 297.952 410.539 296.296 410.539H288.757C287.1 410.539 285.757 409.196 285.757 407.539V403.77Z" fill="#40B3D1"/>
<rect x="286.886" y="398.128" width="11.2821" height="11.2821" rx="3" fill="#40B3D1"/>
<path fill-rule="evenodd" clip-rule="evenodd" d="M318.32 403.77H316.808C315.151 403.77 313.808 405.113 313.808 406.77V417.693C313.808 419.349 315.151 420.693 316.808 420.693H333.372C335.029 420.693 336.372 419.349 336.372 417.693V406.77C336.372 405.113 335.029 403.77 333.372 403.77H331.859V407.539C331.859 409.196 330.516 410.539 328.859 410.539H321.32C319.663 410.539 318.32 409.196 318.32 407.539V403.77Z" fill="#40B3D1"/>
<rect x="319.448" y="398.128" width="11.2821" height="11.2821" rx="3" fill="#40B3D1"/>
<path fill-rule="evenodd" clip-rule="evenodd" d="M350.885 403.77H349.372C347.715 403.77 346.372 405.113 346.372 406.77V417.693C346.372 419.349 347.715 420.693 349.372 420.693H365.936C367.593 420.693 368.936 419.349 368.936 417.693V406.77C368.936 405.113 367.593 403.77 365.936 403.77H364.423V407.539C364.423 409.196 363.08 410.539 361.423 410.539H353.885C352.228 410.539 350.885 409.196 350.885 407.539V403.77Z" fill="#40B3D1"/>
<rect x="352.013" y="398.128" width="11.2821" height="11.2821" rx="3" fill="#40B3D1"/>
<path fill-rule="evenodd" clip-rule="evenodd" d="M383.449 403.77H381.937C380.28 403.77 378.937 405.113 378.937 406.77V417.693C378.937 419.349 380.28 420.693 381.937 420.693H398.501C400.157 420.693 401.501 419.349 401.501 417.693V406.77C401.501 405.113 400.157 403.77 398.501 403.77H396.988V407.539C396.988 409.196 395.645 410.539 393.988 410.539H386.449C384.793 410.539 383.449 409.196 383.449 407.539V403.77Z" fill="#40B3D1"/>
<rect x="384.578" y="398.128" width="11.2821" height="11.2821" rx="3" fill="#40B3D1"/>
<path fill-rule="evenodd" clip-rule="evenodd" d="M416.013 403.77H414.5C412.843 403.77 411.5 405.113 411.5 406.77V417.693C411.5 419.349 412.843 420.693 414.5 420.693H431.064C432.721 420.693 434.064 419.349 434.064 417.693V406.77C434.064 405.113 432.721 403.77 431.064 403.77H429.551V407.539C429.551 409.196 428.208 410.539 426.551 410.539H419.013C417.356 410.539 416.013 409.196 416.013 407.539V403.77Z" fill="#40B3D1"/>
<rect x="417.141" y="398.128" width="11.2821" height="11.2821" rx="3" fill="#40B3D1"/>
<path fill-rule="evenodd" clip-rule="evenodd" d="M448.577 403.77H447.064C445.408 403.77 444.064 405.113 444.064 406.77V417.693C444.064 419.349 445.408 420.693 447.064 420.693H463.629C465.285 420.693 466.629 419.349 466.629 417.693V406.77C466.629 405.113 465.285 403.77 463.629 403.77H462.116V407.539C462.116 409.196 460.772 410.539 459.116 410.539H451.577C449.92 410.539 448.577 409.196 448.577 407.539V403.77Z" fill="#40B3D1"/>
<rect x="449.705" y="398.128" width="11.2821" height="11.2821" rx="3" fill="#40B3D1"/>
<path fill-rule="evenodd" clip-rule="evenodd" d="M481.141 403.77H479.628C477.971 403.77 476.628 405.113 476.628 406.77V417.693C476.628 419.349 477.971 420.693 479.628 420.693H496.192C497.849 420.693 499.192 419.349 499.192 417.693V406.77C499.192 405.113 497.849 403.77 496.192 403.77H494.679V407.539C494.679 409.196 493.336 410.539 491.679 410.539H484.141C482.484 410.539 481.141 409.196 481.141 407.539V403.77Z" fill="#40B3D1"/>
<rect x="482.269" y="398.128" width="11.2821" height="11.2821" rx="3" fill="#40B3D1"/>
<path fill-rule="evenodd" clip-rule="evenodd" d="M513.705 403.77H512.192C510.536 403.77 509.192 405.113 509.192 406.77V417.693C509.192 419.349 510.536 420.693 512.192 420.693H528.756C530.413 420.693 531.756 419.349 531.756 417.693V406.77C531.756 405.113 530.413 403.77 528.756 403.77H527.244V407.539C527.244 409.196 525.901 410.539 524.244 410.539H516.705C515.048 410.539 513.705 409.196 513.705 407.539V403.77Z" fill="#40B3D1"/>
<rect x="514.834" y="398.128" width="11.2821" height="11.2821" rx="3" fill="#40B3D1"/>
<path fill-rule="evenodd" clip-rule="evenodd" d="M546.269 403.77H544.757C543.1 403.77 541.757 405.113 541.757 406.77V417.693C541.757 419.349 543.1 420.693 544.757 420.693H561.321C562.978 420.693 564.321 419.349 564.321 417.693V406.77C564.321 405.113 562.978 403.77 561.321 403.77H559.808V407.539C559.808 409.196 558.465 410.539 556.808 410.539H549.269C547.613 410.539 546.269 409.196 546.269 407.539V403.77Z" fill="#40B3D1"/>
<rect x="547.397" y="398.128" width="11.2821" height="11.2821" rx="3" fill="#40B3D1"/>
<path fill-rule="evenodd" clip-rule="evenodd" d="M253.193 436.333H251.68C250.023 436.333 248.68 437.677 248.68 439.333V450.257C248.68 451.913 250.023 453.257 251.68 453.257H268.244C269.901 453.257 271.244 451.913 271.244 450.257V439.333C271.244 437.677 269.901 436.333 268.244 436.333H266.731V440.103C266.731 441.76 265.388 443.103 263.731 443.103H256.193C254.536 443.103 253.193 441.76 253.193 440.103V436.333Z" fill="#40B3D1"/>
<rect x="254.32" y="430.692" width="11.2821" height="11.2821" rx="3" fill="#40B3D1"/>
<path fill-rule="evenodd" clip-rule="evenodd" d="M285.757 436.333H284.244C282.587 436.333 281.244 437.677 281.244 439.333V450.257C281.244 451.913 282.587 453.257 284.244 453.257H300.808C302.465 453.257 303.808 451.913 303.808 450.257V439.333C303.808 437.677 302.465 436.333 300.808 436.333H299.296V440.103C299.296 441.76 297.952 443.103 296.296 443.103H288.757C287.1 443.103 285.757 441.76 285.757 440.103V436.333Z" fill="#40B3D1"/>
<rect x="286.886" y="430.692" width="11.2821" height="11.2821" rx="3" fill="#40B3D1"/>
<path fill-rule="evenodd" clip-rule="evenodd" d="M318.32 436.333H316.808C315.151 436.333 313.808 437.677 313.808 439.333V450.257C313.808 451.913 315.151 453.257 316.808 453.257H333.372C335.029 453.257 336.372 451.913 336.372 450.257V439.333C336.372 437.677 335.029 436.333 333.372 436.333H331.859V440.103C331.859 441.76 330.516 443.103 328.859 443.103H321.32C319.663 443.103 318.32 441.76 318.32 440.103V436.333Z" fill="#40B3D1"/>
<rect x="319.448" y="430.692" width="11.2821" height="11.2821" rx="3" fill="#40B3D1"/>
<path fill-rule="evenodd" clip-rule="evenodd" d="M350.885 436.333H349.372C347.715 436.333 346.372 437.677 346.372 439.333V450.257C346.372 451.913 347.715 453.257 349.372 453.257H365.936C367.593 453.257 368.936 451.913 368.936 450.257V439.333C368.936 437.677 367.593 436.333 365.936 436.333H364.423V440.103C364.423 441.76 363.08 443.103 361.423 443.103H353.885C352.228 443.103 350.885 441.76 350.885 440.103V436.333Z" fill="#40B3D1"/>
<rect x="352.013" y="430.692" width="11.2821" height="11.2821" rx="3" fill="#40B3D1"/>
<path fill-rule="evenodd" clip-rule="evenodd" d="M383.449 436.333H381.937C380.28 436.333 378.937 437.677 378.937 439.333V450.257C378.937 451.913 380.28 453.257 381.937 453.257H398.501C400.157 453.257 401.501 451.913 401.501 450.257V439.333C401.501 437.677 400.157 436.333 398.501 436.333H396.988V440.103C396.988 441.76 395.645 443.103 393.988 443.103H386.449C384.793 443.103 383.449 441.76 383.449 440.103V436.333Z" fill="#40B3D1"/>
<rect x="384.578" y="430.692" width="11.2821" height="11.2821" rx="3" fill="#40B3D1"/>
<path fill-rule="evenodd" clip-rule="evenodd" d="M416.013 436.333H414.5C412.843 436.333 411.5 437.677 411.5 439.333V450.257C411.5 451.913 412.843 453.257 414.5 453.257H431.064C432.721 453.257 434.064 451.913 434.064 450.257V439.333C434.064 437.677 432.721 436.333 431.064 436.333H429.551V440.103C429.551 441.76 428.208 443.103 426.551 443.103H419.013C417.356 443.103 416.013 441.76 416.013 440.103V436.333Z" fill="#40B3D1"/>
<rect x="417.141" y="430.692" width="11.2821" height="11.2821" rx="3" fill="#40B3D1"/>
<path fill-rule="evenodd" clip-rule="evenodd" d="M448.577 436.333H447.064C445.408 436.333 444.064 437.677 444.064 439.333V450.257C444.064 451.913 445.408 453.257 447.064 453.257H463.629C465.285 453.257 466.629 451.913 466.629 450.257V439.333C466.629 437.677 465.285 436.333 463.629 436.333H462.116V440.103C462.116 441.76 460.772 443.103 459.116 443.103H451.577C449.92 443.103 448.577 441.76 448.577 440.103V436.333Z" fill="#40B3D1"/>
<rect x="449.705" y="430.692" width="11.2821" height="11.2821" rx="3" fill="#40B3D1"/>
<path fill-rule="evenodd" clip-rule="evenodd" d="M481.141 436.333H479.628C477.971 436.333 476.628 437.677 476.628 439.333V450.257C476.628 451.913 477.971 453.257 479.628 453.257H496.192C497.849 453.257 499.192 451.913 499.192 450.257V439.333C499.192 437.677 497.849 436.333 496.192 436.333H494.679V440.103C494.679 441.76 493.336 443.103 491.679 443.103H484.141C482.484 443.103 481.141 441.76 481.141 440.103V436.333Z" fill="#40B3D1"/>
<rect x="482.269" y="430.692" width="11.2821" height="11.2821" rx="3" fill="#40B3D1"/>
<path fill-rule="evenodd" clip-rule="evenodd" d="M513.705 436.333H512.192C510.536 436.333 509.192 437.677 509.192 439.333V450.257C509.192 451.913 510.536 453.257 512.192 453.257H528.756C530.413 453.257 531.756 451.913 531.756 450.257V439.333C531.756 437.677 530.413 436.333 528.756 436.333H527.244V440.103C527.244 441.76 525.901 443.103 524.244 443.103H516.705C515.048 443.103 513.705 441.76 513.705 440.103V436.333Z" fill="#40B3D1"/>
<rect x="514.834" y="430.692" width="11.2821" height="11.2821" rx="3" fill="#40B3D1"/>
<path fill-rule="evenodd" clip-rule="evenodd" d="M546.269 436.333H544.757C543.1 436.333 541.757 437.677 541.757 439.333V450.257C541.757 451.913 543.1 453.257 544.757 453.257H561.321C562.978 453.257 564.321 451.913 564.321 450.257V439.333C564.321 437.677 562.978 436.333 561.321 436.333H559.808V440.103C559.808 441.76 558.465 443.103 556.808 443.103H549.269C547.613 443.103 546.269 441.76 546.269 440.103V436.333Z" fill="#40B3D1"/>
<rect x="547.397" y="430.692" width="11.2821" height="11.2821" rx="3" fill="#40B3D1"/>
<path fill-rule="evenodd" clip-rule="evenodd" d="M253.193 468.898H251.68C250.023 468.898 248.68 470.241 248.68 471.898V482.821C248.68 484.478 250.023 485.821 251.68 485.821H268.244C269.901 485.821 271.244 484.478 271.244 482.821V471.898C271.244 470.241 269.901 468.898 268.244 468.898H266.731V472.667C266.731 474.324 265.388 475.667 263.731 475.667H256.193C254.536 475.667 253.193 474.324 253.193 472.667V468.898Z" fill="#40B3D1"/>
<rect x="254.32" y="463.257" width="11.2821" height="11.2821" rx="3" fill="#40B3D1"/>
<path fill-rule="evenodd" clip-rule="evenodd" d="M285.757 468.898H284.244C282.587 468.898 281.244 470.241 281.244 471.898V482.821C281.244 484.478 282.587 485.821 284.244 485.821H300.808C302.465 485.821 303.808 484.478 303.808 482.821V471.898C303.808 470.241 302.465 468.898 300.808 468.898H299.296V472.667C299.296 474.324 297.952 475.667 296.296 475.667H288.757C287.1 475.667 285.757 474.324 285.757 472.667V468.898Z" fill="#40B3D1"/>
<rect x="286.886" y="463.257" width="11.2821" height="11.2821" rx="3" fill="#40B3D1"/>
<path fill-rule="evenodd" clip-rule="evenodd" d="M318.32 468.898H316.808C315.151 468.898 313.808 470.241 313.808 471.898V482.821C313.808 484.478 315.151 485.821 316.808 485.821H333.372C335.029 485.821 336.372 484.478 336.372 482.821V471.898C336.372 470.241 335.029 468.898 333.372 468.898H331.859V472.667C331.859 474.324 330.516 475.667 328.859 475.667H321.32C319.663 475.667 318.32 474.324 318.32 472.667V468.898Z" fill="#40B3D1"/>
<rect x="319.448" y="463.257" width="11.2821" height="11.2821" rx="3" fill="#40B3D1"/>
<path fill-rule="evenodd" clip-rule="evenodd" d="M350.885 468.898H349.372C347.715 468.898 346.372 470.241 346.372 471.898V482.821C346.372 484.478 347.715 485.821 349.372 485.821H365.936C367.593 485.821 368.936 484.478 368.936 482.821V471.898C368.936 470.241 367.593 468.898 365.936 468.898H364.423V472.667C364.423 474.324 363.08 475.667 361.423 475.667H353.885C352.228 475.667 350.885 474.324 350.885 472.667V468.898Z" fill="#40B3D1"/>
<rect x="352.013" y="463.257" width="11.2821" height="11.2821" rx="3" fill="#40B3D1"/>
<path fill-rule="evenodd" clip-rule="evenodd" d="M383.449 468.898H381.937C380.28 468.898 378.937 470.241 378.937 471.898V482.821C378.937 484.478 380.28 485.821 381.937 485.821H398.501C400.157 485.821 401.501 484.478 401.501 482.821V471.898C401.501 470.241 400.157 468.898 398.501 468.898H396.988V472.667C396.988 474.324 395.645 475.667 393.988 475.667H386.449C384.793 475.667 383.449 474.324 383.449 472.667V468.898Z" fill="#40B3D1"/>
<rect x="384.578" y="463.257" width="11.2821" height="11.2821" rx="3" fill="#40B3D1"/>
<path fill-rule="evenodd" clip-rule="evenodd" d="M416.013 468.898H414.5C412.843 468.898 411.5 470.241 411.5 471.898V482.821C411.5 484.478 412.843 485.821 414.5 485.821H431.064C432.721 485.821 434.064 484.478 434.064 482.821V471.898C434.064 470.241 432.721 468.898 431.064 468.898H429.551V472.667C429.551 474.324 428.208 475.667 426.551 475.667H419.013C417.356 475.667 416.013 474.324 416.013 472.667V468.898Z" fill="#40B3D1"/>
<rect x="417.141" y="463.257" width="11.2821" height="11.2821" rx="3" fill="#40B3D1"/>
<path fill-rule="evenodd" clip-rule="evenodd" d="M448.577 468.898H447.064C445.408 468.898 444.064 470.241 444.064 471.898V482.821C444.064 484.478 445.408 485.821 447.064 485.821H463.629C465.285 485.821 466.629 484.478 466.629 482.821V471.898C466.629 470.241 465.285 468.898 463.629 468.898H462.116V472.667C462.116 474.324 460.772 475.667 459.116 475.667H451.577C449.92 475.667 448.577 474.324 448.577 472.667V468.898Z" fill="#40B3D1"/>
<rect x="449.705" y="463.257" width="11.2821" height="11.2821" rx="3" fill="#40B3D1"/>
<path fill-rule="evenodd" clip-rule="evenodd" d="M481.141 468.898H479.628C477.971 468.898 476.628 470.241 476.628 471.898V482.821C476.628 484.478 477.971 485.821 479.628 485.821H496.192C497.849 485.821 499.192 484.478 499.192 482.821V471.898C499.192 470.241 497.849 468.898 496.192 468.898H494.679V472.667C494.679 474.324 493.336 475.667 491.679 475.667H484.141C482.484 475.667 481.141 474.324 481.141 472.667V468.898Z" fill="#40B3D1"/>
<rect x="482.269" y="463.257" width="11.2821" height="11.2821" rx="3" fill="#40B3D1"/>
<path fill-rule="evenodd" clip-rule="evenodd" d="M513.705 468.898H512.192C510.536 468.898 509.192 470.241 509.192 471.898V482.821C509.192 484.478 510.536 485.821 512.192 485.821H528.756C530.413 485.821 531.756 484.478 531.756 482.821V471.898C531.756 470.241 530.413 468.898 528.756 468.898H527.244V472.667C527.244 474.324 525.901 475.667 524.244 475.667H516.705C515.048 475.667 513.705 474.324 513.705 472.667V468.898Z" fill="#40B3D1"/>
<rect x="514.834" y="463.257" width="11.2821" height="11.2821" rx="3" fill="#40B3D1"/>
<path fill-rule="evenodd" clip-rule="evenodd" d="M546.269 468.898H544.757C543.1 468.898 541.757 470.241 541.757 471.898V482.821C541.757 484.478 543.1 485.821 544.757 485.821H561.321C562.978 485.821 564.321 484.478 564.321 482.821V471.898C564.321 470.241 562.978 468.898 561.321 468.898H559.808V472.667C559.808 474.324 558.465 475.667 556.808 475.667H549.269C547.613 475.667 546.269 474.324 546.269 472.667V468.898Z" fill="#40B3D1"/>
<rect x="547.397" y="463.257" width="11.2821" height="11.2821" rx="3" fill="#40B3D1"/>
<path fill-rule="evenodd" clip-rule="evenodd" d="M590.833 403.77H589.32C587.663 403.77 586.32 405.113 586.32 406.77V417.693C586.32 419.349 587.663 420.693 589.32 420.693H605.884C607.541 420.693 608.884 419.349 608.884 417.693V406.77C608.884 405.113 607.541 403.77 605.884 403.77H604.372V407.539C604.372 409.196 603.028 410.539 601.372 410.539H593.833C592.176 410.539 590.833 409.196 590.833 407.539V403.77Z" fill="#40B3D1"/>
<rect x="591.961" y="398.128" width="11.2821" height="11.2821" rx="3" fill="#40B3D1"/>
<path fill-rule="evenodd" clip-rule="evenodd" d="M623.398 403.77H621.885C620.228 403.77 618.885 405.113 618.885 406.77V417.693C618.885 419.349 620.228 420.693 621.885 420.693H638.449C640.106 420.693 641.449 419.349 641.449 417.693V406.77C641.449 405.113 640.106 403.77 638.449 403.77H636.936V407.539C636.936 409.196 635.593 410.539 633.936 410.539H626.398C624.741 410.539 623.398 409.196 623.398 407.539V403.77Z" fill="#40B3D1"/>
<rect x="624.526" y="398.128" width="11.2821" height="11.2821" rx="3" fill="#40B3D1"/>
<path fill-rule="evenodd" clip-rule="evenodd" d="M655.961 403.77H654.448C652.791 403.77 651.448 405.113 651.448 406.77V417.693C651.448 419.349 652.791 420.693 654.448 420.693H671.012C672.669 420.693 674.012 419.349 674.012 417.693V406.77C674.012 405.113 672.669 403.77 671.012 403.77H669.499V407.539C669.499 409.196 668.156 410.539 666.499 410.539H658.961C657.304 410.539 655.961 409.196 655.961 407.539V403.77Z" fill="#40B3D1"/>
<rect x="657.089" y="398.128" width="11.2821" height="11.2821" rx="3" fill="#40B3D1"/>
<path fill-rule="evenodd" clip-rule="evenodd" d="M688.526 403.77H687.013C685.356 403.77 684.013 405.113 684.013 406.77V417.693C684.013 419.349 685.356 420.693 687.013 420.693H703.577C705.234 420.693 706.577 419.349 706.577 417.693V406.77C706.577 405.113 705.234 403.77 703.577 403.77H702.064V407.539C702.064 409.196 700.721 410.539 699.064 410.539H691.526C689.869 410.539 688.526 409.196 688.526 407.539V403.77Z" fill="#40B3D1"/>
<rect x="689.653" y="398.128" width="11.2821" height="11.2821" rx="3" fill="#40B3D1"/>
<path fill-rule="evenodd" clip-rule="evenodd" d="M590.833 436.333H589.32C587.663 436.333 586.32 437.677 586.32 439.333V450.257C586.32 451.913 587.663 453.257 589.32 453.257H605.884C607.541 453.257 608.884 451.913 608.884 450.257V439.333C608.884 437.677 607.541 436.333 605.884 436.333H604.372V440.103C604.372 441.76 603.028 443.103 601.372 443.103H593.833C592.176 443.103 590.833 441.76 590.833 440.103V436.333Z" fill="#40B3D1"/>
<rect x="591.961" y="430.692" width="11.2821" height="11.2821" rx="3" fill="#40B3D1"/>
<path fill-rule="evenodd" clip-rule="evenodd" d="M623.398 436.333H621.885C620.228 436.333 618.885 437.677 618.885 439.333V450.257C618.885 451.913 620.228 453.257 621.885 453.257H638.449C640.106 453.257 641.449 451.913 641.449 450.257V439.333C641.449 437.677 640.106 436.333 638.449 436.333H636.936V440.103C636.936 441.76 635.593 443.103 633.936 443.103H626.398C624.741 443.103 623.398 441.76 623.398 440.103V436.333Z" fill="#40B3D1"/>
<rect x="624.526" y="430.692" width="11.2821" height="11.2821" rx="3" fill="#40B3D1"/>
<path fill-rule="evenodd" clip-rule="evenodd" d="M655.961 436.333H654.448C652.791 436.333 651.448 437.677 651.448 439.333V450.257C651.448 451.913 652.791 453.257 654.448 453.257H671.012C672.669 453.257 674.012 451.913 674.012 450.257V439.333C674.012 437.677 672.669 436.333 671.012 436.333H669.499V440.103C669.499 441.76 668.156 443.103 666.499 443.103H658.961C657.304 443.103 655.961 441.76 655.961 440.103V436.333Z" fill="#40B3D1"/>
<rect x="657.089" y="430.692" width="11.2821" height="11.2821" rx="3" fill="#40B3D1"/>
<path fill-rule="evenodd" clip-rule="evenodd" d="M688.526 436.333H687.013C685.356 436.333 684.013 437.677 684.013 439.333V450.257C684.013 451.913 685.356 453.257 687.013 453.257H703.577C705.234 453.257 706.577 451.913 706.577 450.257V439.333C706.577 437.677 705.234 436.333 703.577 436.333H702.064V440.103C702.064 441.76 700.721 443.103 699.064 443.103H691.526C689.869 443.103 688.526 441.76 688.526 440.103V436.333Z" fill="#40B3D1"/>
<rect x="689.653" y="430.692" width="11.2821" height="11.2821" rx="3" fill="#40B3D1"/>
<path fill-rule="evenodd" clip-rule="evenodd" d="M590.833 468.898H589.32C587.663 468.898 586.32 470.241 586.32 471.898V482.821C586.32 484.478 587.663 485.821 589.32 485.821H605.884C607.541 485.821 608.884 484.478 608.884 482.821V471.898C608.884 470.241 607.541 468.898 605.884 468.898H604.372V472.667C604.372 474.324 603.028 475.667 601.372 475.667H593.833C592.176 475.667 590.833 474.324 590.833 472.667V468.898Z" fill="#40B3D1"/>
<rect x="591.961" y="463.257" width="11.2821" height="11.2821" rx="3" fill="#40B3D1"/>
<path fill-rule="evenodd" clip-rule="evenodd" d="M623.398 468.898H621.885C620.228 468.898 618.885 470.241 618.885 471.898V482.821C618.885 484.478 620.228 485.821 621.885 485.821H638.449C640.106 485.821 641.449 484.478 641.449 482.821V471.898C641.449 470.241 640.106 468.898 638.449 468.898H636.936V472.667C636.936 474.324 635.593 475.667 633.936 475.667H626.398C624.741 475.667 623.398 474.324 623.398 472.667V468.898Z" fill="#40B3D1"/>
<rect x="624.526" y="463.257" width="11.2821" height="11.2821" rx="3" fill="#40B3D1"/>
<path fill-rule="evenodd" clip-rule="evenodd" d="M655.961 468.898H654.448C652.791 468.898 651.448 470.241 651.448 471.898V482.821C651.448 484.478 652.791 485.821 654.448 485.821H671.012C672.669 485.821 674.012 484.478 674.012 482.821V471.898C674.012 470.241 672.669 468.898 671.012 468.898H669.499V472.667C669.499 474.324 668.156 475.667 666.499 475.667H658.961C657.304 475.667 655.961 474.324 655.961 472.667V468.898Z" fill="#40B3D1"/>
<rect x="657.089" y="463.257" width="11.2821" height="11.2821" rx="3" fill="#40B3D1"/>
<path fill-rule="evenodd" clip-rule="evenodd" d="M688.526 468.898H687.013C685.356 468.898 684.013 470.241 684.013 471.898V482.821C684.013 484.478 685.356 485.821 687.013 485.821H703.577C705.234 485.821 706.577 484.478 706.577 482.821V471.898C706.577 470.241 705.234 468.898 703.577 468.898H702.064V472.667C702.064 474.324 700.721 475.667 699.064 475.667H691.526C689.869 475.667 688.526 474.324 688.526 472.667V468.898Z" fill="#40B3D1"/>
<rect x="689.653" y="463.257" width="11.2821" height="11.2821" rx="3" fill="#40B3D1"/>
<rect x="0.5" y="0.5" width="799" height="587" rx="9.5" stroke="#40B3D1"/>
<defs>
<filter id="filter0_d_577_33926" x="74.0029" y="42.5" width="664.954" height="83.0005" filterUnits="userSpaceOnUse" color-interpolation-filters="sRGB">
<feFlood flood-opacity="0" result="BackgroundImageFix"/>
<feColorMatrix in="SourceAlpha" type="matrix" values="0 0 0 0 0 0 0 0 0 0 0 0 0 0 0 0 0 0 127 0" result="hardAlpha"/>
<feOffset dy="4"/>
<feGaussianBlur stdDeviation="6.5"/>
<feComposite in2="hardAlpha" operator="out"/>
<feColorMatrix type="matrix" values="0 0 0 0 0 0 0 0 0 0.779167 0 0 0 0 0.732417 0 0 0 0.82 0"/>
<feBlend mode="normal" in2="BackgroundImageFix" result="effect1_dropShadow_577_33926"/>
<feBlend mode="normal" in="SourceGraphic" in2="effect1_dropShadow_577_33926" result="shape"/>
</filter>
</defs>
</svg>
