<svg width="30" height="21" viewBox="0 0 30 21" fill="none" xmlns="http://www.w3.org/2000/svg">
<path d="M2.25 0C1.0035 0 0 1.0035 0 2.25V18.75C0 19.9965 1.0035 21 2.25 21H27.75C28.9965 21 30 19.9965 30 18.75V2.25C30 1.0035 28.9965 0 27.75 0H2.25ZM4.03125 3.36328C4.1449 3.35059 4.25995 3.36406 4.36759 3.40265C4.47524 3.44124 4.57264 3.50393 4.65234 3.58594L13.9336 12.6914C14.5143 13.2612 15.4607 13.2614 16.043 12.6914L25.3477 3.58594C25.4172 3.51443 25.5003 3.4575 25.5921 3.41849C25.6839 3.37948 25.7825 3.35917 25.8822 3.35875C25.982 3.35832 26.0808 3.37779 26.1729 3.41602C26.265 3.45424 26.3486 3.51047 26.4187 3.58138C26.4889 3.6523 26.5442 3.73647 26.5814 3.82901C26.6186 3.92155 26.637 4.02058 26.6354 4.12031C26.6339 4.22003 26.6125 4.31844 26.5725 4.4098C26.5325 4.50115 26.4746 4.58361 26.4023 4.65234L20.3203 10.6172L26.3906 16.3242C26.5342 16.4612 26.6176 16.6495 26.6226 16.8479C26.6277 17.0462 26.554 17.2385 26.4176 17.3826C26.2812 17.5267 26.0933 17.6109 25.895 17.6168C25.6967 17.6227 25.5041 17.5498 25.3594 17.4141L19.2539 11.6602L17.0977 13.7696C15.9352 14.9074 14.0407 14.9097 12.8789 13.7696L10.7461 11.6719L4.64062 17.4141C4.49593 17.5498 4.30334 17.6227 4.10501 17.6168C3.90669 17.6109 3.71878 17.5267 3.5824 17.3826C3.44603 17.2385 3.3723 17.0462 3.37736 16.8479C3.38241 16.6495 3.46584 16.4612 3.60938 16.3242L9.66797 10.6172L3.59766 4.65234C3.49411 4.55391 3.42084 4.42796 3.38645 4.28929C3.35206 4.15062 3.35798 4.005 3.40353 3.86959C3.44908 3.73418 3.53235 3.61459 3.64355 3.52489C3.75476 3.4352 3.88926 3.37913 4.03125 3.36328Z" fill="#FFFCFC"/>
</svg>
