<svg width="30" height="30" viewBox="0 0 30 30" fill="none" xmlns="http://www.w3.org/2000/svg">
<g filter="url(#filter0_d_586_18719)">
<path d="M11.1531 7.40792C12.42 5.13597 13.053 4 14 4C14.947 4 15.58 5.13597 16.8469 7.40792L17.1749 7.99591C17.5349 8.64189 17.7149 8.96488 17.9949 9.17788C18.2749 9.39087 18.6249 9.46987 19.3249 9.62787L19.9609 9.77186C22.4208 10.3289 23.6498 10.6068 23.9428 11.5478C24.2348 12.4878 23.3968 13.4688 21.7198 15.4297L21.2858 15.9367C20.8098 16.4937 20.5708 16.7727 20.4638 17.1167C20.3569 17.4617 20.3928 17.8337 20.4648 18.5767L20.5308 19.2536C20.7838 21.8706 20.9108 23.1785 20.1449 23.7595C19.3789 24.3415 18.2269 23.8105 15.925 22.7506L15.328 22.4766C14.674 22.1746 14.347 22.0246 14 22.0246C13.653 22.0246 13.326 22.1746 12.671 22.4766L12.076 22.7506C9.7731 23.8105 8.62113 24.3405 7.85614 23.7605C7.08916 23.1785 7.21616 21.8706 7.46915 19.2536L7.53515 18.5777C7.60715 17.8337 7.64315 17.4617 7.53515 17.1177C7.42915 16.7727 7.19016 16.4937 6.71417 15.9377L6.28018 15.4297C4.60322 13.4698 3.76524 12.4888 4.05723 11.5478C4.35023 10.6068 5.5802 10.3279 8.04014 9.77186L8.67613 9.62787C9.37511 9.46987 9.7241 9.39087 10.0051 9.17788C10.2851 8.96488 10.4651 8.64189 10.8251 7.99591L11.1531 7.40792Z" stroke="#40B3D1" stroke-width="2"/>
<path fill-rule="evenodd" clip-rule="evenodd" d="M14 4C13.0535 4 12.4207 5.13477 11.1551 7.40432L11.1531 7.40792L10.8251 7.99591C10.4651 8.64189 10.2851 8.96488 10.0051 9.17788C9.7241 9.39087 9.37511 9.46987 8.67613 9.62787L8.04014 9.77186C5.5802 10.3279 4.35023 10.6068 4.05723 11.5478C3.76524 12.4888 4.60322 13.4698 6.28018 15.4297L6.71417 15.9377L6.71525 15.939C7.19052 16.4941 7.42923 16.773 7.53515 17.1177C7.64315 17.4617 7.60715 17.8337 7.53515 18.5777L7.46915 19.2536L7.46865 19.2589C7.21599 21.8723 7.08967 23.1789 7.85614 23.7605C8.62113 24.3405 9.7731 23.8105 12.076 22.7506L12.671 22.4766C13.326 22.1746 13.653 22.0246 14 22.0246V4Z" fill="#40B3D1"/>
</g>
<defs>
<filter id="filter0_d_586_18719" x="-0.000671387" y="0" width="30.0013" height="29.999" filterUnits="userSpaceOnUse" color-interpolation-filters="sRGB">
<feFlood flood-opacity="0" result="BackgroundImageFix"/>
<feColorMatrix in="SourceAlpha" type="matrix" values="0 0 0 0 0 0 0 0 0 0 0 0 0 0 0 0 0 0 127 0" result="hardAlpha"/>
<feOffset dx="1" dy="1"/>
<feGaussianBlur stdDeviation="2"/>
<feComposite in2="hardAlpha" operator="out"/>
<feColorMatrix type="matrix" values="0 0 0 0 1 0 0 0 0 0.988235 0 0 0 0 0.988235 0 0 0 0.25 0"/>
<feBlend mode="normal" in2="BackgroundImageFix" result="effect1_dropShadow_586_18719"/>
<feBlend mode="normal" in="SourceGraphic" in2="effect1_dropShadow_586_18719" result="shape"/>
</filter>
</defs>
</svg>
