<svg width="39" height="33" viewBox="0 0 39 33" fill="none" xmlns="http://www.w3.org/2000/svg">
<path d="M9.81821 16.1638V19.386H26.1818V16.1638C26.1818 13.1671 28.2764 10.6699 31.0909 9.9449V8.10824C31.0909 5.4499 28.8818 3.2749 26.1818 3.2749H9.81821C7.11821 3.2749 4.90912 5.4499 4.90912 8.10824V9.9449C7.72366 10.6699 9.81821 13.1671 9.81821 16.1638Z" fill="#FFFCFC"/>
<path d="M32.7273 12.9414C30.9273 12.9414 29.4545 14.3914 29.4545 16.1636V22.6081H6.54545V16.1636C6.54545 14.3914 5.07273 12.9414 3.27273 12.9414C1.47273 12.9414 0 14.3914 0 16.1636V24.2192C0 26.8775 2.20909 29.0525 4.90909 29.0525V30.6636C4.90909 31.5497 5.64545 32.2747 6.54545 32.2747C7.44545 32.2747 8.18182 31.5497 8.18182 30.6636V29.0525H27.8182V30.6636C27.8182 31.5497 28.5545 32.2747 29.4545 32.2747C30.3545 32.2747 31.0909 31.5497 31.0909 30.6636V29.0525C33.7909 29.0525 36 26.8775 36 24.2192V16.1636C36 14.3914 34.5273 12.9414 32.7273 12.9414Z" fill="#FFFCFC"/>
<path d="M31.3859 12.8903L31.3851 12.8907C31.3283 12.9208 31.2647 12.9366 31.2 12.9366C31.1353 12.9366 31.0717 12.9208 31.0149 12.8907L31.0141 12.8904C30.8762 12.8185 29.1466 11.89 27.4533 10.43C25.753 8.964 24.125 6.99233 24.125 4.83639C24.1262 3.82974 24.5328 2.86426 25.2564 2.15185C25.98 1.43938 26.9616 1.03826 27.9858 1.03711C29.2775 1.03713 30.4017 1.58346 31.1006 2.49999L31.2 2.63033L31.2994 2.49999C31.9983 1.58346 33.1225 1.03713 34.4142 1.03711C35.4384 1.03826 36.42 1.43938 37.1436 2.15185C37.8672 2.86428 38.2738 3.82979 38.275 4.83646C38.2749 6.99237 36.647 8.96402 34.9467 10.43C33.2534 11.89 31.5238 12.8185 31.3859 12.8903Z" fill="#A31F58" stroke="#FFFCFC" stroke-width="0.25"/>
</svg>
