<svg width="22" height="19" viewBox="0 0 22 19" fill="none" xmlns="http://www.w3.org/2000/svg">
<path d="M5.45455 9.27273V11.0909H14.5455V9.27273C14.5455 7.58182 15.7091 6.17273 17.2727 5.76364V4.72727C17.2727 3.22727 16.0455 2 14.5455 2H5.45455C3.95455 2 2.72728 3.22727 2.72728 4.72727V5.76364C4.29092 6.17273 5.45455 7.58182 5.45455 9.27273Z" fill="#FFFCFC"/>
<path d="M18.1818 7.45459C17.1818 7.45459 16.3636 8.27277 16.3636 9.27277V12.9091H3.63636V9.27277C3.63636 8.27277 2.81818 7.45459 1.81818 7.45459C0.818182 7.45459 0 8.27277 0 9.27277V13.8182C0 15.3182 1.22727 16.5455 2.72727 16.5455V17.4546C2.72727 17.9546 3.13636 18.3637 3.63636 18.3637C4.13636 18.3637 4.54545 17.9546 4.54545 17.4546V16.5455H15.4545V17.4546C15.4545 17.9546 15.8636 18.3637 16.3636 18.3637C16.8636 18.3637 17.2727 17.9546 17.2727 17.4546V16.5455C18.7727 16.5455 20 15.3182 20 13.8182V9.27277C20 8.27277 19.1818 7.45459 18.1818 7.45459Z" fill="#FFFCFC"/>
<path d="M17.3985 7.35536L17.3976 7.35583C17.3779 7.36647 17.3558 7.37203 17.3333 7.37203C17.3109 7.37203 17.2888 7.36647 17.269 7.35583L17.2682 7.35536C17.1943 7.31626 16.2394 6.79576 15.3053 5.97768C14.3632 5.15269 13.4834 4.06065 13.4833 2.88088C13.484 2.33357 13.7017 1.80886 14.0887 1.42185C14.4757 1.03484 15.0004 0.817142 15.5477 0.816504C16.2413 0.816529 16.8412 1.11407 17.2134 1.60978L17.3333 1.76954L17.4533 1.60978C17.8255 1.11407 18.4253 0.816529 19.119 0.816504C19.6663 0.817142 20.191 1.03484 20.578 1.42185C20.965 1.80888 21.1827 2.33362 21.1833 2.88096C21.1832 4.0607 20.3034 5.15271 19.3614 5.97768C18.4272 6.79576 17.4724 7.31626 17.3985 7.35536Z" fill="#A31F58" stroke="#FFFCFC" stroke-width="0.3"/>
</svg>
