<svg width="14" height="23" viewBox="0 0 14 23" fill="none" xmlns="http://www.w3.org/2000/svg">
<path d="M12.6913 0.523349C12.3582 0.18825 11.9065 6.74503e-07 11.4355 6.33326e-07C10.9645 5.92148e-07 10.5127 0.18825 10.1796 0.523349L0.520082 10.2329C0.187076 10.5681 2.61932e-06 11.0227 2.57788e-06 11.4966C2.53645e-06 11.9706 0.187076 12.4252 0.520082 12.7604L10.1796 22.4771C10.5132 22.8122 10.9654 23.0003 11.4367 23C11.9081 22.9997 12.36 22.8109 12.6931 22.4753C13.0262 22.1396 13.2131 21.6846 13.2128 21.2103C13.2124 20.7359 13.0249 20.2812 12.6913 19.946L4.2894 11.4984L12.6913 3.05083C13.0243 2.71563 13.2114 2.26106 13.2114 1.78709C13.2114 1.31312 13.0243 0.85855 12.6913 0.523349Z" fill="#FFFCFC"/>
</svg>
