<svg width="20" height="35" viewBox="0 0 20 35" fill="none" xmlns="http://www.w3.org/2000/svg">
<path d="M19.2107 0.792313C18.7065 0.285076 18.0227 0.000125712 17.3097 0.00012565C16.5968 0.000125587 15.913 0.285076 15.4088 0.792312L0.787239 15.4895C0.283172 15.9969 1.58497e-06 16.685 1.52225e-06 17.4024C1.45953e-06 18.1199 0.283172 18.808 0.787239 19.3153L15.4088 34.0234C15.9137 34.5307 16.5981 34.8154 17.3116 34.8149C18.0251 34.8144 18.7092 34.5287 19.2134 34.0207C19.7175 33.5126 20.0005 32.8238 20 32.1058C19.9995 31.3879 19.7156 30.6995 19.2107 30.1921L6.49281 17.4051L19.2107 4.61813C19.7148 4.11074 19.9979 3.42267 19.9979 2.70522C19.9979 1.98777 19.7148 1.2997 19.2107 0.792313Z" fill="#40B3D1"/>
</svg>
