<svg width="20" height="35" viewBox="0 0 20 35" fill="none" xmlns="http://www.w3.org/2000/svg">
<path d="M0.789305 34.0226C1.29352 34.5299 1.9773 34.8148 2.69027 34.8148C3.40323 34.8148 4.08701 34.5299 4.59123 34.0226L19.2128 19.3254C19.7168 18.818 20 18.13 20 17.4125C20 16.6951 19.7168 16.007 19.2128 15.4996L4.59123 0.791562C4.08635 0.284227 3.40187 -0.00050674 2.68837 6.7703e-07C1.97486 0.000508094 1.29078 0.286215 0.786618 0.794268C0.282452 1.30232 -0.000503564 1.9911 6.72773e-07 2.70909C0.00050491 3.42708 0.284426 4.11546 0.789305 4.62279L13.5072 17.4098L0.789305 30.1968C0.285238 30.7042 0.00206948 31.3923 0.00206948 32.1097C0.00206948 32.8272 0.285238 33.5152 0.789305 34.0226Z" fill="#40B3D1"/>
</svg>
