<svg width="9" height="16" viewBox="0 0 9 16" fill="none" xmlns="http://www.w3.org/2000/svg">
<path d="M8.18808 1.30202C7.98335 1.09711 7.7055 0.981771 7.41562 0.98138C7.12574 0.980989 6.84758 1.09557 6.6423 1.29993L0.689487 7.22126C0.484268 7.42568 0.368762 7.70312 0.368372 7.99256C0.367981 8.282 0.482738 8.55975 0.687405 8.76472L6.62421 14.7065C6.82921 14.9114 7.10735 15.0267 7.39744 15.0268C7.68754 15.027 7.96583 14.9121 8.17109 14.7075C8.37635 14.5028 8.49177 14.225 8.49195 13.9354C8.49214 13.6457 8.37708 13.3679 8.17208 13.1629L3.00821 7.99721L8.186 2.84548C8.39122 2.64106 8.50672 2.36362 8.50711 2.07418C8.5075 1.78474 8.39275 1.50699 8.18808 1.30202Z" fill="#FFFCFC"/>
</svg>
