<svg width="50" height="50" viewBox="0 0 50 50" fill="none" xmlns="http://www.w3.org/2000/svg">
<path d="M24.9975 0C38.8061 0 50 11.1939 50 25.0025C50 38.8086 38.8061 50 24.9975 50C11.1889 50.0025 4.18684e-07 38.8086 4.18684e-07 25.0025C-0.00249933 11.1939 11.1889 0 24.9975 0ZM24.9875 20.6229C24.3749 20.6238 23.7839 20.8495 23.3268 21.2574C22.8697 21.6652 22.5782 22.2267 22.5077 22.8352L22.4902 23.1252L22.5002 36.8788L22.5152 37.1688C22.5851 37.7785 22.8768 38.3412 23.3348 38.7497C23.7928 39.1582 24.385 39.384 24.9987 39.384C25.6124 39.384 26.2047 39.1582 26.6627 38.7497C27.1207 38.3412 27.4124 37.7785 27.4823 37.1688L27.4972 36.8763L27.4872 23.1227L27.4698 22.8302C27.3975 22.2222 27.1046 21.6618 26.6466 21.2554C26.1886 20.849 25.5973 20.6248 24.985 20.6254L24.9875 20.6229ZM25 11.2514C24.1703 11.2514 23.3746 11.581 22.7879 12.1677C22.2012 12.7544 21.8716 13.5501 21.8716 14.3798C21.8716 15.2095 22.2012 16.0053 22.7879 16.5919C23.3746 17.1786 24.1703 17.5082 25 17.5082C25.4107 17.5081 25.8173 17.427 26.1966 17.2697C26.576 17.1124 26.9206 16.8819 27.2109 16.5914C27.5012 16.3009 27.7314 15.9561 27.8884 15.5766C28.0454 15.1972 28.1261 14.7905 28.1259 14.3798C28.1258 13.9691 28.0447 13.5625 27.8874 13.1832C27.7301 12.8038 27.4996 12.4592 27.2091 12.1689C26.9186 11.8787 26.5738 11.6484 26.1943 11.4914C25.8148 11.3344 25.4082 11.2537 24.9975 11.2539L25 11.2514Z" fill="#FFFCFC"/>
</svg>
