<svg width="36" height="36" viewBox="0 0 36 36" fill="none" xmlns="http://www.w3.org/2000/svg">
<circle cx="18" cy="18" r="18" fill="#FFFCFC"/>
<path d="M19.2336 6.00148C20.1092 5.99812 20.9849 6.00692 21.8603 6.02788L22.0931 6.03628C22.3619 6.04587 22.627 6.05787 22.9474 6.07227C24.2242 6.13227 25.0953 6.33387 25.8597 6.63026C26.6516 6.93504 27.3188 7.34783 27.986 8.01501C28.596 8.61452 29.0681 9.3397 29.3695 10.1401C29.6659 10.9045 29.8675 11.7769 29.9275 13.0536C29.9419 13.3728 29.9539 13.6392 29.9635 13.908L29.9707 14.1408C29.992 15.0158 30.0012 15.8911 29.9983 16.7663L29.9995 17.6615V19.2334C30.0024 20.1091 29.9932 20.9847 29.9719 21.8601L29.9647 22.0929C29.9551 22.3617 29.9431 22.6269 29.9287 22.9473C29.8687 24.2241 29.6647 25.0952 29.3695 25.8596C29.0691 26.6609 28.5968 27.3867 27.986 27.9859C27.386 28.5959 26.6604 29.068 25.8597 29.3695C25.0953 29.6659 24.2242 29.8675 22.9474 29.9275C22.627 29.9419 22.3619 29.9539 22.0931 29.9635L21.8603 29.9707C20.9849 29.992 20.1093 30.0012 19.2336 29.9983L18.3385 29.9995H16.7677C15.8921 30.0024 15.0165 29.9932 14.1411 29.9719L13.9083 29.9647C13.6234 29.9543 13.3386 29.9423 13.0539 29.9287C11.7772 29.8687 10.906 29.6647 10.1405 29.3695C9.33974 29.0687 8.61444 28.5965 8.01539 27.9859C7.40467 27.3863 6.93211 26.6606 6.63066 25.8596C6.33428 25.0952 6.13269 24.2241 6.07269 22.9473C6.05932 22.6626 6.04733 22.3778 6.03669 22.0929L6.03069 21.8601C6.00857 20.9847 5.99857 20.1091 6.00069 19.2334V16.7663C5.99734 15.8911 6.00614 15.0158 6.02709 14.1408L6.03549 13.908C6.04509 13.6392 6.05709 13.3728 6.07149 13.0536C6.13149 11.7757 6.33308 10.9057 6.62946 10.1401C6.93109 9.33931 7.40458 8.61432 8.01659 8.01621C8.61523 7.40513 9.34007 6.93213 10.1405 6.63026C10.906 6.33387 11.776 6.13227 13.0539 6.07227L13.9083 6.03628L14.1411 6.03028C15.016 6.00816 15.8913 5.99816 16.7665 6.00028L19.2336 6.00148ZM18.0001 12.0013C17.2051 11.99 16.4159 12.1369 15.6782 12.4333C14.9405 12.7298 14.269 13.1699 13.7029 13.7281C13.1368 14.2863 12.6872 14.9514 12.3804 15.6849C12.0735 16.4183 11.9155 17.2054 11.9155 18.0005C11.9155 18.7955 12.0735 19.5826 12.3804 20.3161C12.6872 21.0495 13.1368 21.7147 13.7029 22.2729C14.269 22.831 14.9405 23.2712 15.6782 23.5676C16.4159 23.864 17.2051 24.0109 18.0001 23.9997C19.5913 23.9997 21.1173 23.3675 22.2425 22.2424C23.3677 21.1172 23.9998 19.5911 23.9998 17.9999C23.9998 16.4086 23.3677 14.8826 22.2425 13.7574C21.1173 12.6322 19.5913 12.0013 18.0001 12.0013ZM18.0001 14.4012C18.4783 14.3924 18.9534 14.4789 19.3978 14.6558C19.8421 14.8327 20.2468 15.0964 20.5881 15.4314C20.9294 15.7664 21.2005 16.1661 21.3856 16.6071C21.5707 17.0481 21.6661 17.5216 21.6662 17.9999C21.6663 18.4781 21.5711 18.9516 21.3861 19.3927C21.2011 19.8337 20.9301 20.2335 20.5889 20.5687C20.2477 20.9038 19.8432 21.1676 19.3989 21.3446C18.9546 21.5217 18.4795 21.6084 18.0013 21.5997C17.0465 21.5997 16.1309 21.2205 15.4558 20.5454C14.7807 19.8703 14.4015 18.9546 14.4015 17.9999C14.4015 17.0451 14.7807 16.1295 15.4558 15.4544C16.1309 14.7793 17.0465 14.4 18.0013 14.4L18.0001 14.4012ZM24.2998 10.2013C23.9126 10.2168 23.5465 10.3815 23.2781 10.6609C23.0097 10.9403 22.8598 11.3127 22.8598 11.7001C22.8598 12.0875 23.0097 12.4599 23.2781 12.7393C23.5465 13.0187 23.9126 13.1833 24.2998 13.1988C24.6976 13.1988 25.0791 13.0408 25.3604 12.7595C25.6417 12.4782 25.7997 12.0967 25.7997 11.6989C25.7997 11.3011 25.6417 10.9196 25.3604 10.6383C25.0791 10.357 24.6976 10.1989 24.2998 10.1989V10.2013Z" fill="#A31F58"/>
</svg>
