<svg width="80" height="26" viewBox="0 0 80 26" fill="none" xmlns="http://www.w3.org/2000/svg">
<g id="Calque_1" clip-path="url(#clip0_777_16513)">
<path id="Vector" d="M9.96245 13.5072H0.5V0.187859H4.92834V11.1965H9.94157V13.5072H9.96245Z" fill="white"/>
<path id="Vector_2" d="M22.3284 13.5072H12.1558V0.187859H22.1613V2.49855H16.605V5.59826H21.0751V7.73988H16.605V11.1965H22.3493V13.5072H22.3284Z" fill="white"/>
<path id="Vector_3" d="M40.1044 11.5159L36.8667 5.52312V13.5072H32.7517V0.187859H37.2427L41.2742 7.64595L45.3057 0.187859H49.4833V13.5072H45.3683V5.37283L42.0262 11.4971H40.1044V11.5159Z" fill="white"/>
<path id="Vector_4" d="M60.8049 0.187859L65.6719 13.5072H61.3062L60.4289 10.9147H56.3765L55.6245 13.5072H51.3215L55.9588 0.187859H60.8258H60.8049ZM58.3192 4.32081L56.8987 9.05491H59.7813L58.3192 4.32081Z" fill="white"/>
<path id="Vector_5" d="M73.1917 8.17196V6.3685H79.4791V10.3699C79.4791 11.3656 78.8524 12.1546 77.62 12.7746C76.3876 13.3945 74.8628 13.6951 73.0455 13.6951C71.2282 13.6951 69.7242 13.3945 68.5336 12.7934C67.3429 12.1922 66.7581 11.4032 66.7581 10.4075V3.34393C66.7581 2.34827 67.3847 1.54046 68.6171 0.92052C69.8495 0.300578 71.3744 0 73.1917 0C75.009 0 76.5129 0.300578 77.7036 0.901734C78.8942 1.50289 79.4791 2.29191 79.4791 3.28757V4.86561H75.009V3.32514C75.009 2.96821 74.8419 2.68642 74.5077 2.47977C74.1734 2.27312 73.7139 2.17919 73.129 2.17919C72.5442 2.17919 72.0846 2.27312 71.7295 2.47977C71.3744 2.68642 71.2073 2.96821 71.2073 3.32514V10.4451C71.2073 10.8208 71.3953 11.1026 71.7504 11.3092C72.1055 11.5159 72.5859 11.6286 73.1708 11.6286C73.7557 11.6286 74.257 11.5159 74.633 11.3092C74.9881 11.1026 75.1761 10.8208 75.1761 10.4451V8.19075H73.2126L73.1917 8.17196Z" fill="white"/>
<path id="Vector_6" d="M14.5161 25.8497V15.8743H18.2551C19.4458 15.8743 20.3858 16.0809 21.1169 16.4942C21.8479 16.9075 22.2031 17.4899 22.2031 18.2413V18.5231C22.2031 19.5188 21.5973 20.1951 20.4066 20.6084C21.7644 20.9653 22.4537 21.6792 22.4537 22.7312V23.4451C22.4537 24.1965 22.0777 24.7789 21.3466 25.211C20.6155 25.6431 19.6338 25.8497 18.4431 25.8497H14.537H14.5161ZM16.793 17.0202V20.1763H17.9836C18.5894 20.1763 19.0698 20.0636 19.404 19.8569C19.7382 19.6503 19.9053 19.3121 19.9053 18.8989V18.3165C19.9053 17.9032 19.7382 17.5838 19.404 17.3584C19.0698 17.133 18.5894 17.039 17.9836 17.039H16.793V17.0202ZM16.793 21.2283V24.7225H18.2343C18.84 24.7225 19.3204 24.6098 19.6547 24.4032C19.9889 24.1965 20.156 23.8584 20.156 23.4451V22.5246C20.156 22.1113 19.9889 21.7919 19.6547 21.5665C19.3204 21.341 18.84 21.2471 18.2343 21.2471H16.793V21.2283Z" fill="white"/>
<path id="Vector_7" d="M26.0048 25.8497V21.9798L22.9133 15.8743H25.3364L27.2372 20.2515L29.1381 15.8743H31.4358L28.3025 21.9986V25.8497H26.0257H26.0048Z" fill="white"/>
<path id="Vector_8" d="M43.0079 15.8743H45.2638V23.6517C45.2638 24.3468 44.8879 24.9104 44.1568 25.3425C43.4048 25.7746 42.4857 25.9812 41.3786 25.9812C40.2715 25.9812 39.3942 25.7746 38.6631 25.3613C37.9529 24.948 37.5769 24.3844 37.5769 23.6893V15.8743H39.8746V23.6705C39.8746 24.0087 40.0208 24.2717 40.2924 24.4595C40.5639 24.6474 40.9608 24.7413 41.4413 24.7413C41.9217 24.7413 42.2768 24.6474 42.5692 24.4595C42.8617 24.2717 43.0079 24.0087 43.0079 23.6705V15.8743Z" fill="white"/>
<path id="Vector_9" d="M51.614 21.7168V20.6459H55.4575V23.5766C55.4575 24.2905 55.0815 24.8728 54.3086 25.3237C53.5357 25.7746 52.5958 25.9812 51.4469 25.9812C50.298 25.9812 49.3789 25.7746 48.6479 25.3425C47.9168 24.9104 47.5408 24.3468 47.5408 23.6142V18.1286C47.5408 17.4147 47.9168 16.8324 48.6896 16.3815C49.4625 15.9306 50.4025 15.724 51.5305 15.724C52.6584 15.724 53.5984 15.9306 54.3504 16.3627C55.1024 16.7948 55.4575 17.3584 55.4575 18.091V19.2182H53.1806V18.1286C53.1806 17.7717 53.0344 17.4899 52.7211 17.2832C52.4078 17.0766 52.0109 16.9827 51.5096 16.9827C51.0082 16.9827 50.5905 17.0766 50.2772 17.2832C49.9638 17.4899 49.8176 17.7717 49.8176 18.1286V23.5954C49.8176 23.9523 49.9638 24.2341 50.2772 24.4407C50.5905 24.6474 51.0082 24.7413 51.5096 24.7413C52.0109 24.7413 52.4287 24.6474 52.742 24.4407C53.0553 24.2341 53.2015 23.9523 53.2015 23.5954V21.698H51.5931L51.614 21.7168Z" fill="white"/>
<path id="Vector_10" d="M63.019 23.6705V22.224H65.1914V23.7081C65.1914 24.3844 64.8363 24.948 64.1052 25.3613C63.3741 25.7746 62.4759 26 61.4106 26C60.3453 26 59.4262 25.7933 58.6951 25.3801C57.9849 24.9668 57.6089 24.4032 57.6089 23.7081V18.0722C57.6089 17.3772 57.9849 16.8136 58.716 16.3815C59.468 15.9494 60.3662 15.7428 61.4524 15.7428C62.5386 15.7428 63.4368 15.9494 64.1261 16.3627C64.8154 16.776 65.1705 17.3208 65.1705 18.0159V19.3873H62.9981V18.091C62.9981 17.7529 62.8519 17.4899 62.5594 17.302C62.267 17.1142 61.891 17.0202 61.4315 17.0202C60.9719 17.0202 60.575 17.1142 60.2826 17.302C60.0111 17.4899 59.8648 17.7529 59.8648 18.091V23.6893C59.8648 24.0274 60.0111 24.2905 60.2826 24.4783C60.5542 24.6662 60.951 24.7601 61.4315 24.7601C61.9119 24.7601 62.267 24.6662 62.5594 24.4783C62.8519 24.2905 62.9981 24.0274 62.9981 23.6893L63.019 23.6705Z" fill="white"/>
</g>
<defs>
<clipPath id="clip0_777_16513">
<rect width="79" height="26" fill="white" transform="translate(0.5)"/>
</clipPath>
</defs>
</svg>
