<svg width="20" height="25" viewBox="0 0 20 25" fill="none" xmlns="http://www.w3.org/2000/svg">
<path d="M10 1.21606e-08C7.36507 -0.000127973 4.83657 1.00999 2.96405 2.81081C1.09154 4.61163 0.0263493 7.0576 0 9.61711C0 16.2714 8.8125 23.6785 9.1875 23.9942C9.41392 24.1823 9.70206 24.2857 10 24.2857C10.2979 24.2857 10.5861 24.1823 10.8125 23.9942C11.25 23.6785 20 16.2714 20 9.61711C19.9736 7.0576 18.9085 4.61163 17.0359 2.81081C15.1634 1.00999 12.6349 -0.000127973 10 1.21606e-08ZM10 13.3571C9.13471 13.3571 8.28885 13.1078 7.56938 12.6408C6.84991 12.1739 6.28916 11.5101 5.95803 10.7335C5.62689 9.95693 5.54025 9.1024 5.70906 8.27798C5.87787 7.45356 6.29455 6.69629 6.90641 6.10192C7.51826 5.50755 8.29781 5.10278 9.14648 4.93879C9.99515 4.7748 10.8748 4.85897 11.6742 5.18064C12.4737 5.50231 13.1569 6.04704 13.6377 6.74595C14.1184 7.44485 14.375 8.26654 14.375 9.10711C14.375 10.2343 13.9141 11.3153 13.0936 12.1123C12.2731 12.9093 11.1603 13.3571 10 13.3571Z" fill="#40B3D1"/>
</svg>
