<svg width="33" height="32" viewBox="0 0 33 32" fill="none" xmlns="http://www.w3.org/2000/svg">
<path d="M12.8668 0C6.27229 0 0.92627 5.34602 0.92627 11.9406C0.92627 18.5351 6.27229 23.8812 12.8668 23.8812C19.4614 23.8812 24.8074 18.5351 24.8074 11.9406C24.8074 5.34602 19.4614 0 12.8668 0ZM12.8668 20.896C7.92905 20.896 3.91141 16.8788 3.91141 11.9406C3.91141 7.0024 7.92905 2.98515 12.8668 2.98515C17.8047 2.98515 21.8223 7.0024 21.8223 11.9406C21.8223 16.8788 17.8047 20.896 12.8668 20.896Z" fill="#010A3D"/>
<path d="M32.3184 31.295C31.4486 32.2185 29.9948 32.2349 29.1041 31.3442L20.7961 23.0362C20.7155 22.9556 20.7267 22.8243 20.8185 22.7567C21.9114 21.9511 22.8775 20.985 23.6831 19.8921C23.7506 19.8007 23.882 19.7895 23.9626 19.8697L32.2042 28.1113C33.0706 28.9785 33.1587 30.4024 32.3184 31.295Z" fill="#010A3D"/>
</svg>
