<svg width="33" height="32" viewBox="0 0 33 32" fill="none" xmlns="http://www.w3.org/2000/svg">
<path d="M12.8896 0C6.295 0 0.948975 5.34602 0.948975 11.9406C0.948975 18.5351 6.295 23.8812 12.8896 23.8812C19.4841 23.8812 24.8301 18.5351 24.8301 11.9406C24.8301 5.34602 19.4841 0 12.8896 0ZM12.8896 20.896C7.95175 20.896 3.93412 16.8788 3.93412 11.9406C3.93412 7.0024 7.95175 2.98515 12.8896 2.98515C17.8274 2.98515 21.845 7.0024 21.845 11.9406C21.845 16.8788 17.8274 20.896 12.8896 20.896Z" fill="#40B3D1"/>
<path d="M32.3411 31.295C31.4713 32.2185 30.0175 32.2349 29.1268 31.3442L20.8188 23.0362C20.7382 22.9556 20.7494 22.8243 20.8412 22.7567C21.9341 21.9511 22.9002 20.985 23.7058 19.8921C23.7733 19.8007 23.9047 19.7895 23.9853 19.8697L32.2269 28.1113C33.0933 28.9785 33.1814 30.4024 32.3411 31.295Z" fill="#40B3D1"/>
</svg>
