<svg width="36" height="31" viewBox="0 0 36 31" fill="none" xmlns="http://www.w3.org/2000/svg">
<path fill-rule="evenodd" clip-rule="evenodd" d="M21.9573 19.2506C20.7465 17.084 18.872 15.4205 16.6375 14.4771C18.7196 13.0456 20.086 10.6382 20.086 7.93799C20.1185 3.54607 16.5399 0 12.1805 0C7.82113 0 4.24253 3.54607 4.24253 7.93799C4.24253 10.6382 5.6089 13.0456 7.691 14.4771C4.76305 15.7458 2.45323 18.2183 1.44471 21.4065L0.208466 25.3105C-0.21446 26.6443 0.0132698 28.0432 0.826588 29.1493C1.63991 30.2554 2.90868 30.9061 4.30759 30.9061H19.9884C20.1407 30.9061 20.2915 30.8984 20.4403 30.8832C20.5691 30.8983 20.6999 30.906 20.8323 30.906H32.7167C33.7769 30.906 34.7385 30.4129 35.3549 29.5746C35.9713 28.7362 36.1686 27.6514 35.8481 26.6651L34.9111 23.7063C34.1468 21.2653 32.3962 19.3915 30.1771 18.4545C31.7551 17.3696 32.7907 15.5451 32.7907 13.4986C32.8153 10.17 30.1031 7.48242 26.7992 7.48242C23.4952 7.48242 20.783 10.17 20.783 13.4986C20.783 15.5451 21.8186 17.3696 23.3966 18.4545C22.8904 18.6739 22.4086 18.9407 21.9573 19.2506Z" fill="#FFFCFC"/>
</svg>
