<svg width="50" height="50" viewBox="0 0 50 50" fill="none" xmlns="http://www.w3.org/2000/svg">
<path d="M47.1011 20.1068H44.2669C43.7546 20.1057 43.2546 19.9495 42.8329 19.6586C42.4112 19.3678 42.0875 18.956 41.9045 18.4775C41.7984 18.2028 41.6859 17.9315 41.567 17.6634C41.3572 17.1952 41.2942 16.6744 41.3865 16.1697C41.4787 15.6651 41.7217 15.2002 42.0835 14.8365L44.0875 12.8325C44.3567 12.5633 44.5702 12.2437 44.7159 11.892C44.8616 11.5403 44.9366 11.1634 44.9366 10.7827C44.9366 10.402 44.8616 10.025 44.7159 9.67332C44.5702 9.32161 44.3567 9.00204 44.0875 8.73285L41.2672 5.9125C40.998 5.64331 40.6784 5.42978 40.3267 5.2841C39.975 5.13841 39.598 5.06343 39.2173 5.06343C38.8366 5.06343 38.4597 5.13841 38.108 5.2841C37.7563 5.42978 37.4367 5.64331 37.1675 5.9125L35.1635 7.91646C34.7998 8.27828 34.3349 8.52132 33.8303 8.61354C33.3256 8.70575 32.8048 8.6428 32.3366 8.433C32.0686 8.31413 31.7973 8.20163 31.5225 8.09552C31.044 7.91249 30.6322 7.58879 30.3414 7.16708C30.0505 6.74536 29.8943 6.24543 29.8932 5.73314V2.8989C29.8932 2.51821 29.8182 2.14125 29.6725 1.78954C29.5268 1.43783 29.3133 1.11826 29.0441 0.84907C28.7749 0.579882 28.4553 0.36635 28.1036 0.220667C27.7519 0.0749832 27.375 5.29523e-07 26.9943 0H23.0057C22.2369 0 21.4995 0.305419 20.9559 0.849067C20.4122 1.39272 20.1068 2.13006 20.1068 2.8989V5.73315C20.1057 6.24543 19.9495 6.74537 19.6586 7.16708C19.3677 7.5888 18.9559 7.9125 18.4775 8.09553C18.2028 8.20158 17.9315 8.31407 17.6634 8.433C17.1952 8.64281 16.6744 8.70576 16.1697 8.61355C15.6651 8.52133 15.2002 8.27829 14.8365 7.91647L12.8325 5.9125C12.5633 5.64331 12.2437 5.42978 11.892 5.2841C11.5403 5.13841 11.1634 5.06343 10.7827 5.06343C10.402 5.06343 10.025 5.13841 9.67331 5.2841C9.3216 5.42978 9.00203 5.64331 8.73284 5.9125L5.9125 8.73285C5.64331 9.00203 5.42978 9.32161 5.2841 9.67332C5.13841 10.025 5.06343 10.402 5.06343 10.7827C5.06343 11.1634 5.13841 11.5403 5.2841 11.892C5.42978 12.2437 5.64331 12.5633 5.9125 12.8325L7.91646 14.8365C8.27828 15.2002 8.52132 15.6651 8.61354 16.1697C8.70575 16.6744 8.64281 17.1952 8.433 17.6634C8.31413 17.9314 8.20163 18.2028 8.09552 18.4775C7.91249 18.9559 7.58879 19.3677 7.16707 19.6586C6.74536 19.9495 6.24542 20.1057 5.73314 20.1068H2.8989C2.51821 20.1068 2.14125 20.1818 1.78954 20.3275C1.43782 20.4732 1.11825 20.6867 0.849065 20.9559C0.579878 21.2251 0.366347 21.5447 0.220664 21.8964C0.0749812 22.2481 -5.29521e-07 22.625 0 23.0057V26.9943C0 27.7631 0.305419 28.5005 0.849067 29.0441C1.39272 29.5878 2.13006 29.8932 2.8989 29.8932H5.73317C6.24545 29.8943 6.74539 30.0505 7.1671 30.3414C7.58881 30.6323 7.91251 31.044 8.09555 31.5225C8.2016 31.7972 8.31409 32.0685 8.43302 32.3366C8.64283 32.8048 8.70578 33.3256 8.61356 33.8303C8.52135 34.3349 8.2783 34.7998 7.91649 35.1635L5.9125 37.1675C5.64331 37.4367 5.42978 37.7563 5.2841 38.108C5.13841 38.4597 5.06343 38.8366 5.06343 39.2173C5.06343 39.598 5.13841 39.975 5.2841 40.3267C5.42978 40.6784 5.64331 40.998 5.9125 41.2672L8.73285 44.0875C9.2765 44.6312 10.0138 44.9366 10.7827 44.9366C11.5515 44.9366 12.2889 44.6312 12.8325 44.0875L14.8365 42.0835C15.2002 41.7217 15.6651 41.4787 16.1697 41.3865C16.6744 41.2943 17.1952 41.3572 17.6634 41.567C17.9314 41.6859 18.2028 41.7984 18.4775 41.9045C18.956 42.0875 19.3678 42.4112 19.6586 42.8329C19.9495 43.2546 20.1058 43.7546 20.1068 44.2669V47.1011C20.1068 47.87 20.4123 48.6073 20.9559 49.1509C21.4996 49.6946 22.2369 50 23.0057 50H26.9943C27.7631 50 28.5005 49.6946 29.0441 49.1509C29.5878 48.6073 29.8932 47.8699 29.8932 47.1011V44.2669C29.8943 43.7546 30.0505 43.2546 30.3414 42.8329C30.6323 42.4112 31.044 42.0875 31.5225 41.9045C31.7972 41.7984 32.0685 41.6859 32.3366 41.567C32.8048 41.3572 33.3256 41.2942 33.8303 41.3865C34.3349 41.4787 34.7998 41.7217 35.1635 42.0835L37.1675 44.0875C37.7112 44.6311 38.4485 44.9366 39.2173 44.9366C39.9862 44.9366 40.7235 44.6311 41.2672 44.0875L44.0875 41.2671C44.3567 40.998 44.5702 40.6784 44.7159 40.3267C44.8616 39.975 44.9366 39.598 44.9366 39.2173C44.9366 38.8366 44.8616 38.4597 44.7159 38.108C44.5702 37.7562 44.3567 37.4367 44.0875 37.1675L42.0835 35.1635C41.7217 34.7998 41.4787 34.3349 41.3865 33.8303C41.2943 33.3256 41.3572 32.8048 41.567 32.3366C41.6859 32.0686 41.7984 31.7972 41.9045 31.5225C42.0875 31.044 42.4112 30.6322 42.8329 30.3414C43.2546 30.0505 43.7546 29.8943 44.2669 29.8932H47.1011C47.87 29.8932 48.6073 29.5877 49.1509 29.0441C49.6946 28.5004 50 27.7631 50 26.9943V23.0057C50 22.2369 49.6946 21.4995 49.1509 20.9559C48.6073 20.4123 47.8699 20.1068 47.1011 20.1068ZM34.7887 27.8687C34.5839 28.5721 34.3028 29.2509 33.9504 29.8932C33.0124 31.6047 31.6047 33.0124 29.8932 33.9504C29.2509 34.3028 28.5721 34.5839 27.8687 34.7887C25.9954 35.3358 24.0046 35.3358 22.1313 34.7887C21.4279 34.5839 20.7491 34.3028 20.1068 33.9504C18.3953 33.0124 16.9876 31.6047 16.0496 29.8932C15.6972 29.2509 15.4161 28.5721 15.2113 27.8687C14.6642 25.9954 14.6642 24.0046 15.2113 22.1313C15.4161 21.4279 15.6972 20.7491 16.0496 20.1068C16.9876 18.3953 18.3953 16.9876 20.1068 16.0496C20.7491 15.6972 21.4279 15.4161 22.1313 15.2113C24.0046 14.6642 25.9954 14.6642 27.8687 15.2113C28.5721 15.4161 29.2509 15.6972 29.8932 16.0496C31.6047 16.9876 33.0124 18.3953 33.9504 20.1068C34.3028 20.7491 34.5839 21.4279 34.7887 22.1313C35.3358 24.0046 35.3358 25.9954 34.7887 27.8687Z" fill="#FFFCFC"/>
</svg>
