<svg width="30" height="30" viewBox="0 0 30 30" fill="none" xmlns="http://www.w3.org/2000/svg">
<path d="M28.2607 12.0641H26.5601C26.2527 12.0634 25.9528 11.9697 25.6998 11.7952C25.4467 11.6206 25.2525 11.3736 25.1427 11.0865C25.0791 10.9217 25.0116 10.7589 24.9402 10.598C24.8143 10.3171 24.7765 10.0047 24.8319 9.70184C24.8872 9.39904 25.033 9.12012 25.2501 8.90188L26.4525 7.6995C26.614 7.53799 26.7421 7.34625 26.8295 7.13522C26.9169 6.9242 26.9619 6.69802 26.9619 6.46961C26.9619 6.24119 26.9169 6.01502 26.8295 5.80399C26.7421 5.59297 26.614 5.40122 26.4525 5.23971L24.7603 3.5475C24.5988 3.38599 24.407 3.25787 24.196 3.17046C23.985 3.08305 23.7588 3.03806 23.5304 3.03806C23.302 3.03806 23.0758 3.08305 22.8648 3.17046C22.6538 3.25787 22.462 3.38599 22.3005 3.5475L21.0981 4.74988C20.8799 4.96697 20.601 5.11279 20.2982 5.16812C19.9953 5.22345 19.6829 5.18568 19.402 5.0598C19.2412 4.98847 19.0784 4.92098 18.9135 4.85731C18.6264 4.74749 18.3793 4.55327 18.2048 4.30025C18.0303 4.04722 17.9366 3.74725 17.9359 3.43988V1.73934C17.9359 1.51093 17.8909 1.28475 17.8035 1.07372C17.7161 0.862698 17.588 0.670954 17.4265 0.509442C17.2649 0.347929 17.0732 0.21981 16.8622 0.1324C16.6512 0.0449899 16.425 3.17714e-07 16.1966 0H13.8034C13.3421 0 12.8997 0.183251 12.5735 0.50944C12.2473 0.835629 12.0641 1.27804 12.0641 1.73934V3.43989C12.0634 3.74726 11.9697 4.04722 11.7952 4.30025C11.6206 4.55328 11.3736 4.7475 11.0865 4.85732C10.9217 4.92095 10.7589 4.98844 10.598 5.0598C10.3171 5.18569 10.0046 5.22346 9.70184 5.16813C9.39903 5.1128 9.12011 4.96697 8.90188 4.74988L7.6995 3.5475C7.53799 3.38599 7.34624 3.25787 7.13522 3.17046C6.92419 3.08305 6.69802 3.03806 6.4696 3.03806C6.24119 3.03806 6.01501 3.08305 5.80399 3.17046C5.59296 3.25787 5.40122 3.38599 5.23971 3.5475L3.5475 5.23971C3.38599 5.40122 3.25787 5.59296 3.17046 5.80399C3.08305 6.01502 3.03806 6.24119 3.03806 6.4696C3.03806 6.69802 3.08305 6.92419 3.17046 7.13522C3.25787 7.34625 3.38599 7.53799 3.5475 7.6995L4.74988 8.90188C4.96697 9.12012 5.11279 9.39903 5.16812 9.70184C5.22345 10.0046 5.18568 10.3171 5.0598 10.598C4.98847 10.7588 4.92098 10.9217 4.85731 11.0865C4.74749 11.3736 4.55327 11.6206 4.30024 11.7952C4.04722 11.9697 3.74725 12.0634 3.43988 12.0641H1.73934C1.51092 12.0641 1.28475 12.1091 1.07372 12.1965C0.862695 12.2839 0.670952 12.412 0.509439 12.5735C0.347927 12.735 0.219808 12.9268 0.132398 13.1378C0.0449887 13.3488 -3.17713e-07 13.575 0 13.8034V16.1966C0 16.6579 0.183251 17.1003 0.50944 17.4265C0.835629 17.7527 1.27804 17.9359 1.73934 17.9359H3.4399C3.74727 17.9366 4.04723 18.0303 4.30026 18.2048C4.55329 18.3794 4.74751 18.6264 4.85733 18.9135C4.92096 19.0783 4.98845 19.2411 5.05981 19.402C5.1857 19.6829 5.22347 19.9953 5.16814 20.2982C5.11281 20.601 4.96698 20.8799 4.74989 21.0981L3.5475 22.3005C3.38599 22.462 3.25787 22.6538 3.17046 22.8648C3.08305 23.0758 3.03806 23.302 3.03806 23.5304C3.03806 23.7588 3.08305 23.985 3.17046 24.196C3.25787 24.407 3.38599 24.5988 3.5475 24.7603L5.23971 26.4525C5.5659 26.7787 6.00831 26.9619 6.46961 26.9619C6.93091 26.9619 7.37332 26.7787 7.69951 26.4525L8.90189 25.2501C9.12012 25.033 9.39904 24.8872 9.70185 24.8319C10.0047 24.7766 10.3171 24.8143 10.598 24.9402C10.7588 25.0115 10.9217 25.079 11.0865 25.1427C11.3736 25.2525 11.6207 25.4467 11.7952 25.6998C11.9697 25.9528 12.0634 26.2527 12.0641 26.5601V28.2607C12.0641 28.722 12.2474 29.1644 12.5735 29.4906C12.8997 29.8167 13.3421 30 13.8034 30H16.1966C16.6579 30 17.1003 29.8167 17.4265 29.4906C17.7527 29.1644 17.9359 28.722 17.9359 28.2607V26.5601C17.9366 26.2527 18.0303 25.9528 18.2048 25.6997C18.3794 25.4467 18.6264 25.2525 18.9135 25.1427C19.0783 25.0791 19.2411 25.0116 19.402 24.9402C19.6829 24.8143 19.9954 24.7765 20.2982 24.8319C20.601 24.8872 20.8799 25.033 21.0981 25.2501L22.3005 26.4525C22.6267 26.7787 23.0691 26.9619 23.5304 26.9619C23.9917 26.9619 24.4341 26.7787 24.7603 26.4525L26.4525 24.7603C26.614 24.5988 26.7421 24.407 26.8295 24.196C26.917 23.985 26.9619 23.7588 26.9619 23.5304C26.9619 23.302 26.917 23.0758 26.8295 22.8648C26.7421 22.6537 26.614 22.462 26.4525 22.3005L25.2501 21.0981C25.033 20.8799 24.8872 20.601 24.8319 20.2982C24.7766 19.9953 24.8143 19.6829 24.9402 19.402C25.0115 19.2412 25.079 19.0783 25.1427 18.9135C25.2525 18.6264 25.4467 18.3793 25.6998 18.2048C25.9528 18.0303 26.2527 17.9366 26.5601 17.9359H28.2607C28.722 17.9359 29.1644 17.7526 29.4906 17.4265C29.8167 17.1003 30 16.6579 30 16.1966V13.8034C30 13.3421 29.8167 12.8997 29.4906 12.5735C29.1644 12.2473 28.722 12.0641 28.2607 12.0641ZM20.8732 16.7212C20.7504 17.1432 20.5817 17.5506 20.3702 17.9359C19.8074 18.9628 18.9628 19.8074 17.9359 20.3702C17.5506 20.5817 17.1432 20.7504 16.7212 20.8732C15.5972 21.2015 14.4028 21.2015 13.2788 20.8732C12.8568 20.7504 12.4494 20.5817 12.0641 20.3702C11.0372 19.8074 10.1926 18.9628 9.62977 17.9359C9.41832 17.5506 9.24965 17.1432 9.12677 16.7212C8.79852 15.5972 8.79852 14.4028 9.12677 13.2788C9.24965 12.8568 9.41832 12.4494 9.62977 12.0641C10.1926 11.0372 11.0372 10.1926 12.0641 9.62976C12.4494 9.41831 12.8568 9.24965 13.2788 9.12677C14.4028 8.79852 15.5972 8.79852 16.7212 9.12677C17.1432 9.24965 17.5506 9.41831 17.9359 9.62976C18.9628 10.1926 19.8074 11.0372 20.3702 12.0641C20.5817 12.4494 20.7504 12.8568 20.8732 13.2788C21.2015 14.4028 21.2015 15.5972 20.8732 16.7212Z" fill="#FFFCFC"/>
</svg>
