<svg width="20" height="15" viewBox="0 0 20 15" fill="none" xmlns="http://www.w3.org/2000/svg">
<path fill-rule="evenodd" clip-rule="evenodd" d="M19.6337 0.366269C19.8683 0.600862 20 0.918996 20 1.25071C20 1.58242 19.8683 1.90056 19.6337 2.13515L7.74944 14.0194C7.51485 14.254 7.19672 14.3857 6.865 14.3857C6.53329 14.3857 6.21516 14.254 5.98056 14.0194L0.351165 8.39004C0.123289 8.1541 -0.00280296 7.8381 4.729e-05 7.5101C0.00289754 7.1821 0.134462 6.86834 0.366403 6.6364C0.598345 6.40445 0.912105 6.27289 1.24011 6.27004C1.56811 6.26719 1.88411 6.39328 2.12005 6.62116L6.865 11.3661L17.8648 0.366269C18.0994 0.131747 18.4176 0 18.7493 0C19.081 0 19.3991 0.131747 19.6337 0.366269Z" fill="#FFFCFC"/>
</svg>
