<svg width="51" height="50" viewBox="0 0 51 50" fill="none" xmlns="http://www.w3.org/2000/svg">
<path d="M0.955051 34.6152L4.0636 37.7237C4.48509 38.1452 5.17001 38.2506 5.69688 37.9345C7.48824 36.8281 9.80648 37.1442 11.3344 38.6195C12.8096 40.0947 13.1258 42.4129 12.0193 44.257C11.7032 44.7838 11.7559 45.4687 12.2301 45.8902L15.3913 49.0515C16.0236 49.6837 16.8665 49.9999 17.7095 49.9999C18.5525 49.9999 19.3955 49.6837 20.0278 49.0515L39.2585 29.8207L20.1331 10.6953L0.902377 29.9261C-0.309425 31.2959 -0.309438 33.3507 0.955051 34.6152Z" fill="#FFFCFC"/>
<path d="M37.9413 5.74291C38.2574 5.21603 38.2047 4.5311 37.7305 4.05691L34.622 0.948366C33.3575 -0.316122 31.2501 -0.316122 29.9856 0.948366L22.0825 8.85142L41.2079 27.9768L49.111 20.0737C50.3754 18.8093 50.3754 16.7018 49.111 15.4373L46.0024 12.3288C45.5809 11.9073 44.8433 11.8019 44.3164 12.118C42.4724 13.2771 40.1541 13.0137 38.6262 11.4858C37.0456 9.90516 36.7822 7.58695 37.9413 5.74291Z" fill="#FFFCFC"/>
</svg>
