<svg width="31" height="30" viewBox="0 0 31 30" fill="none" xmlns="http://www.w3.org/2000/svg">
<path d="M0.573031 20.7689L2.43816 22.6341C2.69106 22.887 3.10201 22.9502 3.41813 22.7605C4.49295 22.0967 5.88389 22.2863 6.80064 23.1715C7.68578 24.0566 7.87545 25.4475 7.2116 26.554C7.02192 26.8701 7.05354 27.281 7.33805 27.5339L9.23479 29.4307C9.61413 29.81 10.1199 29.9997 10.6257 29.9997C11.1315 29.9997 11.6373 29.81 12.0167 29.4307L23.5551 17.8922L12.0799 6.41699L0.541426 17.9555C-0.185655 18.7774 -0.185663 20.0103 0.573031 20.7689Z" fill="#FFFCFC"/>
<path d="M22.7648 3.44574C22.9545 3.12962 22.9228 2.71866 22.6383 2.43415L20.7732 0.56902C20.0145 -0.189673 18.75 -0.189673 17.9913 0.56902L13.2495 5.31085L24.7247 16.7861L29.4666 12.0442C30.2253 11.2856 30.2253 10.0211 29.4666 9.26238L27.6014 7.39727C27.3485 7.14437 26.906 7.08114 26.5899 7.27081C25.4834 7.96628 24.0925 7.80822 23.1757 6.89146C22.2274 5.9431 22.0693 4.55217 22.7648 3.44574Z" fill="#FFFCFC"/>
</svg>
