<svg width="71" height="70" viewBox="0 0 71 70" fill="none" xmlns="http://www.w3.org/2000/svg">
<path d="M1.43204 48.4615L5.78401 52.8134C6.3741 53.4035 7.33299 53.5511 8.07061 53.1085C10.5785 51.5595 13.824 52.0021 15.9631 54.0674C18.0285 56.1328 18.471 59.3783 16.922 61.9599C16.4795 62.6975 16.5532 63.6564 17.2171 64.2465L21.6428 68.6722C22.5279 69.5574 23.7081 70 24.8883 70C26.0685 70 27.2487 69.5574 28.1338 68.6722L55.0569 41.7492L28.2814 14.9736L1.3583 41.8967C-0.338224 43.8145 -0.338242 46.6912 1.43204 48.4615Z" fill="#FFFCFC"/>
<path d="M53.2128 8.04007C53.6554 7.30245 53.5816 6.34354 52.9177 5.67968L48.5658 1.32771C46.7955 -0.442571 43.8451 -0.442571 42.0748 1.32771L31.0105 12.392L57.786 39.1675L68.8503 28.1032C70.6206 26.333 70.6206 23.3825 68.8503 21.6122L64.4983 17.2603C63.9082 16.6702 62.8756 16.5227 62.138 16.9652C59.5563 18.588 56.3108 18.2192 54.1717 16.0801C51.9588 13.8672 51.59 10.6217 53.2128 8.04007Z" fill="#FFFCFC"/>
</svg>
