<svg width="36" height="36" viewBox="0 0 36 36" fill="none" xmlns="http://www.w3.org/2000/svg">
<circle cx="18" cy="18" r="18" fill="#FFFCFC"/>
<path d="M25.0408 9.76C23.9945 8.7195 23.4179 7.38324 23.4184 6H18.6888V22.5333C18.6523 23.428 18.2187 24.2755 17.4792 24.8973C16.7398 25.519 15.7522 25.8665 14.7245 25.8667C12.551 25.8667 10.7449 24.32 10.7449 22.4C10.7449 20.1067 13.2857 18.3867 15.9031 19.0933V14.88C10.6224 14.2667 6 17.84 6 22.4C6 26.84 10.2245 30 14.7092 30C19.5153 30 23.4184 26.6 23.4184 22.4V14.0133C25.3362 15.2131 27.6388 15.8569 30 15.8533V11.7333C30 11.7333 27.1224 11.8533 25.0408 9.76Z" fill="#A31F58"/>
</svg>
