<svg width="36" height="36" viewBox="0 0 36 36" fill="none" xmlns="http://www.w3.org/2000/svg">
<circle cx="18" cy="18" r="18" fill="#FFFCFC"/>
<path d="M10.6764 9.15808C10.867 9.13332 11.06 9.16726 11.2346 9.25621C11.4092 9.34516 11.5587 9.48574 11.667 9.66277C13.2207 12.2027 15.086 13.2591 17.1565 13.4991C17.2576 12.5098 17.4965 11.5321 17.946 10.671C18.6049 9.40748 19.6765 8.4781 21.2071 8.13458C23.3229 7.65929 24.9335 8.51574 25.8672 9.56395L27.7535 9.16984C27.9509 9.12851 28.1547 9.15114 28.341 9.23507C28.5273 9.31901 28.6881 9.46073 28.8047 9.64353C28.9212 9.82633 28.9885 10.0426 28.9987 10.2667C29.0088 10.4909 28.9614 10.7136 28.8619 10.9086L27.0514 14.4638C27.2166 19.5943 25.9408 23.1754 23.2208 25.6423C21.7787 26.9505 19.7134 27.6929 17.447 27.9223C15.1628 28.1529 12.5807 27.8741 10.0143 27.0364C9.79503 26.9649 9.60251 26.8157 9.4658 26.6112C9.32909 26.4067 9.2556 26.158 9.25643 25.9028C9.25727 25.6475 9.33237 25.3995 9.47041 25.1961C9.60845 24.9927 9.80194 24.845 10.0217 24.7753C11.3122 24.3647 12.2954 24.0106 13.1828 23.3906C11.9206 22.6424 10.9912 21.6636 10.3333 20.5484C9.41956 18.9978 9.08061 17.2685 9.01324 15.7097C8.94587 14.1509 9.14693 12.7062 9.35956 11.6651C9.48062 11.071 9.62167 10.4757 9.81641 9.90629C9.8851 9.70558 10.0017 9.52973 10.1535 9.39783C10.3053 9.26592 10.4854 9.18301 10.6764 9.15808Z" fill="#A31F58"/>
</svg>
