<svg width="45" height="39" viewBox="0 0 45 39" fill="none" xmlns="http://www.w3.org/2000/svg">
<path d="M45 12.4385C45 26.4819 24.1493 37.8491 23.2614 38.3185C23.0273 38.4443 22.7657 38.5101 22.5 38.5101C22.2343 38.5101 21.9726 38.4443 21.7386 38.3185C20.8507 37.8491 0 26.4819 0 12.4385C0.00372202 9.14073 1.31717 5.97911 3.6522 3.64725C5.98723 1.31539 9.15313 0.00371697 12.4554 0C16.6038 0 20.2359 1.78151 22.5 4.79283C24.7641 1.78151 28.3962 0 32.5446 0C35.8469 0.00371697 39.0128 1.31539 41.3478 3.64725C43.6828 5.97911 44.9963 9.14073 45 12.4385Z" fill="#A31F58"/>
</svg>
