<svg width="45" height="40" viewBox="0 0 45 40" fill="none" xmlns="http://www.w3.org/2000/svg">
<path d="M22.5603 37.5027L22.5603 37.5027L22.5515 37.5074C22.5358 37.5159 22.5181 37.5203 22.5 37.5203C22.4819 37.5203 22.4642 37.5159 22.4485 37.5074L22.4485 37.5074L22.4397 37.5027C22.0464 37.2948 16.7246 34.3983 11.5238 29.8499C6.24379 25.2322 1.50042 19.2682 1.5 12.9496C1.5035 10.05 2.65843 7.26981 4.71214 5.21888C6.76592 3.16789 9.55087 2.01375 12.4562 2.01025C16.1667 2.01049 19.3403 3.59661 21.3011 6.2045L22.5 7.79914L23.6989 6.2045C25.6597 3.59661 28.8333 2.0105 32.5438 2.01025C35.4491 2.01374 38.2341 3.16788 40.2879 5.21888C42.3418 7.27001 43.4967 10.0506 43.5 12.9504C43.4992 19.2688 38.756 25.2324 33.4762 29.8499C28.2754 34.3983 22.9536 37.2948 22.5603 37.5027Z" stroke="#A31F58" stroke-width="3"/>
</svg>
