<svg width="74" height="74" viewBox="0 0 74 74" fill="none" xmlns="http://www.w3.org/2000/svg">
<rect x="1.5" y="1.5" width="71" height="71" rx="35.5" fill="#40B3D1"/>
<path d="M27.7893 53.6154C28.2935 54.1226 28.9773 54.4076 29.6903 54.4076C30.4032 54.4076 31.087 54.1226 31.5912 53.6154L46.2128 38.9182C46.7168 38.4108 47 37.7227 47 37.0053C47 36.2878 46.7168 35.5998 46.2128 35.0924L31.5912 20.3843C31.0863 19.877 30.4019 19.5923 29.6884 19.5928C28.9749 19.5933 28.2908 19.879 27.7866 20.387C27.2825 20.8951 26.9995 21.5839 27 22.3019C27.0005 23.0199 27.2844 23.7082 27.7893 24.2156L40.5072 37.0026L27.7893 49.7896C27.2852 50.297 27.0021 50.985 27.0021 51.7025C27.0021 52.4199 27.2852 53.108 27.7893 53.6154Z" fill="#010A3D"/>
<rect x="1.5" y="1.5" width="71" height="71" rx="35.5" stroke="#40B3D1" stroke-width="3"/>
</svg>
