<svg width="25" height="28" viewBox="0 0 25 28" fill="none" xmlns="http://www.w3.org/2000/svg">
<path d="M20.8843 3.59615C21.188 2.98005 21.1667 2.28888 20.8121 1.54003C20.375 0.616328 19.7565 0.251975 19.3167 0.106416C18.3834 -0.185616 17.6111 0.210779 17.5222 0.259298L17.426 0.317888L12.4704 3.90924L7.51669 0.317888L7.42039 0.259298C7.33336 0.210779 6.56114 -0.185616 5.6278 0.106416C5.18521 0.251975 4.56854 0.618159 4.13151 1.54003C3.7778 2.28979 3.78243 2.98096 4.08706 3.59615C4.77039 4.97209 6.47965 5.63488 11.1093 6.58788V27.6316H13.8871V6.58788C18.5185 5.63488 20.2 4.97209 20.8843 3.59615ZM5.53614 2.88026C5.50465 2.81801 5.42132 2.65048 5.62039 2.22846C5.7241 2.01241 5.89632 1.73411 6.13521 1.65263C6.14539 1.64805 6.1528 1.64622 6.15928 1.64348C6.34725 1.58672 6.54077 1.64805 6.61114 1.67643L11.1056 4.93273C8.58614 4.36422 5.93336 3.68038 5.53614 2.88026ZM19.4084 2.88026C19.0102 3.68038 16.3565 4.36422 13.838 4.93273L18.3324 1.67643C18.4047 1.64805 18.5982 1.58672 18.7861 1.64348C18.7926 1.64622 18.8009 1.64805 18.8093 1.65263C19.0482 1.73411 19.2195 2.01241 19.3241 2.22846C19.5232 2.65048 19.4398 2.8171 19.4084 2.88026Z" fill="#FFFCFC"/>
<path d="M1.85187 25.8005C1.85187 26.8111 2.6815 27.6314 3.70372 27.6314H9.25927V14.8149H1.85187V25.8005Z" fill="#FFFCFC"/>
<path d="M0 8.40661V11.153C0 12.1637 0.82963 12.9839 1.85185 12.9839H9.25926V6.57568H1.85185C0.82963 6.57568 0 7.39685 0 8.40661Z" fill="#FFFCFC"/>
<path d="M15.7407 27.6314H21.2963C22.3185 27.6314 23.1481 26.8111 23.1481 25.8005V14.8149H15.7407V27.6314Z" fill="#FFFCFC"/>
<path d="M23.1481 6.57568H15.7407V12.9839H23.1481C24.1704 12.9839 25 12.1637 25 11.153V8.40661C25 7.39685 24.1704 6.57568 23.1481 6.57568Z" fill="#FFFCFC"/>
</svg>
