<svg width="40" height="40" viewBox="0 0 40 40" fill="none" xmlns="http://www.w3.org/2000/svg">
<path d="M5.45455 26H9.09091C10.0553 26 10.9803 26.4214 11.6622 27.1716C12.3442 27.9217 12.7273 28.9391 12.7273 30V34H14.5455V30C14.5455 28.9391 14.9286 27.9217 15.6105 27.1716C16.2925 26.4214 17.2174 26 18.1818 26H21.8182C22.7826 26 23.7075 26.4214 24.3895 27.1716C25.0714 27.9217 25.4545 28.9391 25.4545 30V34H27.2727V30C27.2727 28.9391 27.6558 27.9217 28.3378 27.1716C29.0197 26.4214 29.9447 26 30.9091 26H34.5455C35.5099 26 36.4348 26.4214 37.1168 27.1716C37.7987 27.9217 38.1818 28.9391 38.1818 30V34H40V40H0V34H1.81818V30C1.81818 28.9391 2.2013 27.9217 2.88325 27.1716C3.5652 26.4214 4.49012 26 5.45455 26ZM18.1818 10L25.4545 16L18.1818 22V10ZM5.45455 0H34.5455C35.5099 0 36.4348 0.421427 37.1168 1.17157C37.7987 1.92172 38.1818 2.93913 38.1818 4V23.08C37.0807 22.3651 35.824 21.9918 34.5455 22V4H5.45455V22C4.12727 22 2.89091 22.38 1.81818 23.08V4C1.81818 2.93913 2.2013 1.92172 2.88325 1.17157C3.5652 0.421427 4.49012 0 5.45455 0Z" fill="#FFFCFC"/>
</svg>
