<svg width="66" height="70" viewBox="0 0 66 70" fill="none" xmlns="http://www.w3.org/2000/svg">
<path d="M64.4809 51.1359C62.613 47.9184 59.8365 38.8147 59.8365 26.9242C59.8365 19.7835 56.9998 12.9352 51.9506 7.88593C46.9013 2.83665 40.053 0 32.9122 0C25.7715 0 18.9232 2.83665 13.8739 7.88593C8.82466 12.9352 5.988 19.7835 5.988 26.9242C5.988 38.818 3.20808 47.9184 1.34021 51.1359C0.863211 51.9538 0.610338 52.8831 0.607087 53.83C0.603837 54.7769 0.850324 55.7079 1.32169 56.5291C1.79306 57.3503 2.47264 58.0327 3.29189 58.5075C4.11115 58.9823 5.04112 59.2326 5.988 59.2333H19.7227C20.3439 62.2729 21.9959 65.0047 24.3992 66.9666C26.8026 68.9284 29.8098 70 32.9122 70C36.0147 70 39.0219 68.9284 41.4252 66.9666C43.8286 65.0047 45.4806 62.2729 46.1018 59.2333H59.8365C60.7831 59.2321 61.7126 58.9813 62.5314 58.5063C63.3502 58.0312 64.0293 57.3488 64.5003 56.5276C64.9712 55.7065 65.2174 54.7758 65.214 53.8292C65.2106 52.8826 64.9578 51.9536 64.4809 51.1359ZM32.9122 64.6182C31.2423 64.6177 29.6136 64.0996 28.2503 63.1353C26.887 62.1709 25.8561 60.8077 25.2994 59.2333H40.5251C39.9684 60.8077 38.9375 62.1709 37.5742 63.1353C36.2109 64.0996 34.5822 64.6177 32.9122 64.6182Z" fill="#40B3D1"/>
</svg>
