<svg width="20" height="18" viewBox="0 0 20 18" fill="none" xmlns="http://www.w3.org/2000/svg">
<path d="M10.28 16.92L10.2792 16.9203C10.1934 16.9665 10.0975 16.9906 10 16.9906C9.90253 16.9906 9.80659 16.9665 9.72077 16.9203L9.72003 16.92C9.52693 16.8179 7.12093 15.5079 4.7651 13.4476C2.40267 11.3815 0.125034 8.59046 0.125 5.52828C0.126636 4.0958 0.697183 2.72242 1.71153 1.70945C2.72588 0.696472 4.1012 0.126634 5.53578 0.125C7.34304 0.125019 8.91911 0.900519 9.90009 2.20526L10 2.33815L10.0999 2.20526C11.0809 0.900519 12.657 0.12502 14.4642 0.125C15.8988 0.126634 17.2741 0.696472 18.2885 1.70945C19.3028 2.72244 19.8734 4.09585 19.875 5.52835C19.8749 8.5905 17.5973 11.3815 15.2349 13.4476C12.8791 15.5079 10.4731 16.8179 10.28 16.92Z" fill="#FFFCFC" stroke="#FFFCFC" stroke-width="0.25"/>
</svg>
