<svg width="26" height="30" viewBox="0 0 26 30" fill="none" xmlns="http://www.w3.org/2000/svg">
<path d="M24.4641 20.7789L25.7858 24.5684C26.2379 25.8316 25.9597 27.2211 25.0902 28.2947C24.2207 29.3684 22.8643 30 21.3688 30H4.60507C3.10956 30 1.75316 29.3684 0.883673 28.2947C0.0141862 27.2211 -0.22927 25.8632 0.222863 24.5684L1.54448 20.7789C2.62265 17.6842 5.09199 15.2842 8.22214 14.0526C5.99625 12.6632 4.53552 10.3263 4.53552 7.70526C4.53552 3.44211 8.36126 0 13.0217 0C17.6821 0 21.5079 3.44211 21.4731 7.70526C21.4731 10.3263 20.0124 12.6632 17.7865 14.0526C20.9166 15.2526 23.386 17.6526 24.4641 20.7789Z" fill="#FFFCFC"/>
</svg>
