<svg width="28" height="28" viewBox="0 0 28 28" fill="none" xmlns="http://www.w3.org/2000/svg">
<g filter="url(#filter0_d_379_3659)">
<path d="M10.1531 6.40792C11.42 4.13597 12.053 3 13 3C13.947 3 14.58 4.13597 15.8469 6.40792L16.1749 6.99591C16.5349 7.64189 16.7149 7.96488 16.9949 8.17788C17.2749 8.39087 17.6249 8.46987 18.3249 8.62787L18.9609 8.77186C21.4208 9.32885 22.6498 9.60684 22.9428 10.5478C23.2348 11.4878 22.3968 12.4688 20.7198 14.4297L20.2858 14.9367C19.8098 15.4937 19.5708 15.7727 19.4638 16.1167C19.3568 16.4617 19.3928 16.8337 19.4648 17.5767L19.5308 18.2536C19.7838 20.8706 19.9108 22.1785 19.1449 22.7595C18.3789 23.3415 17.2269 22.8105 14.925 21.7506L14.328 21.4766C13.674 21.1746 13.347 21.0246 13 21.0246C12.653 21.0246 12.326 21.1746 11.671 21.4766L11.076 21.7506C8.7731 22.8105 7.62113 23.3405 6.85614 22.7605C6.08916 22.1785 6.21616 20.8706 6.46915 18.2536L6.53515 17.5777C6.60715 16.8337 6.64315 16.4617 6.53515 16.1177C6.42915 15.7727 6.19016 15.4937 5.71417 14.9377L5.28018 14.4297C3.60322 12.4698 2.76524 11.4888 3.05723 10.5478C3.35023 9.60684 4.5802 9.32785 7.04014 8.77186L7.67613 8.62787C8.37511 8.46987 8.7241 8.39087 9.00509 8.17788C9.28509 7.96488 9.46508 7.64189 9.82507 6.99591L10.1531 6.40792Z" fill="#40B3D1"/>
</g>
<defs>
<filter id="filter0_d_379_3659" x="0" y="0" width="28" height="27.9995" filterUnits="userSpaceOnUse" color-interpolation-filters="sRGB">
<feFlood flood-opacity="0" result="BackgroundImageFix"/>
<feColorMatrix in="SourceAlpha" type="matrix" values="0 0 0 0 0 0 0 0 0 0 0 0 0 0 0 0 0 0 127 0" result="hardAlpha"/>
<feOffset dx="1" dy="1"/>
<feGaussianBlur stdDeviation="2"/>
<feComposite in2="hardAlpha" operator="out"/>
<feColorMatrix type="matrix" values="0 0 0 0 1 0 0 0 0 0.988235 0 0 0 0 0.988235 0 0 0 0.25 0"/>
<feBlend mode="normal" in2="BackgroundImageFix" result="effect1_dropShadow_379_3659"/>
<feBlend mode="normal" in="SourceGraphic" in2="effect1_dropShadow_379_3659" result="shape"/>
</filter>
</defs>
</svg>
