<svg width="75" height="63" viewBox="0 0 75 63" fill="none" xmlns="http://www.w3.org/2000/svg">
<path d="M19.0909 30.4201V36.7751H50.9091V30.4201C50.9091 24.5099 54.9818 19.5848 60.4546 18.1549V14.5325C60.4546 9.28963 56.1591 5 50.9091 5H19.0909C13.8409 5 9.54547 9.28963 9.54547 14.5325V18.1549C15.0182 19.5848 19.0909 24.5099 19.0909 30.4201Z" fill="#40B3D1"/>
<path d="M63.6364 24.0649C60.1364 24.0649 57.2727 26.9247 57.2727 30.42V43.13H12.7273V30.42C12.7273 26.9247 9.86364 24.0649 6.36364 24.0649C2.86364 24.0649 0 26.9247 0 30.42V46.3075C0 51.5504 4.29545 55.84 9.54545 55.84V59.0175C9.54545 60.7651 10.9773 62.195 12.7273 62.195C14.4773 62.195 15.9091 60.7651 15.9091 59.0175V55.84H54.0909V59.0175C54.0909 60.7651 55.5227 62.195 57.2727 62.195C59.0227 62.195 60.4545 60.7651 60.4545 59.0175V55.84C65.7045 55.84 70 51.5504 70 46.3075V30.42C70 26.9247 67.1364 24.0649 63.6364 24.0649Z" fill="#40B3D1"/>
<path d="M61.082 24.072L61.0813 24.0724C60.9539 24.1408 60.8114 24.1767 60.6667 24.1767C60.522 24.1767 60.3795 24.1408 60.2521 24.0724L60.2514 24.072C59.9793 23.9282 56.6072 22.0921 53.3049 19.2041C49.996 16.3103 46.7917 12.3899 46.7917 8.07941C46.794 6.06066 47.598 4.12522 49.0275 2.69769C50.457 1.27016 52.3951 0.467139 54.4168 0.464844C56.9615 0.464863 59.1833 1.55708 60.5668 3.39717L60.6667 3.53005L60.7666 3.39717C62.1501 1.55708 64.3719 0.464863 66.9166 0.464844C68.9383 0.467139 70.8764 1.27016 72.3059 2.69769C73.7354 4.12524 74.5394 6.06071 74.5417 8.07948C74.5416 12.3899 71.3373 16.3103 68.0285 19.2041C64.7262 22.0921 61.354 23.9282 61.082 24.072Z" fill="#A31F58" stroke="#FFFCFC" stroke-width="0.25"/>
</svg>
