<svg width="9" height="15" viewBox="0 0 9 15" fill="none" xmlns="http://www.w3.org/2000/svg">
<path d="M0.533684 13.7259C0.738689 13.9305 1.0167 14.0455 1.30658 14.0455C1.59645 14.0455 1.87446 13.9305 2.07947 13.7259L8.02429 7.79653C8.22923 7.59183 8.34436 7.31424 8.34436 7.0248C8.34436 6.73535 8.22923 6.45776 8.02429 6.25306L2.07947 0.319343C1.87419 0.114667 1.5959 -0.000204436 1.3058 2.73137e-07C1.01571 0.000204982 0.737575 0.115469 0.532591 0.320434C0.327608 0.5254 0.212564 0.803279 0.212769 1.09294C0.212974 1.3826 0.32841 1.66032 0.533684 1.86499L5.70452 7.0237L0.533684 12.1824C0.328741 12.3871 0.21361 12.6647 0.21361 12.9542C0.21361 13.2436 0.328741 13.5212 0.533684 13.7259Z" fill="#FFFCFC"/>
</svg>
