<svg width="41" height="40" viewBox="0 0 41 40" fill="none" xmlns="http://www.w3.org/2000/svg">
<path d="M15.903 0C7.65982 0 0.977295 6.68253 0.977295 14.9257C0.977295 23.1689 7.65982 29.8515 15.903 29.8515C24.1462 29.8515 30.8287 23.1689 30.8287 14.9257C30.8287 6.68253 24.1462 0 15.903 0ZM15.903 26.12C9.73077 26.12 4.70873 21.0984 4.70873 14.9257C4.70873 8.75301 9.73077 3.73143 15.903 3.73143C22.0753 3.73143 27.0973 8.75301 27.0973 14.9257C27.0973 21.0984 22.0753 26.12 15.903 26.12Z" fill="#FFFCFC"/>
<path d="M40.2174 39.1184C39.1302 40.2728 37.313 40.2933 36.1996 39.1799L25.8146 28.7949C25.7138 28.6941 25.7278 28.53 25.8426 28.4455C27.2087 27.4385 28.4163 26.2309 29.4234 24.8648C29.5078 24.7505 29.672 24.7365 29.7727 24.8368L40.0747 35.1388C41.1578 36.2228 41.2678 38.0027 40.2174 39.1184Z" fill="#FFFCFC"/>
</svg>
