<svg width="32" height="32" viewBox="0 0 32 32" fill="none" xmlns="http://www.w3.org/2000/svg">
<path d="M11.9406 0C5.34602 0 0 5.34602 0 11.9406C0 18.5351 5.34602 23.8812 11.9406 23.8812C18.5351 23.8812 23.8812 18.5351 23.8812 11.9406C23.8812 5.34602 18.5351 0 11.9406 0ZM11.9406 20.896C7.00278 20.896 2.98515 16.8788 2.98515 11.9406C2.98515 7.0024 7.00278 2.98515 11.9406 2.98515C16.8784 2.98515 20.896 7.0024 20.896 11.9406C20.896 16.8788 16.8784 20.896 11.9406 20.896Z" fill="#FFFCFC"/>
<path d="M31.3921 31.295C30.5223 32.2185 29.0685 32.2349 28.1778 31.3442L19.8698 23.0362C19.7892 22.9556 19.8004 22.8243 19.8922 22.7567C20.9851 21.9511 21.9512 20.985 22.7568 19.8921C22.8243 19.8007 22.9557 19.7895 23.0363 19.8697L31.2779 28.1113C32.1443 28.9785 32.2324 30.4024 31.3921 31.295Z" fill="#FFFCFC"/>
</svg>
