<svg width="28" height="28" viewBox="0 0 28 28" fill="none" xmlns="http://www.w3.org/2000/svg">
<path d="M10.4554 0C4.68108 0 0 4.67777 0 10.448C0 16.2182 4.68108 20.896 10.4554 20.896C16.2297 20.896 20.9108 16.2182 20.9108 10.448C20.9108 4.67777 16.2297 0 10.4554 0ZM10.4554 18.284C6.13177 18.284 2.61385 14.7689 2.61385 10.448C2.61385 6.1271 6.13177 2.612 10.4554 2.612C14.779 2.612 18.297 6.1271 18.297 10.448C18.297 14.7689 14.779 18.284 10.4554 18.284Z" fill="#FFFCFC"/>
<path d="M27.4876 27.383C26.7259 28.1911 25.453 28.2055 24.6731 27.4261L17.3984 20.1566C17.3278 20.0861 17.3376 19.9712 17.418 19.9121C18.375 19.2071 19.2209 18.3618 19.9263 17.4055C19.9855 17.3255 20.1005 17.3157 20.1711 17.3859L27.3876 24.5973C28.1462 25.3561 28.2234 26.6021 27.4876 27.383Z" fill="#FFFCFC"/>
</svg>
