<svg width="36" height="33" viewBox="0 0 36 33" fill="none" xmlns="http://www.w3.org/2000/svg">
<path d="M31.2 6.48H27.6V5.4C27.6 2.4192 24.912 0 21.6 0H14.4C11.088 0 8.4 2.4192 8.4 5.4V6.48H4.8C2.148 6.48 0 8.4132 0 10.8V28.08C0 30.4668 2.148 32.4 4.8 32.4H31.2C33.852 32.4 36 30.4668 36 28.08V10.8C36 8.4132 33.852 6.48 31.2 6.48ZM10.8 5.4C10.8 3.618 12.42 2.16 14.4 2.16H21.6C23.58 2.16 25.2 3.618 25.2 5.4V6.48H10.8V5.4ZM33.6 28.08C33.6 29.268 32.52 30.24 31.2 30.24H4.8C3.48 30.24 2.4 29.268 2.4 28.08V16.6536L17.592 21.5352C17.724 21.5784 17.868 21.6 18 21.6C18.156 21.6 18.324 21.5676 18.468 21.5136L33.6 15.6816V28.08Z" fill="#FFFCFC"/>
</svg>
