<svg width="88" height="88" viewBox="0 0 88 88" fill="none" xmlns="http://www.w3.org/2000/svg">
<circle cx="44" cy="44" r="42.5" fill="#010A3D" stroke="#40B3D1" stroke-width="3"/>
<path d="M52.754 15.6504C53.0577 15.0342 53.0364 14.3431 52.6818 13.5942C52.2448 12.6705 51.6263 12.3062 51.1864 12.1606C50.2531 11.8686 49.4809 12.265 49.392 12.3135L49.2957 12.3721L44.3401 15.9634L39.3864 12.3721L39.2901 12.3135C39.2031 12.265 38.4309 11.8686 37.4976 12.1606C37.055 12.3062 36.4383 12.6724 36.0013 13.5942C35.6476 14.344 35.6522 15.0352 35.9568 15.6504C36.6401 17.0263 38.3494 17.6891 42.979 18.6421V39.6858H45.7568V18.6421C50.3883 17.6891 52.0698 17.0263 52.754 15.6504ZM37.4059 14.9345C37.3744 14.8722 37.2911 14.7047 37.4901 14.2827C37.5938 14.0666 37.7661 13.7883 38.005 13.7068C38.0151 13.7023 38.0226 13.7004 38.029 13.6977C38.217 13.6409 38.4105 13.7023 38.4809 13.7306L42.9753 16.9869C40.4559 16.4184 37.8031 15.7346 37.4059 14.9345ZM51.2781 14.9345C50.88 15.7346 48.2263 16.4184 45.7077 16.9869L50.2022 13.7306C50.2744 13.7023 50.4679 13.6409 50.6559 13.6977C50.6624 13.7004 50.6707 13.7023 50.679 13.7068C50.9179 13.7883 51.0892 14.0666 51.1938 14.2827C51.3929 14.7047 51.3096 14.8713 51.2781 14.9345Z" fill="#FFFCFC"/>
<path d="M33.7217 37.8547C33.7217 38.8653 34.5513 39.6856 35.5735 39.6856H41.1291V26.8691H33.7217V37.8547Z" fill="#FFFCFC"/>
<path d="M31.8696 20.4608V23.2072C31.8696 24.2179 32.6993 25.0381 33.7215 25.0381H41.1289V18.6299H33.7215C32.6993 18.6299 31.8696 19.4511 31.8696 20.4608Z" fill="#FFFCFC"/>
<path d="M47.6104 39.6856H53.1659C54.1881 39.6856 55.0178 38.8653 55.0178 37.8547V26.8691H47.6104V39.6856Z" fill="#FFFCFC"/>
<path d="M55.0178 18.6299H47.6104V25.0381H55.0178C56.04 25.0381 56.8696 24.2179 56.8696 23.2072V20.4608C56.8696 19.4511 56.04 18.6299 55.0178 18.6299Z" fill="#FFFCFC"/>
<path d="M18.3273 61.1805V50.7855H25.7793V53.0805H20.5413V57.9675C21.0993 57.3195 21.8283 56.9955 22.7283 56.9955C23.7183 56.9955 24.5373 57.3375 25.1853 58.0215C25.8513 58.7055 26.1843 59.5965 26.1843 60.6945V65.7435C26.1843 66.9675 25.7793 67.9755 24.9693 68.7675C24.1593 69.5595 23.1873 69.9555 22.0533 69.9555C20.9373 69.9555 19.9923 69.5865 19.2183 68.8485C18.4443 68.0925 18.0573 67.1115 18.0573 65.9055V64.0155H20.4333V65.6625C20.4333 66.2565 20.5863 66.7335 20.8923 67.0935C21.1983 67.4355 21.5943 67.6065 22.0803 67.6065C22.5663 67.6065 22.9623 67.4355 23.2683 67.0935C23.5743 66.7335 23.7273 66.2565 23.7273 65.6625V61.0725C23.7273 60.4965 23.5743 60.0375 23.2683 59.6955C22.9623 59.3355 22.5663 59.1555 22.0803 59.1555C21.6303 59.1555 21.2523 59.3175 20.9463 59.6415C20.6583 59.9475 20.5143 60.3525 20.5143 60.8565V61.1805H18.3273ZM31.0612 54.9165V65.5815C31.0612 66.2115 31.2142 66.7065 31.5202 67.0665C31.8442 67.4265 32.2672 67.6065 32.7892 67.6065C33.3112 67.6065 33.7252 67.4265 34.0312 67.0665C34.3552 66.7065 34.5172 66.2115 34.5172 65.5815V54.9165C34.5172 54.2865 34.3552 53.7915 34.0312 53.4315C33.7252 53.0715 33.3112 52.8915 32.7892 52.8915C32.2672 52.8915 31.8442 53.0715 31.5202 53.4315C31.2142 53.7915 31.0612 54.2865 31.0612 54.9165ZM28.6042 65.7435V54.8085C28.6042 53.5485 29.0092 52.5225 29.8192 51.7305C30.6472 50.9205 31.6462 50.5155 32.8162 50.5155C33.9862 50.5155 34.9672 50.9025 35.7592 51.6765C36.5692 52.4505 36.9742 53.4675 36.9742 54.7275V65.6625C36.9742 66.9225 36.5602 67.9575 35.7322 68.7675C34.9222 69.5595 33.9232 69.9555 32.7352 69.9555C31.5652 69.9555 30.5842 69.5685 29.7922 68.7945C29.0002 68.0205 28.6042 67.0035 28.6042 65.7435ZM47.7077 53.1615V60.2355H49.1927C49.8767 60.2355 50.4077 60.0285 50.7857 59.6145C51.1637 59.2005 51.3527 58.5975 51.3527 57.8055V55.5915C51.3527 54.7995 51.1637 54.1965 50.7857 53.7825C50.4077 53.3685 49.8767 53.1615 49.1927 53.1615H47.7077ZM45.1427 69.6855V50.7855H49.2197C50.6777 50.7855 51.8207 51.1995 52.6487 52.0275C53.4947 52.8375 53.9177 54.0075 53.9177 55.5375V57.6975C53.9177 59.2455 53.4857 60.4425 52.6217 61.2885C51.7577 62.1165 50.5967 62.5305 49.1387 62.5305H47.7077V69.6855H45.1427ZM55.1369 57.8595V55.8345H56.7569V52.4055H59.1869V55.8345H61.7519V57.8595H59.1869V65.9865C59.1869 67.1385 59.6729 67.7145 60.6449 67.7145L61.6169 67.6335V69.7935C61.1489 69.9015 60.6269 69.9555 60.0509 69.9555C59.0249 69.9555 58.2149 69.6675 57.6209 69.0915C57.0449 68.5155 56.7569 67.6515 56.7569 66.4995V57.8595H55.1369ZM68.6475 59.7495V59.3445C68.6475 58.8585 68.5035 58.4625 68.2155 58.1565C67.9275 57.8505 67.5585 57.6975 67.1085 57.6975C66.6765 57.6975 66.3075 57.8415 66.0015 58.1295C65.7135 58.3995 65.5695 58.7595 65.5695 59.2095C65.5695 59.6775 65.7315 60.0915 66.0555 60.4515C66.3975 60.7935 67.0005 61.1805 67.8645 61.6125C70.0065 62.6745 71.0775 64.1325 71.0775 65.9865C71.0775 67.1385 70.6815 68.0925 69.8895 68.8485C69.1155 69.5865 68.1525 69.9555 67.0005 69.9555C65.8485 69.9555 64.8855 69.5955 64.1115 68.8755C63.3555 68.1375 62.9775 67.1745 62.9775 65.9865V65.5005H65.2995V65.9865C65.2995 66.5625 65.4525 67.0215 65.7585 67.3635C66.0825 67.6875 66.4875 67.8495 66.9735 67.8495C67.4595 67.8495 67.8555 67.6875 68.1615 67.3635C68.4855 67.0395 68.6475 66.6075 68.6475 66.0675C68.6475 65.5455 68.4675 65.0865 68.1075 64.6905C67.7475 64.2945 67.0905 63.8625 66.1365 63.3945C64.1385 62.3865 63.1395 60.9915 63.1395 59.2095C63.1395 58.1835 63.5175 57.3195 64.2735 56.6175C65.0475 55.9155 65.9835 55.5645 67.0815 55.5645C68.1975 55.5645 69.1245 55.9155 69.8625 56.6175C70.6185 57.3195 70.9965 58.2285 70.9965 59.3445V59.7495H68.6475Z" fill="#FFFCFC"/>
</svg>
