<svg width="70" height="70" viewBox="0 0 70 70" fill="none" xmlns="http://www.w3.org/2000/svg">
<path d="M65.9415 28.1496H61.9736C61.2564 28.148 60.5565 27.9292 59.9661 27.522C59.3757 27.1148 58.9225 26.5383 58.6663 25.8685C58.5178 25.484 58.3603 25.104 58.1938 24.7287C57.9001 24.0733 57.8119 23.3442 57.941 22.6376C58.0701 21.9311 58.4104 21.2803 58.9169 20.7711L61.7225 17.9655C62.0993 17.5886 62.3983 17.1412 62.6022 16.6489C62.8062 16.1565 62.9112 15.6287 62.9112 15.0958C62.9112 14.5628 62.8062 14.035 62.6022 13.5426C62.3983 13.0503 62.0993 12.6029 61.7225 12.226L57.774 8.2775C57.3972 7.90064 56.9498 7.60169 56.4574 7.39774C55.965 7.19378 55.4372 7.0888 54.9043 7.0888C54.3713 7.0888 53.8436 7.19378 53.3512 7.39774C52.8588 7.60169 52.4114 7.90064 52.0345 8.2775L49.229 11.083C48.7197 11.5896 48.0689 11.9299 47.3624 12.059C46.6558 12.1881 45.9267 12.0999 45.2713 11.8062C44.8961 11.6398 44.5162 11.4823 44.1315 11.3337C43.4617 11.0775 42.8851 10.6243 42.4779 10.0339C42.0707 9.44351 41.852 8.7436 41.8504 8.02639V4.05846C41.8504 3.5255 41.7455 2.99775 41.5415 2.50536C41.3376 2.01296 41.0386 1.56556 40.6617 1.1887C40.2849 0.811835 39.8375 0.512891 39.3451 0.308933C38.8527 0.104976 38.325 7.41333e-07 37.792 0H32.208C31.1316 0 30.0994 0.427586 29.3383 1.18869C28.5771 1.9498 28.1496 2.98208 28.1496 4.05845V8.0264C28.148 8.74361 27.9292 9.44352 27.522 10.0339C27.1148 10.6243 26.5383 11.0775 25.8685 11.3337C25.484 11.4822 25.104 11.6397 24.7287 11.8062C24.0733 12.0999 23.3442 12.1881 22.6376 12.059C21.9311 11.9299 21.2803 11.5896 20.771 11.0831L17.9655 8.2775C17.5886 7.90064 17.1412 7.60169 16.6488 7.39774C16.1565 7.19378 15.6287 7.0888 15.0957 7.0888C14.5628 7.0888 14.035 7.19378 13.5426 7.39774C13.0502 7.60169 12.6028 7.90064 12.226 8.2775L8.2775 12.226C7.90064 12.6028 7.60169 13.0502 7.39774 13.5426C7.19378 14.035 7.0888 14.5628 7.0888 15.0957C7.0888 15.6287 7.19378 16.1565 7.39774 16.6488C7.60169 17.1412 7.90064 17.5886 8.2775 17.9655L11.083 20.7711C11.5896 21.2803 11.9299 21.9311 12.059 22.6376C12.1881 23.3442 12.0999 24.0733 11.8062 24.7287C11.6398 25.1039 11.4823 25.4839 11.3337 25.8685C11.0775 26.5383 10.6243 27.1148 10.0339 27.522C9.44351 27.9292 8.7436 28.148 8.02639 28.1496H4.05845C3.52549 28.1496 2.99774 28.2545 2.50535 28.4585C2.01295 28.6624 1.56555 28.9614 1.18869 29.3383C0.811829 29.7151 0.512886 30.1625 0.30893 30.6549C0.104974 31.1473 -7.4133e-07 31.6751 0 32.208V37.792C0 38.8684 0.427586 39.9006 1.18869 40.6618C1.9498 41.4229 2.98208 41.8504 4.05845 41.8504H8.02644C8.74364 41.852 9.44355 42.0708 10.0339 42.478C10.6243 42.8852 11.0775 43.4617 11.3338 44.1315C11.4822 44.516 11.6397 44.896 11.8062 45.2713C12.1 45.9267 12.1881 46.6558 12.059 47.3624C11.9299 48.0689 11.5896 48.7197 11.0831 49.229L8.2775 52.0345C7.90064 52.4114 7.60169 52.8588 7.39774 53.3512C7.19378 53.8435 7.0888 54.3713 7.0888 54.9043C7.0888 55.4372 7.19378 55.965 7.39774 56.4574C7.60169 56.9498 7.90064 57.3972 8.2775 57.774L12.226 61.7225C12.9871 62.4836 14.0194 62.9112 15.0958 62.9112C16.1721 62.9112 17.2044 62.4836 17.9655 61.7225L20.7711 58.917C21.2803 58.4104 21.9311 58.0702 22.6376 57.9411C23.3442 57.812 24.0733 57.9001 24.7287 58.1938C25.104 58.3602 25.4839 58.5177 25.8685 58.6663C26.5384 58.9225 27.1149 59.3757 27.5221 59.9661C27.9293 60.5565 28.1481 61.2564 28.1496 61.9736V65.9416C28.1496 67.0179 28.5772 68.0502 29.3383 68.8113C30.0994 69.5724 31.1317 70 32.208 70H37.792C38.8684 70 39.9006 69.5724 40.6617 68.8113C41.4229 68.0502 41.8504 67.0179 41.8504 65.9415V61.9736C41.852 61.2564 42.0708 60.5565 42.478 59.9661C42.8852 59.3757 43.4617 58.9225 44.1315 58.6663C44.516 58.5178 44.896 58.3603 45.2713 58.1938C45.9267 57.9001 46.6558 57.8119 47.3624 57.941C48.0689 58.0701 48.7197 58.4104 49.229 58.9169L52.0345 61.7225C52.7956 62.4836 53.8279 62.9112 54.9043 62.9112C55.9806 62.9112 57.0129 62.4836 57.774 61.7225L61.7225 57.774C62.0994 57.3971 62.3983 56.9497 62.6023 56.4573C62.8062 55.965 62.9112 55.4372 62.9112 54.9042C62.9112 54.3713 62.8062 53.8435 62.6023 53.3511C62.3983 52.8587 62.0994 52.4113 61.7225 52.0345L58.917 49.2289C58.4104 48.7197 58.0702 48.0689 57.9411 47.3624C57.812 46.6558 57.9001 45.9267 58.1938 45.2713C58.3602 44.8961 58.5177 44.5161 58.6663 44.1315C58.9225 43.4617 59.3757 42.8851 59.9661 42.4779C60.5565 42.0707 61.2564 41.852 61.9736 41.8504H65.9416C67.018 41.8504 68.0502 41.4228 68.8113 40.6617C69.5724 39.9006 70 38.8684 70 37.792V32.208C70 31.1316 69.5724 30.0994 68.8113 29.3383C68.0502 28.5771 67.0179 28.1496 65.9415 28.1496ZM48.7042 39.0162C48.4175 40.0009 48.0239 40.9513 47.5305 41.8505C46.2173 44.2466 44.2465 46.2173 41.8504 47.5306C40.9513 48.0239 40.0009 48.4175 39.0162 48.7042C36.3935 49.4701 33.6065 49.4701 30.9838 48.7042C29.9991 48.4175 29.0487 48.0239 28.1496 47.5306C25.7535 46.2173 23.7827 44.2465 22.4695 41.8504C21.9761 40.9513 21.5825 40.0009 21.2958 39.0162C20.5299 36.3935 20.5299 33.6065 21.2958 30.9838C21.5825 29.9991 21.9761 29.0487 22.4695 28.1496C23.7827 25.7535 25.7535 23.7827 28.1496 22.4694C29.0487 21.9761 29.9991 21.5825 30.9838 21.2958C33.6065 20.5299 36.3935 20.5299 39.0162 21.2958C40.0009 21.5825 40.9513 21.9761 41.8504 22.4694C44.2465 23.7827 46.2173 25.7535 47.5305 28.1496C48.0239 29.0487 48.4175 29.9991 48.7042 30.9838C49.4701 33.6065 49.4701 36.3935 48.7042 39.0162Z" fill="#40B3D1"/>
</svg>
