<svg width="20" height="20" viewBox="0 0 20 20" fill="none" xmlns="http://www.w3.org/2000/svg">
<path d="M0.381567 13.8296L1.62351 15.0715C1.79191 15.2399 2.06555 15.282 2.27605 15.1557C2.99174 14.7137 3.91794 14.84 4.52838 15.4294C5.11778 16.0188 5.24407 16.9449 4.80203 17.6817C4.67573 17.8922 4.69678 18.1658 4.88623 18.3342L6.14922 19.5972C6.40182 19.8498 6.73861 19.9761 7.07541 19.9761C7.4122 19.9761 7.749 19.8498 8.0016 19.5972L15.6848 11.914L8.0437 4.27295L0.360523 11.9561C-0.123623 12.5034 -0.123628 13.3244 0.381567 13.8296Z" fill="#FFFCFC"/>
<path d="M15.1585 2.29444C15.2848 2.08394 15.2638 1.81029 15.0743 1.62084L13.8324 0.378897C13.3272 -0.126299 12.4852 -0.126299 11.98 0.378897L8.82253 3.53637L16.4636 11.1774L19.6211 8.01998C20.1263 7.51478 20.1263 6.67279 19.6211 6.1676L18.3791 4.92566C18.2107 4.75727 17.916 4.71516 17.7055 4.84146C16.9688 5.30456 16.0426 5.1993 15.4322 4.58886C14.8007 3.95737 14.6954 3.03118 15.1585 2.29444Z" fill="#FFFCFC"/>
</svg>
