<svg width="63" height="63" viewBox="0 0 63 63" fill="none" xmlns="http://www.w3.org/2000/svg">
<path fill-rule="evenodd" clip-rule="evenodd" d="M48.825 2.3623C49.4516 2.3623 50.0525 2.61121 50.4956 3.05426C50.9386 3.49732 51.1875 4.09823 51.1875 4.7248V11.8123H58.275C58.9016 11.8123 59.5025 12.0612 59.9456 12.5043C60.3886 12.9473 60.6375 13.5482 60.6375 14.1748C60.6375 14.8014 60.3886 15.4023 59.9456 15.8453C59.5025 16.2884 58.9016 16.5373 58.275 16.5373H51.1875V23.6248C51.1875 24.2514 50.9386 24.8523 50.4956 25.2953C50.0525 25.7384 49.4516 25.9873 48.825 25.9873C48.1984 25.9873 47.5975 25.7384 47.1545 25.2953C46.7114 24.8523 46.4625 24.2514 46.4625 23.6248V16.5373H39.375C38.7484 16.5373 38.1475 16.2884 37.7045 15.8453C37.2614 15.4023 37.0125 14.8014 37.0125 14.1748C37.0125 13.5482 37.2614 12.9473 37.7045 12.5043C38.1475 12.0612 38.7484 11.8123 39.375 11.8123H46.4625V4.7248C46.4625 4.09823 46.7114 3.49732 47.1545 3.05426C47.5975 2.61121 48.1984 2.3623 48.825 2.3623Z" fill="#40B3D1"/>
<path d="M0 14.175C0 7.49385 -1.87755e-07 4.1517 2.07585 2.07585C4.1517 -1.87755e-07 7.49385 0 14.175 0C20.8562 0 24.1983 -1.87755e-07 26.2741 2.07585C28.35 4.1517 28.35 7.49385 28.35 14.175C28.35 20.8562 28.35 24.1983 26.2741 26.2741C24.1983 28.35 20.8562 28.35 14.175 28.35C7.49385 28.35 4.1517 28.35 2.07585 26.2741C-1.87755e-07 24.1983 0 20.8562 0 14.175ZM34.65 48.825C34.65 42.1439 34.65 38.8017 36.7259 36.7259C38.8017 34.65 42.1439 34.65 48.825 34.65C55.5062 34.65 58.8483 34.65 60.9242 36.7259C63 38.8017 63 42.1439 63 48.825C63 55.5062 63 58.8483 60.9242 60.9242C58.8483 63 55.5062 63 48.825 63C42.1439 63 38.8017 63 36.7259 60.9242C34.65 58.8483 34.65 55.5062 34.65 48.825ZM0 48.825C0 42.1439 -1.87755e-07 38.8017 2.07585 36.7259C4.1517 34.65 7.49385 34.65 14.175 34.65C20.8562 34.65 24.1983 34.65 26.2741 36.7259C28.35 38.8017 28.35 42.1439 28.35 48.825C28.35 55.5062 28.35 58.8483 26.2741 60.9242C24.1983 63 20.8562 63 14.175 63C7.49385 63 4.1517 63 2.07585 60.9242C-1.87755e-07 58.8483 0 55.5062 0 48.825Z" fill="#40B3D1"/>
</svg>
