<?xml version="1.0" encoding="utf-8"?>
<!-- Generator: Adobe Illustrator 27.5.0, SVG Export Plug-In . SVG Version: 6.00 Build 0)  -->
<svg version="1.1" id="Calque_1" xmlns="http://www.w3.org/2000/svg" xmlns:xlink="http://www.w3.org/1999/xlink" x="0px" y="0px"
	 viewBox="0 0 595.3 841.9" style="enable-background:new 0 0 595.3 841.9;" xml:space="preserve">
<style type="text/css">
	.st0{fill:#FFFFFF;}
</style>
<g>
	<path class="st0" d="M143.1,137.7h-4.5v-7.1h2.1v5.9h2.4V137.7z"/>
	<path class="st0" d="M149,137.7h-4.9v-7.1h4.8v1.2h-2.7v1.7h2.1v1.1h-2.1v1.8h2.8V137.7z"/>
	<path class="st0" d="M157.6,136.6l-1.5-3.2v4.3h-2v-7.1h2.1l1.9,4l1.9-4h2v7.1h-2v-4.3l-1.6,3.3L157.6,136.6z"/>
	<path class="st0" d="M167.5,130.6l2.3,7.1h-2.1l-0.4-1.4h-1.9l-0.4,1.4h-2.1l2.2-7.1H167.5z M166.3,132.8l-0.7,2.5h1.4L166.3,132.8
		z"/>
	<path class="st0" d="M173.4,134.8v-1h3v2.1c0,0.5-0.3,1-0.9,1.3c-0.6,0.3-1.3,0.5-2.2,0.5c-0.9,0-1.6-0.2-2.2-0.5s-0.9-0.7-0.9-1.3
		v-3.8c0-0.5,0.3-1,0.9-1.3c0.6-0.3,1.3-0.5,2.2-0.5s1.6,0.2,2.2,0.5c0.6,0.3,0.9,0.7,0.9,1.3v0.8h-2.1v-0.8c0-0.2-0.1-0.3-0.2-0.4
		c-0.2-0.1-0.4-0.2-0.7-0.2s-0.5,0.1-0.7,0.2c-0.2,0.1-0.3,0.3-0.3,0.4v3.8c0,0.2,0.1,0.3,0.3,0.5c0.2,0.1,0.4,0.2,0.7,0.2
		c0.3,0,0.5-0.1,0.7-0.2c0.2-0.1,0.3-0.3,0.3-0.5v-1.2H173.4z"/>
	<path class="st0" d="M145.3,144.2v-5.3h1.8c0.6,0,1,0.1,1.4,0.3c0.3,0.2,0.5,0.5,0.5,0.9v0.2c0,0.5-0.3,0.9-0.9,1.1
		c0.7,0.2,1,0.6,1,1.1v0.4c0,0.4-0.2,0.7-0.5,0.9c-0.4,0.2-0.8,0.3-1.4,0.3H145.3z M146.4,139.5v1.7h0.6c0.3,0,0.5-0.1,0.7-0.2
		s0.2-0.3,0.2-0.5v-0.3c0-0.2-0.1-0.4-0.2-0.5c-0.2-0.1-0.4-0.2-0.7-0.2H146.4z M146.4,141.8v1.9h0.7c0.3,0,0.5-0.1,0.7-0.2
		c0.2-0.1,0.2-0.3,0.2-0.5v-0.5c0-0.2-0.1-0.4-0.2-0.5c-0.2-0.1-0.4-0.2-0.7-0.2H146.4z"/>
	<path class="st0" d="M150.8,144.2v-2.1l-1.5-3.3h1.2l0.9,2.3l0.9-2.3h1.1l-1.5,3.3v2H150.8z"/>
	<path class="st0" d="M158.9,138.9h1.1v4.1c0,0.4-0.2,0.7-0.5,0.9c-0.4,0.2-0.8,0.3-1.3,0.3c-0.5,0-1-0.1-1.3-0.3
		c-0.3-0.2-0.5-0.5-0.5-0.9v-4.2h1.1v4.1c0,0.2,0.1,0.3,0.2,0.4c0.1,0.1,0.3,0.2,0.5,0.2c0.2,0,0.4-0.1,0.5-0.2
		c0.1-0.1,0.2-0.2,0.2-0.4V138.9z"/>
	<path class="st0" d="M163.1,142v-0.6h1.8v1.6c0,0.4-0.2,0.7-0.6,0.9c-0.4,0.2-0.8,0.4-1.4,0.4c-0.5,0-1-0.1-1.3-0.3
		c-0.4-0.2-0.5-0.5-0.5-0.9v-2.9c0-0.4,0.2-0.7,0.5-0.9s0.8-0.4,1.4-0.4c0.5,0,1,0.1,1.3,0.3c0.4,0.2,0.5,0.5,0.5,0.9v0.6h-1.1v-0.6
		c0-0.2-0.1-0.3-0.2-0.4c-0.1-0.1-0.3-0.2-0.6-0.2c-0.2,0-0.4,0.1-0.6,0.2c-0.1,0.1-0.2,0.3-0.2,0.4v2.9c0,0.2,0.1,0.3,0.2,0.5
		c0.1,0.1,0.3,0.2,0.6,0.2c0.2,0,0.4-0.1,0.6-0.2c0.1-0.1,0.2-0.3,0.2-0.5v-1H163.1z"/>
	<path class="st0" d="M168.5,143.1v-0.8h1v0.8c0,0.4-0.2,0.7-0.5,0.9c-0.3,0.2-0.8,0.3-1.3,0.3c-0.5,0-1-0.1-1.3-0.3
		c-0.3-0.2-0.5-0.5-0.5-0.9v-3c0-0.4,0.2-0.7,0.5-0.9c0.4-0.2,0.8-0.3,1.3-0.3c0.5,0,0.9,0.1,1.3,0.3c0.3,0.2,0.5,0.5,0.5,0.9v0.7
		h-1v-0.7c0-0.2-0.1-0.3-0.2-0.4c-0.1-0.1-0.3-0.2-0.5-0.2c-0.2,0-0.4,0.1-0.5,0.2c-0.1,0.1-0.2,0.2-0.2,0.4v3
		c0,0.2,0.1,0.3,0.2,0.4c0.1,0.1,0.3,0.2,0.5,0.2c0.2,0,0.4-0.1,0.5-0.2C168.5,143.4,168.5,143.3,168.5,143.1z"/>
</g>
</svg>
