<svg width="666" height="89" viewBox="0 0 666 89" fill="none" xmlns="http://www.w3.org/2000/svg">
<g filter="url(#filter0_d_383_4184)">
<path d="M16 69C16 69 174.41 17 329.641 17C484.872 17 665.814 74.2049 648.887 67.5129" stroke="#40B3D1" stroke-width="5" stroke-linecap="round"/>
</g>
<path d="M314.527 51.5H307.902V34H314.402V36.325H310.277V41.375H313.652V43.525H310.277V49.2H314.527V51.5ZM321.296 46.375H323.446V47.975C323.446 49.075 323.087 49.9833 322.371 50.7C321.671 51.4 320.812 51.75 319.796 51.75C318.762 51.75 317.896 51.4083 317.196 50.725C316.496 50.0417 316.146 49.15 316.146 48.05V42.2C316.146 41.1 316.504 40.2 317.221 39.5C317.954 38.7833 318.837 38.425 319.871 38.425C320.887 38.425 321.737 38.7667 322.421 39.45C323.104 40.1333 323.446 41.025 323.446 42.125V43.675H321.296V42.2C321.296 41.6833 321.154 41.275 320.871 40.975C320.604 40.675 320.262 40.525 319.846 40.525C319.412 40.525 319.062 40.675 318.796 40.975C318.529 41.275 318.396 41.6833 318.396 42.2V48C318.396 48.5 318.529 48.9083 318.796 49.225C319.062 49.525 319.412 49.675 319.846 49.675C320.262 49.675 320.604 49.525 320.871 49.225C321.154 48.9083 321.296 48.5 321.296 48V46.375ZM330.747 38.425V40.95H330.247C328.714 40.95 327.947 41.7917 327.947 43.475V51.5H325.697V38.675H327.622L327.747 40.375C328.331 39.075 329.331 38.425 330.747 38.425ZM333.993 47.425V48.05C333.993 48.6167 334.143 49.075 334.443 49.425C334.743 49.7583 335.135 49.925 335.618 49.925C336.101 49.925 336.493 49.7583 336.793 49.425C337.093 49.075 337.243 48.6167 337.243 48.05V47.425C337.243 46.8583 337.093 46.4083 336.793 46.075C336.493 45.725 336.101 45.55 335.618 45.55C335.135 45.55 334.743 45.725 334.443 46.075C334.143 46.4083 333.993 46.8583 333.993 47.425ZM331.743 48.1V47.55C331.743 46.4333 332.051 45.5333 332.668 44.85C333.285 44.1667 334.06 43.825 334.993 43.825C335.943 43.825 336.693 44.175 337.243 44.875V42.05C337.243 41.5333 337.11 41.1333 336.843 40.85C336.576 40.55 336.235 40.4 335.818 40.4C335.401 40.4 335.06 40.55 334.793 40.85C334.526 41.1333 334.393 41.5333 334.393 42.05V42.675H332.218V42.175C332.218 41.0917 332.568 40.2 333.268 39.5C333.968 38.7833 334.826 38.425 335.843 38.425C336.876 38.425 337.743 38.7667 338.443 39.45C339.143 40.1333 339.493 41.0167 339.493 42.1V51.5H337.618L337.468 50.275C336.918 51.2583 336.068 51.75 334.918 51.75C333.985 51.75 333.218 51.425 332.618 50.775C332.035 50.1083 331.743 49.2167 331.743 48.1ZM344.109 42.25V51.5H341.859V38.675H343.784L343.884 39.95C344.434 38.9333 345.301 38.425 346.484 38.425C347.351 38.425 348.043 38.7333 348.559 39.35C349.093 39.95 349.359 40.7917 349.359 41.875V51.5H347.109V42.25C347.109 41.7 346.976 41.275 346.709 40.975C346.459 40.675 346.109 40.525 345.659 40.525C345.209 40.525 344.834 40.675 344.534 40.975C344.251 41.275 344.109 41.7 344.109 42.25Z" fill="#FFFCFC"/>
<defs>
<filter id="filter0_d_383_4184" x="0.499512" y="5.5" width="664.953" height="83.0007" filterUnits="userSpaceOnUse" color-interpolation-filters="sRGB">
<feFlood flood-opacity="0" result="BackgroundImageFix"/>
<feColorMatrix in="SourceAlpha" type="matrix" values="0 0 0 0 0 0 0 0 0 0 0 0 0 0 0 0 0 0 127 0" result="hardAlpha"/>
<feOffset dy="4"/>
<feGaussianBlur stdDeviation="6.5"/>
<feComposite in2="hardAlpha" operator="out"/>
<feColorMatrix type="matrix" values="0 0 0 0 0 0 0 0 0 0.779167 0 0 0 0 0.732417 0 0 0 0.82 0"/>
<feBlend mode="normal" in2="BackgroundImageFix" result="effect1_dropShadow_383_4184"/>
<feBlend mode="normal" in="SourceGraphic" in2="effect1_dropShadow_383_4184" result="shape"/>
</filter>
</defs>
</svg>
