<?xml version="1.0" encoding="utf-8"?>
<!-- Generator: Adobe Illustrator 27.5.0, SVG Export Plug-In . SVG Version: 6.00 Build 0)  -->
<svg version="1.1" id="Calque_1" xmlns="http://www.w3.org/2000/svg" xmlns:xlink="http://www.w3.org/1999/xlink" x="0px" y="0px"
	 viewBox="0 0 1000 671.1" style="enable-background:new 0 0 1000 671.1;" xml:space="preserve">
<style type="text/css">
	.st0{fill:#FFFFFF;}
</style>
<g id="Calque_2_00000036967071549555317000000003367781396958628266_">
	<g id="Layer_1">
		<path class="st0" d="M665.7,257c20-34.3,56.5-54.9,97.2-54.9c33.3-0.2,64.8,14.4,86.2,39.5c3.1,3.6,8.3,4.5,12.4,2.2l12.9-7.2
			l8.4-4.7c5.4-3,6.8-10.1,3-14.9c-50.3-63.9-142.1-79-210.5-32.8c-26.3,17.8-46.6,43.1-58.2,72.6l0.2,0.1L665.7,257z"/>
		<path class="st0" d="M344,313.9c0,61.9-43,112.2-95.9,112.2s-95.9-50.3-95.9-112.2V189.4c0-5.5-4.5-10-10-10h-24.7
			c-5.5,0-10,4.5-10,10v124.5c0,86.5,63.1,156.9,140.6,156.9s140.6-70.4,140.6-156.9v-21.7H344V313.9z"/>
		<path class="st0" d="M493.4,202.1c31.2,0,62.7,9.9,89.4,39.2c3.6-10.6,14.1-28.8,21.7-38c-30.2-30.2-72.2-45.8-111.2-45.8
			c-64.3,0.1-122,39.5-145.6,99.4h45C416.6,223.7,446.3,202.1,493.4,202.1"/>
		<path class="st0" d="M762.9,426.2c-28.1,0-62.2-11.9-86.4-37.5c-4.4,10.5-15.6,30.4-23.3,38.1c34.5,30.1,70.8,44.1,109.7,44.1
			c48.5,0,94-22.5,123.6-60.3c3.6-4.6,2.6-11.2-2.3-14.5l-19.8-13.4c-4.3-2.9-10.1-2.1-13.4,2C829.7,411.2,797.3,426.2,762.9,426.2"
			/>
		<path class="st0" d="M493.4,302.2v23.9c0,5.5,4.5,10,10,10h99.2c-8.5,51.7-54.9,90.1-109.2,90.1c-27.4,0-58-11.1-79.1-32.2
			c-2.9,10.2-14,29.4-23.7,37.8c27,25.4,68.1,39.1,102.8,39.1c78.3,0,144.6-59.3,155-134.8c1.5-11.2,1.8-24.8,1.8-33.9
			c0-5.5-4.5-10-10-10H503.4C497.9,292.2,493.4,296.7,493.4,302.2z"/>
		<path class="st0" d="M747.9,528.1c-1.7,0-3.5,0.5-5,1.3C531.8,650.5,231.1,692.6,93.4,612.5C40.6,581.8,9,526.4,6.5,472
			c-0.1-2.5-0.1-5-0.1-7.4c0-24.1,6.5-51.3,17.6-78.9c0.5-1.3-0.2-2.8-1.6-3.1l0,0c-1.4-0.3-2.9,0.4-3.4,1.8
			c-13.6,33.2-20.1,65.8-18.7,97C3,542.2,35.2,592.2,93.5,626.2c149.8,87.2,474.5,43.4,696-96.2c0.8-0.5,0.5-1.8-0.5-1.9H747.9z"/>
		<path class="st0" d="M996.8,179.3c1.8,0,3.1-1.5,3-3.3c-4.6-57.3-35.3-100.5-91.4-133c-125.9-73.2-349-49.2-548.2,43.4
			c-1.1,0.5-1.6,1.9-0.9,3l0,0c0.8,1.3,2.4,1.8,3.8,1.2C557,2.1,773.2-17.1,894.6,53.5c50.5,29.4,79.3,71.8,83.8,123
			c0.1,1.6,1.4,2.8,3,2.8H996.8z"/>
	</g>
</g>
</svg>
