<svg width="800" height="524" viewBox="0 0 800 524" fill="none" xmlns="http://www.w3.org/2000/svg">
<g filter="url(#filter0_d_563_19624)">
<path d="M89.5039 76C89.5039 76 247.914 24 403.145 24C558.376 24 739.318 81.2049 722.391 74.5129" stroke="#40B3D1" stroke-width="5" stroke-linecap="round"/>
</g>
<path d="M388.031 58.5H381.406V41H387.906V43.325H383.781V48.375H387.156V50.525H383.781V56.2H388.031V58.5ZM394.799 53.375H396.949V54.975C396.949 56.075 396.591 56.9833 395.874 57.7C395.174 58.4 394.316 58.75 393.299 58.75C392.266 58.75 391.399 58.4083 390.699 57.725C389.999 57.0417 389.649 56.15 389.649 55.05V49.2C389.649 48.1 390.008 47.2 390.724 46.5C391.458 45.7833 392.341 45.425 393.374 45.425C394.391 45.425 395.241 45.7667 395.924 46.45C396.608 47.1333 396.949 48.025 396.949 49.125V50.675H394.799V49.2C394.799 48.6833 394.658 48.275 394.374 47.975C394.108 47.675 393.766 47.525 393.349 47.525C392.916 47.525 392.566 47.675 392.299 47.975C392.033 48.275 391.899 48.6833 391.899 49.2V55C391.899 55.5 392.033 55.9083 392.299 56.225C392.566 56.525 392.916 56.675 393.349 56.675C393.766 56.675 394.108 56.525 394.374 56.225C394.658 55.9083 394.799 55.5 394.799 55V53.375ZM404.251 45.425V47.95H403.751C402.218 47.95 401.451 48.7917 401.451 50.475V58.5H399.201V45.675H401.126L401.251 47.375C401.835 46.075 402.835 45.425 404.251 45.425ZM407.497 54.425V55.05C407.497 55.6167 407.647 56.075 407.947 56.425C408.247 56.7583 408.639 56.925 409.122 56.925C409.605 56.925 409.997 56.7583 410.297 56.425C410.597 56.075 410.747 55.6167 410.747 55.05V54.425C410.747 53.8583 410.597 53.4083 410.297 53.075C409.997 52.725 409.605 52.55 409.122 52.55C408.639 52.55 408.247 52.725 407.947 53.075C407.647 53.4083 407.497 53.8583 407.497 54.425ZM405.247 55.1V54.55C405.247 53.4333 405.555 52.5333 406.172 51.85C406.789 51.1667 407.564 50.825 408.497 50.825C409.447 50.825 410.197 51.175 410.747 51.875V49.05C410.747 48.5333 410.614 48.1333 410.347 47.85C410.08 47.55 409.739 47.4 409.322 47.4C408.905 47.4 408.564 47.55 408.297 47.85C408.03 48.1333 407.897 48.5333 407.897 49.05V49.675H405.722V49.175C405.722 48.0917 406.072 47.2 406.772 46.5C407.472 45.7833 408.33 45.425 409.347 45.425C410.38 45.425 411.247 45.7667 411.947 46.45C412.647 47.1333 412.997 48.0167 412.997 49.1V58.5H411.122L410.972 57.275C410.422 58.2583 409.572 58.75 408.422 58.75C407.489 58.75 406.722 58.425 406.122 57.775C405.539 57.1083 405.247 56.2167 405.247 55.1ZM417.613 49.25V58.5H415.363V45.675H417.288L417.388 46.95C417.938 45.9333 418.805 45.425 419.988 45.425C420.855 45.425 421.547 45.7333 422.063 46.35C422.597 46.95 422.863 47.7917 422.863 48.875V58.5H420.613V49.25C420.613 48.7 420.48 48.275 420.213 47.975C419.963 47.675 419.613 47.525 419.163 47.525C418.713 47.525 418.338 47.675 418.038 47.975C417.755 48.275 417.613 48.7 417.613 49.25Z" fill="#FFFCFC"/>
<path fill-rule="evenodd" clip-rule="evenodd" d="M110.935 121.821H109.423C107.766 121.821 106.423 123.164 106.423 124.821V135.744C106.423 137.401 107.766 138.744 109.423 138.744H125.987C127.644 138.744 128.987 137.401 128.987 135.744V124.821C128.987 123.164 127.644 121.821 125.987 121.821H124.474V125.59C124.474 127.247 123.131 128.59 121.474 128.59H113.935C112.279 128.59 110.935 127.247 110.935 125.59V121.821Z" fill="#40B3D1"/>
<rect x="112.063" y="116.18" width="11.2821" height="11.2821" rx="3" fill="#40B3D1"/>
<path fill-rule="evenodd" clip-rule="evenodd" d="M143.5 121.821H141.987C140.33 121.821 138.987 123.164 138.987 124.821V135.744C138.987 137.401 140.33 138.744 141.987 138.744H158.551C160.208 138.744 161.551 137.401 161.551 135.744V124.821C161.551 123.164 160.208 121.821 158.551 121.821H157.039V125.59C157.039 127.247 155.695 128.59 154.039 128.59H146.5C144.843 128.59 143.5 127.247 143.5 125.59V121.821Z" fill="#40B3D1"/>
<rect x="144.628" y="116.18" width="11.2821" height="11.2821" rx="3" fill="#40B3D1"/>
<path fill-rule="evenodd" clip-rule="evenodd" d="M176.064 121.821H174.551C172.894 121.821 171.551 123.164 171.551 124.821V135.744C171.551 137.401 172.894 138.744 174.551 138.744H191.115C192.772 138.744 194.115 137.401 194.115 135.744V124.821C194.115 123.164 192.772 121.821 191.115 121.821H189.602V125.59C189.602 127.247 188.259 128.59 186.602 128.59H179.064C177.407 128.59 176.064 127.247 176.064 125.59V121.821Z" fill="#40B3D1"/>
<rect x="177.192" y="116.18" width="11.2821" height="11.2821" rx="3" fill="#40B3D1"/>
<path fill-rule="evenodd" clip-rule="evenodd" d="M208.628 121.821H207.115C205.458 121.821 204.115 123.164 204.115 124.821V135.744C204.115 137.401 205.458 138.744 207.115 138.744H223.679C225.336 138.744 226.679 137.401 226.679 135.744V124.821C226.679 123.164 225.336 121.821 223.679 121.821H222.166V125.59C222.166 127.247 220.823 128.59 219.166 128.59H211.628C209.971 128.59 208.628 127.247 208.628 125.59V121.821Z" fill="#40B3D1"/>
<rect x="209.756" y="116.18" width="11.2821" height="11.2821" rx="3" fill="#40B3D1"/>
<path fill-rule="evenodd" clip-rule="evenodd" d="M110.935 154.385H109.423C107.766 154.385 106.423 155.728 106.423 157.385V168.308C106.423 169.965 107.766 171.308 109.423 171.308H125.987C127.644 171.308 128.987 169.965 128.987 168.308V157.385C128.987 155.728 127.644 154.385 125.987 154.385H124.474V158.154C124.474 159.811 123.131 161.154 121.474 161.154H113.935C112.279 161.154 110.935 159.811 110.935 158.154V154.385Z" fill="#40B3D1"/>
<rect x="112.063" y="148.744" width="11.2821" height="11.2821" rx="3" fill="#40B3D1"/>
<path fill-rule="evenodd" clip-rule="evenodd" d="M143.5 154.385H141.987C140.33 154.385 138.987 155.728 138.987 157.385V168.308C138.987 169.965 140.33 171.308 141.987 171.308H158.551C160.208 171.308 161.551 169.965 161.551 168.308V157.385C161.551 155.728 160.208 154.385 158.551 154.385H157.039V158.154C157.039 159.811 155.695 161.154 154.039 161.154H146.5C144.843 161.154 143.5 159.811 143.5 158.154V154.385Z" fill="#40B3D1"/>
<rect x="144.628" y="148.744" width="11.2821" height="11.2821" rx="3" fill="#40B3D1"/>
<path fill-rule="evenodd" clip-rule="evenodd" d="M176.064 154.385H174.551C172.894 154.385 171.551 155.728 171.551 157.385V168.308C171.551 169.965 172.894 171.308 174.551 171.308H191.115C192.772 171.308 194.115 169.965 194.115 168.308V157.385C194.115 155.728 192.772 154.385 191.115 154.385H189.602V158.154C189.602 159.811 188.259 161.154 186.602 161.154H179.064C177.407 161.154 176.064 159.811 176.064 158.154V154.385Z" fill="#40B3D1"/>
<rect x="177.192" y="148.744" width="11.2821" height="11.2821" rx="3" fill="#40B3D1"/>
<path fill-rule="evenodd" clip-rule="evenodd" d="M208.628 154.385H207.115C205.458 154.385 204.115 155.728 204.115 157.385V168.308C204.115 169.965 205.458 171.308 207.115 171.308H223.679C225.336 171.308 226.679 169.965 226.679 168.308V157.385C226.679 155.728 225.336 154.385 223.679 154.385H222.166V158.154C222.166 159.811 220.823 161.154 219.166 161.154H211.628C209.971 161.154 208.628 159.811 208.628 158.154V154.385Z" fill="#40B3D1"/>
<rect x="209.756" y="148.744" width="11.2821" height="11.2821" rx="3" fill="#40B3D1"/>
<path fill-rule="evenodd" clip-rule="evenodd" d="M110.935 186.949H109.423C107.766 186.949 106.423 188.292 106.423 189.949V200.872C106.423 202.529 107.766 203.872 109.423 203.872H125.987C127.644 203.872 128.987 202.529 128.987 200.872V189.949C128.987 188.292 127.644 186.949 125.987 186.949H124.474V190.718C124.474 192.375 123.131 193.718 121.474 193.718H113.935C112.279 193.718 110.935 192.375 110.935 190.718V186.949Z" fill="#40B3D1"/>
<rect x="112.063" y="181.308" width="11.2821" height="11.2821" rx="3" fill="#40B3D1"/>
<path fill-rule="evenodd" clip-rule="evenodd" d="M143.5 186.949H141.987C140.33 186.949 138.987 188.292 138.987 189.949V200.872C138.987 202.529 140.33 203.872 141.987 203.872H158.551C160.208 203.872 161.551 202.529 161.551 200.872V189.949C161.551 188.292 160.208 186.949 158.551 186.949H157.039V190.718C157.039 192.375 155.695 193.718 154.039 193.718H146.5C144.843 193.718 143.5 192.375 143.5 190.718V186.949Z" fill="#40B3D1"/>
<rect x="144.628" y="181.308" width="11.2821" height="11.2821" rx="3" fill="#40B3D1"/>
<path fill-rule="evenodd" clip-rule="evenodd" d="M176.064 186.949H174.551C172.894 186.949 171.551 188.292 171.551 189.949V200.872C171.551 202.529 172.894 203.872 174.551 203.872H191.115C192.772 203.872 194.115 202.529 194.115 200.872V189.949C194.115 188.292 192.772 186.949 191.115 186.949H189.602V190.718C189.602 192.375 188.259 193.718 186.602 193.718H179.064C177.407 193.718 176.064 192.375 176.064 190.718V186.949Z" fill="#40B3D1"/>
<rect x="177.192" y="181.308" width="11.2821" height="11.2821" rx="3" fill="#40B3D1"/>
<path fill-rule="evenodd" clip-rule="evenodd" d="M208.628 186.949H207.115C205.458 186.949 204.115 188.292 204.115 189.949V200.872C204.115 202.529 205.458 203.872 207.115 203.872H223.679C225.336 203.872 226.679 202.529 226.679 200.872V189.949C226.679 188.292 225.336 186.949 223.679 186.949H222.166V190.718C222.166 192.375 220.823 193.718 219.166 193.718H211.628C209.971 193.718 208.628 192.375 208.628 190.718V186.949Z" fill="#40B3D1"/>
<rect x="209.756" y="181.308" width="11.2821" height="11.2821" rx="3" fill="#40B3D1"/>
<path fill-rule="evenodd" clip-rule="evenodd" d="M253.193 121.821H251.68C250.023 121.821 248.68 123.164 248.68 124.821V135.744C248.68 137.401 250.023 138.744 251.68 138.744H268.244C269.901 138.744 271.244 137.401 271.244 135.744V124.821C271.244 123.164 269.901 121.821 268.244 121.821H266.731V125.59C266.731 127.247 265.388 128.59 263.731 128.59H256.193C254.536 128.59 253.193 127.247 253.193 125.59V121.821Z" fill="#40B3D1"/>
<rect x="254.32" y="116.18" width="11.2821" height="11.2821" rx="3" fill="#40B3D1"/>
<path fill-rule="evenodd" clip-rule="evenodd" d="M285.757 121.821H284.244C282.587 121.821 281.244 123.164 281.244 124.821V135.744C281.244 137.401 282.587 138.744 284.244 138.744H300.808C302.465 138.744 303.808 137.401 303.808 135.744V124.821C303.808 123.164 302.465 121.821 300.808 121.821H299.296V125.59C299.296 127.247 297.952 128.59 296.296 128.59H288.757C287.1 128.59 285.757 127.247 285.757 125.59V121.821Z" fill="#40B3D1"/>
<rect x="286.886" y="116.18" width="11.2821" height="11.2821" rx="3" fill="#40B3D1"/>
<path fill-rule="evenodd" clip-rule="evenodd" d="M318.32 121.821H316.808C315.151 121.821 313.808 123.164 313.808 124.821V135.744C313.808 137.401 315.151 138.744 316.808 138.744H333.372C335.029 138.744 336.372 137.401 336.372 135.744V124.821C336.372 123.164 335.029 121.821 333.372 121.821H331.859V125.59C331.859 127.247 330.516 128.59 328.859 128.59H321.32C319.663 128.59 318.32 127.247 318.32 125.59V121.821Z" fill="#40B3D1"/>
<rect x="319.448" y="116.18" width="11.2821" height="11.2821" rx="3" fill="#40B3D1"/>
<path fill-rule="evenodd" clip-rule="evenodd" d="M350.885 121.821H349.372C347.715 121.821 346.372 123.164 346.372 124.821V135.744C346.372 137.401 347.715 138.744 349.372 138.744H365.936C367.593 138.744 368.936 137.401 368.936 135.744V124.821C368.936 123.164 367.593 121.821 365.936 121.821H364.423V125.59C364.423 127.247 363.08 128.59 361.423 128.59H353.885C352.228 128.59 350.885 127.247 350.885 125.59V121.821Z" fill="#40B3D1"/>
<rect x="352.013" y="116.18" width="11.2821" height="11.2821" rx="3" fill="#40B3D1"/>
<path fill-rule="evenodd" clip-rule="evenodd" d="M383.449 121.821H381.937C380.28 121.821 378.937 123.164 378.937 124.821V135.744C378.937 137.401 380.28 138.744 381.937 138.744H398.501C400.157 138.744 401.501 137.401 401.501 135.744V124.821C401.501 123.164 400.157 121.821 398.501 121.821H396.988V125.59C396.988 127.247 395.645 128.59 393.988 128.59H386.449C384.793 128.59 383.449 127.247 383.449 125.59V121.821Z" fill="#40B3D1"/>
<rect x="384.578" y="116.18" width="11.2821" height="11.2821" rx="3" fill="#40B3D1"/>
<path fill-rule="evenodd" clip-rule="evenodd" d="M416.013 121.821H414.5C412.843 121.821 411.5 123.164 411.5 124.821V135.744C411.5 137.401 412.843 138.744 414.5 138.744H431.064C432.721 138.744 434.064 137.401 434.064 135.744V124.821C434.064 123.164 432.721 121.821 431.064 121.821H429.551V125.59C429.551 127.247 428.208 128.59 426.551 128.59H419.013C417.356 128.59 416.013 127.247 416.013 125.59V121.821Z" fill="#40B3D1"/>
<rect x="417.141" y="116.18" width="11.2821" height="11.2821" rx="3" fill="#40B3D1"/>
<path fill-rule="evenodd" clip-rule="evenodd" d="M448.577 121.821H447.064C445.408 121.821 444.064 123.164 444.064 124.821V135.744C444.064 137.401 445.408 138.744 447.064 138.744H463.629C465.285 138.744 466.629 137.401 466.629 135.744V124.821C466.629 123.164 465.285 121.821 463.629 121.821H462.116V125.59C462.116 127.247 460.772 128.59 459.116 128.59H451.577C449.92 128.59 448.577 127.247 448.577 125.59V121.821Z" fill="#40B3D1"/>
<rect x="449.705" y="116.18" width="11.2821" height="11.2821" rx="3" fill="#40B3D1"/>
<path fill-rule="evenodd" clip-rule="evenodd" d="M481.141 121.821H479.628C477.971 121.821 476.628 123.164 476.628 124.821V135.744C476.628 137.401 477.971 138.744 479.628 138.744H496.192C497.849 138.744 499.192 137.401 499.192 135.744V124.821C499.192 123.164 497.849 121.821 496.192 121.821H494.679V125.59C494.679 127.247 493.336 128.59 491.679 128.59H484.141C482.484 128.59 481.141 127.247 481.141 125.59V121.821Z" fill="#40B3D1"/>
<rect x="482.269" y="116.18" width="11.2821" height="11.2821" rx="3" fill="#40B3D1"/>
<path fill-rule="evenodd" clip-rule="evenodd" d="M513.705 121.821H512.192C510.536 121.821 509.192 123.164 509.192 124.821V135.744C509.192 137.401 510.536 138.744 512.192 138.744H528.756C530.413 138.744 531.756 137.401 531.756 135.744V124.821C531.756 123.164 530.413 121.821 528.756 121.821H527.244V125.59C527.244 127.247 525.901 128.59 524.244 128.59H516.705C515.048 128.59 513.705 127.247 513.705 125.59V121.821Z" fill="#40B3D1"/>
<rect x="514.834" y="116.18" width="11.2821" height="11.2821" rx="3" fill="#40B3D1"/>
<path fill-rule="evenodd" clip-rule="evenodd" d="M546.269 121.821H544.757C543.1 121.821 541.757 123.164 541.757 124.821V135.744C541.757 137.401 543.1 138.744 544.757 138.744H561.321C562.978 138.744 564.321 137.401 564.321 135.744V124.821C564.321 123.164 562.978 121.821 561.321 121.821H559.808V125.59C559.808 127.247 558.465 128.59 556.808 128.59H549.269C547.613 128.59 546.269 127.247 546.269 125.59V121.821Z" fill="#40B3D1"/>
<rect x="547.397" y="116.18" width="11.2821" height="11.2821" rx="3" fill="#40B3D1"/>
<path fill-rule="evenodd" clip-rule="evenodd" d="M253.193 154.385H251.68C250.023 154.385 248.68 155.728 248.68 157.385V168.308C248.68 169.965 250.023 171.308 251.68 171.308H268.244C269.901 171.308 271.244 169.965 271.244 168.308V157.385C271.244 155.728 269.901 154.385 268.244 154.385H266.731V158.154C266.731 159.811 265.388 161.154 263.731 161.154H256.193C254.536 161.154 253.193 159.811 253.193 158.154V154.385Z" fill="#40B3D1"/>
<rect x="254.32" y="148.744" width="11.2821" height="11.2821" rx="3" fill="#40B3D1"/>
<path fill-rule="evenodd" clip-rule="evenodd" d="M285.757 154.385H284.244C282.587 154.385 281.244 155.728 281.244 157.385V168.308C281.244 169.965 282.587 171.308 284.244 171.308H300.808C302.465 171.308 303.808 169.965 303.808 168.308V157.385C303.808 155.728 302.465 154.385 300.808 154.385H299.296V158.154C299.296 159.811 297.952 161.154 296.296 161.154H288.757C287.1 161.154 285.757 159.811 285.757 158.154V154.385Z" fill="#40B3D1"/>
<rect x="286.886" y="148.744" width="11.2821" height="11.2821" rx="3" fill="#40B3D1"/>
<path fill-rule="evenodd" clip-rule="evenodd" d="M318.32 154.385H316.808C315.151 154.385 313.808 155.728 313.808 157.385V168.308C313.808 169.965 315.151 171.308 316.808 171.308H333.372C335.029 171.308 336.372 169.965 336.372 168.308V157.385C336.372 155.728 335.029 154.385 333.372 154.385H331.859V158.154C331.859 159.811 330.516 161.154 328.859 161.154H321.32C319.663 161.154 318.32 159.811 318.32 158.154V154.385Z" fill="#40B3D1"/>
<rect x="319.448" y="148.744" width="11.2821" height="11.2821" rx="3" fill="#40B3D1"/>
<path fill-rule="evenodd" clip-rule="evenodd" d="M350.885 154.385H349.372C347.715 154.385 346.372 155.728 346.372 157.385V168.308C346.372 169.965 347.715 171.308 349.372 171.308H365.936C367.593 171.308 368.936 169.965 368.936 168.308V157.385C368.936 155.728 367.593 154.385 365.936 154.385H364.423V158.154C364.423 159.811 363.08 161.154 361.423 161.154H353.885C352.228 161.154 350.885 159.811 350.885 158.154V154.385Z" fill="#40B3D1"/>
<rect x="352.013" y="148.744" width="11.2821" height="11.2821" rx="3" fill="#40B3D1"/>
<path fill-rule="evenodd" clip-rule="evenodd" d="M383.449 154.385H381.937C380.28 154.385 378.937 155.728 378.937 157.385V168.308C378.937 169.965 380.28 171.308 381.937 171.308H398.501C400.157 171.308 401.501 169.965 401.501 168.308V157.385C401.501 155.728 400.157 154.385 398.501 154.385H396.988V158.154C396.988 159.811 395.645 161.154 393.988 161.154H386.449C384.793 161.154 383.449 159.811 383.449 158.154V154.385Z" fill="#40B3D1"/>
<rect x="384.578" y="148.744" width="11.2821" height="11.2821" rx="3" fill="#40B3D1"/>
<path fill-rule="evenodd" clip-rule="evenodd" d="M416.013 154.385H414.5C412.843 154.385 411.5 155.728 411.5 157.385V168.308C411.5 169.965 412.843 171.308 414.5 171.308H431.064C432.721 171.308 434.064 169.965 434.064 168.308V157.385C434.064 155.728 432.721 154.385 431.064 154.385H429.551V158.154C429.551 159.811 428.208 161.154 426.551 161.154H419.013C417.356 161.154 416.013 159.811 416.013 158.154V154.385Z" fill="#40B3D1"/>
<rect x="417.141" y="148.744" width="11.2821" height="11.2821" rx="3" fill="#40B3D1"/>
<path fill-rule="evenodd" clip-rule="evenodd" d="M448.577 154.385H447.064C445.408 154.385 444.064 155.728 444.064 157.385V168.308C444.064 169.965 445.408 171.308 447.064 171.308H463.629C465.285 171.308 466.629 169.965 466.629 168.308V157.385C466.629 155.728 465.285 154.385 463.629 154.385H462.116V158.154C462.116 159.811 460.772 161.154 459.116 161.154H451.577C449.92 161.154 448.577 159.811 448.577 158.154V154.385Z" fill="#40B3D1"/>
<rect x="449.705" y="148.744" width="11.2821" height="11.2821" rx="3" fill="#40B3D1"/>
<path fill-rule="evenodd" clip-rule="evenodd" d="M481.141 154.385H479.628C477.971 154.385 476.628 155.728 476.628 157.385V168.308C476.628 169.965 477.971 171.308 479.628 171.308H496.192C497.849 171.308 499.192 169.965 499.192 168.308V157.385C499.192 155.728 497.849 154.385 496.192 154.385H494.679V158.154C494.679 159.811 493.336 161.154 491.679 161.154H484.141C482.484 161.154 481.141 159.811 481.141 158.154V154.385Z" fill="#40B3D1"/>
<rect x="482.269" y="148.744" width="11.2821" height="11.2821" rx="3" fill="#40B3D1"/>
<path fill-rule="evenodd" clip-rule="evenodd" d="M513.705 154.385H512.192C510.536 154.385 509.192 155.728 509.192 157.385V168.308C509.192 169.965 510.536 171.308 512.192 171.308H528.756C530.413 171.308 531.756 169.965 531.756 168.308V157.385C531.756 155.728 530.413 154.385 528.756 154.385H527.244V158.154C527.244 159.811 525.901 161.154 524.244 161.154H516.705C515.048 161.154 513.705 159.811 513.705 158.154V154.385Z" fill="#40B3D1"/>
<rect x="514.834" y="148.744" width="11.2821" height="11.2821" rx="3" fill="#40B3D1"/>
<path fill-rule="evenodd" clip-rule="evenodd" d="M546.269 154.385H544.757C543.1 154.385 541.757 155.728 541.757 157.385V168.308C541.757 169.965 543.1 171.308 544.757 171.308H561.321C562.978 171.308 564.321 169.965 564.321 168.308V157.385C564.321 155.728 562.978 154.385 561.321 154.385H559.808V158.154C559.808 159.811 558.465 161.154 556.808 161.154H549.269C547.613 161.154 546.269 159.811 546.269 158.154V154.385Z" fill="#40B3D1"/>
<rect x="547.397" y="148.744" width="11.2821" height="11.2821" rx="3" fill="#40B3D1"/>
<path fill-rule="evenodd" clip-rule="evenodd" d="M253.193 186.949H251.68C250.023 186.949 248.68 188.292 248.68 189.949V200.872C248.68 202.529 250.023 203.872 251.68 203.872H268.244C269.901 203.872 271.244 202.529 271.244 200.872V189.949C271.244 188.292 269.901 186.949 268.244 186.949H266.731V190.718C266.731 192.375 265.388 193.718 263.731 193.718H256.193C254.536 193.718 253.193 192.375 253.193 190.718V186.949Z" fill="#40B3D1"/>
<rect x="254.32" y="181.308" width="11.2821" height="11.2821" rx="3" fill="#40B3D1"/>
<path fill-rule="evenodd" clip-rule="evenodd" d="M285.757 186.949H284.244C282.587 186.949 281.244 188.292 281.244 189.949V200.872C281.244 202.529 282.587 203.872 284.244 203.872H300.808C302.465 203.872 303.808 202.529 303.808 200.872V189.949C303.808 188.292 302.465 186.949 300.808 186.949H299.296V190.718C299.296 192.375 297.952 193.718 296.296 193.718H288.757C287.1 193.718 285.757 192.375 285.757 190.718V186.949Z" fill="#40B3D1"/>
<rect x="286.886" y="181.308" width="11.2821" height="11.2821" rx="3" fill="#40B3D1"/>
<path fill-rule="evenodd" clip-rule="evenodd" d="M318.32 186.949H316.808C315.151 186.949 313.808 188.292 313.808 189.949V200.872C313.808 202.529 315.151 203.872 316.808 203.872H333.372C335.029 203.872 336.372 202.529 336.372 200.872V189.949C336.372 188.292 335.029 186.949 333.372 186.949H331.859V190.718C331.859 192.375 330.516 193.718 328.859 193.718H321.32C319.663 193.718 318.32 192.375 318.32 190.718V186.949Z" fill="#40B3D1"/>
<rect x="319.448" y="181.308" width="11.2821" height="11.2821" rx="3" fill="#40B3D1"/>
<path fill-rule="evenodd" clip-rule="evenodd" d="M350.885 186.949H349.372C347.715 186.949 346.372 188.292 346.372 189.949V200.872C346.372 202.529 347.715 203.872 349.372 203.872H365.936C367.593 203.872 368.936 202.529 368.936 200.872V189.949C368.936 188.292 367.593 186.949 365.936 186.949H364.423V190.718C364.423 192.375 363.08 193.718 361.423 193.718H353.885C352.228 193.718 350.885 192.375 350.885 190.718V186.949Z" fill="#40B3D1"/>
<rect x="352.013" y="181.308" width="11.2821" height="11.2821" rx="3" fill="#40B3D1"/>
<path fill-rule="evenodd" clip-rule="evenodd" d="M383.449 186.949H381.937C380.28 186.949 378.937 188.292 378.937 189.949V200.872C378.937 202.529 380.28 203.872 381.937 203.872H398.501C400.157 203.872 401.501 202.529 401.501 200.872V189.949C401.501 188.292 400.157 186.949 398.501 186.949H396.988V190.718C396.988 192.375 395.645 193.718 393.988 193.718H386.449C384.793 193.718 383.449 192.375 383.449 190.718V186.949Z" fill="#40B3D1"/>
<rect x="384.578" y="181.308" width="11.2821" height="11.2821" rx="3" fill="#40B3D1"/>
<path fill-rule="evenodd" clip-rule="evenodd" d="M416.013 186.949H414.5C412.843 186.949 411.5 188.292 411.5 189.949V200.872C411.5 202.529 412.843 203.872 414.5 203.872H431.064C432.721 203.872 434.064 202.529 434.064 200.872V189.949C434.064 188.292 432.721 186.949 431.064 186.949H429.551V190.718C429.551 192.375 428.208 193.718 426.551 193.718H419.013C417.356 193.718 416.013 192.375 416.013 190.718V186.949Z" fill="#40B3D1"/>
<rect x="417.141" y="181.308" width="11.2821" height="11.2821" rx="3" fill="#40B3D1"/>
<path fill-rule="evenodd" clip-rule="evenodd" d="M448.577 186.949H447.064C445.408 186.949 444.064 188.292 444.064 189.949V200.872C444.064 202.529 445.408 203.872 447.064 203.872H463.629C465.285 203.872 466.629 202.529 466.629 200.872V189.949C466.629 188.292 465.285 186.949 463.629 186.949H462.116V190.718C462.116 192.375 460.772 193.718 459.116 193.718H451.577C449.92 193.718 448.577 192.375 448.577 190.718V186.949Z" fill="#40B3D1"/>
<rect x="449.705" y="181.308" width="11.2821" height="11.2821" rx="3" fill="#40B3D1"/>
<path fill-rule="evenodd" clip-rule="evenodd" d="M481.141 186.949H479.628C477.971 186.949 476.628 188.292 476.628 189.949V200.872C476.628 202.529 477.971 203.872 479.628 203.872H496.192C497.849 203.872 499.192 202.529 499.192 200.872V189.949C499.192 188.292 497.849 186.949 496.192 186.949H494.679V190.718C494.679 192.375 493.336 193.718 491.679 193.718H484.141C482.484 193.718 481.141 192.375 481.141 190.718V186.949Z" fill="#40B3D1"/>
<rect x="482.269" y="181.308" width="11.2821" height="11.2821" rx="3" fill="#40B3D1"/>
<path fill-rule="evenodd" clip-rule="evenodd" d="M513.705 186.949H512.192C510.536 186.949 509.192 188.292 509.192 189.949V200.872C509.192 202.529 510.536 203.872 512.192 203.872H528.756C530.413 203.872 531.756 202.529 531.756 200.872V189.949C531.756 188.292 530.413 186.949 528.756 186.949H527.244V190.718C527.244 192.375 525.901 193.718 524.244 193.718H516.705C515.048 193.718 513.705 192.375 513.705 190.718V186.949Z" fill="#40B3D1"/>
<rect x="514.834" y="181.308" width="11.2821" height="11.2821" rx="3" fill="#40B3D1"/>
<path fill-rule="evenodd" clip-rule="evenodd" d="M546.269 186.949H544.757C543.1 186.949 541.757 188.292 541.757 189.949V200.872C541.757 202.529 543.1 203.872 544.757 203.872H561.321C562.978 203.872 564.321 202.529 564.321 200.872V189.949C564.321 188.292 562.978 186.949 561.321 186.949H559.808V190.718C559.808 192.375 558.465 193.718 556.808 193.718H549.269C547.613 193.718 546.269 192.375 546.269 190.718V186.949Z" fill="#40B3D1"/>
<rect x="547.397" y="181.308" width="11.2821" height="11.2821" rx="3" fill="#40B3D1"/>
<path fill-rule="evenodd" clip-rule="evenodd" d="M590.833 121.821H589.32C587.663 121.821 586.32 123.164 586.32 124.821V135.744C586.32 137.401 587.663 138.744 589.32 138.744H605.884C607.541 138.744 608.884 137.401 608.884 135.744V124.821C608.884 123.164 607.541 121.821 605.884 121.821H604.372V125.59C604.372 127.247 603.028 128.59 601.372 128.59H593.833C592.176 128.59 590.833 127.247 590.833 125.59V121.821Z" fill="#40B3D1"/>
<rect x="591.961" y="116.18" width="11.2821" height="11.2821" rx="3" fill="#40B3D1"/>
<path fill-rule="evenodd" clip-rule="evenodd" d="M623.398 121.821H621.885C620.228 121.821 618.885 123.164 618.885 124.821V135.744C618.885 137.401 620.228 138.744 621.885 138.744H638.449C640.106 138.744 641.449 137.401 641.449 135.744V124.821C641.449 123.164 640.106 121.821 638.449 121.821H636.936V125.59C636.936 127.247 635.593 128.59 633.936 128.59H626.398C624.741 128.59 623.398 127.247 623.398 125.59V121.821Z" fill="#40B3D1"/>
<rect x="624.526" y="116.18" width="11.2821" height="11.2821" rx="3" fill="#40B3D1"/>
<path fill-rule="evenodd" clip-rule="evenodd" d="M655.961 121.821H654.448C652.791 121.821 651.448 123.164 651.448 124.821V135.744C651.448 137.401 652.791 138.744 654.448 138.744H671.012C672.669 138.744 674.012 137.401 674.012 135.744V124.821C674.012 123.164 672.669 121.821 671.012 121.821H669.499V125.59C669.499 127.247 668.156 128.59 666.499 128.59H658.961C657.304 128.59 655.961 127.247 655.961 125.59V121.821Z" fill="#40B3D1"/>
<rect x="657.089" y="116.18" width="11.2821" height="11.2821" rx="3" fill="#40B3D1"/>
<path fill-rule="evenodd" clip-rule="evenodd" d="M688.526 121.821H687.013C685.356 121.821 684.013 123.164 684.013 124.821V135.744C684.013 137.401 685.356 138.744 687.013 138.744H703.577C705.234 138.744 706.577 137.401 706.577 135.744V124.821C706.577 123.164 705.234 121.821 703.577 121.821H702.064V125.59C702.064 127.247 700.721 128.59 699.064 128.59H691.526C689.869 128.59 688.526 127.247 688.526 125.59V121.821Z" fill="#40B3D1"/>
<rect x="689.653" y="116.18" width="11.2821" height="11.2821" rx="3" fill="#40B3D1"/>
<path fill-rule="evenodd" clip-rule="evenodd" d="M590.833 154.385H589.32C587.663 154.385 586.32 155.728 586.32 157.385V168.308C586.32 169.965 587.663 171.308 589.32 171.308H605.884C607.541 171.308 608.884 169.965 608.884 168.308V157.385C608.884 155.728 607.541 154.385 605.884 154.385H604.372V158.154C604.372 159.811 603.028 161.154 601.372 161.154H593.833C592.176 161.154 590.833 159.811 590.833 158.154V154.385Z" fill="#40B3D1"/>
<rect x="591.961" y="148.744" width="11.2821" height="11.2821" rx="3" fill="#40B3D1"/>
<path fill-rule="evenodd" clip-rule="evenodd" d="M623.398 154.385H621.885C620.228 154.385 618.885 155.728 618.885 157.385V168.308C618.885 169.965 620.228 171.308 621.885 171.308H638.449C640.106 171.308 641.449 169.965 641.449 168.308V157.385C641.449 155.728 640.106 154.385 638.449 154.385H636.936V158.154C636.936 159.811 635.593 161.154 633.936 161.154H626.398C624.741 161.154 623.398 159.811 623.398 158.154V154.385Z" fill="#40B3D1"/>
<rect x="624.526" y="148.744" width="11.2821" height="11.2821" rx="3" fill="#40B3D1"/>
<path fill-rule="evenodd" clip-rule="evenodd" d="M655.961 154.385H654.448C652.791 154.385 651.448 155.728 651.448 157.385V168.308C651.448 169.965 652.791 171.308 654.448 171.308H671.012C672.669 171.308 674.012 169.965 674.012 168.308V157.385C674.012 155.728 672.669 154.385 671.012 154.385H669.499V158.154C669.499 159.811 668.156 161.154 666.499 161.154H658.961C657.304 161.154 655.961 159.811 655.961 158.154V154.385Z" fill="#40B3D1"/>
<rect x="657.089" y="148.744" width="11.2821" height="11.2821" rx="3" fill="#40B3D1"/>
<path fill-rule="evenodd" clip-rule="evenodd" d="M688.526 154.385H687.013C685.356 154.385 684.013 155.728 684.013 157.385V168.308C684.013 169.965 685.356 171.308 687.013 171.308H703.577C705.234 171.308 706.577 169.965 706.577 168.308V157.385C706.577 155.728 705.234 154.385 703.577 154.385H702.064V158.154C702.064 159.811 700.721 161.154 699.064 161.154H691.526C689.869 161.154 688.526 159.811 688.526 158.154V154.385Z" fill="#40B3D1"/>
<rect x="689.653" y="148.744" width="11.2821" height="11.2821" rx="3" fill="#40B3D1"/>
<path fill-rule="evenodd" clip-rule="evenodd" d="M590.833 186.949H589.32C587.663 186.949 586.32 188.292 586.32 189.949V200.872C586.32 202.529 587.663 203.872 589.32 203.872H605.884C607.541 203.872 608.884 202.529 608.884 200.872V189.949C608.884 188.292 607.541 186.949 605.884 186.949H604.372V190.718C604.372 192.375 603.028 193.718 601.372 193.718H593.833C592.176 193.718 590.833 192.375 590.833 190.718V186.949Z" fill="#40B3D1"/>
<rect x="591.961" y="181.308" width="11.2821" height="11.2821" rx="3" fill="#40B3D1"/>
<path fill-rule="evenodd" clip-rule="evenodd" d="M623.398 186.949H621.885C620.228 186.949 618.885 188.292 618.885 189.949V200.872C618.885 202.529 620.228 203.872 621.885 203.872H638.449C640.106 203.872 641.449 202.529 641.449 200.872V189.949C641.449 188.292 640.106 186.949 638.449 186.949H636.936V190.718C636.936 192.375 635.593 193.718 633.936 193.718H626.398C624.741 193.718 623.398 192.375 623.398 190.718V186.949Z" fill="#40B3D1"/>
<rect x="624.526" y="181.308" width="11.2821" height="11.2821" rx="3" fill="#40B3D1"/>
<path fill-rule="evenodd" clip-rule="evenodd" d="M655.961 186.949H654.448C652.791 186.949 651.448 188.292 651.448 189.949V200.872C651.448 202.529 652.791 203.872 654.448 203.872H671.012C672.669 203.872 674.012 202.529 674.012 200.872V189.949C674.012 188.292 672.669 186.949 671.012 186.949H669.499V190.718C669.499 192.375 668.156 193.718 666.499 193.718H658.961C657.304 193.718 655.961 192.375 655.961 190.718V186.949Z" fill="#40B3D1"/>
<rect x="657.089" y="181.308" width="11.2821" height="11.2821" rx="3" fill="#40B3D1"/>
<path fill-rule="evenodd" clip-rule="evenodd" d="M688.526 186.949H687.013C685.356 186.949 684.013 188.292 684.013 189.949V200.872C684.013 202.529 685.356 203.872 687.013 203.872H703.577C705.234 203.872 706.577 202.529 706.577 200.872V189.949C706.577 188.292 705.234 186.949 703.577 186.949H702.064V190.718C702.064 192.375 700.721 193.718 699.064 193.718H691.526C689.869 193.718 688.526 192.375 688.526 190.718V186.949Z" fill="#40B3D1"/>
<rect x="689.653" y="181.308" width="11.2821" height="11.2821" rx="3" fill="#40B3D1"/>
<path fill-rule="evenodd" clip-rule="evenodd" d="M110.935 231.513H109.423C107.766 231.513 106.423 232.856 106.423 234.513V245.436C106.423 247.093 107.766 248.436 109.423 248.436H125.987C127.644 248.436 128.987 247.093 128.987 245.436V234.513C128.987 232.856 127.644 231.513 125.987 231.513H124.474V235.282C124.474 236.939 123.131 238.282 121.474 238.282H113.935C112.279 238.282 110.935 236.939 110.935 235.282V231.513Z" fill="#40B3D1"/>
<rect x="112.063" y="225.872" width="11.2821" height="11.2821" rx="3" fill="#40B3D1"/>
<path fill-rule="evenodd" clip-rule="evenodd" d="M143.5 231.513H141.987C140.33 231.513 138.987 232.856 138.987 234.513V245.436C138.987 247.093 140.33 248.436 141.987 248.436H158.551C160.208 248.436 161.551 247.093 161.551 245.436V234.513C161.551 232.856 160.208 231.513 158.551 231.513H157.039V235.282C157.039 236.939 155.695 238.282 154.039 238.282H146.5C144.843 238.282 143.5 236.939 143.5 235.282V231.513Z" fill="#40B3D1"/>
<rect x="144.628" y="225.872" width="11.2821" height="11.2821" rx="3" fill="#40B3D1"/>
<path fill-rule="evenodd" clip-rule="evenodd" d="M176.064 231.513H174.551C172.894 231.513 171.551 232.856 171.551 234.513V245.436C171.551 247.093 172.894 248.436 174.551 248.436H191.115C192.772 248.436 194.115 247.093 194.115 245.436V234.513C194.115 232.856 192.772 231.513 191.115 231.513H189.602V235.282C189.602 236.939 188.259 238.282 186.602 238.282H179.064C177.407 238.282 176.064 236.939 176.064 235.282V231.513Z" fill="#40B3D1"/>
<rect x="177.192" y="225.872" width="11.2821" height="11.2821" rx="3" fill="#40B3D1"/>
<path fill-rule="evenodd" clip-rule="evenodd" d="M208.628 231.513H207.115C205.458 231.513 204.115 232.856 204.115 234.513V245.436C204.115 247.093 205.458 248.436 207.115 248.436H223.679C225.336 248.436 226.679 247.093 226.679 245.436V234.513C226.679 232.856 225.336 231.513 223.679 231.513H222.166V235.282C222.166 236.939 220.823 238.282 219.166 238.282H211.628C209.971 238.282 208.628 236.939 208.628 235.282V231.513Z" fill="#40B3D1"/>
<rect x="209.756" y="225.872" width="11.2821" height="11.2821" rx="3" fill="#40B3D1"/>
<path fill-rule="evenodd" clip-rule="evenodd" d="M110.935 264.077H109.423C107.766 264.077 106.423 265.42 106.423 267.077V278C106.423 279.657 107.766 281 109.423 281H125.987C127.644 281 128.987 279.657 128.987 278V267.077C128.987 265.42 127.644 264.077 125.987 264.077H124.474V267.846C124.474 269.503 123.131 270.846 121.474 270.846H113.935C112.279 270.846 110.935 269.503 110.935 267.846V264.077Z" fill="#40B3D1"/>
<rect x="112.063" y="258.436" width="11.2821" height="11.2821" rx="3" fill="#40B3D1"/>
<path fill-rule="evenodd" clip-rule="evenodd" d="M143.5 264.077H141.987C140.33 264.077 138.987 265.42 138.987 267.077V278C138.987 279.657 140.33 281 141.987 281H158.551C160.208 281 161.551 279.657 161.551 278V267.077C161.551 265.42 160.208 264.077 158.551 264.077H157.039V267.846C157.039 269.503 155.695 270.846 154.039 270.846H146.5C144.843 270.846 143.5 269.503 143.5 267.846V264.077Z" fill="#40B3D1"/>
<rect x="144.628" y="258.436" width="11.2821" height="11.2821" rx="3" fill="#40B3D1"/>
<path fill-rule="evenodd" clip-rule="evenodd" d="M176.064 264.077H174.551C172.894 264.077 171.551 265.42 171.551 267.077V278C171.551 279.657 172.894 281 174.551 281H191.115C192.772 281 194.115 279.657 194.115 278V267.077C194.115 265.42 192.772 264.077 191.115 264.077H189.602V267.846C189.602 269.503 188.259 270.846 186.602 270.846H179.064C177.407 270.846 176.064 269.503 176.064 267.846V264.077Z" fill="#40B3D1"/>
<rect x="177.192" y="258.436" width="11.2821" height="11.2821" rx="3" fill="#40B3D1"/>
<path fill-rule="evenodd" clip-rule="evenodd" d="M208.628 264.077H207.115C205.458 264.077 204.115 265.42 204.115 267.077V278C204.115 279.657 205.458 281 207.115 281H223.679C225.336 281 226.679 279.657 226.679 278V267.077C226.679 265.42 225.336 264.077 223.679 264.077H222.166V267.846C222.166 269.503 220.823 270.846 219.166 270.846H211.628C209.971 270.846 208.628 269.503 208.628 267.846V264.077Z" fill="#40B3D1"/>
<rect x="209.756" y="258.436" width="11.2821" height="11.2821" rx="3" fill="#40B3D1"/>
<path fill-rule="evenodd" clip-rule="evenodd" d="M110.935 296.641H109.423C107.766 296.641 106.423 297.984 106.423 299.641V310.564C106.423 312.221 107.766 313.564 109.423 313.564H125.987C127.644 313.564 128.987 312.221 128.987 310.564V299.641C128.987 297.984 127.644 296.641 125.987 296.641H124.474V300.41C124.474 302.067 123.131 303.41 121.474 303.41H113.935C112.279 303.41 110.935 302.067 110.935 300.41V296.641Z" fill="#40B3D1"/>
<rect x="112.063" y="291" width="11.2821" height="11.2821" rx="3" fill="#40B3D1"/>
<path fill-rule="evenodd" clip-rule="evenodd" d="M143.5 296.641H141.987C140.33 296.641 138.987 297.984 138.987 299.641V310.564C138.987 312.221 140.33 313.564 141.987 313.564H158.551C160.208 313.564 161.551 312.221 161.551 310.564V299.641C161.551 297.984 160.208 296.641 158.551 296.641H157.039V300.41C157.039 302.067 155.695 303.41 154.039 303.41H146.5C144.843 303.41 143.5 302.067 143.5 300.41V296.641Z" fill="#40B3D1"/>
<rect x="144.628" y="291" width="11.2821" height="11.2821" rx="3" fill="#40B3D1"/>
<path fill-rule="evenodd" clip-rule="evenodd" d="M176.064 296.641H174.551C172.894 296.641 171.551 297.984 171.551 299.641V310.564C171.551 312.221 172.894 313.564 174.551 313.564H191.115C192.772 313.564 194.115 312.221 194.115 310.564V299.641C194.115 297.984 192.772 296.641 191.115 296.641H189.602V300.41C189.602 302.067 188.259 303.41 186.602 303.41H179.064C177.407 303.41 176.064 302.067 176.064 300.41V296.641Z" fill="#40B3D1"/>
<rect x="177.192" y="291" width="11.2821" height="11.2821" rx="3" fill="#40B3D1"/>
<path fill-rule="evenodd" clip-rule="evenodd" d="M208.628 296.641H207.115C205.458 296.641 204.115 297.984 204.115 299.641V310.564C204.115 312.221 205.458 313.564 207.115 313.564H223.679C225.336 313.564 226.679 312.221 226.679 310.564V299.641C226.679 297.984 225.336 296.641 223.679 296.641H222.166V300.41C222.166 302.067 220.823 303.41 219.166 303.41H211.628C209.971 303.41 208.628 302.067 208.628 300.41V296.641Z" fill="#40B3D1"/>
<rect x="209.756" y="291" width="11.2821" height="11.2821" rx="3" fill="#40B3D1"/>
<path fill-rule="evenodd" clip-rule="evenodd" d="M110.936 329.205H109.423C107.766 329.205 106.423 330.548 106.423 332.205V343.128C106.423 344.785 107.766 346.128 109.423 346.128H125.987C127.644 346.128 128.987 344.785 128.987 343.128V332.205C128.987 330.548 127.644 329.205 125.987 329.205H124.474V332.974C124.474 334.631 123.131 335.974 121.474 335.974H113.936C112.279 335.974 110.936 334.631 110.936 332.974V329.205Z" fill="#40B3D1"/>
<rect x="112.063" y="323.564" width="11.2821" height="11.2821" rx="3" fill="#40B3D1"/>
<path fill-rule="evenodd" clip-rule="evenodd" d="M143.5 329.205H141.987C140.33 329.205 138.987 330.548 138.987 332.205V343.128C138.987 344.785 140.33 346.128 141.987 346.128H158.551C160.208 346.128 161.551 344.785 161.551 343.128V332.205C161.551 330.548 160.208 329.205 158.551 329.205H157.039V332.974C157.039 334.631 155.696 335.974 154.039 335.974H146.5C144.843 335.974 143.5 334.631 143.5 332.974V329.205Z" fill="#40B3D1"/>
<rect x="144.629" y="323.564" width="11.2821" height="11.2821" rx="3" fill="#40B3D1"/>
<path fill-rule="evenodd" clip-rule="evenodd" d="M176.064 329.205H174.551C172.894 329.205 171.551 330.548 171.551 332.205V343.128C171.551 344.785 172.894 346.128 174.551 346.128H191.115C192.772 346.128 194.115 344.785 194.115 343.128V332.205C194.115 330.548 192.772 329.205 191.115 329.205H189.602V332.974C189.602 334.631 188.259 335.974 186.602 335.974H179.064C177.407 335.974 176.064 334.631 176.064 332.974V329.205Z" fill="#40B3D1"/>
<rect x="177.191" y="323.564" width="11.2821" height="11.2821" rx="3" fill="#40B3D1"/>
<path fill-rule="evenodd" clip-rule="evenodd" d="M208.628 329.205H207.115C205.458 329.205 204.115 330.548 204.115 332.205V343.128C204.115 344.785 205.458 346.128 207.115 346.128H223.679C225.336 346.128 226.679 344.785 226.679 343.128V332.205C226.679 330.548 225.336 329.205 223.679 329.205H222.167V332.974C222.167 334.631 220.824 335.974 219.167 335.974H211.628C209.971 335.974 208.628 334.631 208.628 332.974V329.205Z" fill="#40B3D1"/>
<rect x="209.757" y="323.564" width="11.2821" height="11.2821" rx="3" fill="#40B3D1"/>
<path fill-rule="evenodd" clip-rule="evenodd" d="M253.193 231.513H251.68C250.023 231.513 248.68 232.856 248.68 234.513V245.436C248.68 247.093 250.023 248.436 251.68 248.436H268.244C269.901 248.436 271.244 247.093 271.244 245.436V234.513C271.244 232.856 269.901 231.513 268.244 231.513H266.731V235.282C266.731 236.939 265.388 238.282 263.731 238.282H256.193C254.536 238.282 253.193 236.939 253.193 235.282V231.513Z" fill="#40B3D1"/>
<rect x="254.32" y="225.872" width="11.2821" height="11.2821" rx="3" fill="#40B3D1"/>
<path fill-rule="evenodd" clip-rule="evenodd" d="M285.757 231.513H284.244C282.587 231.513 281.244 232.856 281.244 234.513V245.436C281.244 247.093 282.587 248.436 284.244 248.436H300.808C302.465 248.436 303.808 247.093 303.808 245.436V234.513C303.808 232.856 302.465 231.513 300.808 231.513H299.296V235.282C299.296 236.939 297.952 238.282 296.296 238.282H288.757C287.1 238.282 285.757 236.939 285.757 235.282V231.513Z" fill="#40B3D1"/>
<rect x="286.886" y="225.872" width="11.2821" height="11.2821" rx="3" fill="#40B3D1"/>
<path fill-rule="evenodd" clip-rule="evenodd" d="M318.32 231.513H316.808C315.151 231.513 313.808 232.856 313.808 234.513V245.436C313.808 247.093 315.151 248.436 316.808 248.436H333.372C335.029 248.436 336.372 247.093 336.372 245.436V234.513C336.372 232.856 335.029 231.513 333.372 231.513H331.859V235.282C331.859 236.939 330.516 238.282 328.859 238.282H321.32C319.663 238.282 318.32 236.939 318.32 235.282V231.513Z" fill="#40B3D1"/>
<rect x="319.448" y="225.872" width="11.2821" height="11.2821" rx="3" fill="#40B3D1"/>
<path fill-rule="evenodd" clip-rule="evenodd" d="M350.885 231.513H349.372C347.715 231.513 346.372 232.856 346.372 234.513V245.436C346.372 247.093 347.715 248.436 349.372 248.436H365.936C367.593 248.436 368.936 247.093 368.936 245.436V234.513C368.936 232.856 367.593 231.513 365.936 231.513H364.423V235.282C364.423 236.939 363.08 238.282 361.423 238.282H353.885C352.228 238.282 350.885 236.939 350.885 235.282V231.513Z" fill="#40B3D1"/>
<rect x="352.013" y="225.872" width="11.2821" height="11.2821" rx="3" fill="#40B3D1"/>
<path fill-rule="evenodd" clip-rule="evenodd" d="M383.449 231.513H381.937C380.28 231.513 378.937 232.856 378.937 234.513V245.436C378.937 247.093 380.28 248.436 381.937 248.436H398.501C400.157 248.436 401.501 247.093 401.501 245.436V234.513C401.501 232.856 400.157 231.513 398.501 231.513H396.988V235.282C396.988 236.939 395.645 238.282 393.988 238.282H386.449C384.793 238.282 383.449 236.939 383.449 235.282V231.513Z" fill="#40B3D1"/>
<rect x="384.578" y="225.872" width="11.2821" height="11.2821" rx="3" fill="#40B3D1"/>
<path fill-rule="evenodd" clip-rule="evenodd" d="M416.013 231.513H414.5C412.843 231.513 411.5 232.856 411.5 234.513V245.436C411.5 247.093 412.843 248.436 414.5 248.436H431.064C432.721 248.436 434.064 247.093 434.064 245.436V234.513C434.064 232.856 432.721 231.513 431.064 231.513H429.551V235.282C429.551 236.939 428.208 238.282 426.551 238.282H419.013C417.356 238.282 416.013 236.939 416.013 235.282V231.513Z" fill="#40B3D1"/>
<rect x="417.141" y="225.872" width="11.2821" height="11.2821" rx="3" fill="#40B3D1"/>
<path fill-rule="evenodd" clip-rule="evenodd" d="M448.577 231.513H447.064C445.408 231.513 444.064 232.856 444.064 234.513V245.436C444.064 247.093 445.408 248.436 447.064 248.436H463.629C465.285 248.436 466.629 247.093 466.629 245.436V234.513C466.629 232.856 465.285 231.513 463.629 231.513H462.116V235.282C462.116 236.939 460.772 238.282 459.116 238.282H451.577C449.92 238.282 448.577 236.939 448.577 235.282V231.513Z" fill="#40B3D1"/>
<rect x="449.705" y="225.872" width="11.2821" height="11.2821" rx="3" fill="#40B3D1"/>
<path fill-rule="evenodd" clip-rule="evenodd" d="M481.141 231.513H479.628C477.971 231.513 476.628 232.856 476.628 234.513V245.436C476.628 247.093 477.971 248.436 479.628 248.436H496.192C497.849 248.436 499.192 247.093 499.192 245.436V234.513C499.192 232.856 497.849 231.513 496.192 231.513H494.679V235.282C494.679 236.939 493.336 238.282 491.679 238.282H484.141C482.484 238.282 481.141 236.939 481.141 235.282V231.513Z" fill="#40B3D1"/>
<rect x="482.269" y="225.872" width="11.2821" height="11.2821" rx="3" fill="#40B3D1"/>
<path fill-rule="evenodd" clip-rule="evenodd" d="M513.705 231.513H512.192C510.536 231.513 509.192 232.856 509.192 234.513V245.436C509.192 247.093 510.536 248.436 512.192 248.436H528.756C530.413 248.436 531.756 247.093 531.756 245.436V234.513C531.756 232.856 530.413 231.513 528.756 231.513H527.244V235.282C527.244 236.939 525.901 238.282 524.244 238.282H516.705C515.048 238.282 513.705 236.939 513.705 235.282V231.513Z" fill="#40B3D1"/>
<rect x="514.834" y="225.872" width="11.2821" height="11.2821" rx="3" fill="#40B3D1"/>
<path fill-rule="evenodd" clip-rule="evenodd" d="M546.269 231.513H544.757C543.1 231.513 541.757 232.856 541.757 234.513V245.436C541.757 247.093 543.1 248.436 544.757 248.436H561.321C562.978 248.436 564.321 247.093 564.321 245.436V234.513C564.321 232.856 562.978 231.513 561.321 231.513H559.808V235.282C559.808 236.939 558.465 238.282 556.808 238.282H549.269C547.613 238.282 546.269 236.939 546.269 235.282V231.513Z" fill="#40B3D1"/>
<rect x="547.397" y="225.872" width="11.2821" height="11.2821" rx="3" fill="#40B3D1"/>
<path fill-rule="evenodd" clip-rule="evenodd" d="M253.193 264.077H251.68C250.023 264.077 248.68 265.42 248.68 267.077V278C248.68 279.657 250.023 281 251.68 281H268.244C269.901 281 271.244 279.657 271.244 278V267.077C271.244 265.42 269.901 264.077 268.244 264.077H266.731V267.846C266.731 269.503 265.388 270.846 263.731 270.846H256.193C254.536 270.846 253.193 269.503 253.193 267.846V264.077Z" fill="#40B3D1"/>
<rect x="254.32" y="258.436" width="11.2821" height="11.2821" rx="3" fill="#40B3D1"/>
<path fill-rule="evenodd" clip-rule="evenodd" d="M285.757 264.077H284.244C282.587 264.077 281.244 265.42 281.244 267.077V278C281.244 279.657 282.587 281 284.244 281H300.808C302.465 281 303.808 279.657 303.808 278V267.077C303.808 265.42 302.465 264.077 300.808 264.077H299.296V267.846C299.296 269.503 297.952 270.846 296.296 270.846H288.757C287.1 270.846 285.757 269.503 285.757 267.846V264.077Z" fill="#40B3D1"/>
<rect x="286.886" y="258.436" width="11.2821" height="11.2821" rx="3" fill="#40B3D1"/>
<path fill-rule="evenodd" clip-rule="evenodd" d="M318.32 264.077H316.808C315.151 264.077 313.808 265.42 313.808 267.077V278C313.808 279.657 315.151 281 316.808 281H333.372C335.029 281 336.372 279.657 336.372 278V267.077C336.372 265.42 335.029 264.077 333.372 264.077H331.859V267.846C331.859 269.503 330.516 270.846 328.859 270.846H321.32C319.663 270.846 318.32 269.503 318.32 267.846V264.077Z" fill="#40B3D1"/>
<rect x="319.448" y="258.436" width="11.2821" height="11.2821" rx="3" fill="#40B3D1"/>
<path fill-rule="evenodd" clip-rule="evenodd" d="M350.885 264.077H349.372C347.715 264.077 346.372 265.42 346.372 267.077V278C346.372 279.657 347.715 281 349.372 281H365.936C367.593 281 368.936 279.657 368.936 278V267.077C368.936 265.42 367.593 264.077 365.936 264.077H364.423V267.846C364.423 269.503 363.08 270.846 361.423 270.846H353.885C352.228 270.846 350.885 269.503 350.885 267.846V264.077Z" fill="#40B3D1"/>
<rect x="352.013" y="258.436" width="11.2821" height="11.2821" rx="3" fill="#40B3D1"/>
<path fill-rule="evenodd" clip-rule="evenodd" d="M383.449 264.077H381.937C380.28 264.077 378.937 265.42 378.937 267.077V278C378.937 279.657 380.28 281 381.937 281H398.501C400.157 281 401.501 279.657 401.501 278V267.077C401.501 265.42 400.157 264.077 398.501 264.077H396.988V267.846C396.988 269.503 395.645 270.846 393.988 270.846H386.449C384.793 270.846 383.449 269.503 383.449 267.846V264.077Z" fill="#40B3D1"/>
<rect x="384.578" y="258.436" width="11.2821" height="11.2821" rx="3" fill="#40B3D1"/>
<path fill-rule="evenodd" clip-rule="evenodd" d="M416.013 264.077H414.5C412.843 264.077 411.5 265.42 411.5 267.077V278C411.5 279.657 412.843 281 414.5 281H431.064C432.721 281 434.064 279.657 434.064 278V267.077C434.064 265.42 432.721 264.077 431.064 264.077H429.551V267.846C429.551 269.503 428.208 270.846 426.551 270.846H419.013C417.356 270.846 416.013 269.503 416.013 267.846V264.077Z" fill="#40B3D1"/>
<rect x="417.141" y="258.436" width="11.2821" height="11.2821" rx="3" fill="#40B3D1"/>
<path fill-rule="evenodd" clip-rule="evenodd" d="M448.577 264.077H447.064C445.408 264.077 444.064 265.42 444.064 267.077V278C444.064 279.657 445.408 281 447.064 281H463.629C465.285 281 466.629 279.657 466.629 278V267.077C466.629 265.42 465.285 264.077 463.629 264.077H462.116V267.846C462.116 269.503 460.772 270.846 459.116 270.846H451.577C449.92 270.846 448.577 269.503 448.577 267.846V264.077Z" fill="#40B3D1"/>
<rect x="449.705" y="258.436" width="11.2821" height="11.2821" rx="3" fill="#40B3D1"/>
<path fill-rule="evenodd" clip-rule="evenodd" d="M481.141 264.077H479.628C477.971 264.077 476.628 265.42 476.628 267.077V278C476.628 279.657 477.971 281 479.628 281H496.192C497.849 281 499.192 279.657 499.192 278V267.077C499.192 265.42 497.849 264.077 496.192 264.077H494.679V267.846C494.679 269.503 493.336 270.846 491.679 270.846H484.141C482.484 270.846 481.141 269.503 481.141 267.846V264.077Z" fill="#40B3D1"/>
<rect x="482.269" y="258.436" width="11.2821" height="11.2821" rx="3" fill="#40B3D1"/>
<path fill-rule="evenodd" clip-rule="evenodd" d="M513.705 264.077H512.192C510.536 264.077 509.192 265.42 509.192 267.077V278C509.192 279.657 510.536 281 512.192 281H528.756C530.413 281 531.756 279.657 531.756 278V267.077C531.756 265.42 530.413 264.077 528.756 264.077H527.244V267.846C527.244 269.503 525.901 270.846 524.244 270.846H516.705C515.048 270.846 513.705 269.503 513.705 267.846V264.077Z" fill="#40B3D1"/>
<rect x="514.834" y="258.436" width="11.2821" height="11.2821" rx="3" fill="#40B3D1"/>
<path fill-rule="evenodd" clip-rule="evenodd" d="M546.269 264.077H544.757C543.1 264.077 541.757 265.42 541.757 267.077V278C541.757 279.657 543.1 281 544.757 281H561.321C562.978 281 564.321 279.657 564.321 278V267.077C564.321 265.42 562.978 264.077 561.321 264.077H559.808V267.846C559.808 269.503 558.465 270.846 556.808 270.846H549.269C547.613 270.846 546.269 269.503 546.269 267.846V264.077Z" fill="#40B3D1"/>
<rect x="547.397" y="258.436" width="11.2821" height="11.2821" rx="3" fill="#40B3D1"/>
<path fill-rule="evenodd" clip-rule="evenodd" d="M253.193 296.641H251.68C250.023 296.641 248.68 297.984 248.68 299.641V310.564C248.68 312.221 250.023 313.564 251.68 313.564H268.244C269.901 313.564 271.244 312.221 271.244 310.564V299.641C271.244 297.984 269.901 296.641 268.244 296.641H266.731V300.41C266.731 302.067 265.388 303.41 263.731 303.41H256.193C254.536 303.41 253.193 302.067 253.193 300.41V296.641Z" fill="#40B3D1"/>
<rect x="254.32" y="291" width="11.2821" height="11.2821" rx="3" fill="#40B3D1"/>
<path fill-rule="evenodd" clip-rule="evenodd" d="M285.757 296.641H284.244C282.587 296.641 281.244 297.984 281.244 299.641V310.564C281.244 312.221 282.587 313.564 284.244 313.564H300.808C302.465 313.564 303.808 312.221 303.808 310.564V299.641C303.808 297.984 302.465 296.641 300.808 296.641H299.296V300.41C299.296 302.067 297.952 303.41 296.296 303.41H288.757C287.1 303.41 285.757 302.067 285.757 300.41V296.641Z" fill="#40B3D1"/>
<rect x="286.886" y="291" width="11.2821" height="11.2821" rx="3" fill="#40B3D1"/>
<path fill-rule="evenodd" clip-rule="evenodd" d="M318.32 296.641H316.808C315.151 296.641 313.808 297.984 313.808 299.641V310.564C313.808 312.221 315.151 313.564 316.808 313.564H333.372C335.029 313.564 336.372 312.221 336.372 310.564V299.641C336.372 297.984 335.029 296.641 333.372 296.641H331.859V300.41C331.859 302.067 330.516 303.41 328.859 303.41H321.32C319.663 303.41 318.32 302.067 318.32 300.41V296.641Z" fill="#40B3D1"/>
<rect x="319.448" y="291" width="11.2821" height="11.2821" rx="3" fill="#40B3D1"/>
<path fill-rule="evenodd" clip-rule="evenodd" d="M350.885 296.641H349.372C347.715 296.641 346.372 297.984 346.372 299.641V310.564C346.372 312.221 347.715 313.564 349.372 313.564H365.936C367.593 313.564 368.936 312.221 368.936 310.564V299.641C368.936 297.984 367.593 296.641 365.936 296.641H364.423V300.41C364.423 302.067 363.08 303.41 361.423 303.41H353.885C352.228 303.41 350.885 302.067 350.885 300.41V296.641Z" fill="#40B3D1"/>
<rect x="352.013" y="291" width="11.2821" height="11.2821" rx="3" fill="#40B3D1"/>
<path fill-rule="evenodd" clip-rule="evenodd" d="M383.449 296.641H381.937C380.28 296.641 378.937 297.984 378.937 299.641V310.564C378.937 312.221 380.28 313.564 381.937 313.564H398.501C400.157 313.564 401.501 312.221 401.501 310.564V299.641C401.501 297.984 400.157 296.641 398.501 296.641H396.988V300.41C396.988 302.067 395.645 303.41 393.988 303.41H386.449C384.793 303.41 383.449 302.067 383.449 300.41V296.641Z" fill="#40B3D1"/>
<rect x="384.578" y="291" width="11.2821" height="11.2821" rx="3" fill="#40B3D1"/>
<path fill-rule="evenodd" clip-rule="evenodd" d="M416.013 296.641H414.5C412.843 296.641 411.5 297.984 411.5 299.641V310.564C411.5 312.221 412.843 313.564 414.5 313.564H431.064C432.721 313.564 434.064 312.221 434.064 310.564V299.641C434.064 297.984 432.721 296.641 431.064 296.641H429.551V300.41C429.551 302.067 428.208 303.41 426.551 303.41H419.013C417.356 303.41 416.013 302.067 416.013 300.41V296.641Z" fill="#40B3D1"/>
<rect x="417.141" y="291" width="11.2821" height="11.2821" rx="3" fill="#40B3D1"/>
<path fill-rule="evenodd" clip-rule="evenodd" d="M448.577 296.641H447.064C445.408 296.641 444.064 297.984 444.064 299.641V310.564C444.064 312.221 445.408 313.564 447.064 313.564H463.629C465.285 313.564 466.629 312.221 466.629 310.564V299.641C466.629 297.984 465.285 296.641 463.629 296.641H462.116V300.41C462.116 302.067 460.772 303.41 459.116 303.41H451.577C449.92 303.41 448.577 302.067 448.577 300.41V296.641Z" fill="#40B3D1"/>
<rect x="449.705" y="291" width="11.2821" height="11.2821" rx="3" fill="#40B3D1"/>
<path fill-rule="evenodd" clip-rule="evenodd" d="M481.141 296.641H479.628C477.971 296.641 476.628 297.984 476.628 299.641V310.564C476.628 312.221 477.971 313.564 479.628 313.564H496.192C497.849 313.564 499.192 312.221 499.192 310.564V299.641C499.192 297.984 497.849 296.641 496.192 296.641H494.679V300.41C494.679 302.067 493.336 303.41 491.679 303.41H484.141C482.484 303.41 481.141 302.067 481.141 300.41V296.641Z" fill="#40B3D1"/>
<rect x="482.269" y="291" width="11.2821" height="11.2821" rx="3" fill="#40B3D1"/>
<path fill-rule="evenodd" clip-rule="evenodd" d="M513.705 296.641H512.192C510.536 296.641 509.192 297.984 509.192 299.641V310.564C509.192 312.221 510.536 313.564 512.192 313.564H528.756C530.413 313.564 531.756 312.221 531.756 310.564V299.641C531.756 297.984 530.413 296.641 528.756 296.641H527.244V300.41C527.244 302.067 525.901 303.41 524.244 303.41H516.705C515.048 303.41 513.705 302.067 513.705 300.41V296.641Z" fill="#40B3D1"/>
<rect x="514.834" y="291" width="11.2821" height="11.2821" rx="3" fill="#40B3D1"/>
<path fill-rule="evenodd" clip-rule="evenodd" d="M546.269 296.641H544.757C543.1 296.641 541.757 297.984 541.757 299.641V310.564C541.757 312.221 543.1 313.564 544.757 313.564H561.321C562.978 313.564 564.321 312.221 564.321 310.564V299.641C564.321 297.984 562.978 296.641 561.321 296.641H559.808V300.41C559.808 302.067 558.465 303.41 556.808 303.41H549.269C547.613 303.41 546.269 302.067 546.269 300.41V296.641Z" fill="#40B3D1"/>
<rect x="547.397" y="291" width="11.2821" height="11.2821" rx="3" fill="#40B3D1"/>
<path fill-rule="evenodd" clip-rule="evenodd" d="M253.192 329.205H251.68C250.023 329.205 248.68 330.548 248.68 332.205V343.128C248.68 344.785 250.023 346.128 251.68 346.128H268.244C269.901 346.128 271.244 344.785 271.244 343.128V332.205C271.244 330.548 269.901 329.205 268.244 329.205H266.731V332.974C266.731 334.631 265.388 335.974 263.731 335.974H256.192C254.536 335.974 253.192 334.631 253.192 332.974V329.205Z" fill="#40B3D1"/>
<rect x="254.32" y="323.564" width="11.2821" height="11.2821" rx="3" fill="#40B3D1"/>
<path fill-rule="evenodd" clip-rule="evenodd" d="M285.757 329.205H284.244C282.587 329.205 281.244 330.548 281.244 332.205V343.128C281.244 344.785 282.587 346.128 284.244 346.128H300.808C302.465 346.128 303.808 344.785 303.808 343.128V332.205C303.808 330.548 302.465 329.205 300.808 329.205H299.296V332.974C299.296 334.631 297.952 335.974 296.296 335.974H288.757C287.1 335.974 285.757 334.631 285.757 332.974V329.205Z" fill="#40B3D1"/>
<rect x="286.886" y="323.564" width="11.2821" height="11.2821" rx="3" fill="#40B3D1"/>
<path fill-rule="evenodd" clip-rule="evenodd" d="M318.32 329.205H316.808C315.151 329.205 313.808 330.548 313.808 332.205V343.128C313.808 344.785 315.151 346.128 316.808 346.128H333.372C335.029 346.128 336.372 344.785 336.372 343.128V332.205C336.372 330.548 335.029 329.205 333.372 329.205H331.859V332.974C331.859 334.631 330.516 335.974 328.859 335.974H321.32C319.663 335.974 318.32 334.631 318.32 332.974V329.205Z" fill="#40B3D1"/>
<rect x="319.449" y="323.564" width="11.2821" height="11.2821" rx="3" fill="#40B3D1"/>
<path fill-rule="evenodd" clip-rule="evenodd" d="M350.885 329.205H349.372C347.715 329.205 346.372 330.548 346.372 332.205V343.128C346.372 344.785 347.715 346.128 349.372 346.128H365.936C367.593 346.128 368.936 344.785 368.936 343.128V332.205C368.936 330.548 367.593 329.205 365.936 329.205H364.423V332.974C364.423 334.631 363.08 335.974 361.423 335.974H353.885C352.228 335.974 350.885 334.631 350.885 332.974V329.205Z" fill="#40B3D1"/>
<rect x="352.013" y="323.564" width="11.2821" height="11.2821" rx="3" fill="#40B3D1"/>
<path fill-rule="evenodd" clip-rule="evenodd" d="M383.449 329.205H381.937C380.28 329.205 378.937 330.548 378.937 332.205V343.128C378.937 344.785 380.28 346.128 381.937 346.128H398.501C400.157 346.128 401.501 344.785 401.501 343.128V332.205C401.501 330.548 400.157 329.205 398.501 329.205H396.988V332.974C396.988 334.631 395.645 335.974 393.988 335.974H386.449C384.793 335.974 383.449 334.631 383.449 332.974V329.205Z" fill="#40B3D1"/>
<rect x="384.578" y="323.564" width="11.2821" height="11.2821" rx="3" fill="#40B3D1"/>
<path fill-rule="evenodd" clip-rule="evenodd" d="M416.013 329.205H414.5C412.843 329.205 411.5 330.548 411.5 332.205V343.128C411.5 344.785 412.843 346.128 414.5 346.128H431.064C432.721 346.128 434.064 344.785 434.064 343.128V332.205C434.064 330.548 432.721 329.205 431.064 329.205H429.551V332.974C429.551 334.631 428.208 335.974 426.551 335.974H419.013C417.356 335.974 416.013 334.631 416.013 332.974V329.205Z" fill="#40B3D1"/>
<rect x="417.141" y="323.564" width="11.2821" height="11.2821" rx="3" fill="#40B3D1"/>
<path fill-rule="evenodd" clip-rule="evenodd" d="M448.577 329.205H447.064C445.408 329.205 444.064 330.548 444.064 332.205V343.128C444.064 344.785 445.408 346.128 447.064 346.128H463.629C465.285 346.128 466.629 344.785 466.629 343.128V332.205C466.629 330.548 465.285 329.205 463.629 329.205H462.116V332.974C462.116 334.631 460.772 335.974 459.116 335.974H451.577C449.92 335.974 448.577 334.631 448.577 332.974V329.205Z" fill="#40B3D1"/>
<rect x="449.705" y="323.564" width="11.2821" height="11.2821" rx="3" fill="#40B3D1"/>
<path fill-rule="evenodd" clip-rule="evenodd" d="M481.141 329.205H479.628C477.971 329.205 476.628 330.548 476.628 332.205V343.128C476.628 344.785 477.971 346.128 479.628 346.128H496.192C497.849 346.128 499.192 344.785 499.192 343.128V332.205C499.192 330.548 497.849 329.205 496.192 329.205H494.679V332.974C494.679 334.631 493.336 335.974 491.679 335.974H484.141C482.484 335.974 481.141 334.631 481.141 332.974V329.205Z" fill="#40B3D1"/>
<rect x="482.269" y="323.564" width="11.2821" height="11.2821" rx="3" fill="#40B3D1"/>
<path fill-rule="evenodd" clip-rule="evenodd" d="M513.705 329.205H512.192C510.536 329.205 509.192 330.548 509.192 332.205V343.128C509.192 344.785 510.536 346.128 512.192 346.128H528.756C530.413 346.128 531.756 344.785 531.756 343.128V332.205C531.756 330.548 530.413 329.205 528.756 329.205H527.244V332.974C527.244 334.631 525.901 335.974 524.244 335.974H516.705C515.048 335.974 513.705 334.631 513.705 332.974V329.205Z" fill="#40B3D1"/>
<rect x="514.834" y="323.564" width="11.2821" height="11.2821" rx="3" fill="#40B3D1"/>
<path fill-rule="evenodd" clip-rule="evenodd" d="M546.27 329.205H544.757C543.1 329.205 541.757 330.548 541.757 332.205V343.128C541.757 344.785 543.1 346.128 544.757 346.128H561.321C562.978 346.128 564.321 344.785 564.321 343.128V332.205C564.321 330.548 562.978 329.205 561.321 329.205H559.808V332.974C559.808 334.631 558.465 335.974 556.808 335.974H549.27C547.613 335.974 546.27 334.631 546.27 332.974V329.205Z" fill="#40B3D1"/>
<rect x="547.397" y="323.564" width="11.2821" height="11.2821" rx="3" fill="#40B3D1"/>
<path fill-rule="evenodd" clip-rule="evenodd" d="M590.833 231.513H589.32C587.663 231.513 586.32 232.856 586.32 234.513V245.436C586.32 247.093 587.663 248.436 589.32 248.436H605.884C607.541 248.436 608.884 247.093 608.884 245.436V234.513C608.884 232.856 607.541 231.513 605.884 231.513H604.372V235.282C604.372 236.939 603.028 238.282 601.372 238.282H593.833C592.176 238.282 590.833 236.939 590.833 235.282V231.513Z" fill="#A31F58"/>
<rect x="591.961" y="225.872" width="11.2821" height="11.2821" rx="3" fill="#A31F58"/>
<path fill-rule="evenodd" clip-rule="evenodd" d="M623.398 231.513H621.885C620.228 231.513 618.885 232.856 618.885 234.513V245.436C618.885 247.093 620.228 248.436 621.885 248.436H638.449C640.106 248.436 641.449 247.093 641.449 245.436V234.513C641.449 232.856 640.106 231.513 638.449 231.513H636.936V235.282C636.936 236.939 635.593 238.282 633.936 238.282H626.398C624.741 238.282 623.398 236.939 623.398 235.282V231.513Z" fill="#A31F58"/>
<rect x="624.526" y="225.872" width="11.2821" height="11.2821" rx="3" fill="#A31F58"/>
<path fill-rule="evenodd" clip-rule="evenodd" d="M655.961 231.513H654.448C652.791 231.513 651.448 232.856 651.448 234.513V245.436C651.448 247.093 652.791 248.436 654.448 248.436H671.012C672.669 248.436 674.012 247.093 674.012 245.436V234.513C674.012 232.856 672.669 231.513 671.012 231.513H669.499V235.282C669.499 236.939 668.156 238.282 666.499 238.282H658.961C657.304 238.282 655.961 236.939 655.961 235.282V231.513Z" fill="#A31F58"/>
<rect x="657.089" y="225.872" width="11.2821" height="11.2821" rx="3" fill="#A31F58"/>
<path fill-rule="evenodd" clip-rule="evenodd" d="M688.526 231.513H687.013C685.356 231.513 684.013 232.856 684.013 234.513V245.436C684.013 247.093 685.356 248.436 687.013 248.436H703.577C705.234 248.436 706.577 247.093 706.577 245.436V234.513C706.577 232.856 705.234 231.513 703.577 231.513H702.064V235.282C702.064 236.939 700.721 238.282 699.064 238.282H691.526C689.869 238.282 688.526 236.939 688.526 235.282V231.513Z" fill="#A31F58"/>
<rect x="689.653" y="225.872" width="11.2821" height="11.2821" rx="3" fill="#A31F58"/>
<path fill-rule="evenodd" clip-rule="evenodd" d="M590.833 264.077H589.32C587.663 264.077 586.32 265.42 586.32 267.077V278C586.32 279.657 587.663 281 589.32 281H605.884C607.541 281 608.884 279.657 608.884 278V267.077C608.884 265.42 607.541 264.077 605.884 264.077H604.372V267.846C604.372 269.503 603.028 270.846 601.372 270.846H593.833C592.176 270.846 590.833 269.503 590.833 267.846V264.077Z" fill="#A31F58"/>
<rect x="591.961" y="258.436" width="11.2821" height="11.2821" rx="3" fill="#A31F58"/>
<path fill-rule="evenodd" clip-rule="evenodd" d="M623.398 264.077H621.885C620.228 264.077 618.885 265.42 618.885 267.077V278C618.885 279.657 620.228 281 621.885 281H638.449C640.106 281 641.449 279.657 641.449 278V267.077C641.449 265.42 640.106 264.077 638.449 264.077H636.936V267.846C636.936 269.503 635.593 270.846 633.936 270.846H626.398C624.741 270.846 623.398 269.503 623.398 267.846V264.077Z" fill="#A31F58"/>
<rect x="624.526" y="258.436" width="11.2821" height="11.2821" rx="3" fill="#A31F58"/>
<path fill-rule="evenodd" clip-rule="evenodd" d="M655.961 264.077H654.448C652.791 264.077 651.448 265.42 651.448 267.077V278C651.448 279.657 652.791 281 654.448 281H671.012C672.669 281 674.012 279.657 674.012 278V267.077C674.012 265.42 672.669 264.077 671.012 264.077H669.499V267.846C669.499 269.503 668.156 270.846 666.499 270.846H658.961C657.304 270.846 655.961 269.503 655.961 267.846V264.077Z" fill="#A31F58"/>
<rect x="657.089" y="258.436" width="11.2821" height="11.2821" rx="3" fill="#A31F58"/>
<path fill-rule="evenodd" clip-rule="evenodd" d="M688.526 264.077H687.013C685.356 264.077 684.013 265.42 684.013 267.077V278C684.013 279.657 685.356 281 687.013 281H703.577C705.234 281 706.577 279.657 706.577 278V267.077C706.577 265.42 705.234 264.077 703.577 264.077H702.064V267.846C702.064 269.503 700.721 270.846 699.064 270.846H691.526C689.869 270.846 688.526 269.503 688.526 267.846V264.077Z" fill="#A31F58"/>
<rect x="689.653" y="258.436" width="11.2821" height="11.2821" rx="3" fill="#A31F58"/>
<path fill-rule="evenodd" clip-rule="evenodd" d="M590.833 296.641H589.32C587.663 296.641 586.32 297.984 586.32 299.641V310.564C586.32 312.221 587.663 313.564 589.32 313.564H605.884C607.541 313.564 608.884 312.221 608.884 310.564V299.641C608.884 297.984 607.541 296.641 605.884 296.641H604.372V300.41C604.372 302.067 603.028 303.41 601.372 303.41H593.833C592.176 303.41 590.833 302.067 590.833 300.41V296.641Z" fill="#A31F58"/>
<rect x="591.961" y="291" width="11.2821" height="11.2821" rx="3" fill="#A31F58"/>
<path fill-rule="evenodd" clip-rule="evenodd" d="M623.398 296.641H621.885C620.228 296.641 618.885 297.984 618.885 299.641V310.564C618.885 312.221 620.228 313.564 621.885 313.564H638.449C640.106 313.564 641.449 312.221 641.449 310.564V299.641C641.449 297.984 640.106 296.641 638.449 296.641H636.936V300.41C636.936 302.067 635.593 303.41 633.936 303.41H626.398C624.741 303.41 623.398 302.067 623.398 300.41V296.641Z" fill="#A31F58"/>
<rect x="624.526" y="291" width="11.2821" height="11.2821" rx="3" fill="#A31F58"/>
<path fill-rule="evenodd" clip-rule="evenodd" d="M655.961 296.641H654.448C652.791 296.641 651.448 297.984 651.448 299.641V310.564C651.448 312.221 652.791 313.564 654.448 313.564H671.012C672.669 313.564 674.012 312.221 674.012 310.564V299.641C674.012 297.984 672.669 296.641 671.012 296.641H669.499V300.41C669.499 302.067 668.156 303.41 666.499 303.41H658.961C657.304 303.41 655.961 302.067 655.961 300.41V296.641Z" fill="#A31F58"/>
<rect x="657.089" y="291" width="11.2821" height="11.2821" rx="3" fill="#A31F58"/>
<path fill-rule="evenodd" clip-rule="evenodd" d="M688.526 296.641H687.013C685.356 296.641 684.013 297.984 684.013 299.641V310.564C684.013 312.221 685.356 313.564 687.013 313.564H703.577C705.234 313.564 706.577 312.221 706.577 310.564V299.641C706.577 297.984 705.234 296.641 703.577 296.641H702.064V300.41C702.064 302.067 700.721 303.41 699.064 303.41H691.526C689.869 303.41 688.526 302.067 688.526 300.41V296.641Z" fill="#A31F58"/>
<rect x="689.653" y="291" width="11.2821" height="11.2821" rx="3" fill="#A31F58"/>
<path fill-rule="evenodd" clip-rule="evenodd" d="M590.833 329.205H589.32C587.663 329.205 586.32 330.548 586.32 332.205V343.128C586.32 344.785 587.663 346.128 589.32 346.128H605.884C607.541 346.128 608.884 344.785 608.884 343.128V332.205C608.884 330.548 607.541 329.205 605.884 329.205H604.372V332.974C604.372 334.631 603.029 335.974 601.372 335.974H593.833C592.176 335.974 590.833 334.631 590.833 332.974V329.205Z" fill="#A31F58"/>
<rect x="591.962" y="323.564" width="11.2821" height="11.2821" rx="3" fill="#A31F58"/>
<path fill-rule="evenodd" clip-rule="evenodd" d="M623.398 329.205H621.885C620.228 329.205 618.885 330.548 618.885 332.205V343.128C618.885 344.785 620.228 346.128 621.885 346.128H638.449C640.106 346.128 641.449 344.785 641.449 343.128V332.205C641.449 330.548 640.106 329.205 638.449 329.205H636.936V332.974C636.936 334.631 635.593 335.974 633.936 335.974H626.398C624.741 335.974 623.398 334.631 623.398 332.974V329.205Z" fill="#A31F58"/>
<rect x="624.525" y="323.564" width="11.2821" height="11.2821" rx="3" fill="#A31F58"/>
<path fill-rule="evenodd" clip-rule="evenodd" d="M655.961 329.205H654.448C652.791 329.205 651.448 330.548 651.448 332.205V343.128C651.448 344.785 652.791 346.128 654.448 346.128H671.012C672.669 346.128 674.012 344.785 674.012 343.128V332.205C674.012 330.548 672.669 329.205 671.012 329.205H669.5V332.974C669.5 334.631 668.157 335.974 666.5 335.974H658.961C657.304 335.974 655.961 334.631 655.961 332.974V329.205Z" fill="#A31F58"/>
<rect x="657.09" y="323.564" width="11.2821" height="11.2821" rx="3" fill="#A31F58"/>
<path fill-rule="evenodd" clip-rule="evenodd" d="M688.525 329.205H687.013C685.356 329.205 684.013 330.548 684.013 332.205V343.128C684.013 344.785 685.356 346.128 687.013 346.128H703.577C705.234 346.128 706.577 344.785 706.577 343.128V332.205C706.577 330.548 705.234 329.205 703.577 329.205H702.064V332.974C702.064 334.631 700.721 335.974 699.064 335.974H691.525C689.869 335.974 688.525 334.631 688.525 332.974V329.205Z" fill="#A31F58"/>
<rect x="689.653" y="323.564" width="11.2821" height="11.2821" rx="3" fill="#A31F58"/>
<path fill-rule="evenodd" clip-rule="evenodd" d="M110.935 373.77H109.423C107.766 373.77 106.423 375.113 106.423 376.77V387.693C106.423 389.349 107.766 390.693 109.423 390.693H125.987C127.644 390.693 128.987 389.349 128.987 387.693V376.77C128.987 375.113 127.644 373.77 125.987 373.77H124.474V377.539C124.474 379.196 123.131 380.539 121.474 380.539H113.935C112.279 380.539 110.935 379.196 110.935 377.539V373.77Z" fill="#40B3D1"/>
<rect x="112.063" y="368.128" width="11.2821" height="11.2821" rx="3" fill="#40B3D1"/>
<path fill-rule="evenodd" clip-rule="evenodd" d="M143.5 373.77H141.987C140.33 373.77 138.987 375.113 138.987 376.77V387.693C138.987 389.349 140.33 390.693 141.987 390.693H158.551C160.208 390.693 161.551 389.349 161.551 387.693V376.77C161.551 375.113 160.208 373.77 158.551 373.77H157.039V377.539C157.039 379.196 155.695 380.539 154.039 380.539H146.5C144.843 380.539 143.5 379.196 143.5 377.539V373.77Z" fill="#40B3D1"/>
<rect x="144.628" y="368.128" width="11.2821" height="11.2821" rx="3" fill="#40B3D1"/>
<path fill-rule="evenodd" clip-rule="evenodd" d="M176.064 373.77H174.551C172.894 373.77 171.551 375.113 171.551 376.77V387.693C171.551 389.349 172.894 390.693 174.551 390.693H191.115C192.772 390.693 194.115 389.349 194.115 387.693V376.77C194.115 375.113 192.772 373.77 191.115 373.77H189.602V377.539C189.602 379.196 188.259 380.539 186.602 380.539H179.064C177.407 380.539 176.064 379.196 176.064 377.539V373.77Z" fill="#40B3D1"/>
<rect x="177.192" y="368.128" width="11.2821" height="11.2821" rx="3" fill="#40B3D1"/>
<path fill-rule="evenodd" clip-rule="evenodd" d="M208.628 373.77H207.115C205.458 373.77 204.115 375.113 204.115 376.77V387.693C204.115 389.349 205.458 390.693 207.115 390.693H223.679C225.336 390.693 226.679 389.349 226.679 387.693V376.77C226.679 375.113 225.336 373.77 223.679 373.77H222.166V377.539C222.166 379.196 220.823 380.539 219.166 380.539H211.628C209.971 380.539 208.628 379.196 208.628 377.539V373.77Z" fill="#40B3D1"/>
<rect x="209.756" y="368.128" width="11.2821" height="11.2821" rx="3" fill="#40B3D1"/>
<path fill-rule="evenodd" clip-rule="evenodd" d="M110.935 406.333H109.423C107.766 406.333 106.423 407.677 106.423 409.333V420.257C106.423 421.913 107.766 423.257 109.423 423.257H125.987C127.644 423.257 128.987 421.913 128.987 420.257V409.333C128.987 407.677 127.644 406.333 125.987 406.333H124.474V410.103C124.474 411.76 123.131 413.103 121.474 413.103H113.935C112.279 413.103 110.935 411.76 110.935 410.103V406.333Z" fill="#40B3D1"/>
<rect x="112.063" y="400.692" width="11.2821" height="11.2821" rx="3" fill="#40B3D1"/>
<path fill-rule="evenodd" clip-rule="evenodd" d="M143.5 406.333H141.987C140.33 406.333 138.987 407.677 138.987 409.333V420.257C138.987 421.913 140.33 423.257 141.987 423.257H158.551C160.208 423.257 161.551 421.913 161.551 420.257V409.333C161.551 407.677 160.208 406.333 158.551 406.333H157.039V410.103C157.039 411.76 155.695 413.103 154.039 413.103H146.5C144.843 413.103 143.5 411.76 143.5 410.103V406.333Z" fill="#40B3D1"/>
<rect x="144.628" y="400.692" width="11.2821" height="11.2821" rx="3" fill="#40B3D1"/>
<path fill-rule="evenodd" clip-rule="evenodd" d="M176.064 406.333H174.551C172.894 406.333 171.551 407.677 171.551 409.333V420.257C171.551 421.913 172.894 423.257 174.551 423.257H191.115C192.772 423.257 194.115 421.913 194.115 420.257V409.333C194.115 407.677 192.772 406.333 191.115 406.333H189.602V410.103C189.602 411.76 188.259 413.103 186.602 413.103H179.064C177.407 413.103 176.064 411.76 176.064 410.103V406.333Z" fill="#40B3D1"/>
<rect x="177.192" y="400.692" width="11.2821" height="11.2821" rx="3" fill="#40B3D1"/>
<path fill-rule="evenodd" clip-rule="evenodd" d="M208.628 406.333H207.115C205.458 406.333 204.115 407.677 204.115 409.333V420.257C204.115 421.913 205.458 423.257 207.115 423.257H223.679C225.336 423.257 226.679 421.913 226.679 420.257V409.333C226.679 407.677 225.336 406.333 223.679 406.333H222.166V410.103C222.166 411.76 220.823 413.103 219.166 413.103H211.628C209.971 413.103 208.628 411.76 208.628 410.103V406.333Z" fill="#40B3D1"/>
<rect x="209.756" y="400.692" width="11.2821" height="11.2821" rx="3" fill="#40B3D1"/>
<path fill-rule="evenodd" clip-rule="evenodd" d="M110.935 438.898H109.423C107.766 438.898 106.423 440.241 106.423 441.898V452.821C106.423 454.478 107.766 455.821 109.423 455.821H125.987C127.644 455.821 128.987 454.478 128.987 452.821V441.898C128.987 440.241 127.644 438.898 125.987 438.898H124.474V442.667C124.474 444.324 123.131 445.667 121.474 445.667H113.935C112.279 445.667 110.935 444.324 110.935 442.667V438.898Z" fill="#40B3D1"/>
<rect x="112.063" y="433.257" width="11.2821" height="11.2821" rx="3" fill="#40B3D1"/>
<path fill-rule="evenodd" clip-rule="evenodd" d="M143.5 438.898H141.987C140.33 438.898 138.987 440.241 138.987 441.898V452.821C138.987 454.478 140.33 455.821 141.987 455.821H158.551C160.208 455.821 161.551 454.478 161.551 452.821V441.898C161.551 440.241 160.208 438.898 158.551 438.898H157.039V442.667C157.039 444.324 155.695 445.667 154.039 445.667H146.5C144.843 445.667 143.5 444.324 143.5 442.667V438.898Z" fill="#40B3D1"/>
<rect x="144.628" y="433.257" width="11.2821" height="11.2821" rx="3" fill="#40B3D1"/>
<path fill-rule="evenodd" clip-rule="evenodd" d="M176.064 438.898H174.551C172.894 438.898 171.551 440.241 171.551 441.898V452.821C171.551 454.478 172.894 455.821 174.551 455.821H191.115C192.772 455.821 194.115 454.478 194.115 452.821V441.898C194.115 440.241 192.772 438.898 191.115 438.898H189.602V442.667C189.602 444.324 188.259 445.667 186.602 445.667H179.064C177.407 445.667 176.064 444.324 176.064 442.667V438.898Z" fill="#40B3D1"/>
<rect x="177.192" y="433.257" width="11.2821" height="11.2821" rx="3" fill="#40B3D1"/>
<path fill-rule="evenodd" clip-rule="evenodd" d="M208.628 438.898H207.115C205.458 438.898 204.115 440.241 204.115 441.898V452.821C204.115 454.478 205.458 455.821 207.115 455.821H223.679C225.336 455.821 226.679 454.478 226.679 452.821V441.898C226.679 440.241 225.336 438.898 223.679 438.898H222.166V442.667C222.166 444.324 220.823 445.667 219.166 445.667H211.628C209.971 445.667 208.628 444.324 208.628 442.667V438.898Z" fill="#40B3D1"/>
<rect x="209.756" y="433.257" width="11.2821" height="11.2821" rx="3" fill="#40B3D1"/>
<path fill-rule="evenodd" clip-rule="evenodd" d="M253.193 373.77H251.68C250.023 373.77 248.68 375.113 248.68 376.77V387.693C248.68 389.349 250.023 390.693 251.68 390.693H268.244C269.901 390.693 271.244 389.349 271.244 387.693V376.77C271.244 375.113 269.901 373.77 268.244 373.77H266.731V377.539C266.731 379.196 265.388 380.539 263.731 380.539H256.193C254.536 380.539 253.193 379.196 253.193 377.539V373.77Z" fill="#40B3D1"/>
<rect x="254.32" y="368.128" width="11.2821" height="11.2821" rx="3" fill="#40B3D1"/>
<path fill-rule="evenodd" clip-rule="evenodd" d="M285.757 373.77H284.244C282.587 373.77 281.244 375.113 281.244 376.77V387.693C281.244 389.349 282.587 390.693 284.244 390.693H300.808C302.465 390.693 303.808 389.349 303.808 387.693V376.77C303.808 375.113 302.465 373.77 300.808 373.77H299.296V377.539C299.296 379.196 297.952 380.539 296.296 380.539H288.757C287.1 380.539 285.757 379.196 285.757 377.539V373.77Z" fill="#40B3D1"/>
<rect x="286.886" y="368.128" width="11.2821" height="11.2821" rx="3" fill="#40B3D1"/>
<path fill-rule="evenodd" clip-rule="evenodd" d="M318.32 373.77H316.808C315.151 373.77 313.808 375.113 313.808 376.77V387.693C313.808 389.349 315.151 390.693 316.808 390.693H333.372C335.029 390.693 336.372 389.349 336.372 387.693V376.77C336.372 375.113 335.029 373.77 333.372 373.77H331.859V377.539C331.859 379.196 330.516 380.539 328.859 380.539H321.32C319.663 380.539 318.32 379.196 318.32 377.539V373.77Z" fill="#40B3D1"/>
<rect x="319.448" y="368.128" width="11.2821" height="11.2821" rx="3" fill="#40B3D1"/>
<path fill-rule="evenodd" clip-rule="evenodd" d="M350.885 373.77H349.372C347.715 373.77 346.372 375.113 346.372 376.77V387.693C346.372 389.349 347.715 390.693 349.372 390.693H365.936C367.593 390.693 368.936 389.349 368.936 387.693V376.77C368.936 375.113 367.593 373.77 365.936 373.77H364.423V377.539C364.423 379.196 363.08 380.539 361.423 380.539H353.885C352.228 380.539 350.885 379.196 350.885 377.539V373.77Z" fill="#40B3D1"/>
<rect x="352.013" y="368.128" width="11.2821" height="11.2821" rx="3" fill="#40B3D1"/>
<path fill-rule="evenodd" clip-rule="evenodd" d="M383.449 373.77H381.937C380.28 373.77 378.937 375.113 378.937 376.77V387.693C378.937 389.349 380.28 390.693 381.937 390.693H398.501C400.157 390.693 401.501 389.349 401.501 387.693V376.77C401.501 375.113 400.157 373.77 398.501 373.77H396.988V377.539C396.988 379.196 395.645 380.539 393.988 380.539H386.449C384.793 380.539 383.449 379.196 383.449 377.539V373.77Z" fill="#40B3D1"/>
<rect x="384.578" y="368.128" width="11.2821" height="11.2821" rx="3" fill="#40B3D1"/>
<path fill-rule="evenodd" clip-rule="evenodd" d="M416.013 373.77H414.5C412.843 373.77 411.5 375.113 411.5 376.77V387.693C411.5 389.349 412.843 390.693 414.5 390.693H431.064C432.721 390.693 434.064 389.349 434.064 387.693V376.77C434.064 375.113 432.721 373.77 431.064 373.77H429.551V377.539C429.551 379.196 428.208 380.539 426.551 380.539H419.013C417.356 380.539 416.013 379.196 416.013 377.539V373.77Z" fill="#40B3D1"/>
<rect x="417.141" y="368.128" width="11.2821" height="11.2821" rx="3" fill="#40B3D1"/>
<path fill-rule="evenodd" clip-rule="evenodd" d="M448.577 373.77H447.064C445.408 373.77 444.064 375.113 444.064 376.77V387.693C444.064 389.349 445.408 390.693 447.064 390.693H463.629C465.285 390.693 466.629 389.349 466.629 387.693V376.77C466.629 375.113 465.285 373.77 463.629 373.77H462.116V377.539C462.116 379.196 460.772 380.539 459.116 380.539H451.577C449.92 380.539 448.577 379.196 448.577 377.539V373.77Z" fill="#40B3D1"/>
<rect x="449.705" y="368.128" width="11.2821" height="11.2821" rx="3" fill="#40B3D1"/>
<path fill-rule="evenodd" clip-rule="evenodd" d="M481.141 373.77H479.628C477.971 373.77 476.628 375.113 476.628 376.77V387.693C476.628 389.349 477.971 390.693 479.628 390.693H496.192C497.849 390.693 499.192 389.349 499.192 387.693V376.77C499.192 375.113 497.849 373.77 496.192 373.77H494.679V377.539C494.679 379.196 493.336 380.539 491.679 380.539H484.141C482.484 380.539 481.141 379.196 481.141 377.539V373.77Z" fill="#40B3D1"/>
<rect x="482.269" y="368.128" width="11.2821" height="11.2821" rx="3" fill="#40B3D1"/>
<path fill-rule="evenodd" clip-rule="evenodd" d="M513.705 373.77H512.192C510.536 373.77 509.192 375.113 509.192 376.77V387.693C509.192 389.349 510.536 390.693 512.192 390.693H528.756C530.413 390.693 531.756 389.349 531.756 387.693V376.77C531.756 375.113 530.413 373.77 528.756 373.77H527.244V377.539C527.244 379.196 525.901 380.539 524.244 380.539H516.705C515.048 380.539 513.705 379.196 513.705 377.539V373.77Z" fill="#40B3D1"/>
<rect x="514.834" y="368.128" width="11.2821" height="11.2821" rx="3" fill="#40B3D1"/>
<path fill-rule="evenodd" clip-rule="evenodd" d="M546.269 373.77H544.757C543.1 373.77 541.757 375.113 541.757 376.77V387.693C541.757 389.349 543.1 390.693 544.757 390.693H561.321C562.978 390.693 564.321 389.349 564.321 387.693V376.77C564.321 375.113 562.978 373.77 561.321 373.77H559.808V377.539C559.808 379.196 558.465 380.539 556.808 380.539H549.269C547.613 380.539 546.269 379.196 546.269 377.539V373.77Z" fill="#40B3D1"/>
<rect x="547.397" y="368.128" width="11.2821" height="11.2821" rx="3" fill="#40B3D1"/>
<path fill-rule="evenodd" clip-rule="evenodd" d="M253.193 406.333H251.68C250.023 406.333 248.68 407.677 248.68 409.333V420.257C248.68 421.913 250.023 423.257 251.68 423.257H268.244C269.901 423.257 271.244 421.913 271.244 420.257V409.333C271.244 407.677 269.901 406.333 268.244 406.333H266.731V410.103C266.731 411.76 265.388 413.103 263.731 413.103H256.193C254.536 413.103 253.193 411.76 253.193 410.103V406.333Z" fill="#40B3D1"/>
<rect x="254.32" y="400.692" width="11.2821" height="11.2821" rx="3" fill="#40B3D1"/>
<path fill-rule="evenodd" clip-rule="evenodd" d="M285.757 406.333H284.244C282.587 406.333 281.244 407.677 281.244 409.333V420.257C281.244 421.913 282.587 423.257 284.244 423.257H300.808C302.465 423.257 303.808 421.913 303.808 420.257V409.333C303.808 407.677 302.465 406.333 300.808 406.333H299.296V410.103C299.296 411.76 297.952 413.103 296.296 413.103H288.757C287.1 413.103 285.757 411.76 285.757 410.103V406.333Z" fill="#40B3D1"/>
<rect x="286.886" y="400.692" width="11.2821" height="11.2821" rx="3" fill="#40B3D1"/>
<path fill-rule="evenodd" clip-rule="evenodd" d="M318.32 406.333H316.808C315.151 406.333 313.808 407.677 313.808 409.333V420.257C313.808 421.913 315.151 423.257 316.808 423.257H333.372C335.029 423.257 336.372 421.913 336.372 420.257V409.333C336.372 407.677 335.029 406.333 333.372 406.333H331.859V410.103C331.859 411.76 330.516 413.103 328.859 413.103H321.32C319.663 413.103 318.32 411.76 318.32 410.103V406.333Z" fill="#40B3D1"/>
<rect x="319.448" y="400.692" width="11.2821" height="11.2821" rx="3" fill="#40B3D1"/>
<path fill-rule="evenodd" clip-rule="evenodd" d="M350.885 406.333H349.372C347.715 406.333 346.372 407.677 346.372 409.333V420.257C346.372 421.913 347.715 423.257 349.372 423.257H365.936C367.593 423.257 368.936 421.913 368.936 420.257V409.333C368.936 407.677 367.593 406.333 365.936 406.333H364.423V410.103C364.423 411.76 363.08 413.103 361.423 413.103H353.885C352.228 413.103 350.885 411.76 350.885 410.103V406.333Z" fill="#40B3D1"/>
<rect x="352.013" y="400.692" width="11.2821" height="11.2821" rx="3" fill="#40B3D1"/>
<path fill-rule="evenodd" clip-rule="evenodd" d="M383.449 406.333H381.937C380.28 406.333 378.937 407.677 378.937 409.333V420.257C378.937 421.913 380.28 423.257 381.937 423.257H398.501C400.157 423.257 401.501 421.913 401.501 420.257V409.333C401.501 407.677 400.157 406.333 398.501 406.333H396.988V410.103C396.988 411.76 395.645 413.103 393.988 413.103H386.449C384.793 413.103 383.449 411.76 383.449 410.103V406.333Z" fill="#40B3D1"/>
<rect x="384.578" y="400.692" width="11.2821" height="11.2821" rx="3" fill="#40B3D1"/>
<path fill-rule="evenodd" clip-rule="evenodd" d="M416.013 406.333H414.5C412.843 406.333 411.5 407.677 411.5 409.333V420.257C411.5 421.913 412.843 423.257 414.5 423.257H431.064C432.721 423.257 434.064 421.913 434.064 420.257V409.333C434.064 407.677 432.721 406.333 431.064 406.333H429.551V410.103C429.551 411.76 428.208 413.103 426.551 413.103H419.013C417.356 413.103 416.013 411.76 416.013 410.103V406.333Z" fill="#40B3D1"/>
<rect x="417.141" y="400.692" width="11.2821" height="11.2821" rx="3" fill="#40B3D1"/>
<path fill-rule="evenodd" clip-rule="evenodd" d="M448.577 406.333H447.064C445.408 406.333 444.064 407.677 444.064 409.333V420.257C444.064 421.913 445.408 423.257 447.064 423.257H463.629C465.285 423.257 466.629 421.913 466.629 420.257V409.333C466.629 407.677 465.285 406.333 463.629 406.333H462.116V410.103C462.116 411.76 460.772 413.103 459.116 413.103H451.577C449.92 413.103 448.577 411.76 448.577 410.103V406.333Z" fill="#40B3D1"/>
<rect x="449.705" y="400.692" width="11.2821" height="11.2821" rx="3" fill="#40B3D1"/>
<path fill-rule="evenodd" clip-rule="evenodd" d="M481.141 406.333H479.628C477.971 406.333 476.628 407.677 476.628 409.333V420.257C476.628 421.913 477.971 423.257 479.628 423.257H496.192C497.849 423.257 499.192 421.913 499.192 420.257V409.333C499.192 407.677 497.849 406.333 496.192 406.333H494.679V410.103C494.679 411.76 493.336 413.103 491.679 413.103H484.141C482.484 413.103 481.141 411.76 481.141 410.103V406.333Z" fill="#40B3D1"/>
<rect x="482.269" y="400.692" width="11.2821" height="11.2821" rx="3" fill="#40B3D1"/>
<path fill-rule="evenodd" clip-rule="evenodd" d="M513.705 406.333H512.192C510.536 406.333 509.192 407.677 509.192 409.333V420.257C509.192 421.913 510.536 423.257 512.192 423.257H528.756C530.413 423.257 531.756 421.913 531.756 420.257V409.333C531.756 407.677 530.413 406.333 528.756 406.333H527.244V410.103C527.244 411.76 525.901 413.103 524.244 413.103H516.705C515.048 413.103 513.705 411.76 513.705 410.103V406.333Z" fill="#40B3D1"/>
<rect x="514.834" y="400.692" width="11.2821" height="11.2821" rx="3" fill="#40B3D1"/>
<path fill-rule="evenodd" clip-rule="evenodd" d="M546.269 406.333H544.757C543.1 406.333 541.757 407.677 541.757 409.333V420.257C541.757 421.913 543.1 423.257 544.757 423.257H561.321C562.978 423.257 564.321 421.913 564.321 420.257V409.333C564.321 407.677 562.978 406.333 561.321 406.333H559.808V410.103C559.808 411.76 558.465 413.103 556.808 413.103H549.269C547.613 413.103 546.269 411.76 546.269 410.103V406.333Z" fill="#40B3D1"/>
<rect x="547.397" y="400.692" width="11.2821" height="11.2821" rx="3" fill="#40B3D1"/>
<path fill-rule="evenodd" clip-rule="evenodd" d="M253.193 438.898H251.68C250.023 438.898 248.68 440.241 248.68 441.898V452.821C248.68 454.478 250.023 455.821 251.68 455.821H268.244C269.901 455.821 271.244 454.478 271.244 452.821V441.898C271.244 440.241 269.901 438.898 268.244 438.898H266.731V442.667C266.731 444.324 265.388 445.667 263.731 445.667H256.193C254.536 445.667 253.193 444.324 253.193 442.667V438.898Z" fill="#40B3D1"/>
<rect x="254.32" y="433.257" width="11.2821" height="11.2821" rx="3" fill="#40B3D1"/>
<path fill-rule="evenodd" clip-rule="evenodd" d="M285.757 438.898H284.244C282.587 438.898 281.244 440.241 281.244 441.898V452.821C281.244 454.478 282.587 455.821 284.244 455.821H300.808C302.465 455.821 303.808 454.478 303.808 452.821V441.898C303.808 440.241 302.465 438.898 300.808 438.898H299.296V442.667C299.296 444.324 297.952 445.667 296.296 445.667H288.757C287.1 445.667 285.757 444.324 285.757 442.667V438.898Z" fill="#40B3D1"/>
<rect x="286.886" y="433.257" width="11.2821" height="11.2821" rx="3" fill="#40B3D1"/>
<path fill-rule="evenodd" clip-rule="evenodd" d="M318.32 438.898H316.808C315.151 438.898 313.808 440.241 313.808 441.898V452.821C313.808 454.478 315.151 455.821 316.808 455.821H333.372C335.029 455.821 336.372 454.478 336.372 452.821V441.898C336.372 440.241 335.029 438.898 333.372 438.898H331.859V442.667C331.859 444.324 330.516 445.667 328.859 445.667H321.32C319.663 445.667 318.32 444.324 318.32 442.667V438.898Z" fill="#40B3D1"/>
<rect x="319.448" y="433.257" width="11.2821" height="11.2821" rx="3" fill="#40B3D1"/>
<path fill-rule="evenodd" clip-rule="evenodd" d="M350.885 438.898H349.372C347.715 438.898 346.372 440.241 346.372 441.898V452.821C346.372 454.478 347.715 455.821 349.372 455.821H365.936C367.593 455.821 368.936 454.478 368.936 452.821V441.898C368.936 440.241 367.593 438.898 365.936 438.898H364.423V442.667C364.423 444.324 363.08 445.667 361.423 445.667H353.885C352.228 445.667 350.885 444.324 350.885 442.667V438.898Z" fill="#40B3D1"/>
<rect x="352.013" y="433.257" width="11.2821" height="11.2821" rx="3" fill="#40B3D1"/>
<path fill-rule="evenodd" clip-rule="evenodd" d="M383.449 438.898H381.937C380.28 438.898 378.937 440.241 378.937 441.898V452.821C378.937 454.478 380.28 455.821 381.937 455.821H398.501C400.157 455.821 401.501 454.478 401.501 452.821V441.898C401.501 440.241 400.157 438.898 398.501 438.898H396.988V442.667C396.988 444.324 395.645 445.667 393.988 445.667H386.449C384.793 445.667 383.449 444.324 383.449 442.667V438.898Z" fill="#40B3D1"/>
<rect x="384.578" y="433.257" width="11.2821" height="11.2821" rx="3" fill="#40B3D1"/>
<path fill-rule="evenodd" clip-rule="evenodd" d="M416.013 438.898H414.5C412.843 438.898 411.5 440.241 411.5 441.898V452.821C411.5 454.478 412.843 455.821 414.5 455.821H431.064C432.721 455.821 434.064 454.478 434.064 452.821V441.898C434.064 440.241 432.721 438.898 431.064 438.898H429.551V442.667C429.551 444.324 428.208 445.667 426.551 445.667H419.013C417.356 445.667 416.013 444.324 416.013 442.667V438.898Z" fill="#40B3D1"/>
<rect x="417.141" y="433.257" width="11.2821" height="11.2821" rx="3" fill="#40B3D1"/>
<path fill-rule="evenodd" clip-rule="evenodd" d="M448.577 438.898H447.064C445.408 438.898 444.064 440.241 444.064 441.898V452.821C444.064 454.478 445.408 455.821 447.064 455.821H463.629C465.285 455.821 466.629 454.478 466.629 452.821V441.898C466.629 440.241 465.285 438.898 463.629 438.898H462.116V442.667C462.116 444.324 460.772 445.667 459.116 445.667H451.577C449.92 445.667 448.577 444.324 448.577 442.667V438.898Z" fill="#40B3D1"/>
<rect x="449.705" y="433.257" width="11.2821" height="11.2821" rx="3" fill="#40B3D1"/>
<path fill-rule="evenodd" clip-rule="evenodd" d="M481.141 438.898H479.628C477.971 438.898 476.628 440.241 476.628 441.898V452.821C476.628 454.478 477.971 455.821 479.628 455.821H496.192C497.849 455.821 499.192 454.478 499.192 452.821V441.898C499.192 440.241 497.849 438.898 496.192 438.898H494.679V442.667C494.679 444.324 493.336 445.667 491.679 445.667H484.141C482.484 445.667 481.141 444.324 481.141 442.667V438.898Z" fill="#40B3D1"/>
<rect x="482.269" y="433.257" width="11.2821" height="11.2821" rx="3" fill="#40B3D1"/>
<path fill-rule="evenodd" clip-rule="evenodd" d="M513.705 438.898H512.192C510.536 438.898 509.192 440.241 509.192 441.898V452.821C509.192 454.478 510.536 455.821 512.192 455.821H528.756C530.413 455.821 531.756 454.478 531.756 452.821V441.898C531.756 440.241 530.413 438.898 528.756 438.898H527.244V442.667C527.244 444.324 525.901 445.667 524.244 445.667H516.705C515.048 445.667 513.705 444.324 513.705 442.667V438.898Z" fill="#40B3D1"/>
<rect x="514.834" y="433.257" width="11.2821" height="11.2821" rx="3" fill="#40B3D1"/>
<path fill-rule="evenodd" clip-rule="evenodd" d="M546.269 438.898H544.757C543.1 438.898 541.757 440.241 541.757 441.898V452.821C541.757 454.478 543.1 455.821 544.757 455.821H561.321C562.978 455.821 564.321 454.478 564.321 452.821V441.898C564.321 440.241 562.978 438.898 561.321 438.898H559.808V442.667C559.808 444.324 558.465 445.667 556.808 445.667H549.269C547.613 445.667 546.269 444.324 546.269 442.667V438.898Z" fill="#40B3D1"/>
<rect x="547.397" y="433.257" width="11.2821" height="11.2821" rx="3" fill="#40B3D1"/>
<path fill-rule="evenodd" clip-rule="evenodd" d="M590.833 373.77H589.32C587.663 373.77 586.32 375.113 586.32 376.77V387.693C586.32 389.349 587.663 390.693 589.32 390.693H605.884C607.541 390.693 608.884 389.349 608.884 387.693V376.77C608.884 375.113 607.541 373.77 605.884 373.77H604.372V377.539C604.372 379.196 603.028 380.539 601.372 380.539H593.833C592.176 380.539 590.833 379.196 590.833 377.539V373.77Z" fill="#40B3D1"/>
<rect x="591.961" y="368.128" width="11.2821" height="11.2821" rx="3" fill="#40B3D1"/>
<path fill-rule="evenodd" clip-rule="evenodd" d="M623.398 373.77H621.885C620.228 373.77 618.885 375.113 618.885 376.77V387.693C618.885 389.349 620.228 390.693 621.885 390.693H638.449C640.106 390.693 641.449 389.349 641.449 387.693V376.77C641.449 375.113 640.106 373.77 638.449 373.77H636.936V377.539C636.936 379.196 635.593 380.539 633.936 380.539H626.398C624.741 380.539 623.398 379.196 623.398 377.539V373.77Z" fill="#40B3D1"/>
<rect x="624.526" y="368.128" width="11.2821" height="11.2821" rx="3" fill="#40B3D1"/>
<path fill-rule="evenodd" clip-rule="evenodd" d="M655.961 373.77H654.448C652.791 373.77 651.448 375.113 651.448 376.77V387.693C651.448 389.349 652.791 390.693 654.448 390.693H671.012C672.669 390.693 674.012 389.349 674.012 387.693V376.77C674.012 375.113 672.669 373.77 671.012 373.77H669.499V377.539C669.499 379.196 668.156 380.539 666.499 380.539H658.961C657.304 380.539 655.961 379.196 655.961 377.539V373.77Z" fill="#40B3D1"/>
<rect x="657.089" y="368.128" width="11.2821" height="11.2821" rx="3" fill="#40B3D1"/>
<path fill-rule="evenodd" clip-rule="evenodd" d="M688.526 373.77H687.013C685.356 373.77 684.013 375.113 684.013 376.77V387.693C684.013 389.349 685.356 390.693 687.013 390.693H703.577C705.234 390.693 706.577 389.349 706.577 387.693V376.77C706.577 375.113 705.234 373.77 703.577 373.77H702.064V377.539C702.064 379.196 700.721 380.539 699.064 380.539H691.526C689.869 380.539 688.526 379.196 688.526 377.539V373.77Z" fill="#40B3D1"/>
<rect x="689.653" y="368.128" width="11.2821" height="11.2821" rx="3" fill="#40B3D1"/>
<path fill-rule="evenodd" clip-rule="evenodd" d="M590.833 406.333H589.32C587.663 406.333 586.32 407.677 586.32 409.333V420.257C586.32 421.913 587.663 423.257 589.32 423.257H605.884C607.541 423.257 608.884 421.913 608.884 420.257V409.333C608.884 407.677 607.541 406.333 605.884 406.333H604.372V410.103C604.372 411.76 603.028 413.103 601.372 413.103H593.833C592.176 413.103 590.833 411.76 590.833 410.103V406.333Z" fill="#40B3D1"/>
<rect x="591.961" y="400.692" width="11.2821" height="11.2821" rx="3" fill="#40B3D1"/>
<path fill-rule="evenodd" clip-rule="evenodd" d="M623.398 406.333H621.885C620.228 406.333 618.885 407.677 618.885 409.333V420.257C618.885 421.913 620.228 423.257 621.885 423.257H638.449C640.106 423.257 641.449 421.913 641.449 420.257V409.333C641.449 407.677 640.106 406.333 638.449 406.333H636.936V410.103C636.936 411.76 635.593 413.103 633.936 413.103H626.398C624.741 413.103 623.398 411.76 623.398 410.103V406.333Z" fill="#40B3D1"/>
<rect x="624.526" y="400.692" width="11.2821" height="11.2821" rx="3" fill="#40B3D1"/>
<path fill-rule="evenodd" clip-rule="evenodd" d="M655.961 406.333H654.448C652.791 406.333 651.448 407.677 651.448 409.333V420.257C651.448 421.913 652.791 423.257 654.448 423.257H671.012C672.669 423.257 674.012 421.913 674.012 420.257V409.333C674.012 407.677 672.669 406.333 671.012 406.333H669.499V410.103C669.499 411.76 668.156 413.103 666.499 413.103H658.961C657.304 413.103 655.961 411.76 655.961 410.103V406.333Z" fill="#40B3D1"/>
<rect x="657.089" y="400.692" width="11.2821" height="11.2821" rx="3" fill="#40B3D1"/>
<path fill-rule="evenodd" clip-rule="evenodd" d="M688.526 406.333H687.013C685.356 406.333 684.013 407.677 684.013 409.333V420.257C684.013 421.913 685.356 423.257 687.013 423.257H703.577C705.234 423.257 706.577 421.913 706.577 420.257V409.333C706.577 407.677 705.234 406.333 703.577 406.333H702.064V410.103C702.064 411.76 700.721 413.103 699.064 413.103H691.526C689.869 413.103 688.526 411.76 688.526 410.103V406.333Z" fill="#40B3D1"/>
<rect x="689.653" y="400.692" width="11.2821" height="11.2821" rx="3" fill="#40B3D1"/>
<path fill-rule="evenodd" clip-rule="evenodd" d="M590.833 438.898H589.32C587.663 438.898 586.32 440.241 586.32 441.898V452.821C586.32 454.478 587.663 455.821 589.32 455.821H605.884C607.541 455.821 608.884 454.478 608.884 452.821V441.898C608.884 440.241 607.541 438.898 605.884 438.898H604.372V442.667C604.372 444.324 603.028 445.667 601.372 445.667H593.833C592.176 445.667 590.833 444.324 590.833 442.667V438.898Z" fill="#40B3D1"/>
<rect x="591.961" y="433.257" width="11.2821" height="11.2821" rx="3" fill="#40B3D1"/>
<path fill-rule="evenodd" clip-rule="evenodd" d="M623.398 438.898H621.885C620.228 438.898 618.885 440.241 618.885 441.898V452.821C618.885 454.478 620.228 455.821 621.885 455.821H638.449C640.106 455.821 641.449 454.478 641.449 452.821V441.898C641.449 440.241 640.106 438.898 638.449 438.898H636.936V442.667C636.936 444.324 635.593 445.667 633.936 445.667H626.398C624.741 445.667 623.398 444.324 623.398 442.667V438.898Z" fill="#40B3D1"/>
<rect x="624.526" y="433.257" width="11.2821" height="11.2821" rx="3" fill="#40B3D1"/>
<path fill-rule="evenodd" clip-rule="evenodd" d="M655.961 438.898H654.448C652.791 438.898 651.448 440.241 651.448 441.898V452.821C651.448 454.478 652.791 455.821 654.448 455.821H671.012C672.669 455.821 674.012 454.478 674.012 452.821V441.898C674.012 440.241 672.669 438.898 671.012 438.898H669.499V442.667C669.499 444.324 668.156 445.667 666.499 445.667H658.961C657.304 445.667 655.961 444.324 655.961 442.667V438.898Z" fill="#40B3D1"/>
<rect x="657.089" y="433.257" width="11.2821" height="11.2821" rx="3" fill="#40B3D1"/>
<path fill-rule="evenodd" clip-rule="evenodd" d="M688.526 438.898H687.013C685.356 438.898 684.013 440.241 684.013 441.898V452.821C684.013 454.478 685.356 455.821 687.013 455.821H703.577C705.234 455.821 706.577 454.478 706.577 452.821V441.898C706.577 440.241 705.234 438.898 703.577 438.898H702.064V442.667C702.064 444.324 700.721 445.667 699.064 445.667H691.526C689.869 445.667 688.526 444.324 688.526 442.667V438.898Z" fill="#40B3D1"/>
<rect x="689.653" y="433.257" width="11.2821" height="11.2821" rx="3" fill="#40B3D1"/>
<defs>
<filter id="filter0_d_563_19624" x="74.0029" y="12.5" width="664.954" height="83.0005" filterUnits="userSpaceOnUse" color-interpolation-filters="sRGB">
<feFlood flood-opacity="0" result="BackgroundImageFix"/>
<feColorMatrix in="SourceAlpha" type="matrix" values="0 0 0 0 0 0 0 0 0 0 0 0 0 0 0 0 0 0 127 0" result="hardAlpha"/>
<feOffset dy="4"/>
<feGaussianBlur stdDeviation="6.5"/>
<feComposite in2="hardAlpha" operator="out"/>
<feColorMatrix type="matrix" values="0 0 0 0 0 0 0 0 0 0.779167 0 0 0 0 0.732417 0 0 0 0.82 0"/>
<feBlend mode="normal" in2="BackgroundImageFix" result="effect1_dropShadow_563_19624"/>
<feBlend mode="normal" in="SourceGraphic" in2="effect1_dropShadow_563_19624" result="shape"/>
</filter>
</defs>
</svg>
